999
dxflib 3.26.4.0
  0
SECTION
  2
HEADER
  9
$ACADVER
  1
AC1015
  9
$HANDSEED
  5
FFFF
  9
$DIMADEC
 70
0
  9
$DIMASZ
 40
2.5
  9
$DIMATFIT
 70
0
  9
$DIMAUNIT
 70
0
  9
$DIMAZIN
 70
2
  9
$DIMBLK
  1

  9
$DIMDEC
 70
4
  9
$DIMDLI
 40
5.0
  9
$DIMDSEP
 70
46
  9
$DIMEXE
 40
1.25
  9
$DIMEXO
 40
0.625
  9
$DIMGAP
 40
0.625
  9
$DIMLFAC
 40
1.0
  9
$DIMLUNIT
 70
2
  9
$DIMSCALE
 40
1.0
  9
$DIMTAD
 70
1
  9
$DIMTIH
 70
0
  9
$DIMTSZ
 40
0.0
  9
$DIMTXT
 40
2.5
  9
$DIMZIN
 70
8
  9
$DWGCODEPAGE
  3
ANSI_1252
  9
$INSUNITS
 70
4
  9
$LTSCALE
 40
1.0
  9
$MAXACTVP
 70
64
  9
$MEASUREMENT
 70
1
  9
$MIRRTEXT
 70
0
  9
$PDMODE
 70
0
  9
$PDSIZE
 40
0.0
  0
ENDSEC
  0
SECTION
  2
TABLES
  0
TABLE
  2
VPORT
  5
8
100
AcDbSymbolTable
 70
1
  0
VPORT
  5
30
100
AcDbSymbolTableRecord
100
AcDbViewportTableRecord
  2
*Active
 70
0
 10
0.0
 20
0.0
 11
1.0
 21
1.0
 12
286.3055555555554861
 22
148.5
 13
0.0
 23
0.0
 14
10.0
 24
10.0
 15
10.0
 25
10.0
 16
0.0
 26
0.0
 36
1.0
 17
0.0
 27
0.0
 37
0.0
 40
297.0
 41
1.92798353909465
 42
50.0
 43
0.0
 44
0.0
 50
0.0
 51
0.0
 71
0
 72
100
 73
1
 74
3
 75
1
 76
1
 77
0
 78
0
281
0
 65
1
110
0.0
120
0.0
130
0.0
111
1.0
121
0.0
131
0.0
112
0.0
122
1.0
132
0.0
 79
0
146
0.0
  0
ENDTAB
  0
TABLE
  2
LTYPE
  5
5
100
AcDbSymbolTable
 70
41
  0
LTYPE
  5
16
100
AcDbSymbolTableRecord
100
AcDbLinetypeTableRecord
  2
Continuous
 70
0
  3
Solid line
 72
65
 73
0
 40
0.0
  0
LTYPE
  5
31
100
AcDbSymbolTableRecord
100
AcDbLinetypeTableRecord
  2
ACAD_ISO05W100
 70
0
  3
ISO long-dash double-dot ____ .. ____ .. ____ . 
 72
65
 73
6
 40
33.0
 49
24.0
 74
0
 49
-3.0
 74
0
 49
0.0
 74
0
 49
-3.0
 74
0
 49
0.0
 74
0
 49
-3.0
 74
0
  0
LTYPE
  5
32
100
AcDbSymbolTableRecord
100
AcDbLinetypeTableRecord
  2
HIDDENX2
 70
0
  3
Hidden (2x) ____ ____ ____ ____ ____ ____ ____ 
 72
65
 73
2
 40
19.0499999999999972
 49
12.6999999999999993
 74
0
 49
-6.3499999999999996
 74
0
  0
LTYPE
  5
33
100
AcDbSymbolTableRecord
100
AcDbLinetypeTableRecord
  2
ACAD_ISO14W100
 70
0
  3
ISO dash triple-dot __ . . . __ . . . __ . . . _
 72
65
 73
8
 40
24.0
 49
12.0
 74
0
 49
-3.0
 74
0
 49
0.0
 74
0
 49
-3.0
 74
0
 49
0.0
 74
0
 49
-3.0
 74
0
 49
0.0
 74
0
 49
-3.0
 74
0
  0
LTYPE
  5
34
100
AcDbSymbolTableRecord
100
AcDbLinetypeTableRecord
  2
DOT
 70
0
  3
Dot . . . . . . . . . . . . . . . . . . . . . . . .
 72
65
 73
2
 40
6.3499999999999996
 49
0.0
 74
0
 49
-6.3499999999999996
 74
0
  0
LTYPE
  5
35
100
AcDbSymbolTableRecord
100
AcDbLinetypeTableRecord
  2
ACAD_ISO02W100
 70
0
  3
ISO dash __ __ __ __ __ __ __ __ __ __ __ __ __
 72
65
 73
2
 40
15.0
 49
12.0
 74
0
 49
-3.0
 74
0
  0
LTYPE
  5
36
100
AcDbSymbolTableRecord
100
AcDbLinetypeTableRecord
  2
ACAD_ISO07W100
 70
0
  3
ISO dot . . . . . . . . . . . . . . . . . . . . 
 72
65
 73
2
 40
3.0
 49
0.0
 74
0
 49
-3.0
 74
0
  0
LTYPE
  5
37
100
AcDbSymbolTableRecord
100
AcDbLinetypeTableRecord
  2
DIVIDE
 70
0
  3
Divide ____ . . ____ . . ____ . . ____ . . ____
 72
65
 73
6
 40
31.75
 49
12.6999999999999993
 74
0
 49
-6.3499999999999996
 74
0
 49
0.0
 74
0
 49
-6.3499999999999996
 74
0
 49
0.0
 74
0
 49
-6.3499999999999996
 74
0
  0
LTYPE
  5
38
100
AcDbSymbolTableRecord
100
AcDbLinetypeTableRecord
  2
DASHDOTX2
 70
0
  3
Dash dot (2x) ____  .  ____  .  ____  .  ___
 72
65
 73
4
 40
50.7999999999999972
 49
25.3999999999999986
 74
0
 49
-12.6999999999999993
 74
0
 49
0.0
 74
0
 49
-12.6999999999999993
 74
0
  0
LTYPE
  5
39
100
AcDbSymbolTableRecord
100
AcDbLinetypeTableRecord
  2
DOTX2
 70
0
  3
Dot (2x) .  .  .  .  .  .  .  .  .  .  .  .  .  .
 72
65
 73
2
 40
12.6999999999999993
 49
0.0
 74
0
 49
-12.6999999999999993
 74
0
  0
LTYPE
  5
3A
100
AcDbSymbolTableRecord
100
AcDbLinetypeTableRecord
  2
ACAD_ISO11W100
 70
0
  3
ISO double-dash dot __ __ . __ __ . __ __ . __ _
 72
65
 73
6
 40
33.0
 49
12.0
 74
0
 49
-3.0
 74
0
 49
12.0
 74
0
 49
-3.0
 74
0
 49
0.0
 74
0
 49
-3.0
 74
0
  0
LTYPE
  5
3B
100
AcDbSymbolTableRecord
100
AcDbLinetypeTableRecord
  2
ACAD_ISO15W100
 70
0
  3
ISO double-dash triple-dot __ __ . . . __ __ . .
 72
65
 73
10
 40
39.0
 49
12.0
 74
0
 49
-3.0
 74
0
 49
12.0
 74
0
 49
-3.0
 74
0
 49
0.0
 74
0
 49
-3.0
 74
0
 49
0.0
 74
0
 49
-3.0
 74
0
 49
0.0
 74
0
 49
-3.0
 74
0
  0
LTYPE
  5
3C
100
AcDbSymbolTableRecord
100
AcDbLinetypeTableRecord
  2
CENTER2
 70
0
  3
Center (.5x) ___ _ ___ _ ___ _ ___ _ ___ _ ___
 72
65
 73
4
 40
28.5750000000000028
 49
19.0500000000000007
 74
0
 49
-3.1749999999999998
 74
0
 49
3.1749999999999998
 74
0
 49
-3.1749999999999998
 74
0
  0
LTYPE
  5
3D
100
AcDbSymbolTableRecord
100
AcDbLinetypeTableRecord
  2
DASHEDX2
 70
0
  3
Dashed (2x) ____  ____  ____  ____  ____  ___
 72
65
 73
2
 40
38.0999999999999943
 49
25.3999999999999986
 74
0
 49
-12.6999999999999993
 74
0
  0
LTYPE
  5
3E
100
AcDbSymbolTableRecord
100
AcDbLinetypeTableRecord
  2
ACAD_ISO12W100
 70
0
  3
ISO dash double-dot __ . . __ . . __ . . __ . . 
 72
65
 73
6
 40
21.0
 49
12.0
 74
0
 49
-3.0
 74
0
 49
0.0
 74
0
 49
-3.0
 74
0
 49
0.0
 74
0
 49
-3.0
 74
0
  0
LTYPE
  5
3F
100
AcDbSymbolTableRecord
100
AcDbLinetypeTableRecord
  2
ACAD_ISO13W100
 70
0
  3
ISO double-dash double-dot __ __ . . __ __ . . _
 72
65
 73
8
 40
36.0
 49
12.0
 74
0
 49
-3.0
 74
0
 49
12.0
 74
0
 49
-3.0
 74
0
 49
0.0
 74
0
 49
-3.0
 74
0
 49
0.0
 74
0
 49
-3.0
 74
0
  0
LTYPE
  5
40
100
AcDbSymbolTableRecord
100
AcDbLinetypeTableRecord
  2
DASHDOT2
 70
0
  3
Dash dot (.5x) _._._._._._._._._._._._._._._.
 72
65
 73
4
 40
12.6999999999999993
 49
6.3499999999999996
 74
0
 49
-3.1749999999999998
 74
0
 49
0.0
 74
0
 49
-3.1749999999999998
 74
0
  0
LTYPE
  5
41
100
AcDbSymbolTableRecord
100
AcDbLinetypeTableRecord
  2
BORDER2
 70
0
  3
Border (.5x) __.__.__.__.__.__.__.__.__.__.__.
 72
65
 73
6
 40
22.2249999999999979
 49
6.3499999999999996
 74
0
 49
-3.1749999999999998
 74
0
 49
6.3499999999999996
 74
0
 49
-3.1749999999999998
 74
0
 49
0.0
 74
0
 49
-3.1749999999999998
 74
0
  0
LTYPE
  5
42
100
AcDbSymbolTableRecord
100
AcDbLinetypeTableRecord
  2
DASHDOT
 70
0
  3
Dash dot __ . __ . __ . __ . __ . __ . __ . __
 72
65
 73
4
 40
25.3999999999999986
 49
12.6999999999999993
 74
0
 49
-6.3499999999999996
 74
0
 49
0.0
 74
0
 49
-6.3499999999999996
 74
0
  0
LTYPE
  5
43
100
AcDbSymbolTableRecord
100
AcDbLinetypeTableRecord
  2
PHANTOM
 70
0
  3
Phantom ______  __  __  ______  __  __  ______ 
 72
65
 73
6
 40
63.5000000000000071
 49
31.75
 74
0
 49
-6.3499999999999996
 74
0
 49
6.3499999999999996
 74
0
 49
-6.3499999999999996
 74
0
 49
6.3499999999999996
 74
0
 49
-6.3499999999999996
 74
0
  0
LTYPE
  5
44
100
AcDbSymbolTableRecord
100
AcDbLinetypeTableRecord
  2
ACAD_ISO06W100
 70
0
  3
ISO long-dash triple-dot ____ ... ____ ... ____
 72
65
 73
8
 40
36.0
 49
24.0
 74
0
 49
-3.0
 74
0
 49
0.0
 74
0
 49
-3.0
 74
0
 49
0.0
 74
0
 49
-3.0
 74
0
 49
0.0
 74
0
 49
-3.0
 74
0
  0
LTYPE
  5
45
100
AcDbSymbolTableRecord
100
AcDbLinetypeTableRecord
  2
ACAD_ISO10W100
 70
0
  3
ISO dash dot __ . __ . __ . __ . __ . __ . __ . 
 72
65
 73
4
 40
18.0
 49
12.0
 74
0
 49
-3.0
 74
0
 49
0.0
 74
0
 49
-3.0
 74
0
  0
LTYPE
  5
46
100
AcDbSymbolTableRecord
100
AcDbLinetypeTableRecord
  2
CENTER
 70
0
  3
Center ____ _ ____ _ ____ _ ____ _ ____ _ ____
 72
65
 73
4
 40
50.8000000000000043
 49
31.75
 74
0
 49
-6.3499999999999996
 74
0
 49
6.3499999999999996
 74
0
 49
-6.3499999999999996
 74
0
  0
LTYPE
  5
47
100
AcDbSymbolTableRecord
100
AcDbLinetypeTableRecord
  2
DIVIDE2
 70
0
  3
Divide (.5x) __..__..__..__..__..__..__..__.._
 72
65
 73
6
 40
15.875
 49
6.3499999999999996
 74
0
 49
-3.1749999999999998
 74
0
 49
0.0
 74
0
 49
-3.1749999999999998
 74
0
 49
0.0
 74
0
 49
-3.1749999999999998
 74
0
  0
LTYPE
  5
48
100
AcDbSymbolTableRecord
100
AcDbLinetypeTableRecord
  2
PHANTOMX2
 70
0
  3
Phantom (2x) ____________    ____    ____   _
 72
65
 73
6
 40
127.0000000000000142
 49
63.5
 74
0
 49
-12.6999999999999993
 74
0
 49
12.6999999999999993
 74
0
 49
-12.6999999999999993
 74
0
 49
12.6999999999999993
 74
0
 49
-12.6999999999999993
 74
0
  0
LTYPE
  5
49
100
AcDbSymbolTableRecord
100
AcDbLinetypeTableRecord
  2
HIDDEN2
 70
0
  3
Hidden (.5x) _ _ _ _ _ _ _ _ _ _ _ _ _ _ _ _ _ 
 72
65
 73
2
 40
4.7624999999999993
 49
3.1749999999999998
 74
0
 49
-1.5874999999999999
 74
0
  0
LTYPE
  5
14
100
AcDbSymbolTableRecord
100
AcDbLinetypeTableRecord
  2
BYBLOCK
 70
0
  3

 72
65
 73
0
 40
0.0
  0
LTYPE
  5
4A
100
AcDbSymbolTableRecord
100
AcDbLinetypeTableRecord
  2
ACAD_ISO09W100
 70
0
  3
ISO long-dash double-short-dash ____ __ __ ____
 72
65
 73
6
 40
45.0
 49
24.0
 74
0
 49
-3.0
 74
0
 49
6.0
 74
0
 49
-3.0
 74
0
 49
6.0
 74
0
 49
-3.0
 74
0
  0
LTYPE
  5
4B
100
AcDbSymbolTableRecord
100
AcDbLinetypeTableRecord
  2
DOT2
 70
0
  3
Dot (.5x) ........................................
 72
65
 73
2
 40
3.1749999999999998
 49
0.0
 74
0
 49
-3.1749999999999998
 74
0
  0
LTYPE
  5
4C
100
AcDbSymbolTableRecord
100
AcDbLinetypeTableRecord
  2
HIDDEN
 70
0
  3
Hidden __ __ __ __ __ __ __ __ __ __ __ __ __ __
 72
65
 73
2
 40
9.5249999999999986
 49
6.3499999999999996
 74
0
 49
-3.1749999999999998
 74
0
  0
LTYPE
  5
4D
100
AcDbSymbolTableRecord
100
AcDbLinetypeTableRecord
  2
PHANTOM2
 70
0
  3
Phantom (.5x) ___ _ _ ___ _ _ ___ _ _ ___ _ _
 72
65
 73
6
 40
31.7500000000000036
 49
15.875
 74
0
 49
-3.1749999999999998
 74
0
 49
3.1749999999999998
 74
0
 49
-3.1749999999999998
 74
0
 49
3.1749999999999998
 74
0
 49
-3.1749999999999998
 74
0
  0
LTYPE
  5
4E
100
AcDbSymbolTableRecord
100
AcDbLinetypeTableRecord
  2
BORDERX2
 70
0
  3
Border (2x) ____  ____  .  ____  ____  .  ___
 72
65
 73
6
 40
88.8999999999999915
 49
25.3999999999999986
 74
0
 49
-12.6999999999999993
 74
0
 49
25.3999999999999986
 74
0
 49
-12.6999999999999993
 74
0
 49
0.0
 74
0
 49
-12.6999999999999993
 74
0
  0
LTYPE
  5
4F
100
AcDbSymbolTableRecord
100
AcDbLinetypeTableRecord
  2
BORDER
 70
0
  3
Border __ __ . __ __ . __ __ . __ __ . __ __ .
 72
65
 73
6
 40
44.4499999999999957
 49
12.6999999999999993
 74
0
 49
-6.3499999999999996
 74
0
 49
12.6999999999999993
 74
0
 49
-6.3499999999999996
 74
0
 49
0.0
 74
0
 49
-6.3499999999999996
 74
0
  0
LTYPE
  5
15
100
AcDbSymbolTableRecord
100
AcDbLinetypeTableRecord
  2
BYLAYER
 70
0
  3

 72
65
 73
0
 40
0.0
  0
LTYPE
  5
50
100
AcDbSymbolTableRecord
100
AcDbLinetypeTableRecord
  2
ACAD_ISO03W100
 70
0
  3
ISO dash space __    __    __    __    __    __
 72
65
 73
2
 40
30.0
 49
12.0
 74
0
 49
-18.0
 74
0
  0
LTYPE
  5
51
100
AcDbSymbolTableRecord
100
AcDbLinetypeTableRecord
  2
ACAD_ISO08W100
 70
0
  3
ISO long-dash short-dash ____ __ ____ __ ____ _
 72
65
 73
4
 40
36.0
 49
24.0
 74
0
 49
-3.0
 74
0
 49
6.0
 74
0
 49
-3.0
 74
0
  0
LTYPE
  5
52
100
AcDbSymbolTableRecord
100
AcDbLinetypeTableRecord
  2
DIVIDEX2
 70
0
  3
Divide (2x) ________  .  .  ________  .  .  _
 72
65
 73
6
 40
63.5
 49
25.3999999999999986
 74
0
 49
-12.6999999999999993
 74
0
 49
0.0
 74
0
 49
-12.6999999999999993
 74
0
 49
0.0
 74
0
 49
-12.6999999999999993
 74
0
  0
LTYPE
  5
53
100
AcDbSymbolTableRecord
100
AcDbLinetypeTableRecord
  2
CENTERX2
 70
0
  3
Center (2x) ________  __  ________  __  _____
 72
65
 73
4
 40
101.6000000000000085
 49
63.5
 74
0
 49
-12.6999999999999993
 74
0
 49
12.6999999999999993
 74
0
 49
-12.6999999999999993
 74
0
  0
LTYPE
  5
54
100
AcDbSymbolTableRecord
100
AcDbLinetypeTableRecord
  2
DASHED2
 70
0
  3
Dashed (.5x) _ _ _ _ _ _ _ _ _ _ _ _ _ _ _ _ _ 
 72
65
 73
2
 40
9.5249999999999986
 49
6.3499999999999996
 74
0
 49
-3.1749999999999998
 74
0
  0
LTYPE
  5
55
100
AcDbSymbolTableRecord
100
AcDbLinetypeTableRecord
  2
ACAD_ISO04W100
 70
0
  3
ISO long-dash dot ____ . ____ . ____ . ____ . _
 72
65
 73
4
 40
30.0
 49
24.0
 74
0
 49
-3.0
 74
0
 49
0.0
 74
0
 49
-3.0
 74
0
  0
LTYPE
  5
56
100
AcDbSymbolTableRecord
100
AcDbLinetypeTableRecord
  2
DASHED
 70
0
  3
Dashed __ __ __ __ __ __ __ __ __ __ __ __ __ _
 72
65
 73
2
 40
19.0499999999999972
 49
12.6999999999999993
 74
0
 49
-6.3499999999999996
 74
0
  0
ENDTAB
  0
TABLE
  2
LAYER
  5
2
100
AcDbSymbolTable
 70
1
  0
LAYER
  5
10
100
AcDbSymbolTableRecord
100
AcDbLayerTableRecord
  2
0
 70
0
 62
7
420
16777215
  6
Continuous
370
25
390
F
  0
ENDTAB
  0
TABLE
  2
STYLE
  5
3
100
AcDbSymbolTable
 70
1
  0
STYLE
  5
57
100
AcDbSymbolTableRecord
100
AcDbTextStyleTableRecord
  2
Standard
 70
0
 40
0.0
 41
1.0
 50
0.0
 71
0
 42
2.5
  3

  4

1001
ACAD
1000
txt
1071
0
  0
ENDTAB
  0
TABLE
  2
VIEW
  5
6
100
AcDbSymbolTable
 70
0
  0
ENDTAB
  0
TABLE
  2
UCS
  5
7
100
AcDbSymbolTable
 70
0
  0
ENDTAB
  0
TABLE
  2
APPID
  5
9
100
AcDbSymbolTable
 70
1
  0
APPID
  5
12
100
AcDbSymbolTableRecord
100
AcDbRegAppTableRecord
  2
ACAD
 70
0
  0
APPID
  5
58
100
AcDbSymbolTableRecord
100
AcDbRegAppTableRecord
  2
QCAD
 70
0
  0
ENDTAB
  0
TABLE
  2
DIMSTYLE
  5
A
100
AcDbSymbolTable
 70
1
100
AcDbDimStyleTable
 71
0
  0
DIMSTYLE
105
27
100
AcDbSymbolTableRecord
100
AcDbDimStyleTableRecord
  2
Standard
 41
2.5
 42
0.625
 43
3.75
 44
1.25
 70
0
 73
0
 74
0
 77
1
 78
8
140
2.5
141
2.5
143
0.03937007874016
147
0.625
171
3
172
1
271
2
272
2
274
3
278
44
283
0
284
8
340
57
  0
ENDTAB
  0
TABLE
  2
BLOCK_RECORD
  5
1
100
AcDbSymbolTable
 70
1
  0
BLOCK_RECORD
  5
1F
100
AcDbSymbolTableRecord
100
AcDbBlockTableRecord
  2
*Model_Space
340
22
  0
BLOCK_RECORD
  5
1B
100
AcDbSymbolTableRecord
100
AcDbBlockTableRecord
  2
*Paper_Space
340
1E
  0
BLOCK_RECORD
  5
23
100
AcDbSymbolTableRecord
100
AcDbBlockTableRecord
  2
*Paper_Space0
340
26
  0
ENDTAB
  0
ENDSEC
  0
SECTION
  2
BLOCKS
  0
BLOCK
  5
20
100
AcDbEntity
  8
0
100
AcDbBlockBegin
  2
*Model_Space
 70
0
 10
0.0
 20
0.0
 30
0.0
  3
*Model_Space
  1

  0
ENDBLK
  5
21
100
AcDbEntity
  8
0
100
AcDbBlockEnd
  0
BLOCK
  5
1C
100
AcDbEntity
 67
1
  8
0
100
AcDbBlockBegin
  2
*Paper_Space
 70
0
 10
0.0
 20
0.0
 30
0.0
  3
*Paper_Space
  1

  0
ENDBLK
  5
1D
100
AcDbEntity
 67
1
  8
0
100
AcDbBlockEnd
  0
BLOCK
  5
24
100
AcDbEntity
  8
0
100
AcDbBlockBegin
  2
*Paper_Space0
 70
0
 10
0.0
 20
0.0
 30
0.0
  3
*Paper_Space0
  1

  0
ENDBLK
  5
25
100
AcDbEntity
  8
0
100
AcDbBlockEnd
  0
ENDSEC
  0
SECTION
  2
ENTITIES
  0
LWPOLYLINE
  5
59
100
AcDbEntity
  8
0
 62
7
420
0
370
-1
 48
1.0
  6
BYLAYER
100
AcDbPolyline
 90
2
 70
128
 10
210.0
 20
-149.2125000000000625
 10
210.0
 20
-165.0624999999999716
  0
LWPOLYLINE
  5
5A
100
AcDbEntity
  8
0
 62
7
420
0
370
-1
 48
1.0
  6
BYLAYER
100
AcDbPolyline
 90
2
 70
128
 10
459.9999995207730308
 20
-151.5943486830935285
 10
459.9999995207730308
 20
-167.4443486830934376
  0
LWPOLYLINE
  5
5B
100
AcDbEntity
  8
0
 62
7
420
0
370
-1
 48
1.0
  6
BYLAYER
100
AcDbPolyline
 90
2
 70
128
 10
210.1971446638835062
 20
-274.0371243996655153
 10
210.1971446638835062
 20
-289.8871243996654243
  0
SPLINE
  5
5C
100
AcDbEntity
  8
0
 62
0
370
-1
 48
1.0
  6
Continuous
100
AcDbSpline
 70
8
 71
3
 72
8
 73
4
 74
0
 40
0.0
 40
0.0
 40
0.0
 40
0.0
 40
1.0
 40
1.0
 40
1.0
 40
1.0
 10
93.4049586472796847
 20
-367.8982228941482049
 30
0.0
 10
92.0049586472797643
 20
-367.8982228941480912
 30
0.0
 10
92.004958647279679
 20
-365.7982228941480116
 30
0.0
 10
93.4049586472797415
 20
-365.7982228941481821
 30
0.0
  0
SPLINE
  5
5D
100
AcDbEntity
  8
0
 62
0
370
-1
 48
1.0
  6
Continuous
100
AcDbSpline
 70
8
 71
3
 72
8
 73
4
 74
0
 40
0.0
 40
0.0
 40
0.0
 40
0.0
 40
1.0
 40
1.0
 40
1.0
 40
1.0
 10
93.4049586472796847
 20
-294.5385259051826665
 30
0.0
 10
92.0049586472797643
 20
-294.5385259051827802
 30
0.0
 10
92.004958647279679
 20
-296.6385259051828598
 30
0.0
 10
93.4049586472797415
 20
-296.6385259051826893
 30
0.0
  0
SPLINE
  5
5E
100
AcDbEntity
  8
0
 62
0
370
-1
 48
1.0
  6
Continuous
100
AcDbSpline
 70
8
 71
3
 72
8
 73
4
 74
0
 40
0.0
 40
0.0
 40
0.0
 40
0.0
 40
1.0
 40
1.0
 40
1.0
 40
1.0
 10
323.8893306804873191
 20
-367.8982228941482049
 30
0.0
 10
325.2893306804872395
 20
-367.8982228941480912
 30
0.0
 10
325.2893306804873532
 20
-365.7982228941480116
 30
0.0
 10
323.8893306804872623
 20
-365.7982228941481821
 30
0.0
  0
SPLINE
  5
5F
100
AcDbEntity
  8
0
 62
0
370
-1
 48
1.0
  6
Continuous
100
AcDbSpline
 70
8
 71
3
 72
8
 73
4
 74
0
 40
0.0
 40
0.0
 40
0.0
 40
0.0
 40
1.0
 40
1.0
 40
1.0
 40
1.0
 10
323.8893306804873191
 20
-296.0385259051827234
 30
0.0
 10
325.2893306804872395
 20
-296.0385259051828371
 30
0.0
 10
325.2893306804873532
 20
-298.1385259051829166
 30
0.0
 10
323.8893306804872623
 20
-298.1385259051827461
 30
0.0
  0
LWPOLYLINE
  5
60
100
AcDbEntity
  8
0
 62
7
420
0
370
-1
 48
1.0
  6
BYLAYER
100
AcDbPolyline
 90
2
 70
128
 10
464.0440564360008011
 20
-284.2717423192019055
 10
464.0440564360008011
 20
-300.1217423192018146
  0
SPLINE
  5
61
100
AcDbEntity
  8
0
 62
0
370
-1
 48
1.0
  6
Continuous
100
AcDbSpline
 70
8
 71
3
 72
8
 73
4
 74
0
 40
0.0
 40
0.0
 40
0.0
 40
0.0
 40
1.0
 40
1.0
 40
1.0
 40
1.0
 10
347.2518704193969938
 20
-378.1328408136845951
 30
0.0
 10
345.8518704193970734
 20
-378.1328408136844814
 30
0.0
 10
345.8518704193970166
 20
-376.0328408136844587
 30
0.0
 10
347.2518704193970507
 20
-376.0328408136845724
 30
0.0
  0
SPLINE
  5
62
100
AcDbEntity
  8
0
 62
0
370
-1
 48
1.0
  6
Continuous
100
AcDbSpline
 70
8
 71
3
 72
8
 73
4
 74
0
 40
0.0
 40
0.0
 40
0.0
 40
0.0
 40
1.0
 40
1.0
 40
1.0
 40
1.0
 10
347.2518704193969938
 20
-304.7731438247190567
 30
0.0
 10
345.8518704193970734
 20
-304.7731438247191704
 30
0.0
 10
345.8518704193970166
 20
-306.87314382471925
 30
0.0
 10
347.2518704193970507
 20
-306.8731438247190795
 30
0.0
  0
SPLINE
  5
63
100
AcDbEntity
  8
0
 62
0
370
-1
 48
1.0
  6
Continuous
100
AcDbSpline
 70
8
 71
3
 72
8
 73
4
 74
0
 40
0.0
 40
0.0
 40
0.0
 40
0.0
 40
1.0
 40
1.0
 40
1.0
 40
1.0
 10
577.7362424526046425
 20
-379.6328408136845951
 30
0.0
 10
579.1362424526046198
 20
-379.6328408136845951
 30
0.0
 10
579.1362424526046198
 20
-377.5328408136844587
 30
0.0
 10
577.7362424526045288
 20
-377.5328408136846861
 30
0.0
  0
SPLINE
  5
64
100
AcDbEntity
  8
0
 62
0
370
-1
 48
1.0
  6
Continuous
100
AcDbSpline
 70
8
 71
3
 72
8
 73
4
 74
0
 40
0.0
 40
0.0
 40
0.0
 40
0.0
 40
1.0
 40
1.0
 40
1.0
 40
1.0
 10
577.7362424526046425
 20
-306.2731438247191136
 30
0.0
 10
579.1362424526046198
 20
-306.2731438247192273
 30
0.0
 10
579.1362424526046198
 20
-308.3731438247193068
 30
0.0
 10
577.7362424526045288
 20
-308.3731438247191363
 30
0.0
  0
LWPOLYLINE
  5
65
100
AcDbEntity
  8
0
 62
7
420
0
370
-1
 48
1.0
  6
BYLAYER
100
AcDbPolyline
 90
2
 70
128
 10
211.5230798813320519
 20
-410.094260840918821
 10
211.5230798813320519
 20
-425.9442608409187301
  0
LWPOLYLINE
  5
66
100
AcDbEntity
  8
0
 62
7
420
0
370
-1
 48
1.0
  6
BYLAYER
100
AcDbPolyline
 90
2
 70
128
 10
461.4999995207730308
 20
-410.0943486830934717
 10
461.4999995207730308
 20
-425.9443486830933807
  0
SPLINE
  5
67
100
AcDbEntity
  8
0
 62
0
370
-1
 48
1.0
  6
Continuous
100
AcDbSpline
 70
8
 71
3
 72
8
 73
4
 74
0
 40
0.0
 40
0.0
 40
0.0
 40
0.0
 40
1.0
 40
1.0
 40
1.0
 40
1.0
 10
344.7078135041692235
 20
-503.9554471775761613
 30
0.0
 10
343.3078135041693031
 20
-503.9554471775761613
 30
0.0
 10
343.3078135041692462
 20
-501.8554471775760248
 30
0.0
 10
344.7078135041692803
 20
-501.8554471775762522
 30
0.0
  0
SPLINE
  5
68
100
AcDbEntity
  8
0
 62
0
370
-1
 48
1.0
  6
Continuous
100
AcDbSpline
 70
8
 71
3
 72
8
 73
4
 74
0
 40
0.0
 40
0.0
 40
0.0
 40
0.0
 40
1.0
 40
1.0
 40
1.0
 40
1.0
 10
575.1921855373768722
 20
-505.4554471775761613
 30
0.0
 10
576.5921855373769631
 20
-505.4554471775761613
 30
0.0
 10
576.5921855373769631
 20
-503.3554471775760248
 30
0.0
 10
575.1921855373768722
 20
-503.3554471775762522
 30
0.0
  0
SPLINE
  5
69
100
AcDbEntity
  8
0
 62
0
370
-1
 48
1.0
  6
Continuous
100
AcDbSpline
 70
8
 71
3
 72
8
 73
4
 74
0
 40
0.0
 40
0.0
 40
0.0
 40
0.0
 40
1.0
 40
1.0
 40
1.0
 40
1.0
 10
575.1921855373768722
 20
-432.0957501886107366
 30
0.0
 10
576.5921855373769631
 20
-432.0957501886108503
 30
0.0
 10
576.5921855373769631
 20
-434.195750188610873
 30
0.0
 10
575.1921855373768722
 20
-434.1957501886107593
 30
0.0
  0
SPLINE
  5
6A
100
AcDbEntity
  8
0
 62
0
370
-1
 48
1.0
  6
Continuous
100
AcDbSpline
 70
8
 71
3
 72
8
 73
4
 74
0
 40
0.0
 40
0.0
 40
0.0
 40
0.0
 40
1.0
 40
1.0
 40
1.0
 40
1.0
 10
344.7078135041691667
 20
-432.6957501886106456
 30
0.0
 10
343.3078135041692462
 20
-432.6957501886106456
 30
0.0
 10
343.3078135041691894
 20
-430.5957501886105092
 30
0.0
 10
344.7078135041692235
 20
-430.5957501886107366
 30
0.0
  0
LWPOLYLINE
  5
6B
100
AcDbEntity
  8
0
 62
7
420
0
370
-1
 48
1.0
  6
BYLAYER
100
AcDbPolyline
 90
2
 70
128
 10
128.0405798813320928
 20
-409.1167608409187437
 10
119.0405798813320928
 20
-409.1167608409187437
  0
LWPOLYLINE
  5
6C
100
AcDbEntity
  8
0
 62
7
420
0
370
-1
 48
1.0
  6
BYLAYER
100
AcDbPolyline
 90
2
 70
128
 10
116.3500000000000369
 20
-147.6125000000000114
 10
208.4000000000000057
 20
-147.6125000000000114
  0
LWPOLYLINE
  5
6D
100
AcDbEntity
  8
0
 62
7
420
0
370
-1
 48
1.0
  6
BYLAYER
100
AcDbPolyline
 90
2
 70
128
 10
366.3499995207731104
 20
-149.9943486830934773
 10
458.3999995207730649
 20
-149.9943486830934773
  0
LWPOLYLINE
  5
6E
100
AcDbEntity
  8
0
 62
7
420
0
370
-1
 48
1.0
  6
BYLAYER
100
AcDbPolyline
 90
2
 70
128
 10
113.4471446638835488
 20
-272.4371243996654357
 10
208.597144663883455
 20
-272.4371243996654357
  0
LWPOLYLINE
  5
6F
100
AcDbEntity
  8
0
 62
7
420
0
370
-1
 48
1.0
  6
BYLAYER
100
AcDbPolyline
 90
2
 70
128
 10
367.294056436000858
 20
-282.6717423192018259
 10
462.4440564360007784
 20
-282.6717423192018259
  0
LWPOLYLINE
  5
70
100
AcDbEntity
  8
0
 62
7
420
0
370
-1
 48
1.0
  6
BYLAYER
100
AcDbPolyline
 90
2
 70
128
 10
132.5
 20
-408.4942608409187415
 10
209.9230798813320007
 20
-408.4942608409187415
  0
LWPOLYLINE
  5
71
100
AcDbEntity
  8
0
 62
7
420
0
370
-1
 48
1.0
  6
BYLAYER
100
AcDbPolyline
 90
2
 70
128
 10
382.4769196394409505
 20
-408.4943486830933352
 10
459.899999520773008
 20
-408.4943486830933352
  0
LWPOLYLINE
  5
72
100
AcDbEntity
  8
0
 62
7
420
0
370
-1
 48
1.0
  6
BYLAYER
100
AcDbPolyline
 90
2
 70
128
 10
128.0405798813320928
 20
-415.6167608409187437
 10
128.0405798813320928
 20
-409.1167608409187437
  0
LWPOLYLINE
  5
73
100
AcDbEntity
  8
0
 62
7
420
0
370
-1
 48
1.0
  6
BYLAYER
100
AcDbPolyline
 90
2
 70
128
 10
114.7500000000000142
 20
-165.0625000000000284
 10
114.7500000000000426
 20
-149.2125000000000057
  0
LWPOLYLINE
  5
74
100
AcDbEntity
  8
0
 62
7
420
0
370
-1
 48
1.0
  6
BYLAYER
100
AcDbPolyline
 90
2
 70
128
 10
364.7499995207730876
 20
-167.4443486830934944
 10
364.7499995207730876
 20
-151.5943486830934717
  0
LWPOLYLINE
  5
75
100
AcDbEntity
  8
0
 62
7
420
0
370
-1
 48
1.0
  6
BYLAYER
100
AcDbPolyline
 90
2
 70
128
 10
111.8471446638835261
 20
-288.3871243996654812
 10
111.8471446638835545
 20
-274.0371243996654584
  0
LWPOLYLINE
  5
76
100
AcDbEntity
  8
0
 62
7
420
0
370
-1
 48
1.0
  6
BYLAYER
100
AcDbPolyline
 90
2
 70
128
 10
365.6940564360008352
 20
-298.6217423192018714
 10
365.6940564360008921
 20
-284.2717423192018487
  0
LWPOLYLINE
  5
77
100
AcDbEntity
  8
0
 62
7
420
0
370
-1
 48
1.0
  6
BYLAYER
100
AcDbPolyline
 90
2
 70
128
 10
113.1730798813320717
 20
-424.4442608409187869
 10
113.1730798813321002
 20
-410.0942608409187642
  0
LWPOLYLINE
  5
78
100
AcDbEntity
  8
0
 62
7
420
0
370
-1
 48
1.0
  6
BYLAYER
100
AcDbPolyline
 90
2
 70
128
 10
363.1499995207730649
 20
-424.4443486830933807
 10
363.1499995207731217
 20
-410.0943486830934717
  0
LWPOLYLINE
  5
79
100
AcDbEntity
  8
0
 62
7
420
0
370
-1
 48
1.0
  6
BYLAYER
100
AcDbPolyline
 90
2
 70
128
 10
128.0405798813320928
 20
-415.6167608409187437
 10
119.0405798813320928
 20
-415.6167608409187437
  0
LWPOLYLINE
  5
7A
100
AcDbEntity
  8
0
 62
7
420
0
370
-1
 48
1.0
  6
BYLAYER
100
AcDbPolyline
 90
2
 70
128
 10
106.8250000000000313
 20
-166.6624999999999943
 10
113.1500000000000199
 20
-166.6624999999999943
  0
LWPOLYLINE
  5
7B
100
AcDbEntity
  8
0
 62
7
420
0
370
-1
 48
1.0
  6
BYLAYER
100
AcDbPolyline
 90
2
 70
128
 10
356.8249995207730763
 20
-169.0443486830934603
 10
363.1499995207730649
 20
-169.0443486830934603
  0
LWPOLYLINE
  5
7C
100
AcDbEntity
  8
0
 62
7
420
0
370
-1
 48
1.0
  6
BYLAYER
100
AcDbPolyline
 90
2
 70
128
 10
99.1596446638835261
 20
-289.9871243996653902
 10
110.2471446638835175
 20
-289.9871243996654471
  0
LWPOLYLINE
  5
7D
100
AcDbEntity
  8
0
 62
7
420
0
370
-1
 48
1.0
  6
BYLAYER
100
AcDbPolyline
 90
2
 70
128
 10
353.0065564360008352
 20
-300.2217423192017804
 10
364.0940564360008693
 20
-300.2217423192018373
  0
LWPOLYLINE
  5
7E
100
AcDbEntity
  8
0
 62
7
420
0
370
-1
 48
1.0
  6
BYLAYER
100
AcDbPolyline
 90
2
 70
128
 10
100.4855798813320717
 20
-426.044260840918696
 10
111.5730798813320632
 20
-426.0442608409187528
  0
LWPOLYLINE
  5
7F
100
AcDbEntity
  8
0
 62
7
420
0
370
-1
 48
1.0
  6
BYLAYER
100
AcDbPolyline
 90
2
 70
128
 10
350.4624995207730649
 20
-426.0443486830932898
 10
361.549999520773099
 20
-426.0443486830934035
  0
LWPOLYLINE
  5
80
100
AcDbEntity
  8
0
 62
7
420
0
370
-1
 48
1.0
  6
BYLAYER
100
AcDbPolyline
 90
2
 70
128
 10
119.0405798813320928
 20
-409.1167608409187437
 10
119.0405798813320928
 20
-415.6167608409187437
  0
LWPOLYLINE
  5
81
100
AcDbEntity
  8
0
 62
7
420
0
370
-1
 48
1.0
  6
BYLAYER
100
AcDbPolyline
 90
2
 70
128
 10
105.2250000000000085
 20
-198.4000000000000341
 10
105.2250000000000085
 20
-168.2624999999999602
  0
LWPOLYLINE
  5
82
100
AcDbEntity
  8
0
 62
7
420
0
370
-1
 48
1.0
  6
BYLAYER
100
AcDbPolyline
 90
2
 70
128
 10
355.2249995207730535
 20
-200.7818486830935001
 10
355.2249995207730535
 20
-170.6443486830934262
  0
SPLINE
  5
83
100
AcDbEntity
  8
0
 62
0
370
-1
 48
1.0
  6
Continuous
100
AcDbSpline
 70
8
 71
3
 72
8
 73
4
 74
0
 40
0.0
 40
0.0
 40
0.0
 40
0.0
 40
1.0
 40
1.0
 40
1.0
 40
1.0
 10
93.4049586472797415
 20
-365.7982228941481821
 30
0.0
 10
94.8049586472796619
 20
-365.7982228941480685
 30
0.0
 10
94.8049586472799177
 20
-367.8982228941480912
 30
0.0
 10
93.4049586472796847
 20
-367.8982228941482049
 30
0.0
  0
SPLINE
  5
84
100
AcDbEntity
  8
0
 62
0
370
-1
 48
1.0
  6
Continuous
100
AcDbSpline
 70
8
 71
3
 72
8
 73
4
 74
0
 40
0.0
 40
0.0
 40
0.0
 40
0.0
 40
1.0
 40
1.0
 40
1.0
 40
1.0
 10
93.4049586472797415
 20
-296.6385259051826893
 30
0.0
 10
94.8049586472796477
 20
-296.6385259051828029
 30
0.0
 10
94.8049586472799177
 20
-294.5385259051827802
 30
0.0
 10
93.4049586472796847
 20
-294.5385259051826665
 30
0.0
  0
SPLINE
  5
85
100
AcDbEntity
  8
0
 62
0
370
-1
 48
1.0
  6
Continuous
100
AcDbSpline
 70
8
 71
3
 72
8
 73
4
 74
0
 40
0.0
 40
0.0
 40
0.0
 40
0.0
 40
1.0
 40
1.0
 40
1.0
 40
1.0
 10
323.8893306804872623
 20
-365.7982228941481821
 30
0.0
 10
322.4893306804873419
 20
-365.7982228941480685
 30
0.0
 10
322.4893306804871145
 20
-367.8982228941480912
 30
0.0
 10
323.8893306804873191
 20
-367.8982228941482049
 30
0.0
  0
SPLINE
  5
86
100
AcDbEntity
  8
0
 62
0
370
-1
 48
1.0
  6
Continuous
100
AcDbSpline
 70
8
 71
3
 72
8
 73
4
 74
0
 40
0.0
 40
0.0
 40
0.0
 40
0.0
 40
1.0
 40
1.0
 40
1.0
 40
1.0
 10
323.8893306804872623
 20
-298.1385259051827461
 30
0.0
 10
322.4893306804873419
 20
-298.1385259051828598
 30
0.0
 10
322.4893306804871145
 20
-296.0385259051828371
 30
0.0
 10
323.8893306804873191
 20
-296.0385259051827234
 30
0.0
  0
SPLINE
  5
87
100
AcDbEntity
  8
0
 62
0
370
-1
 48
1.0
  6
Continuous
100
AcDbSpline
 70
8
 71
3
 72
8
 73
4
 74
0
 40
0.0
 40
0.0
 40
0.0
 40
0.0
 40
1.0
 40
1.0
 40
1.0
 40
1.0
 10
347.2518704193970507
 20
-376.0328408136845724
 30
0.0
 10
348.6518704193969711
 20
-376.0328408136844587
 30
0.0
 10
348.6518704193972553
 20
-378.1328408136844814
 30
0.0
 10
347.2518704193969938
 20
-378.1328408136845951
 30
0.0
  0
SPLINE
  5
88
100
AcDbEntity
  8
0
 62
0
370
-1
 48
1.0
  6
Continuous
100
AcDbSpline
 70
8
 71
3
 72
8
 73
4
 74
0
 40
0.0
 40
0.0
 40
0.0
 40
0.0
 40
1.0
 40
1.0
 40
1.0
 40
1.0
 10
347.2518704193970507
 20
-306.8731438247190795
 30
0.0
 10
348.6518704193969711
 20
-306.8731438247191932
 30
0.0
 10
348.6518704193972553
 20
-304.7731438247191704
 30
0.0
 10
347.2518704193969938
 20
-304.7731438247190567
 30
0.0
  0
SPLINE
  5
89
100
AcDbEntity
  8
0
 62
0
370
-1
 48
1.0
  6
Continuous
100
AcDbSpline
 70
8
 71
3
 72
8
 73
4
 74
0
 40
0.0
 40
0.0
 40
0.0
 40
0.0
 40
1.0
 40
1.0
 40
1.0
 40
1.0
 10
577.7362424526045288
 20
-377.5328408136846861
 30
0.0
 10
576.3362424526046652
 20
-377.5328408136844587
 30
0.0
 10
576.3362424526044379
 20
-379.6328408136845951
 30
0.0
 10
577.7362424526046425
 20
-379.6328408136845951
 30
0.0
  0
SPLINE
  5
8A
100
AcDbEntity
  8
0
 62
0
370
-1
 48
1.0
  6
Continuous
100
AcDbSpline
 70
8
 71
3
 72
8
 73
4
 74
0
 40
0.0
 40
0.0
 40
0.0
 40
0.0
 40
1.0
 40
1.0
 40
1.0
 40
1.0
 10
577.7362424526045288
 20
-308.3731438247191363
 30
0.0
 10
576.3362424526046652
 20
-308.37314382471925
 30
0.0
 10
576.3362424526044379
 20
-306.2731438247192273
 30
0.0
 10
577.7362424526046425
 20
-306.2731438247191136
 30
0.0
  0
SPLINE
  5
8B
100
AcDbEntity
  8
0
 62
0
370
-1
 48
1.0
  6
Continuous
100
AcDbSpline
 70
8
 71
3
 72
8
 73
4
 74
0
 40
0.0
 40
0.0
 40
0.0
 40
0.0
 40
1.0
 40
1.0
 40
1.0
 40
1.0
 10
344.7078135041692803
 20
-501.8554471775762522
 30
0.0
 10
346.1078135041692008
 20
-501.8554471775760248
 30
0.0
 10
346.107813504169485
 20
-503.9554471775761613
 30
0.0
 10
344.7078135041692235
 20
-503.9554471775761613
 30
0.0
  0
SPLINE
  5
8C
100
AcDbEntity
  8
0
 62
0
370
-1
 48
1.0
  6
Continuous
100
AcDbSpline
 70
8
 71
3
 72
8
 73
4
 74
0
 40
0.0
 40
0.0
 40
0.0
 40
0.0
 40
1.0
 40
1.0
 40
1.0
 40
1.0
 10
344.7078135041692803
 20
-432.6957501886106456
 30
0.0
 10
346.1078135041692008
 20
-432.695750188610873
 30
0.0
 10
346.107813504169485
 20
-430.5957501886107366
 30
0.0
 10
344.7078135041692235
 20
-430.5957501886107366
 30
0.0
  0
SPLINE
  5
8D
100
AcDbEntity
  8
0
 62
0
370
-1
 48
1.0
  6
Continuous
100
AcDbSpline
 70
8
 71
3
 72
8
 73
4
 74
0
 40
0.0
 40
0.0
 40
0.0
 40
0.0
 40
1.0
 40
1.0
 40
1.0
 40
1.0
 10
575.1921855373768722
 20
-503.3554471775762522
 30
0.0
 10
573.7921855373770086
 20
-503.3554471775760248
 30
0.0
 10
573.7921855373767812
 20
-505.4554471775761613
 30
0.0
 10
575.1921855373768722
 20
-505.4554471775761613
 30
0.0
  0
SPLINE
  5
8E
100
AcDbEntity
  8
0
 62
0
370
-1
 48
1.0
  6
Continuous
100
AcDbSpline
 70
8
 71
3
 72
8
 73
4
 74
0
 40
0.0
 40
0.0
 40
0.0
 40
0.0
 40
1.0
 40
1.0
 40
1.0
 40
1.0
 10
575.1921855373768722
 20
-434.1957501886107593
 30
0.0
 10
573.7921855373770086
 20
-434.195750188610873
 30
0.0
 10
573.7921855373767812
 20
-432.0957501886108503
 30
0.0
 10
575.1921855373768722
 20
-432.0957501886107366
 30
0.0
  0
LWPOLYLINE
  5
8F
100
AcDbEntity
  8
0
 62
7
420
0
370
-1
 48
1.0
  6
BYLAYER
100
AcDbPolyline
 90
2
 70
128
 10
102.0625000000000284
 20
-200.0
 10
103.6250000000000142
 20
-200.0
  0
LWPOLYLINE
  5
90
100
AcDbEntity
  8
0
 62
7
420
0
370
-1
 48
1.0
  6
BYLAYER
100
AcDbPolyline
 90
2
 70
128
 10
352.0624995207730876
 20
-202.381848683093466
 10
353.6249995207730876
 20
-202.381848683093466
  0
LWPOLYLINE
  5
91
100
AcDbEntity
  8
0
 62
7
420
0
370
-1
 48
1.0
  6
BYLAYER
100
AcDbPolyline
 90
2
 70
128
 10
100.4625000000000341
 20
-246.0250000000000057
 10
100.4625000000000341
 20
-201.5999999999999943
  0
LWPOLYLINE
  5
92
100
AcDbEntity
  8
0
 62
7
420
0
370
-1
 48
1.0
  6
BYLAYER
100
AcDbPolyline
 90
2
 70
128
 10
350.4624995207731217
 20
-248.4068486830934717
 10
350.4624995207731217
 20
-203.9818486830934603
  0
LWPOLYLINE
  5
93
100
AcDbEntity
  8
0
 62
7
420
0
370
-1
 48
1.0
  6
BYLAYER
100
AcDbPolyline
 90
2
 70
128
 10
97.5596446638835175
 20
-346.048317181001778
 10
97.5596446638835317
 20
-324.9246243996654471
  0
LWPOLYLINE
  5
94
100
AcDbEntity
  8
0
 62
7
420
0
370
-1
 48
1.0
  6
BYLAYER
100
AcDbPolyline
 90
2
 70
128
 10
351.4065564360008693
 20
-379.5842423192018487
 10
351.4065564360008693
 20
-335.1592423192018373
  0
LWPOLYLINE
  5
95
100
AcDbEntity
  8
0
 62
7
420
0
370
-1
 48
1.0
  6
BYLAYER
100
AcDbPolyline
 90
2
 70
128
 10
98.8855798813320774
 20
-505.4067608409187642
 10
98.8855798813320774
 20
-460.9817608409187528
  0
LWPOLYLINE
  5
96
100
AcDbEntity
  8
0
 62
7
420
0
370
-1
 48
1.0
  6
BYLAYER
100
AcDbPolyline
 90
2
 70
128
 10
348.862499520773099
 20
-505.4068486830934717
 10
348.862499520773099
 20
-460.9818486830934035
  0
LWPOLYLINE
  5
97
100
AcDbEntity
  8
0
 62
7
420
0
370
-1
 48
1.0
  6
BYLAYER
100
AcDbPolyline
 90
2
 70
128
 10
102.0625000000000142
 20
-247.625
 10
165.5375000000000512
 20
-247.625
  0
LWPOLYLINE
  5
98
100
AcDbEntity
  8
0
 62
7
420
0
370
-1
 48
1.0
  6
BYLAYER
100
AcDbPolyline
 90
2
 70
128
 10
352.0624995207730876
 20
-250.006848683093466
 10
415.5374995207731104
 20
-250.006848683093466
  0
LWPOLYLINE
  5
99
100
AcDbEntity
  8
0
 62
7
420
0
370
-1
 48
1.0
  6
BYLAYER
100
AcDbPolyline
 90
2
 70
128
 10
99.1596446638835261
 20
-372.4496243996654812
 10
165.3971446638834664
 20
-372.4496243996654812
  0
LWPOLYLINE
  5
9A
100
AcDbEntity
  8
0
 62
7
420
0
370
-1
 48
1.0
  6
BYLAYER
100
AcDbPolyline
 90
2
 70
128
 10
353.0065564360008352
 20
-382.6842423192018714
 10
419.2440564360007897
 20
-382.6842423192018714
  0
LWPOLYLINE
  5
9B
100
AcDbEntity
  8
0
 62
7
420
0
370
-1
 48
1.0
  6
BYLAYER
100
AcDbPolyline
 90
2
 70
128
 10
100.4855798813320717
 20
-508.5067608409187869
 10
166.7230798813320121
 20
-508.5067608409187869
  0
LWPOLYLINE
  5
9C
100
AcDbEntity
  8
0
 62
7
420
0
370
-1
 48
1.0
  6
BYLAYER
100
AcDbPolyline
 90
2
 70
128
 10
350.4624995207730649
 20
-508.5068486830933807
 10
416.6999995207730194
 20
-508.5068486830933807
  0
LWPOLYLINE
  5
9D
100
AcDbEntity
  8
0
 62
7
420
0
370
-1
 48
1.0
  6
BYLAYER
100
AcDbPolyline
 90
2
 70
128
 10
246.5000000000000284
 20
-252.3874999999999886
 10
173.5000000000000284
 20
-252.3875000000000171
  0
LWPOLYLINE
  5
9E
100
AcDbEntity
  8
0
 62
7
420
0
370
-1
 48
1.0
  6
BYLAYER
100
AcDbPolyline
 90
2
 70
128
 10
496.4999995207730876
 20
-254.7693486830934546
 10
423.4999995207730876
 20
-254.769348683093483
  0
LINE
  5
9F
100
AcDbEntity
  8
0
 62
0
370
-1
 48
1.0
  6
Continuous
100
AcDbLine
 10
93.4049586472796847
 20
-367.8982228941482049
 30
0.0
 11
93.4049586472796847
 21
-367.8982228941482049
 31
0.0
  0
LINE
  5
A0
100
AcDbEntity
  8
0
 62
0
370
-1
 48
1.0
  6
Continuous
100
AcDbLine
 10
93.4049586472796847
 20
-294.5385259051826665
 30
0.0
 11
93.4049586472796847
 21
-294.5385259051826665
 31
0.0
  0
LINE
  5
A1
100
AcDbEntity
  8
0
 62
0
370
-1
 48
1.0
  6
Continuous
100
AcDbLine
 10
323.8893306804873191
 20
-367.8982228941482049
 30
0.0
 11
323.8893306804873191
 21
-367.8982228941482049
 31
0.0
  0
LINE
  5
A2
100
AcDbEntity
  8
0
 62
0
370
-1
 48
1.0
  6
Continuous
100
AcDbLine
 10
323.8893306804873191
 20
-296.0385259051827234
 30
0.0
 11
323.8893306804873191
 21
-296.0385259051827234
 31
0.0
  0
LWPOLYLINE
  5
A3
100
AcDbEntity
  8
0
 62
7
420
0
370
-1
 48
1.0
  6
BYLAYER
100
AcDbPolyline
 90
2
 70
128
 10
497.4440564360008352
 20
-389.4467423192018032
 10
424.4440564360008352
 20
-389.44674231920186
  0
LINE
  5
A4
100
AcDbEntity
  8
0
 62
0
370
-1
 48
1.0
  6
Continuous
100
AcDbLine
 10
347.2518704193969938
 20
-378.1328408136845951
 30
0.0
 11
347.2518704193969938
 21
-378.1328408136845951
 31
0.0
  0
LINE
  5
A5
100
AcDbEntity
  8
0
 62
0
370
-1
 48
1.0
  6
Continuous
100
AcDbLine
 10
347.2518704193969938
 20
-304.7731438247190567
 30
0.0
 11
347.2518704193969938
 21
-304.7731438247190567
 31
0.0
  0
LINE
  5
A6
100
AcDbEntity
  8
0
 62
0
370
-1
 48
1.0
  6
Continuous
100
AcDbLine
 10
577.7362424526046425
 20
-379.6328408136845951
 30
0.0
 11
577.7362424526046425
 21
-379.6328408136845951
 31
0.0
  0
LINE
  5
A7
100
AcDbEntity
  8
0
 62
0
370
-1
 48
1.0
  6
Continuous
100
AcDbLine
 10
577.7362424526046425
 20
-306.2731438247191136
 30
0.0
 11
577.7362424526046425
 21
-306.2731438247191136
 31
0.0
  0
LINE
  5
A8
100
AcDbEntity
  8
0
 62
0
370
-1
 48
1.0
  6
Continuous
100
AcDbLine
 10
344.7078135041692235
 20
-503.9554471775761613
 30
0.0
 11
344.7078135041692235
 21
-503.9554471775761613
 31
0.0
  0
LINE
  5
A9
100
AcDbEntity
  8
0
 62
0
370
-1
 48
1.0
  6
Continuous
100
AcDbLine
 10
344.7078135041692235
 20
-430.5957501886107366
 30
0.0
 11
344.7078135041692235
 21
-430.5957501886107366
 31
0.0
  0
LINE
  5
AA
100
AcDbEntity
  8
0
 62
0
370
-1
 48
1.0
  6
Continuous
100
AcDbLine
 10
575.1921855373768722
 20
-505.4554471775761613
 30
0.0
 11
575.1921855373768722
 21
-505.4554471775761613
 31
0.0
  0
LINE
  5
AB
100
AcDbEntity
  8
0
 62
0
370
-1
 48
1.0
  6
Continuous
100
AcDbLine
 10
575.1921855373768722
 20
-432.0957501886107366
 30
0.0
 11
575.1921855373768722
 21
-432.0957501886107366
 31
0.0
  0
LWPOLYLINE
  5
AC
100
AcDbEntity
  8
0
 62
7
420
0
370
-1
 48
1.0
  6
BYLAYER
100
AcDbPolyline
 90
2
 70
128
 10
248.0999999999999943
 20
-234.9375000000000568
 10
248.0999999999999943
 20
-250.7875000000000227
  0
LWPOLYLINE
  5
AD
100
AcDbEntity
  8
0
 62
7
420
0
370
-1
 48
1.0
  6
BYLAYER
100
AcDbPolyline
 90
2
 70
128
 10
498.0999995207730535
 20
-237.3193486830935228
 10
498.0999995207730535
 20
-253.1693486830934887
  0
LWPOLYLINE
  5
AE
100
AcDbEntity
  8
0
 62
7
420
0
370
-1
 48
1.0
  6
BYLAYER
100
AcDbPolyline
 90
2
 70
128
 10
501.0440564360009148
 20
-384.2842423192017804
 10
501.0440564360009148
 20
-387.8467423192017804
  0
LWPOLYLINE
  5
AF
100
AcDbEntity
  8
0
 62
7
420
0
370
-1
 48
1.0
  6
BYLAYER
100
AcDbPolyline
 90
2
 70
128
 10
247.1971446638835914
 20
-374.0496243996653902
 10
247.1971446638835914
 20
-377.6121243996653902
  0
LWPOLYLINE
  5
B0
100
AcDbEntity
  8
0
 62
7
420
0
370
-1
 48
1.0
  6
BYLAYER
100
AcDbPolyline
 90
2
 70
128
 10
248.5230798813321371
 20
-510.106760840918696
 10
248.5230798813321371
 20
-513.669260840918696
  0
LWPOLYLINE
  5
B1
100
AcDbEntity
  8
0
 62
7
420
0
370
-1
 48
1.0
  6
BYLAYER
100
AcDbPolyline
 90
2
 70
128
 10
498.4999995207731445
 20
-510.1068486830932898
 10
498.4999995207731445
 20
-513.6693486830932898
  0
LWPOLYLINE
  5
B2
100
AcDbEntity
  8
0
 62
7
420
0
370
-1
 48
1.0
  6
BYLAYER
100
AcDbPolyline
 90
2
 70
128
 10
171.9000000000000341
 20
-233.3375000000000057
 10
246.5000000000000284
 20
-233.3375000000000057
  0
LWPOLYLINE
  5
B3
100
AcDbEntity
  8
0
 62
7
420
0
370
-1
 48
1.0
  6
BYLAYER
100
AcDbPolyline
 90
2
 70
128
 10
421.8999995207731217
 20
-235.7193486830934717
 10
496.4999995207730876
 20
-235.7193486830934717
  0
LWPOLYLINE
  5
B4
100
AcDbEntity
  8
0
 62
7
420
0
370
-1
 48
1.0
  6
BYLAYER
100
AcDbPolyline
 90
2
 70
128
 10
171.9000000000000057
 20
-250.7875000000000227
 10
171.9000000000000057
 20
-234.9375
  0
LWPOLYLINE
  5
B5
100
AcDbEntity
  8
0
 62
7
420
0
370
-1
 48
1.0
  6
BYLAYER
100
AcDbPolyline
 90
2
 70
128
 10
421.8999995207730649
 20
-253.1693486830934887
 10
421.8999995207730649
 20
-237.319348683093466
  0
LWPOLYLINE
  5
B6
100
AcDbEntity
  8
0
 62
7
420
0
370
-1
 48
1.0
  6
BYLAYER
100
AcDbPolyline
 90
2
 70
128
 10
167.1375000000000171
 20
-230.1749999999999829
 10
167.1375000000000171
 20
-246.0250000000000909
  0
LWPOLYLINE
  5
B7
100
AcDbEntity
  8
0
 62
7
420
0
370
-1
 48
1.0
  6
BYLAYER
100
AcDbPolyline
 90
2
 70
128
 10
417.1374995207730763
 20
-232.5568486830934489
 10
417.1374995207730763
 20
-248.4068486830935569
  0
LWPOLYLINE
  5
B8
100
AcDbEntity
  8
0
 62
7
420
0
370
-1
 48
1.0
  6
BYLAYER
100
AcDbPolyline
 90
2
 70
128
 10
251.2624999999999886
 20
-228.5749999999999602
 10
167.1374999999999886
 20
-228.5749999999999602
  0
LWPOLYLINE
  5
B9
100
AcDbEntity
  8
0
 62
7
420
0
370
-1
 48
1.0
  6
BYLAYER
100
AcDbPolyline
 90
2
 70
128
 10
501.2624995207730763
 20
-230.9568486830934262
 10
417.1374995207730763
 20
-230.9568486830934262
  0
LWPOLYLINE
  5
BA
100
AcDbEntity
  8
0
 62
7
420
0
370
-1
 48
1.0
  6
BYLAYER
100
AcDbPolyline
 90
2
 70
128
 10
252.8625000000000114
 20
-246.0250000000000341
 10
252.8625000000000114
 20
-230.1750000000000114
  0
LWPOLYLINE
  5
BB
100
AcDbEntity
  8
0
 62
7
420
0
370
-1
 48
1.0
  6
BYLAYER
100
AcDbPolyline
 90
2
 70
128
 10
502.862499520773099
 20
-248.4068486830935001
 10
502.862499520773099
 20
-232.5568486830934773
  0
LWPOLYLINE
  5
BC
100
AcDbEntity
  8
0
 62
7
420
0
370
-1
 48
1.0
  6
BYLAYER
100
AcDbPolyline
 90
2
 70
128
 10
317.9375
 20
-247.625
 10
254.4625000000000625
 20
-247.625
  0
LWPOLYLINE
  5
BD
100
AcDbEntity
  8
0
 62
7
420
0
370
-1
 48
1.0
  6
BYLAYER
100
AcDbPolyline
 90
2
 70
128
 10
567.9374995207730308
 20
-250.006848683093466
 10
504.4624995207731217
 20
-250.006848683093466
  0
LWPOLYLINE
  5
BE
100
AcDbEntity
  8
0
 62
7
420
0
370
-1
 48
1.0
  6
BYLAYER
100
AcDbPolyline
 90
2
 70
128
 10
318.1346446638834777
 20
-372.4496243996654812
 10
248.7971446638836142
 20
-372.4496243996653675
  0
LWPOLYLINE
  5
BF
100
AcDbEntity
  8
0
 62
7
420
0
370
-1
 48
1.0
  6
BYLAYER
100
AcDbPolyline
 90
2
 70
128
 10
571.9815564360008011
 20
-382.6842423192018714
 10
502.6440564360009375
 20
-382.6842423192017577
  0
LWPOLYLINE
  5
C0
100
AcDbEntity
  8
0
 62
7
420
0
370
-1
 48
1.0
  6
BYLAYER
100
AcDbPolyline
 90
2
 70
128
 10
319.4605798813320234
 20
-508.5067608409187869
 10
250.1230798813321599
 20
-508.5067608409186732
  0
LWPOLYLINE
  5
C1
100
AcDbEntity
  8
0
 62
7
420
0
370
-1
 48
1.0
  6
BYLAYER
100
AcDbPolyline
 90
2
 70
128
 10
569.4374995207730308
 20
-508.5068486830933807
 10
500.0999995207731672
 20
-508.5068486830933807
  0
LWPOLYLINE
  5
C2
100
AcDbEntity
  8
0
 62
7
420
0
370
-1
 48
1.0
  6
BYLAYER
100
AcDbPolyline
 90
2
 70
128
 10
319.5375000000000227
 20
-201.5999999999999943
 10
319.5375000000000227
 20
-246.0250000000000341
  0
LWPOLYLINE
  5
C3
100
AcDbEntity
  8
0
 62
7
420
0
370
-1
 48
1.0
  6
BYLAYER
100
AcDbPolyline
 90
2
 70
128
 10
569.5374995207730535
 20
-203.9818486830934603
 10
569.5374995207730535
 20
-248.4068486830935001
  0
LWPOLYLINE
  5
C4
100
AcDbEntity
  8
0
 62
7
420
0
370
-1
 48
1.0
  6
BYLAYER
100
AcDbPolyline
 90
2
 70
128
 10
319.7346446638835005
 20
-326.4246243996654471
 10
319.7346446638835005
 20
-346.048317181001778
  0
LWPOLYLINE
  5
C5
100
AcDbEntity
  8
0
 62
7
420
0
370
-1
 48
1.0
  6
BYLAYER
100
AcDbPolyline
 90
2
 70
128
 10
573.5815564360008239
 20
-336.6592423192018373
 10
573.5815564360008239
 20
-381.0842423192018487
  0
LWPOLYLINE
  5
C6
100
AcDbEntity
  8
0
 62
7
420
0
370
-1
 48
1.0
  6
BYLAYER
100
AcDbPolyline
 90
2
 70
128
 10
321.0605798813320462
 20
-462.4817608409187528
 10
321.0605798813320462
 20
-506.9067608409187642
  0
LWPOLYLINE
  5
C7
100
AcDbEntity
  8
0
 62
7
420
0
370
-1
 48
1.0
  6
BYLAYER
100
AcDbPolyline
 90
2
 70
128
 10
571.0374995207730535
 20
-462.4818486830934035
 10
571.0374995207730535
 20
-506.9068486830934717
  0
LWPOLYLINE
  5
C8
100
AcDbEntity
  8
0
 62
7
420
0
370
-1
 48
1.0
  6
BYLAYER
100
AcDbPolyline
 90
2
 70
128
 10
316.375
 20
-200.0
 10
317.9375
 20
-200.0
  0
LWPOLYLINE
  5
C9
100
AcDbEntity
  8
0
 62
7
420
0
370
-1
 48
1.0
  6
BYLAYER
100
AcDbPolyline
 90
2
 70
128
 10
566.3749995207730308
 20
-202.381848683093466
 10
567.9374995207730308
 20
-202.381848683093466
  0
LWPOLYLINE
  5
CA
100
AcDbEntity
  8
0
 62
7
420
0
370
-1
 48
1.0
  6
BYLAYER
100
AcDbPolyline
 90
2
 70
128
 10
314.7749999999999773
 20
-168.2625000000000171
 10
314.7749999999999773
 20
-198.4000000000000341
  0
LWPOLYLINE
  5
CB
100
AcDbEntity
  8
0
 62
7
420
0
370
-1
 48
1.0
  6
BYLAYER
100
AcDbPolyline
 90
2
 70
128
 10
564.774999520773008
 20
-170.644348683093483
 10
564.774999520773008
 20
-200.7818486830935001
  0
LWPOLYLINE
  5
CC
100
AcDbEntity
  8
0
 62
7
420
0
370
-1
 48
1.0
  6
BYLAYER
100
AcDbPolyline
 90
2
 70
128
 10
211.6000000000000227
 20
-166.6624999999999943
 10
313.1750000000000114
 20
-166.6624999999999943
  0
LWPOLYLINE
  5
CD
100
AcDbEntity
  8
0
 62
7
420
0
370
-1
 48
1.0
  6
BYLAYER
100
AcDbPolyline
 90
2
 70
128
 10
461.5999995207730535
 20
-169.0443486830934603
 10
563.174999520773099
 20
-169.0443486830934603
  0
LWPOLYLINE
  5
CE
100
AcDbEntity
  8
0
 62
7
420
0
370
-1
 48
1.0
  6
BYLAYER
100
AcDbPolyline
 90
2
 70
128
 10
211.7971446638835289
 20
-291.4871243996654471
 10
318.1346446638834777
 20
-291.4871243996655039
  0
LWPOLYLINE
  5
CF
100
AcDbEntity
  8
0
 62
7
420
0
370
-1
 48
1.0
  6
BYLAYER
100
AcDbPolyline
 90
2
 70
128
 10
465.6440564360008239
 20
-301.7217423192018373
 10
571.9815564360008011
 20
-301.7217423192018941
  0
LWPOLYLINE
  5
D0
100
AcDbEntity
  8
0
 62
7
420
0
370
-1
 48
1.0
  6
BYLAYER
100
AcDbPolyline
 90
2
 70
128
 10
213.1230798813320746
 20
-427.5442608409187528
 10
319.4605798813320234
 20
-427.5442608409188097
  0
LWPOLYLINE
  5
D1
100
AcDbEntity
  8
0
 62
7
420
0
370
-1
 48
1.0
  6
BYLAYER
100
AcDbPolyline
 90
2
 70
128
 10
463.0999995207730535
 20
-427.5443486830934035
 10
569.4374995207730308
 20
-427.5443486830935171
  0
LWPOLYLINE
  5
D2
100
AcDbEntity
  8
0
 62
7
420
0
370
-1
 48
1.0
  6
BYLAYER
100
AcDbPolyline
 90
5
 70
128
 10
231.5750000000000171
 20
-249.8625000000000114
 10
245.5750000000000171
 20
-249.8625000000000114
 10
245.5750000000000171
 20
-235.8625000000000114
 10
231.5750000000000171
 20
-235.8625000000000114
 10
231.5750000000000171
 20
-249.8625000000000114
  0
LWPOLYLINE
  5
D3
100
AcDbEntity
  8
0
 62
7
420
0
370
-1
 48
1.0
  6
BYLAYER
100
AcDbPolyline
 90
5
 70
128
 10
481.5749995207730763
 20
-252.2443486830934773
 10
495.5749995207730763
 20
-252.2443486830934773
 10
495.5749995207730763
 20
-238.2443486830934773
 10
481.5749995207730763
 20
-238.2443486830934773
 10
481.5749995207730763
 20
-252.2443486830934773
  0
LWPOLYLINE
  5
D4
100
AcDbEntity
  8
0
 62
7
420
0
370
-1
 48
1.0
  6
BYLAYER
100
AcDbPolyline
 90
5
 70
128
 10
484.1190564360008466
 20
-386.4217423192018259
 10
498.1190564360008466
 20
-386.4217423192018259
 10
498.1190564360008466
 20
-372.4217423192018259
 10
484.1190564360008466
 20
-372.4217423192018259
 10
484.1190564360008466
 20
-386.4217423192018259
  0
LWPOLYLINE
  5
D5
100
AcDbEntity
  8
0
 62
7
420
0
370
-1
 48
1.0
  6
BYLAYER
100
AcDbPolyline
 90
5
 70
128
 10
102.9875000000000114
 20
-216.5250000000000057
 10
116.9875000000000114
 20
-216.5250000000000057
 10
116.9875000000000114
 20
-202.5250000000000057
 10
102.9875000000000114
 20
-202.5250000000000057
 10
102.9875000000000114
 20
-216.5250000000000057
  0
LWPOLYLINE
  5
D6
100
AcDbEntity
  8
0
 62
7
420
0
370
-1
 48
1.0
  6
BYLAYER
100
AcDbPolyline
 90
5
 70
128
 10
352.987499520773099
 20
-218.9068486830934717
 10
366.987499520773099
 20
-218.9068486830934717
 10
366.987499520773099
 20
-204.9068486830934717
 10
352.987499520773099
 20
-204.9068486830934717
 10
352.987499520773099
 20
-218.9068486830934717
  0
LWPOLYLINE
  5
D7
100
AcDbEntity
  8
0
 62
7
420
0
370
-1
 48
1.0
  6
BYLAYER
100
AcDbPolyline
 90
5
 70
128
 10
355.5315564360008693
 20
-353.0842423192018487
 10
369.5315564360008693
 20
-353.0842423192018487
 10
369.5315564360008693
 20
-339.0842423192018487
 10
355.5315564360008693
 20
-339.0842423192018487
 10
355.5315564360008693
 20
-353.0842423192018487
  0
LWPOLYLINE
  5
D8
100
AcDbEntity
  8
0
 62
256
370
-1
 48
1.0
  6
BYLAYER
100
AcDbPolyline
 90
4
 70
128
 10
204.8725419920261857
 20
-573.4054615550754761
 10
255.4636815552264011
 20
-570.754092279169754
 10
232.6084746114306654
 20
-618.1201172807825515
 10
204.8725419920261857
 20
-573.4054615550754761
  0
LWPOLYLINE
  5
D9
100
AcDbEntity
  8
0
 62
256
370
-1
 48
1.0
  6
BYLAYER
100
AcDbPolyline
 90
4
 70
128
 10
217.4879853624136103
 20
-624.1778221774626445
 10
166.8968176156674303
 20
-621.5264514245197915
 10
194.5779473325063691
 20
-576.8089236003912674
 10
217.4879853624136103
 20
-624.1778221774626445
  0
LWPOLYLINE
  5
DA
100
AcDbEntity
  8
0
 62
256
370
-1
 48
1.0
  6
BYLAYER
100
AcDbPolyline
 90
6
 70
1
 10
320.4122872389555141
 20
-254.3681513169066193
 10
318.824573998684059
 20
-251.6181513169065624
 10
320.4122872389554004
 20
-248.8681513169066193
 10
323.587713719498538
 20
-248.8681513169065624
 10
325.1754269597698794
 20
-251.6181513169066761
 10
323.587713719498538
 20
-254.3681513169066193
  0
LWPOLYLINE
  5
DB
100
AcDbEntity
  8
0
 62
256
370
-1
 48
1.0
  6
BYLAYER
100
AcDbPolyline
 90
6
 70
1
 10
198.8173854188633527
 20
-144.75
 10
197.2296721785918976
 20
-142.0
 10
198.817385418863239
 20
-139.2500000000000568
 10
201.9928118994062629
 20
-139.25
 10
203.580525139677718
 20
-142.0000000000001137
 10
201.9928118994062629
 20
-144.75
  0
LWPOLYLINE
  5
DC
100
AcDbEntity
  8
0
 62
256
370
-1
 48
1.0
  6
BYLAYER
100
AcDbPolyline
 90
6
 70
1
 10
320.4122867597286017
 20
-163.7500000000000284
 10
318.8245735194571466
 20
-161.0000000000000284
 10
320.4122867597284881
 20
-158.2500000000000853
 10
323.5877132402715119
 20
-158.2500000000000284
 10
325.1754264805428534
 20
-161.0000000000001421
 10
323.5877132402715119
 20
-163.7500000000000284
  0
LWPOLYLINE
  5
DD
100
AcDbEntity
  8
0
 62
256
370
-1
 48
1.0
  6
BYLAYER
100
AcDbPolyline
 90
6
 70
1
 10
95.5416186615192373
 20
-146.6992203056610151
 10
93.9539054212476685
 20
-143.9492203056610151
 10
95.5416186615191236
 20
-141.199220305661072
 10
98.7170451420621475
 20
-141.1992203056610151
 10
100.3047583823336026
 20
-143.9492203056611288
 10
98.7170451420621475
 20
-146.6992203056610151
  0
LWPOLYLINE
  5
DE
100
AcDbEntity
  8
0
 62
256
370
-1
 48
1.0
  6
BYLAYER
100
AcDbPolyline
 90
6
 70
1
 10
99.5879643359841111
 20
-254.3674415054647966
 10
101.1756775762555662
 20
-251.6174415054646829
 10
99.5879643359842248
 20
-248.8674415054647966
 10
96.4125378554412009
 20
-248.8674415054646829
 10
94.8248246151697458
 20
-251.6174415054647966
 10
96.4125378554412009
 20
-254.3674415054647966
  0
LWPOLYLINE
  5
DF
100
AcDbEntity
  8
0
 62
256
370
-1
 48
1.0
  6
BYLAYER
100
AcDbPolyline
 90
6
 70
1
 10
570.4122862805016894
 20
-166.1318486830935228
 10
568.8245730402302343
 20
-163.381848683093466
 10
570.4122862805015757
 20
-160.6318486830935228
 10
573.5877127610447133
 20
-160.631848683093466
 10
575.1754260013160547
 20
-163.3818486830935797
 10
573.5877127610447133
 20
-166.1318486830935228
  0
LWPOLYLINE
  5
E0
100
AcDbEntity
  8
0
 62
256
370
-1
 48
1.0
  6
BYLAYER
100
AcDbPolyline
 90
6
 70
1
 10
197.514530082746802
 20
-271.0746243996654243
 10
195.9268168424753469
 20
-268.3246243996654243
 10
197.5145300827467452
 20
-265.5746243996654243
 10
200.6899565632897122
 20
-265.5746243996654243
 10
202.2776698035612242
 20
-268.324624399665538
 10
200.6899565632897122
 20
-271.0746243996654243
  0
LWPOLYLINE
  5
E1
100
AcDbEntity
  8
0
 62
256
370
-1
 48
1.0
  6
BYLAYER
100
AcDbPolyline
 90
6
 70
1
 10
319.1094319028389918
 20
-380.6927757165721005
 10
317.5217186625675367
 20
-377.9427757165719868
 10
319.1094319028388782
 20
-375.1927757165721005
 10
322.2848583833820157
 20
-375.1927757165719868
 10
323.8725716236533572
 20
-377.9427757165721005
 10
322.2848583833820157
 20
-380.6927757165721005
  0
LWPOLYLINE
  5
E2
100
AcDbEntity
  8
0
 62
256
370
-1
 48
1.0
  6
BYLAYER
100
AcDbPolyline
 90
6
 70
1
 10
319.1094314236120795
 20
-290.0746243996654812
 10
317.5217181833406244
 20
-287.3246243996654812
 10
319.1094314236119658
 20
-284.574624399665538
 10
322.2848579041549897
 20
-284.5746243996654812
 10
323.8725711444263311
 20
-287.3246243996655949
 10
322.2848579041549897
 20
-290.0746243996654812
  0
LWPOLYLINE
  5
E3
100
AcDbEntity
  8
0
 62
256
370
-1
 48
1.0
  6
BYLAYER
100
AcDbPolyline
 90
6
 70
1
 10
94.2387633254027435
 20
-273.0238447053264963
 10
92.6510500851311747
 20
-270.2738447053264963
 10
94.2387633254026298
 20
-267.5238447053264963
 10
97.4141898059456537
 20
-267.5238447053264963
 10
99.0019030462171088
 20
-270.27384470532661
 10
97.4141898059456537
 20
-273.0238447053264963
  0
LWPOLYLINE
  5
E4
100
AcDbEntity
  8
0
 62
256
370
-1
 48
1.0
  6
BYLAYER
100
AcDbPolyline
 90
6
 70
1
 10
98.2851089998676173
 20
-380.6920659051302209
 10
99.8728222401390724
 20
-377.9420659051301072
 10
98.285108999867731
 20
-375.1920659051302209
 10
95.1096825193247071
 20
-375.1920659051301072
 10
93.521969279053252
 20
-377.9420659051302209
 10
95.1096825193247071
 20
-380.6920659051302209
  0
LWPOLYLINE
  5
E5
100
AcDbEntity
  8
0
 62
256
370
-1
 48
1.0
  6
BYLAYER
100
AcDbPolyline
 90
6
 70
1
 10
572.9563436749563152
 20
-390.9273936361084907
 10
571.3686304346848601
 20
-388.177393636108377
 10
572.9563436749562015
 20
-385.4273936361084907
 10
576.1317701554993391
 20
-385.427393636108377
 10
577.7194833957706805
 20
-388.1773936361084907
 10
576.1317701554993391
 20
-390.9273936361084907
  0
LWPOLYLINE
  5
E6
100
AcDbEntity
  8
0
 62
256
370
-1
 48
1.0
  6
BYLAYER
100
AcDbPolyline
 90
6
 70
1
 10
451.3614418548641538
 20
-281.3092423192018146
 10
449.7737286145926987
 20
-278.5592423192018146
 10
451.3614418548640401
 20
-275.8092423192019282
 10
454.536868335407064
 20
-275.8092423192018146
 10
456.1245815756785191
 20
-278.5592423192019282
 10
454.536868335407064
 20
-281.3092423192018146
  0
LWPOLYLINE
  5
E7
100
AcDbEntity
  8
0
 62
256
370
-1
 48
1.0
  6
BYLAYER
100
AcDbPolyline
 90
6
 70
1
 10
572.9563431957294597
 20
-300.3092423192018714
 10
571.3686299554578909
 20
-297.5592423192018714
 10
572.9563431957292323
 20
-294.8092423192019282
 10
576.1317696762723699
 20
-294.8092423192018714
 10
577.7194829165437113
 20
-297.5592423192019851
 10
576.1317696762723699
 20
-300.3092423192018714
  0
LWPOLYLINE
  5
E8
100
AcDbEntity
  8
0
 62
256
370
-1
 48
1.0
  6
BYLAYER
100
AcDbPolyline
 90
6
 70
1
 10
348.0856750975200384
 20
-283.2584626248628865
 10
346.4979618572484696
 20
-280.5084626248628865
 10
348.0856750975199247
 20
-277.7584626248628865
 10
351.2611015780629486
 20
-277.7584626248628865
 10
352.8488148183344038
 20
-280.5084626248630002
 10
351.2611015780629486
 20
-283.2584626248628865
  0
LWPOLYLINE
  5
E9
100
AcDbEntity
  8
0
 62
256
370
-1
 48
1.0
  6
BYLAYER
100
AcDbPolyline
 90
6
 70
1
 10
352.1320207719849122
 20
-390.9266838246666111
 10
353.7197340122563674
 20
-388.1766838246664975
 10
352.1320207719850259
 20
-385.4266838246666111
 10
348.956594291442002
 20
-385.4266838246664975
 10
347.3688810511705469
 20
-388.1766838246666111
 10
348.956594291442002
 20
-390.9266838246666111
  0
LWPOLYLINE
  5
EA
100
AcDbEntity
  8
0
 62
256
370
-1
 48
1.0
  6
BYLAYER
100
AcDbPolyline
 90
6
 70
1
 10
198.8404653001953477
 20
-407.1317608409187301
 10
197.2527520599238926
 20
-404.3817608409187301
 10
198.8404653001952909
 20
-401.6317608409187301
 10
202.0158917807382579
 20
-401.6317608409187301
 10
203.6036050210097699
 20
-404.3817608409188438
 10
202.0158917807382579
 20
-407.1317608409187301
  0
LWPOLYLINE
  5
EB
100
AcDbEntity
  8
0
 62
256
370
-1
 48
1.0
  6
BYLAYER
100
AcDbPolyline
 90
6
 70
1
 10
320.4353671202875375
 20
-516.7499121578254062
 10
318.8476538800160824
 20
-513.9999121578252925
 10
320.4353671202874239
 20
-511.2499121578254062
 10
323.6107936008305614
 20
-511.2499121578252925
 10
325.1985068411019029
 20
-513.9999121578254062
 10
323.6107936008305614
 20
-516.7499121578254062
  0
LWPOLYLINE
  5
EC
100
AcDbEntity
  8
0
 62
256
370
-1
 48
1.0
  6
BYLAYER
100
AcDbPolyline
 90
6
 70
1
 10
320.4353666410606252
 20
-426.1317608409187869
 10
318.8476534007891701
 20
-423.3817608409187869
 10
320.4353666410605115
 20
-420.6317608409188438
 10
323.6107931216035354
 20
-420.6317608409187869
 10
325.1985063618748768
 20
-423.3817608409189006
 10
323.6107931216035354
 20
-426.1317608409187869
  0
LWPOLYLINE
  5
ED
100
AcDbEntity
  8
0
 62
256
370
-1
 48
1.0
  6
BYLAYER
100
AcDbPolyline
 90
6
 70
1
 10
95.5646985428512892
 20
-409.080981146579802
 10
93.9769853025797204
 20
-406.330981146579802
 10
95.5646985428511755
 20
-403.580981146579802
 10
98.7401250233941994
 20
-403.580981146579802
 10
100.3278382636656545
 20
-406.3309811465799157
 10
98.7401250233941994
 20
-409.080981146579802
  0
LWPOLYLINE
  5
EE
100
AcDbEntity
  8
0
 62
256
370
-1
 48
1.0
  6
BYLAYER
100
AcDbPolyline
 90
6
 70
1
 10
99.611044217316163
 20
-516.7492023463835267
 10
101.1987574575876181
 20
-513.999202346383413
 10
99.6110442173162767
 20
-511.2492023463835267
 10
96.4356177367732528
 20
-511.249202346383413
 10
94.8479044965017977
 20
-513.9992023463835267
 10
96.4356177367732528
 20
-516.7492023463835267
  0
LWPOLYLINE
  5
EF
100
AcDbEntity
  8
0
 62
256
370
-1
 48
1.0
  6
BYLAYER
100
AcDbPolyline
 90
6
 70
1
 10
570.4122867597285449
 20
-516.7500000000001137
 10
568.8245735194570898
 20
-514.0
 10
570.4122867597284312
 20
-511.2500000000001137
 10
573.5877132402715688
 20
-511.25
 10
575.1754264805429102
 20
-514.0000000000001137
 10
573.5877132402715688
 20
-516.7500000000001137
  0
LWPOLYLINE
  5
F0
100
AcDbEntity
  8
0
 62
256
370
-1
 48
1.0
  6
BYLAYER
100
AcDbPolyline
 90
6
 70
1
 10
448.8173849396363835
 20
-407.1318486830934376
 10
447.2296716993649284
 20
-404.3818486830934376
 10
448.8173849396362698
 20
-401.6318486830935512
 10
451.9928114201792937
 20
-401.6318486830934376
 10
453.5805246604507488
 20
-404.3818486830935512
 10
451.9928114201792937
 20
-407.1318486830934376
  0
LWPOLYLINE
  5
F1
100
AcDbEntity
  8
0
 62
256
370
-1
 48
1.0
  6
BYLAYER
100
AcDbPolyline
 90
6
 70
1
 10
570.4122862805016894
 20
-426.1318486830934944
 10
568.8245730402302343
 20
-423.3818486830934944
 10
570.4122862805015757
 20
-420.6318486830935512
 10
573.5877127610445996
 20
-420.6318486830934944
 10
575.175426001315941
 20
-423.3818486830936081
 10
573.5877127610445996
 20
-426.1318486830934944
  0
LWPOLYLINE
  5
F2
100
AcDbEntity
  8
0
 62
256
370
-1
 48
1.0
  6
BYLAYER
100
AcDbPolyline
 90
6
 70
1
 10
345.5416181822922681
 20
-409.0810689887545095
 10
343.9539049420206993
 20
-406.3310689887545095
 10
345.5416181822921544
 20
-403.5810689887545095
 10
348.7170446628351783
 20
-403.5810689887545095
 10
350.3047579031066334
 20
-406.3310689887546232
 10
348.7170446628351783
 20
-409.0810689887545095
  0
LWPOLYLINE
  5
F3
100
AcDbEntity
  8
0
 62
256
370
-1
 48
1.0
  6
BYLAYER
100
AcDbPolyline
 90
6
 70
1
 10
349.5879638567571419
 20
-516.7492901885582341
 10
351.175677097028597
 20
-513.9992901885581205
 10
349.5879638567572556
 20
-511.2492901885582341
 10
346.4125373762142317
 20
-511.2492901885581205
 10
344.8248241359427766
 20
-513.9992901885582341
 10
346.4125373762142317
 20
-516.7492901885582341
  0
LWPOLYLINE
  5
F4
100
AcDbEntity
  8
0
 62
256
370
-1
 48
1.0
  6
BYLAYER
100
AcDbPolyline
 90
6
 70
1
 10
345.5416181822922681
 20
-409.0810689887545095
 10
343.9539049420206993
 20
-406.3310689887545095
 10
345.5416181822921544
 20
-403.5810689887545095
 10
348.7170446628351783
 20
-403.5810689887545095
 10
350.3047579031066334
 20
-406.3310689887545095
 10
348.7170446628351783
 20
-409.0810689887545095
  0
LWPOLYLINE
  5
F5
100
AcDbEntity
  8
0
 62
256
370
-1
 48
1.0
  6
BYLAYER
100
AcDbPolyline
 90
6
 70
1
 10
345.5416181822922681
 20
-409.0810689887545095
 10
343.9539049420206993
 20
-406.3310689887545095
 10
345.5416181822921544
 20
-403.5810689887545095
 10
348.7170446628351783
 20
-403.5810689887545095
 10
350.3047579031066334
 20
-406.3310689887546232
 10
348.7170446628351783
 20
-409.0810689887545095
  0
LWPOLYLINE
  5
F6
100
AcDbEntity
  8
0
 62
256
370
-1
 48
1.0
  6
BYLAYER
100
AcDbPolyline
 90
6
 70
1
 10
95.5646985428512892
 20
-409.0809811465797452
 10
93.9769853025797204
 20
-406.3309811465797452
 10
95.5646985428511755
 20
-403.580981146579802
 10
98.7401250233941994
 20
-403.5809811465797452
 10
100.3278382636656545
 20
-406.3309811465798589
 10
98.7401250233941994
 20
-409.0809811465797452
  0
LWPOLYLINE
  5
F7
100
AcDbEntity
  8
0
 62
256
370
-1
 48
1.0
  6
BYLAYER
100
AcDbPolyline
 90
6
 70
1
 10
345.5416181822922681
 20
-409.0810689887545095
 10
343.9539049420206993
 20
-406.3310689887545095
 10
345.5416181822921544
 20
-403.5810689887545095
 10
348.7170446628351783
 20
-403.5810689887545095
 10
350.3047579031066334
 20
-406.3310689887546232
 10
348.7170446628351783
 20
-409.0810689887545095
  0
LWPOLYLINE
  5
F8
100
AcDbEntity
  8
0
 62
256
370
-1
 48
1.0
  6
BYLAYER
100
AcDbPolyline
 90
6
 70
1
 10
345.5416181822922681
 20
-409.0810689887544527
 10
343.9539049420206993
 20
-406.3310689887544527
 10
345.5416181822921544
 20
-403.5810689887545095
 10
348.7170446628351783
 20
-403.5810689887544527
 10
350.3047579031066334
 20
-406.3310689887545664
 10
348.7170446628351783
 20
-409.0810689887544527
  0
LWPOLYLINE
  5
F9
100
AcDbEntity
  8
0
 62
256
370
-1
 48
1.0
  6
BYLAYER
100
AcDbPolyline
 90
6
 70
1
 10
345.5416181822923249
 20
-409.0810689887545095
 10
343.9539049420207562
 20
-406.3310689887545095
 10
345.5416181822922113
 20
-403.5810689887545095
 10
348.7170446628352352
 20
-403.5810689887545095
 10
350.3047579031066903
 20
-406.3310689887546232
 10
348.7170446628352352
 20
-409.0810689887545095
  0
LINE
  5
FA
100
AcDbEntity
  8
0
 62
0
370
-1
 48
1.0
  6
Continuous
100
AcDbLine
 10
97.5596446638835459
 20
-346.048317181001778
 30
0.0
 11
93.5848500371461256
 21
-346.0483171810020622
 31
0.0
  0
LINE
  5
FB
100
AcDbEntity
  8
0
 62
0
370
-1
 48
1.0
  6
Continuous
100
AcDbLine
 10
97.5596446638835459
 20
-316.3884316183290935
 30
0.0
 11
93.5848500371461256
 21
-316.3884316183288092
 31
0.0
  0
LINE
  5
FC
100
AcDbEntity
  8
0
 62
0
370
-1
 48
1.0
  6
Continuous
100
AcDbLine
 10
319.7346446638835005
 20
-346.048317181001778
 30
0.0
 11
323.7094392906208782
 21
-346.0483171810020622
 31
0.0
  0
LINE
  5
FD
100
AcDbEntity
  8
0
 62
0
370
-1
 48
1.0
  6
Continuous
100
AcDbLine
 10
319.7346446638835005
 20
-317.8884316183291503
 30
0.0
 11
323.7094392906208782
 21
-317.8884316183288661
 31
0.0
  0
LINE
  5
FE
100
AcDbEntity
  8
0
 62
256
370
-1
 48
1.0
  6
BYLAYER
100
AcDbLine
 10
93.5838500371462061
 20
-370.8493171810022204
 30
0.0
 11
97.5596446638835317
 21
-370.8496243996654584
 31
0.0
  0
LINE
  5
FF
100
AcDbEntity
  8
0
 62
256
370
-1
 48
1.0
  6
BYLAYER
100
AcDbLine
 10
93.5838500371461919
 20
-291.587431618328651
 30
0.0
 11
97.5596446638835317
 21
-291.587124399665413
 31
0.0
  0
LINE
  5
100
100
AcDbEntity
  8
0
 62
256
370
-1
 48
1.0
  6
BYLAYER
100
AcDbLine
 10
323.7104392906207977
 20
-370.8493171810022204
 30
0.0
 11
319.7346446638835005
 21
-370.8496243996654584
 31
0.0
  0
LINE
  5
101
100
AcDbEntity
  8
0
 62
256
370
-1
 48
1.0
  6
BYLAYER
100
AcDbLine
 10
323.7104392906208545
 20
-293.0874316183287078
 30
0.0
 11
319.7346446638835005
 21
-293.0871243996654698
 31
0.0
  0
ARC
  5
102
100
AcDbEntity
  8
0
 62
256
370
-1
 48
1.0
  6
BYLAYER
100
AcDbCircle
 10
93.5838500371463766
 20
-368.4493171810019589
 30
0.0
 40
2.4000000000001194
100
AcDbArc
 50
180.0
 51
270.0
  0
ARC
  5
103
100
AcDbEntity
  8
0
 62
256
370
-1
 48
1.0
  6
BYLAYER
100
AcDbCircle
 10
93.5838500371463766
 20
-293.9874316183289125
 30
0.0
 40
2.4000000000001194
100
AcDbArc
 50
90.0000000000000142
 51
180.0
  0
ARC
  5
104
100
AcDbEntity
  8
0
 62
256
370
-1
 48
1.0
  6
BYLAYER
100
AcDbCircle
 10
323.7104392906206272
 20
-368.4493171810019589
 30
0.0
 40
2.4000000000001194
100
AcDbArc
 50
270.0
 51
0.0
  0
ARC
  5
105
100
AcDbEntity
  8
0
 62
256
370
-1
 48
1.0
  6
BYLAYER
100
AcDbCircle
 10
323.7104392906206272
 20
-295.4874316183289693
 30
0.0
 40
2.4000000000001194
100
AcDbArc
 50
0.0
 51
90.0000000000000142
  0
ARC
  5
106
100
AcDbEntity
  8
0
 62
256
370
-1
 48
1.0
  6
BYLAYER
100
AcDbCircle
 10
93.5848500371461824
 20
-348.4493171810019589
 30
0.0
 40
2.4009999999998968
100
AcDbArc
 50
90.0000000000000142
 51
180.0
  0
ARC
  5
107
100
AcDbEntity
  8
0
 62
256
370
-1
 48
1.0
  6
BYLAYER
100
AcDbCircle
 10
93.5848500371461824
 20
-313.9874316183289125
 30
0.0
 40
2.4009999999998968
100
AcDbArc
 50
180.0
 51
270.0
  0
ARC
  5
108
100
AcDbEntity
  8
0
 62
256
370
-1
 48
1.0
  6
BYLAYER
100
AcDbCircle
 10
323.7094392906208213
 20
-348.4493171810019589
 30
0.0
 40
2.4009999999998968
100
AcDbArc
 50
0.0
 51
90.0000000000000142
  0
ARC
  5
109
100
AcDbEntity
  8
0
 62
256
370
-1
 48
1.0
  6
BYLAYER
100
AcDbCircle
 10
323.7094392906208213
 20
-315.4874316183289693
 30
0.0
 40
2.4009999999998968
100
AcDbArc
 50
270.0
 51
0.0
  0
CIRCLE
  5
10A
100
AcDbEntity
  8
0
 62
256
370
-1
 48
1.0
  6
BYLAYER
100
AcDbCircle
 10
571.9999999999998863
 20
-254.0
 30
0.0
 40
1.6749999999999829
  0
CIRCLE
  5
10B
100
AcDbEntity
  8
0
 62
256
370
-1
 48
1.0
  6
BYLAYER
100
AcDbCircle
 10
450.4050981799077249
 20
-144.3818486830934376
 30
0.0
 40
1.6749999999999829
  0
CIRCLE
  5
10C
100
AcDbEntity
  8
0
 62
256
370
-1
 48
1.0
  6
BYLAYER
100
AcDbCircle
 10
347.1293314225635527
 20
-146.3310689887544527
 30
0.0
 40
1.6749999999999829
  0
CIRCLE
  5
10D
100
AcDbEntity
  8
0
 62
256
370
-1
 48
1.0
  6
BYLAYER
100
AcDbCircle
 10
348.0002506164858005
 20
-253.9992901885581205
 30
0.0
 40
1.6749999999999829
  0
CIRCLE
  5
10E
100
AcDbEntity
  8
0
 62
256
370
-1
 48
1.0
  6
BYLAYER
100
AcDbCircle
 10
571.9999995207730308
 20
-163.381848683093466
 30
0.0
 40
1.6749999999999829
  0
CIRCLE
  5
10F
100
AcDbEntity
  8
0
 62
256
370
-1
 48
1.0
  6
BYLAYER
100
AcDbCircle
 10
322.0197247991876566
 20
-644.0000325627615894
 30
0.0
 40
1.6749999999999829
  0
CIRCLE
  5
110
100
AcDbEntity
  8
0
 62
256
370
-1
 48
1.0
  6
BYLAYER
100
AcDbCircle
 10
200.4248229790954952
 20
-534.3818812458550838
 30
0.0
 40
1.6749999999999829
  0
CIRCLE
  5
111
100
AcDbEntity
  8
0
 62
256
370
-1
 48
1.0
  6
BYLAYER
100
AcDbCircle
 10
97.1490562217513229
 20
-536.3311015515159852
 30
0.0
 40
1.6749999999999829
  0
CIRCLE
  5
112
100
AcDbEntity
  8
0
 62
256
370
-1
 48
1.0
  6
BYLAYER
100
AcDbCircle
 10
98.0199754156735708
 20
-643.9993227513197098
 30
0.0
 40
1.6749999999999829
  0
CIRCLE
  5
113
100
AcDbEntity
  8
0
 62
256
370
-1
 48
1.0
  6
BYLAYER
100
AcDbCircle
 10
322.019724319960801
 20
-553.3818812458550838
 30
0.0
 40
1.6749999999999829
  0
CIRCLE
  5
114
100
AcDbEntity
  8
0
 62
256
370
-1
 48
1.0
  6
BYLAYER
100
AcDbCircle
 10
448.489906117431417
 20
-530.6742601551792404
 30
0.0
 40
1.6749999999999829
  0
CIRCLE
  5
115
100
AcDbEntity
  8
0
 62
256
370
-1
 48
1.0
  6
BYLAYER
100
AcDbCircle
 10
97.139006601200947
 20
-536.3310714035201272
 30
0.0
 40
1.6749999999999829
  0
CIRCLE
  5
116
100
AcDbEntity
  8
0
 62
256
370
-1
 48
1.0
  6
BYLAYER
100
AcDbCircle
 10
322.0096746994104819
 20
-553.3818510978592258
 30
0.0
 40
1.6749999999999829
  0
CIRCLE
  5
117
100
AcDbEntity
  8
0
 62
256
370
-1
 48
1.0
  6
BYLAYER
100
AcDbCircle
 10
97.1490562217512093
 20
-536.3311015515159852
 30
0.0
 40
1.6749999999999829
  0
CIRCLE
  5
118
100
AcDbEntity
  8
0
 62
256
370
-1
 48
1.0
  6
BYLAYER
100
AcDbCircle
 10
572.0
 20
-254.0
 30
0.0
 40
1.6749999999999829
  0
CIRCLE
  5
119
100
AcDbEntity
  8
0
 62
256
370
-1
 48
1.0
  6
BYLAYER
100
AcDbCircle
 10
571.9999995207731445
 20
-163.381848683093466
 30
0.0
 40
1.6749999999999829
  0
CIRCLE
  5
11A
100
AcDbEntity
  8
0
 62
256
370
-1
 48
1.0
  6
BYLAYER
100
AcDbCircle
 10
347.1293314225636664
 20
-146.3310689887544527
 30
0.0
 40
1.6749999999999829
  0
CIRCLE
  5
11B
100
AcDbEntity
  8
0
 62
256
370
-1
 48
1.0
  6
BYLAYER
100
AcDbCircle
 10
348.0002506164856868
 20
-253.9992901885581205
 30
0.0
 40
1.6749999999999829
  0
CIRCLE
  5
11C
100
AcDbEntity
  8
0
 62
256
370
-1
 48
1.0
  6
BYLAYER
100
AcDbCircle
 10
571.9999995207731445
 20
-163.381848683093466
 30
0.0
 40
1.6749999999999829
  0
CIRCLE
  5
11D
100
AcDbEntity
  8
0
 62
256
370
-1
 48
1.0
  6
BYLAYER
100
AcDbCircle
 10
322.0197247991877703
 20
-644.0000325627615894
 30
0.0
 40
1.6749999999999829
  0
CIRCLE
  5
11E
100
AcDbEntity
  8
0
 62
256
370
-1
 48
1.0
  6
BYLAYER
100
AcDbCircle
 10
570.0948570788473262
 20
-549.6742903031750984
 30
0.0
 40
1.6749999999999829
  0
CIRCLE
  5
11F
100
AcDbEntity
  8
0
 62
256
370
-1
 48
1.0
  6
BYLAYER
100
AcDbCircle
 10
345.2241889806378481
 20
-532.6235106088359998
 30
0.0
 40
1.6749999999999829
  0
CIRCLE
  5
120
100
AcDbEntity
  8
0
 62
256
370
-1
 48
1.0
  6
BYLAYER
100
AcDbCircle
 10
98.0199754156734571
 20
-643.9993227513197098
 30
0.0
 40
1.6749999999999829
  0
CIRCLE
  5
121
100
AcDbEntity
  8
0
 62
256
370
-1
 48
1.0
  6
BYLAYER
100
AcDbCircle
 10
322.0096746994104819
 20
-553.3818510978592258
 30
0.0
 40
1.6749999999999829
  0
CIRCLE
  5
122
100
AcDbEntity
  8
0
 62
256
370
-1
 48
1.0
  6
BYLAYER
100
AcDbCircle
 10
97.1390066012010607
 20
-536.3310714035201272
 30
0.0
 40
1.6749999999999829
  0
CIRCLE
  5
123
100
AcDbEntity
  8
0
 62
256
370
-1
 48
1.0
  6
BYLAYER
100
AcDbCircle
 10
97.1490562217513229
 20
-536.3311015515159852
 30
0.0
 40
1.6749999999999829
  0
CIRCLE
  5
124
100
AcDbEntity
  8
0
 62
256
370
-1
 48
1.0
  6
BYLAYER
100
AcDbCircle
 10
97.1490562217513229
 20
-536.3311015515159852
 30
0.0
 40
1.6749999999999829
  0
LINE
  5
125
100
AcDbEntity
  8
0
 62
256
370
-1
 48
1.0
  6
BYLAYER
100
AcDbLine
 10
326.5374999999999091
 20
-154.6624999999976353
 30
0.0
 11
235.1391614236358691
 21
-154.6624999999991701
 31
0.0
  0
LINE
  5
126
100
AcDbEntity
  8
0
 62
256
370
-1
 48
1.0
  6
BYLAYER
100
AcDbLine
 10
575.5374995207730535
 20
-158.0443486830911013
 30
0.0
 11
484.1391609444090136
 21
-158.0443486830926361
 31
0.0
  0
LINE
  5
127
100
AcDbEntity
  8
0
 62
256
370
-1
 48
1.0
  6
BYLAYER
100
AcDbLine
 10
294.0630167154705532
 20
-262.9373000840133159
 30
0.0
 11
202.6646781391065133
 21
-262.9373000840147938
 31
0.0
  0
LINE
  5
128
100
AcDbEntity
  8
0
 62
256
370
-1
 48
1.0
  6
BYLAYER
100
AcDbLine
 10
326.2346446638831026
 20
-262.9373000840128043
 30
0.0
 11
294.0630167154705532
 21
-262.9373000840133159
 31
0.0
  0
LINE
  5
129
100
AcDbEntity
  8
0
 62
256
370
-1
 48
1.0
  6
BYLAYER
100
AcDbLine
 10
548.9099284875878766
 20
-272.1719180035497061
 30
0.0
 11
456.5115899112238367
 21
-272.171918003551184
 31
0.0
  0
LINE
  5
12A
100
AcDbEntity
  8
0
 62
256
370
-1
 48
1.0
  6
BYLAYER
100
AcDbLine
 10
581.0815564360004828
 20
-272.1719180035491945
 30
0.0
 11
548.9099284875878766
 21
-272.1719180035497061
 31
0.0
  0
LINE
  5
12B
100
AcDbEntity
  8
0
 62
256
370
-1
 48
1.0
  6
BYLAYER
100
AcDbLine
 10
295.3889519329190989
 20
-398.9944365252666216
 30
0.0
 11
203.990613356555059
 21
-398.9944365252680996
 31
0.0
  0
LINE
  5
12C
100
AcDbEntity
  8
0
 62
256
370
-1
 48
1.0
  6
BYLAYER
100
AcDbLine
 10
327.5605798813316483
 20
-398.99443652526611
 30
0.0
 11
295.3889519329190989
 21
-398.9944365252666216
 31
0.0
  0
LINE
  5
12D
100
AcDbEntity
  8
0
 62
256
370
-1
 48
1.0
  6
BYLAYER
100
AcDbLine
 10
545.3983380971370707
 20
-399.994348683091971
 30
0.0
 11
453.9999995207730308
 21
-399.9943486830934489
 31
0.0
  0
LINE
  5
12E
100
AcDbEntity
  8
0
 62
256
370
-1
 48
1.0
  6
BYLAYER
100
AcDbLine
 10
576.5374995207728261
 20
-399.9943486830914594
 30
0.0
 11
545.3983380971370707
 21
-399.994348683091971
 31
0.0
  0
LINE
  5
12F
100
AcDbEntity
  8
0
 62
256
370
-1
 48
1.0
  6
BYLAYER
100
AcDbLine
 10
233.6391614236358691
 20
-154.2605762113525714
 30
0.0
 11
205.5
 21
-138.0144237886466954
 31
0.0
  0
LINE
  5
130
100
AcDbEntity
  8
0
 62
256
370
-1
 48
1.0
  6
BYLAYER
100
AcDbLine
 10
482.6391609444093547
 20
-157.6424248944459805
 30
0.0
 11
454.4999995207734855
 21
-141.3962724717401045
 31
0.0
  0
ARC
  5
131
100
AcDbEntity
  8
0
 62
256
370
-1
 48
1.0
  6
BYLAYER
100
AcDbCircle
 10
204.0
 20
-140.6124999999999829
 30
0.0
 40
2.999999999999976
100
AcDbArc
 50
59.99999999999973
 51
90.0000000000010942
  0
ARC
  5
132
100
AcDbEntity
  8
0
 62
256
370
-1
 48
1.0
  6
BYLAYER
100
AcDbCircle
 10
452.9999995207734855
 20
-143.9943486830933921
 30
0.0
 40
2.999999999999976
100
AcDbArc
 50
59.99999999999973
 51
90.0000000000010942
  0
ARC
  5
133
100
AcDbEntity
  8
0
 62
256
370
-1
 48
1.0
  6
BYLAYER
100
AcDbCircle
 10
235.1391614236355849
 20
-151.6625000000003922
 30
0.0
 40
2.9999999999988058
100
AcDbArc
 50
239.9999999999947988
 51
270.0000000000054001
  0
ARC
  5
134
100
AcDbEntity
  8
0
 62
256
370
-1
 48
1.0
  6
BYLAYER
100
AcDbCircle
 10
484.1391609444090136
 20
-155.0443486830938298
 30
0.0
 40
2.9999999999988058
100
AcDbArc
 50
239.9999999999947988
 51
270.0000000000054001
  0
LINE
  5
135
100
AcDbEntity
  8
0
 62
256
370
-1
 48
1.0
  6
BYLAYER
100
AcDbLine
 10
204.0
 20
-137.6125000000000114
 30
0.0
 11
104.0
 21
-137.6125000000000114
 31
0.0
  0
LINE
  5
136
100
AcDbEntity
  8
0
 62
256
370
-1
 48
1.0
  6
BYLAYER
100
AcDbLine
 10
202.6646781391065133
 20
-262.9373000840147938
 30
0.0
 11
102.6646781391065275
 21
-262.9373000840147938
 31
0.0
  0
LINE
  5
137
100
AcDbEntity
  8
0
 62
256
370
-1
 48
1.0
  6
BYLAYER
100
AcDbLine
 10
456.5115899112238367
 20
-272.171918003551184
 30
0.0
 11
356.5115899112238367
 21
-272.171918003551184
 31
0.0
  0
LINE
  5
138
100
AcDbEntity
  8
0
 62
256
370
-1
 48
1.0
  6
BYLAYER
100
AcDbLine
 10
203.990613356555059
 20
-398.9944365252680996
 30
0.0
 11
138.4517640747825453
 21
-399.0000000000002274
 31
0.0
  0
LINE
  5
139
100
AcDbEntity
  8
0
 62
256
370
-1
 48
1.0
  6
BYLAYER
100
AcDbLine
 10
453.9999995207730308
 20
-399.9943486830934489
 30
0.0
 11
387.1585687826112121
 21
-399.9943486830934489
 31
0.0
  0
LINE
  5
13A
100
AcDbEntity
  8
0
 62
256
370
-1
 48
1.0
  6
BYLAYER
100
AcDbLine
 10
104.0
 20
-137.6125000000000114
 30
0.0
 11
93.448806762112909
 21
-137.611302633813068
 31
0.0
  0
LINE
  5
13B
100
AcDbEntity
  8
0
 62
256
370
-1
 48
1.0
  6
BYLAYER
100
AcDbLine
 10
102.6646781391065275
 20
-262.9373000840147938
 30
0.0
 11
92.1134849012194366
 21
-262.9361027178278505
 31
0.0
  0
LINE
  5
13C
100
AcDbEntity
  8
0
 62
256
370
-1
 48
1.0
  6
BYLAYER
100
AcDbLine
 10
356.5115899112238367
 20
-272.171918003551184
 30
0.0
 11
343.9603966733367315
 21
-272.1707206373642407
 31
0.0
  0
LINE
  5
13D
100
AcDbEntity
  8
0
 62
256
370
-1
 48
1.0
  6
BYLAYER
100
AcDbLine
 10
109.6662716712750978
 20
-399.0
 30
0.0
 11
93.4394201186679823
 21
-398.9932391590811562
 31
0.0
  0
LINE
  5
13E
100
AcDbEntity
  8
0
 62
256
370
-1
 48
1.0
  6
BYLAYER
100
AcDbLine
 10
360.9129611559619093
 20
-399.9943486830934489
 30
0.0
 11
343.4488062828859825
 21
-399.9931513169065056
 31
0.0
  0
LINE
  5
13F
100
AcDbEntity
  8
0
 62
256
370
-1
 48
1.0
  6
BYLAYER
100
AcDbLine
 10
90.448806762112909
 20
-199.9988026338130567
 30
0.0
 11
90.448806762112909
 21
-140.611302633813068
 31
0.0
  0
LINE
  5
140
100
AcDbEntity
  8
0
 62
256
370
-1
 48
1.0
  6
BYLAYER
100
AcDbLine
 10
90.4625009584538731
 20
-254.6238026338130567
 30
0.0
 11
90.4488067621128948
 21
-199.9988026338130567
 31
0.0
  0
LINE
  5
141
100
AcDbEntity
  8
0
 62
256
370
-1
 48
1.0
  6
BYLAYER
100
AcDbLine
 10
329.5375000000000227
 20
-254.625
 30
0.0
 11
329.5511941963409868
 21
-199.9999999999999716
 31
0.0
  0
LINE
  5
142
100
AcDbEntity
  8
0
 62
256
370
-1
 48
1.0
  6
BYLAYER
100
AcDbLine
 10
88.1134849012194366
 20
-326.323602717827896
 30
0.0
 11
88.1134849012194366
 21
-266.9361027178278505
 31
0.0
  0
LINE
  5
143
100
AcDbEntity
  8
0
 62
256
370
-1
 48
1.0
  6
BYLAYER
100
AcDbLine
 10
88.1271790975604148
 20
-380.948602717827896
 30
0.0
 11
88.1134849012194366
 21
-326.323602717827896
 31
0.0
  0
LINE
  5
144
100
AcDbEntity
  8
0
 62
256
370
-1
 48
1.0
  6
BYLAYER
100
AcDbLine
 10
340.9603966733367315
 20
-336.5582206373642862
 30
0.0
 11
340.9603966733367315
 21
-276.1707206373642407
 31
0.0
  0
LINE
  5
145
100
AcDbEntity
  8
0
 62
256
370
-1
 48
1.0
  6
BYLAYER
100
AcDbLine
 10
340.9740908696777524
 20
-391.1832206373642862
 30
0.0
 11
340.9603966733367315
 21
-336.5582206373642862
 31
0.0
  0
LINE
  5
146
100
AcDbEntity
  8
0
 62
256
370
-1
 48
1.0
  6
BYLAYER
100
AcDbLine
 10
89.4394201186679823
 20
-462.3807391590812017
 30
0.0
 11
89.4394201186679823
 21
-402.9932391590811562
 31
0.0
  0
LINE
  5
147
100
AcDbEntity
  8
0
 62
256
370
-1
 48
1.0
  6
BYLAYER
100
AcDbLine
 10
89.4531143150089605
 20
-517.0057391590812585
 30
0.0
 11
89.4394201186679823
 21
-462.3807391590812017
 31
0.0
  0
LINE
  5
148
100
AcDbEntity
  8
0
 62
256
370
-1
 48
1.0
  6
BYLAYER
100
AcDbLine
 10
340.4488062828859825
 20
-462.3806513169065511
 30
0.0
 11
340.4488062828859825
 21
-402.9931513169065056
 31
0.0
  0
LINE
  5
149
100
AcDbEntity
  8
0
 62
256
370
-1
 48
1.0
  6
BYLAYER
100
AcDbLine
 10
340.4625004792269465
 20
-517.0056513169065511
 30
0.0
 11
340.4488062828859256
 21
-462.3806513169065511
 31
0.0
  0
LINE
  5
14A
100
AcDbEntity
  8
0
 62
256
370
-1
 48
1.0
  6
BYLAYER
100
AcDbLine
 10
579.5374995207730535
 20
-517.0068486830934944
 30
0.0
 11
579.5511937171140744
 21
-462.3818486830934376
 31
0.0
  0
LINE
  5
14B
100
AcDbEntity
  8
0
 62
256
370
-1
 48
1.0
  6
BYLAYER
100
AcDbLine
 10
326.5699665247769303
 20
-257.6248243156506419
 30
0.0
 11
98.2249999999999801
 21
-257.611305803659036
 31
0.0
  0
LINE
  5
14C
100
AcDbEntity
  8
0
 62
256
370
-1
 48
1.0
  6
BYLAYER
100
AcDbLine
 10
575.5374995207731672
 20
-259.0066729987440795
 30
0.0
 11
347.1925329959962028
 21
-258.9931544867524735
 31
0.0
  0
LINE
  5
14D
100
AcDbEntity
  8
0
 62
256
370
-1
 48
1.0
  6
BYLAYER
100
AcDbLine
 10
325.2346446638835005
 20
-384.9496243996654812
 30
0.0
 11
96.8896781391065218
 21
-384.9361058876738753
 31
0.0
  0
LINE
  5
14E
100
AcDbEntity
  8
0
 62
256
370
-1
 48
1.0
  6
BYLAYER
100
AcDbLine
 10
580.0815564360008239
 20
-395.1842423192018714
 30
0.0
 11
350.7365899112238594
 21
-395.1707238072102655
 31
0.0
  0
LINE
  5
14F
100
AcDbEntity
  8
0
 62
256
370
-1
 48
1.0
  6
BYLAYER
100
AcDbLine
 10
326.5605798813320462
 20
-521.0067608409187869
 30
0.0
 11
98.2156133565550675
 21
-520.993242328927181
 31
0.0
  0
LINE
  5
150
100
AcDbEntity
  8
0
 62
256
370
-1
 48
1.0
  6
BYLAYER
100
AcDbLine
 10
576.569966045550018
 20
-520.0066729987440795
 30
0.0
 11
348.2249995207730535
 21
-519.9931544867524735
 31
0.0
  0
LINE
  5
151
100
AcDbEntity
  8
0
 62
256
370
-1
 48
1.0
  6
BYLAYER
100
AcDbLine
 10
325.5572243199609375
 20
-649.0067055615056688
 30
0.0
 11
97.212257795183973
 21
-648.9931870495140629
 31
0.0
  0
LINE
  5
152
100
AcDbEntity
  8
0
 62
256
370
-1
 48
1.0
  6
BYLAYER
100
AcDbLine
 10
329.5375000000000227
 20
-157.6250000000000284
 30
0.0
 11
329.5375000000000227
 21
-254.625
 31
0.0
  0
LINE
  5
153
100
AcDbEntity
  8
0
 62
256
370
-1
 48
1.0
  6
BYLAYER
100
AcDbLine
 10
578.5374995207731672
 20
-161.044348683091016
 30
0.0
 11
578.5374995207731672
 21
-256.0066729987440795
 31
0.0
  0
LINE
  5
154
100
AcDbEntity
  8
0
 62
256
370
-1
 48
1.0
  6
BYLAYER
100
AcDbLine
 10
329.2346446638831594
 20
-265.9373000840128043
 30
0.0
 11
329.2346446638835005
 21
-379.9496243996654812
 31
0.0
  0
LINE
  5
155
100
AcDbEntity
  8
0
 62
256
370
-1
 48
1.0
  6
BYLAYER
100
AcDbLine
 10
584.0815564360004828
 20
-275.1719180035491945
 30
0.0
 11
584.0815564360008239
 21
-390.1842423192018714
 31
0.0
  0
LINE
  5
156
100
AcDbEntity
  8
0
 62
256
370
-1
 48
1.0
  6
BYLAYER
100
AcDbLine
 10
330.5605798813317051
 20
-401.99443652526611
 30
0.0
 11
330.5605798813320462
 21
-516.0067608409187869
 31
0.0
  0
LINE
  5
157
100
AcDbEntity
  8
0
 62
256
370
-1
 48
1.0
  6
BYLAYER
100
AcDbLine
 10
579.5374995207728261
 20
-402.9943486830914594
 30
0.0
 11
579.5374995207730535
 21
-517.0068486830934944
 31
0.0
  0
LINE
  5
158
100
AcDbEntity
  8
0
 62
256
370
-1
 48
1.0
  6
BYLAYER
100
AcDbLine
 10
328.5573949706626991
 20
-533.9956077938848011
 30
0.0
 11
328.5572243199609375
 21
-646.0067055615056688
 31
0.0
  0
LINE
  5
159
100
AcDbEntity
  8
0
 62
256
370
-1
 48
1.0
  6
BYLAYER
100
AcDbLine
 10
575.6224450752001758
 20
-531.2604776918635707
 30
0.0
 11
575.6224092397606
 21
-554.7820154923900873
 31
0.0
  0
ARC
  5
15A
100
AcDbEntity
  8
0
 62
256
370
-1
 48
1.0
  6
BYLAYER
100
AcDbCircle
 10
326.5374999999999659
 20
-157.66249999999755
 30
0.0
 40
3.0
100
AcDbArc
 50
0.0
 51
90.0
  0
ARC
  5
15B
100
AcDbEntity
  8
0
 62
256
370
-1
 48
1.0
  6
BYLAYER
100
AcDbCircle
 10
575.5374995207731672
 20
-161.044348683091016
 30
0.0
 40
3.0
100
AcDbArc
 50
0.0
 51
90.0
  0
ARC
  5
15C
100
AcDbEntity
  8
0
 62
256
370
-1
 48
1.0
  6
BYLAYER
100
AcDbCircle
 10
326.2346446638831594
 20
-265.9373000840128043
 30
0.0
 40
3.0
100
AcDbArc
 50
0.0
 51
90.0
  0
ARC
  5
15D
100
AcDbEntity
  8
0
 62
256
370
-1
 48
1.0
  6
BYLAYER
100
AcDbCircle
 10
581.0815564360004828
 20
-275.1719180035491945
 30
0.0
 40
3.0
100
AcDbArc
 50
0.0
 51
90.0
  0
ARC
  5
15E
100
AcDbEntity
  8
0
 62
256
370
-1
 48
1.0
  6
BYLAYER
100
AcDbCircle
 10
327.5605798813317051
 20
-401.99443652526611
 30
0.0
 40
3.0
100
AcDbArc
 50
0.0
 51
90.0
  0
ARC
  5
15F
100
AcDbEntity
  8
0
 62
256
370
-1
 48
1.0
  6
BYLAYER
100
AcDbCircle
 10
576.5374995207728261
 20
-402.9943486830914594
 30
0.0
 40
3.0
100
AcDbArc
 50
0.0
 51
90.0
  0
ARC
  5
160
100
AcDbEntity
  8
0
 62
256
370
-1
 48
1.0
  6
BYLAYER
100
AcDbCircle
 10
325.5573949706626991
 20
-533.9956077938848011
 30
0.0
 40
3.0
100
AcDbArc
 50
0.0
 51
90.0
  0
ARC
  5
161
100
AcDbEntity
  8
0
 62
256
370
-1
 48
1.0
  6
BYLAYER
100
AcDbCircle
 10
572.6224766064376581
 20
-531.2742321976865014
 30
0.0
 40
3.0
100
AcDbArc
 50
0.0
 51
90.0
  0
ARC
  5
162
100
AcDbEntity
  8
0
 62
256
370
-1
 48
1.0
  6
BYLAYER
100
AcDbCircle
 10
93.4488067621128806
 20
-254.6238026338130567
 30
0.0
 40
2.986305803659008
100
AcDbArc
 50
180.0
 51
270.0
  0
ARC
  5
163
100
AcDbEntity
  8
0
 62
256
370
-1
 48
1.0
  6
BYLAYER
100
AcDbCircle
 10
344.4490568993715556
 20
-256.0059631873021999
 30
0.0
 40
2.986305803659008
100
AcDbArc
 50
180.0
 51
270.0
  0
ARC
  5
164
100
AcDbEntity
  8
0
 62
256
370
-1
 48
1.0
  6
BYLAYER
100
AcDbCircle
 10
91.1134849012194223
 20
-381.948602717827896
 30
0.0
 40
2.986305803659008
100
AcDbArc
 50
180.0
 51
270.0
  0
ARC
  5
165
100
AcDbEntity
  8
0
 62
256
370
-1
 48
1.0
  6
BYLAYER
100
AcDbCircle
 10
343.9603966733367315
 20
-392.1832206373642862
 30
0.0
 40
2.986305803659008
100
AcDbArc
 50
180.0
 51
270.0
  0
ARC
  5
166
100
AcDbEntity
  8
0
 62
256
370
-1
 48
1.0
  6
BYLAYER
100
AcDbCircle
 10
92.439420118667968
 20
-518.0057391590812585
 30
0.0
 40
2.986305803659008
100
AcDbArc
 50
180.0
 51
270.0
  0
ARC
  5
167
100
AcDbEntity
  8
0
 62
256
370
-1
 48
1.0
  6
BYLAYER
100
AcDbCircle
 10
343.4488062828859256
 20
-517.0056513169065511
 30
0.0
 40
2.986305803659008
100
AcDbArc
 50
180.0
 51
270.0
  0
ARC
  5
168
100
AcDbEntity
  8
0
 62
256
370
-1
 48
1.0
  6
BYLAYER
100
AcDbCircle
 10
94.4687816985593258
 20
-646.0059957500637893
 30
0.0
 40
2.986305803659008
100
AcDbArc
 50
180.0
 51
270.0
  0
ARC
  5
169
100
AcDbEntity
  8
0
 62
256
370
-1
 48
1.0
  6
BYLAYER
100
AcDbCircle
 10
93.448806762112909
 20
-140.611302633813068
 30
0.0
 40
3.0
100
AcDbArc
 50
90.0
 51
180.0
  0
ARC
  5
16A
100
AcDbEntity
  8
0
 62
256
370
-1
 48
1.0
  6
BYLAYER
100
AcDbCircle
 10
344.4230508808512923
 20
-143.9932618757327418
 30
0.0
 40
3.0
100
AcDbArc
 50
90.0
 51
180.0
  0
ARC
  5
16B
100
AcDbEntity
  8
0
 62
256
370
-1
 48
1.0
  6
BYLAYER
100
AcDbCircle
 10
91.1134849012194366
 20
-265.9361027178278505
 30
0.0
 40
3.0
100
AcDbArc
 50
90.0
 51
180.0
  0
ARC
  5
16C
100
AcDbEntity
  8
0
 62
256
370
-1
 48
1.0
  6
BYLAYER
100
AcDbCircle
 10
343.9603966733367315
 20
-275.1707206373642407
 30
0.0
 40
3.0
100
AcDbArc
 50
90.0
 51
180.0
  0
ARC
  5
16D
100
AcDbEntity
  8
0
 62
256
370
-1
 48
1.0
  6
BYLAYER
100
AcDbCircle
 10
92.4394201186679823
 20
-401.9932391590811562
 30
0.0
 40
3.0
100
AcDbArc
 50
90.0
 51
180.0
  0
ARC
  5
16E
100
AcDbEntity
  8
0
 62
256
370
-1
 48
1.0
  6
BYLAYER
100
AcDbCircle
 10
343.4488062828859825
 20
-402.9931513169065056
 30
0.0
 40
3.0
100
AcDbArc
 50
90.0
 51
180.0
  0
ARC
  5
16F
100
AcDbEntity
  8
0
 62
256
370
-1
 48
1.0
  6
BYLAYER
100
AcDbCircle
 10
94.4427756800390625
 20
-533.9932944384943312
 30
0.0
 40
3.0
100
AcDbArc
 50
90.0
 51
180.0
  0
ARC
  5
170
100
AcDbEntity
  8
0
 62
256
370
-1
 48
1.0
  6
BYLAYER
100
AcDbCircle
 10
343.5078888470516745
 20
-531.2856733481189622
 30
0.0
 40
3.0
100
AcDbArc
 50
90.0
 51
180.0
  0
ARC
  5
171
100
AcDbEntity
  8
0
 62
256
370
-1
 48
1.0
  6
BYLAYER
100
AcDbCircle
 10
326.5375000000000227
 20
-254.625
 30
0.0
 40
3.0
100
AcDbArc
 50
270.0
 51
360.0
  0
ARC
  5
172
100
AcDbEntity
  8
0
 62
256
370
-1
 48
1.0
  6
BYLAYER
100
AcDbCircle
 10
575.5374995207731672
 20
-256.0066729987440795
 30
0.0
 40
3.0
100
AcDbArc
 50
270.0
 51
360.0
  0
ARC
  5
173
100
AcDbEntity
  8
0
 62
256
370
-1
 48
1.0
  6
BYLAYER
100
AcDbCircle
 10
326.2346446638835005
 20
-381.9496243996654812
 30
0.0
 40
3.0
100
AcDbArc
 50
270.0
 51
360.0
  0
ARC
  5
174
100
AcDbEntity
  8
0
 62
256
370
-1
 48
1.0
  6
BYLAYER
100
AcDbCircle
 10
581.0815564360008239
 20
-392.1842423192018714
 30
0.0
 40
3.0
100
AcDbArc
 50
270.0
 51
360.0
  0
ARC
  5
175
100
AcDbEntity
  8
0
 62
256
370
-1
 48
1.0
  6
BYLAYER
100
AcDbCircle
 10
327.5605798813320462
 20
-518.0067608409187869
 30
0.0
 40
3.0
100
AcDbArc
 50
270.0
 51
360.0
  0
ARC
  5
176
100
AcDbEntity
  8
0
 62
256
370
-1
 48
1.0
  6
BYLAYER
100
AcDbCircle
 10
576.5374995207730535
 20
-517.0068486830934944
 30
0.0
 40
3.0
100
AcDbArc
 50
270.0
 51
360.0
  0
ARC
  5
177
100
AcDbEntity
  8
0
 62
256
370
-1
 48
1.0
  6
BYLAYER
100
AcDbCircle
 10
325.5572243199609375
 20
-646.0067055615056688
 30
0.0
 40
3.0
100
AcDbArc
 50
270.0
 51
0.0
  0
LINE
  5
178
100
AcDbEntity
  8
0
 62
256
370
-1
 48
1.0
  6
BYLAYER
100
AcDbLine
 10
505.9921034106620255
 20
-247.4671256420821521
 30
0.0
 11
505.9921034106620255
 21
-245.8671256420821578
 31
0.0
  0
LINE
  5
179
100
AcDbEntity
  8
0
 62
256
370
-1
 48
1.0
  6
BYLAYER
100
AcDbLine
 10
505.9921034106620255
 20
-247.4671256420821521
 30
0.0
 11
507.5921034106620482
 21
-247.4671256420821521
 31
0.0
  0
LINE
  5
17A
100
AcDbEntity
  8
0
 62
256
370
-1
 48
1.0
  6
BYLAYER
100
AcDbLine
 10
505.9921034106620255
 20
-245.8671256420821578
 30
0.0
 11
507.5921034106620482
 21
-245.8671256420821578
 31
0.0
  0
ARC
  5
17B
100
AcDbEntity
  8
0
 62
256
370
-1
 48
1.0
  6
BYLAYER
100
AcDbCircle
 10
317.9375
 20
-246.0250000000000341
 30
0.0
 40
1.5999999999999943
100
AcDbArc
 50
270.0
 51
0.0
  0
ARC
  5
17C
100
AcDbEntity
  8
0
 62
256
370
-1
 48
1.0
  6
BYLAYER
100
AcDbCircle
 10
567.9374995207730308
 20
-248.4068486830935001
 30
0.0
 40
1.5999999999999943
100
AcDbArc
 50
270.0
 51
0.0
  0
ARC
  5
17D
100
AcDbEntity
  8
0
 62
256
370
-1
 48
1.0
  6
BYLAYER
100
AcDbCircle
 10
318.1346446638834777
 20
-370.8496243996654584
 30
0.0
 40
1.5999999999999943
100
AcDbArc
 50
270.0
 51
0.0
  0
ARC
  5
17E
100
AcDbEntity
  8
0
 62
256
370
-1
 48
1.0
  6
BYLAYER
100
AcDbCircle
 10
571.9815564360008011
 20
-381.0842423192018487
 30
0.0
 40
1.5999999999999943
100
AcDbArc
 50
270.0
 51
0.0
  0
ARC
  5
17F
100
AcDbEntity
  8
0
 62
256
370
-1
 48
1.0
  6
BYLAYER
100
AcDbCircle
 10
319.4605798813320234
 20
-506.9067608409187642
 30
0.0
 40
1.5999999999999943
100
AcDbArc
 50
270.0
 51
0.0
  0
ARC
  5
180
100
AcDbEntity
  8
0
 62
256
370
-1
 48
1.0
  6
BYLAYER
100
AcDbCircle
 10
569.4374995207730308
 20
-506.9068486830934717
 30
0.0
 40
1.5999999999999943
100
AcDbArc
 50
270.0
 51
0.0
  0
ARC
  5
181
100
AcDbEntity
  8
0
 62
256
370
-1
 48
1.0
  6
BYLAYER
100
AcDbCircle
 10
317.9375
 20
-201.5999999999999943
 30
0.0
 40
1.5999999999999943
100
AcDbArc
 50
0.0
 51
90.0
  0
ARC
  5
182
100
AcDbEntity
  8
0
 62
256
370
-1
 48
1.0
  6
BYLAYER
100
AcDbCircle
 10
567.9374995207730308
 20
-203.9818486830934603
 30
0.0
 40
1.5999999999999943
100
AcDbArc
 50
0.0
 51
90.0
  0
ARC
  5
183
100
AcDbEntity
  8
0
 62
256
370
-1
 48
1.0
  6
BYLAYER
100
AcDbCircle
 10
316.375
 20
-198.4000000000000341
 30
0.0
 40
1.5999999999999943
100
AcDbArc
 50
180.0
 51
270.0
  0
ARC
  5
184
100
AcDbEntity
  8
0
 62
256
370
-1
 48
1.0
  6
BYLAYER
100
AcDbCircle
 10
566.3749995207730308
 20
-200.7818486830935001
 30
0.0
 40
1.5999999999999943
100
AcDbArc
 50
180.0
 51
270.0
  0
ARC
  5
185
100
AcDbEntity
  8
0
 62
256
370
-1
 48
1.0
  6
BYLAYER
100
AcDbCircle
 10
313.1750000000000114
 20
-168.2625000000000171
 30
0.0
 40
1.5999999999999943
100
AcDbArc
 50
0.0
 51
90.0
  0
ARC
  5
186
100
AcDbEntity
  8
0
 62
256
370
-1
 48
1.0
  6
BYLAYER
100
AcDbCircle
 10
563.174999520773099
 20
-170.644348683093483
 30
0.0
 40
1.5999999999999943
100
AcDbArc
 50
0.0
 51
90.0
  0
ARC
  5
187
100
AcDbEntity
  8
0
 62
256
370
-1
 48
1.0
  6
BYLAYER
100
AcDbCircle
 10
318.1346446638834777
 20
-293.0871243996654698
 30
0.0
 40
1.5999999999999943
100
AcDbArc
 50
0.0
 51
90.0
  0
ARC
  5
188
100
AcDbEntity
  8
0
 62
256
370
-1
 48
1.0
  6
BYLAYER
100
AcDbCircle
 10
571.9815564360008011
 20
-303.32174231920186
 30
0.0
 40
1.5999999999999943
100
AcDbArc
 50
0.0
 51
90.0
  0
ARC
  5
189
100
AcDbEntity
  8
0
 62
256
370
-1
 48
1.0
  6
BYLAYER
100
AcDbCircle
 10
319.4605798813320234
 20
-429.1442608409187756
 30
0.0
 40
1.5999999999999943
100
AcDbArc
 50
0.0
 51
90.0
  0
ARC
  5
18A
100
AcDbEntity
  8
0
 62
256
370
-1
 48
1.0
  6
BYLAYER
100
AcDbCircle
 10
569.4374995207730308
 20
-429.1443486830934262
 30
0.0
 40
1.5999999999999943
100
AcDbArc
 50
0.0
 51
90.0
  0
ARC
  5
18B
100
AcDbEntity
  8
0
 62
256
370
-1
 48
1.0
  6
BYLAYER
100
AcDbCircle
 10
211.6000000000000227
 20
-165.0624999999999716
 30
0.0
 40
1.6000000000000227
100
AcDbArc
 50
180.0
 51
270.0
  0
ARC
  5
18C
100
AcDbEntity
  8
0
 62
256
370
-1
 48
1.0
  6
BYLAYER
100
AcDbCircle
 10
461.5999995207730535
 20
-167.4443486830934376
 30
0.0
 40
1.6000000000000227
100
AcDbArc
 50
180.0
 51
270.0
  0
ARC
  5
18D
100
AcDbEntity
  8
0
 62
256
370
-1
 48
1.0
  6
BYLAYER
100
AcDbCircle
 10
211.7971446638835289
 20
-289.8871243996654243
 30
0.0
 40
1.6000000000000227
100
AcDbArc
 50
180.0
 51
270.0
  0
ARC
  5
18E
100
AcDbEntity
  8
0
 62
256
370
-1
 48
1.0
  6
BYLAYER
100
AcDbCircle
 10
465.6440564360008239
 20
-300.1217423192018146
 30
0.0
 40
1.6000000000000227
100
AcDbArc
 50
180.0
 51
270.0
  0
ARC
  5
18F
100
AcDbEntity
  8
0
 62
256
370
-1
 48
1.0
  6
BYLAYER
100
AcDbCircle
 10
213.1230798813320746
 20
-425.9442608409187301
 30
0.0
 40
1.6000000000000227
100
AcDbArc
 50
180.0
 51
270.0
  0
ARC
  5
190
100
AcDbEntity
  8
0
 62
256
370
-1
 48
1.0
  6
BYLAYER
100
AcDbCircle
 10
463.0999995207730535
 20
-425.9443486830933807
 30
0.0
 40
1.6000000000000227
100
AcDbArc
 50
180.0
 51
270.0
  0
ARC
  5
191
100
AcDbEntity
  8
0
 62
256
370
-1
 48
1.0
  6
BYLAYER
100
AcDbCircle
 10
208.4000000000000057
 20
-149.2125000000000625
 30
0.0
 40
1.6000000000000512
100
AcDbArc
 50
0.0
 51
90.0
  0
ARC
  5
192
100
AcDbEntity
  8
0
 62
256
370
-1
 48
1.0
  6
BYLAYER
100
AcDbCircle
 10
458.3999995207730649
 20
-151.5943486830935285
 30
0.0
 40
1.6000000000000512
100
AcDbArc
 50
0.0
 51
90.0
  0
ARC
  5
193
100
AcDbEntity
  8
0
 62
256
370
-1
 48
1.0
  6
BYLAYER
100
AcDbCircle
 10
208.597144663883455
 20
-274.0371243996655153
 30
0.0
 40
1.6000000000000512
100
AcDbArc
 50
0.0
 51
90.0
  0
ARC
  5
194
100
AcDbEntity
  8
0
 62
256
370
-1
 48
1.0
  6
BYLAYER
100
AcDbCircle
 10
462.4440564360007784
 20
-284.2717423192019055
 30
0.0
 40
1.6000000000000512
100
AcDbArc
 50
0.0
 51
90.0
  0
ARC
  5
195
100
AcDbEntity
  8
0
 62
256
370
-1
 48
1.0
  6
BYLAYER
100
AcDbCircle
 10
209.9230798813320007
 20
-410.094260840918821
 30
0.0
 40
1.6000000000000512
100
AcDbArc
 50
0.0
 51
90.0
  0
ARC
  5
196
100
AcDbEntity
  8
0
 62
256
370
-1
 48
1.0
  6
BYLAYER
100
AcDbCircle
 10
459.899999520773008
 20
-410.0943486830934717
 30
0.0
 40
1.6000000000000512
100
AcDbArc
 50
0.0
 51
90.0
  0
ARC
  5
197
100
AcDbEntity
  8
0
 62
256
370
-1
 48
1.0
  6
BYLAYER
100
AcDbCircle
 10
116.3500000000000369
 20
-149.2125000000000057
 30
0.0
 40
1.5999999999999943
100
AcDbArc
 50
90.0
 51
180.0
  0
ARC
  5
198
100
AcDbEntity
  8
0
 62
256
370
-1
 48
1.0
  6
BYLAYER
100
AcDbCircle
 10
366.3499995207731104
 20
-151.5943486830934717
 30
0.0
 40
1.5999999999999943
100
AcDbArc
 50
90.0
 51
180.0
  0
ARC
  5
199
100
AcDbEntity
  8
0
 62
256
370
-1
 48
1.0
  6
BYLAYER
100
AcDbCircle
 10
113.4471446638835488
 20
-274.0371243996654584
 30
0.0
 40
1.5999999999999943
100
AcDbArc
 50
90.0
 51
180.0
  0
ARC
  5
19A
100
AcDbEntity
  8
0
 62
256
370
-1
 48
1.0
  6
BYLAYER
100
AcDbCircle
 10
367.294056436000858
 20
-284.2717423192018487
 30
0.0
 40
1.5999999999999943
100
AcDbArc
 50
90.0
 51
180.0
  0
ARC
  5
19B
100
AcDbEntity
  8
0
 62
256
370
-1
 48
1.0
  6
BYLAYER
100
AcDbCircle
 10
114.7730798813320945
 20
-410.0942608409187642
 30
0.0
 40
1.5999999999999943
100
AcDbArc
 50
90.0
 51
180.0
  0
ARC
  5
19C
100
AcDbEntity
  8
0
 62
256
370
-1
 48
1.0
  6
BYLAYER
100
AcDbCircle
 10
364.7499995207730876
 20
-410.0943486830934717
 30
0.0
 40
1.5999999999999943
100
AcDbArc
 50
90.0
 51
180.0
  0
ARC
  5
19D
100
AcDbEntity
  8
0
 62
256
370
-1
 48
1.0
  6
BYLAYER
100
AcDbCircle
 10
106.8250000000000313
 20
-168.2624999999999602
 30
0.0
 40
1.5999999999999943
100
AcDbArc
 50
90.0
 51
180.0
  0
ARC
  5
19E
100
AcDbEntity
  8
0
 62
256
370
-1
 48
1.0
  6
BYLAYER
100
AcDbCircle
 10
356.8249995207730763
 20
-170.6443486830934262
 30
0.0
 40
1.5999999999999943
100
AcDbArc
 50
90.0
 51
180.0
  0
ARC
  5
19F
100
AcDbEntity
  8
0
 62
256
370
-1
 48
1.0
  6
BYLAYER
100
AcDbCircle
 10
99.1596446638835261
 20
-291.587124399665413
 30
0.0
 40
1.5999999999999943
100
AcDbArc
 50
90.0
 51
180.0
  0
ARC
  5
1A0
100
AcDbEntity
  8
0
 62
256
370
-1
 48
1.0
  6
BYLAYER
100
AcDbCircle
 10
353.0065564360008352
 20
-301.8217423192018032
 30
0.0
 40
1.5999999999999943
100
AcDbArc
 50
90.0
 51
180.0
  0
ARC
  5
1A1
100
AcDbEntity
  8
0
 62
256
370
-1
 48
1.0
  6
BYLAYER
100
AcDbCircle
 10
100.4855798813320717
 20
-427.6442608409187187
 30
0.0
 40
1.5999999999999943
100
AcDbArc
 50
90.0
 51
180.0
  0
ARC
  5
1A2
100
AcDbEntity
  8
0
 62
256
370
-1
 48
1.0
  6
BYLAYER
100
AcDbCircle
 10
350.4624995207730649
 20
-427.6443486830934262
 30
0.0
 40
1.5999999999999943
100
AcDbArc
 50
90.0
 51
180.0
  0
ARC
  5
1A3
100
AcDbEntity
  8
0
 62
256
370
-1
 48
1.0
  6
BYLAYER
100
AcDbCircle
 10
113.1500000000000199
 20
-165.0625000000000284
 30
0.0
 40
1.5999999999999943
100
AcDbArc
 50
270.0
 51
0.0
  0
ARC
  5
1A4
100
AcDbEntity
  8
0
 62
256
370
-1
 48
1.0
  6
BYLAYER
100
AcDbCircle
 10
363.1499995207730649
 20
-167.4443486830934944
 30
0.0
 40
1.5999999999999943
100
AcDbArc
 50
270.0
 51
0.0
  0
ARC
  5
1A5
100
AcDbEntity
  8
0
 62
256
370
-1
 48
1.0
  6
BYLAYER
100
AcDbCircle
 10
110.2471446638835175
 20
-288.3871243996654812
 30
0.0
 40
1.5999999999999943
100
AcDbArc
 50
270.0
 51
0.0
  0
ARC
  5
1A6
100
AcDbEntity
  8
0
 62
256
370
-1
 48
1.0
  6
BYLAYER
100
AcDbCircle
 10
364.0940564360008693
 20
-298.6217423192018714
 30
0.0
 40
1.5999999999999943
100
AcDbArc
 50
270.0
 51
0.0
  0
ARC
  5
1A7
100
AcDbEntity
  8
0
 62
256
370
-1
 48
1.0
  6
BYLAYER
100
AcDbCircle
 10
111.5730798813320632
 20
-424.4442608409187869
 30
0.0
 40
1.5999999999999943
100
AcDbArc
 50
270.0
 51
0.0
  0
ARC
  5
1A8
100
AcDbEntity
  8
0
 62
256
370
-1
 48
1.0
  6
BYLAYER
100
AcDbCircle
 10
361.549999520773099
 20
-424.4443486830933807
 30
0.0
 40
1.5999999999999943
100
AcDbArc
 50
270.0
 51
0.0
  0
ARC
  5
1A9
100
AcDbEntity
  8
0
 62
256
370
-1
 48
1.0
  6
BYLAYER
100
AcDbCircle
 10
102.0625000000000284
 20
-201.5999999999999943
 30
0.0
 40
1.5999999999999943
100
AcDbArc
 50
90.0
 51
180.0
  0
ARC
  5
1AA
100
AcDbEntity
  8
0
 62
256
370
-1
 48
1.0
  6
BYLAYER
100
AcDbCircle
 10
352.0624995207730876
 20
-203.9818486830934603
 30
0.0
 40
1.5999999999999943
100
AcDbArc
 50
90.0
 51
180.0
  0
ARC
  5
1AB
100
AcDbEntity
  8
0
 62
256
370
-1
 48
1.0
  6
BYLAYER
100
AcDbCircle
 10
103.625
 20
-198.4000000000000341
 30
0.0
 40
1.5999999999999659
100
AcDbArc
 50
270.0000000000005116
 51
0.0
  0
ARC
  5
1AC
100
AcDbEntity
  8
0
 62
256
370
-1
 48
1.0
  6
BYLAYER
100
AcDbCircle
 10
353.6249995207730308
 20
-200.7818486830935001
 30
0.0
 40
1.5999999999999659
100
AcDbArc
 50
270.0000000000005116
 51
0.0
  0
ARC
  5
1AD
100
AcDbEntity
  8
0
 62
256
370
-1
 48
1.0
  6
BYLAYER
100
AcDbCircle
 10
102.0625000000000142
 20
-246.0249999999999773
 30
0.0
 40
1.5999999999999943
100
AcDbArc
 50
180.0
 51
270.0
  0
ARC
  5
1AE
100
AcDbEntity
  8
0
 62
256
370
-1
 48
1.0
  6
BYLAYER
100
AcDbCircle
 10
352.0624995207730876
 20
-248.4068486830934432
 30
0.0
 40
1.5999999999999943
100
AcDbArc
 50
180.0
 51
270.0
  0
ARC
  5
1AF
100
AcDbEntity
  8
0
 62
256
370
-1
 48
1.0
  6
BYLAYER
100
AcDbCircle
 10
99.1596446638835261
 20
-370.8496243996654584
 30
0.0
 40
1.5999999999999943
100
AcDbArc
 50
180.0
 51
270.0
  0
ARC
  5
1B0
100
AcDbEntity
  8
0
 62
256
370
-1
 48
1.0
  6
BYLAYER
100
AcDbCircle
 10
353.0065564360008352
 20
-381.0842423192018487
 30
0.0
 40
1.5999999999999943
100
AcDbArc
 50
180.0
 51
270.0
  0
ARC
  5
1B1
100
AcDbEntity
  8
0
 62
256
370
-1
 48
1.0
  6
BYLAYER
100
AcDbCircle
 10
100.4855798813320717
 20
-506.9067608409187642
 30
0.0
 40
1.5999999999999943
100
AcDbArc
 50
180.0
 51
270.0
  0
ARC
  5
1B2
100
AcDbEntity
  8
0
 62
256
370
-1
 48
1.0
  6
BYLAYER
100
AcDbCircle
 10
350.4624995207730649
 20
-506.9068486830934717
 30
0.0
 40
1.5999999999999943
100
AcDbArc
 50
180.0
 51
270.0
  0
ARC
  5
1B3
100
AcDbEntity
  8
0
 62
256
370
-1
 48
1.0
  6
BYLAYER
100
AcDbCircle
 10
165.5375000000000512
 20
-246.0250000000000909
 30
0.0
 40
1.5999999999999375
100
AcDbArc
 50
270.0
 51
0.0
  0
ARC
  5
1B4
100
AcDbEntity
  8
0
 62
256
370
-1
 48
1.0
  6
BYLAYER
100
AcDbCircle
 10
415.5374995207731104
 20
-248.4068486830935569
 30
0.0
 40
1.5999999999999375
100
AcDbArc
 50
270.0
 51
0.0
  0
ARC
  5
1B5
100
AcDbEntity
  8
0
 62
256
370
-1
 48
1.0
  6
BYLAYER
100
AcDbCircle
 10
168.7375000000000114
 20
-230.1749999999999829
 30
0.0
 40
1.5999999999999943
100
AcDbArc
 50
90.0
 51
180.0
  0
ARC
  5
1B6
100
AcDbEntity
  8
0
 62
256
370
-1
 48
1.0
  6
BYLAYER
100
AcDbCircle
 10
418.737499520773099
 20
-232.5568486830934489
 30
0.0
 40
1.5999999999999943
100
AcDbArc
 50
90.0
 51
180.0
  0
ARC
  5
1B7
100
AcDbEntity
  8
0
 62
256
370
-1
 48
1.0
  6
BYLAYER
100
AcDbCircle
 10
502.6440564360009375
 20
-384.2842423192017804
 30
0.0
 40
1.5999999999999943
100
AcDbArc
 50
90.0
 51
180.0
  0
ARC
  5
1B8
100
AcDbEntity
  8
0
 62
256
370
-1
 48
1.0
  6
BYLAYER
100
AcDbCircle
 10
248.7971446638836142
 20
-374.0496243996653902
 30
0.0
 40
1.5999999999999943
100
AcDbArc
 50
90.0
 51
180.0
  0
ARC
  5
1B9
100
AcDbEntity
  8
0
 62
256
370
-1
 48
1.0
  6
BYLAYER
100
AcDbCircle
 10
250.1230798813321599
 20
-510.106760840918696
 30
0.0
 40
1.5999999999999943
100
AcDbArc
 50
90.0
 51
180.0
  0
ARC
  5
1BA
100
AcDbEntity
  8
0
 62
256
370
-1
 48
1.0
  6
BYLAYER
100
AcDbCircle
 10
500.0999995207731672
 20
-510.1068486830932898
 30
0.0
 40
1.5999999999999943
100
AcDbArc
 50
90.0
 51
180.0
  0
ARC
  5
1BB
100
AcDbEntity
  8
0
 62
256
370
-1
 48
1.0
  6
BYLAYER
100
AcDbCircle
 10
173.5
 20
-234.9375
 30
0.0
 40
1.5999999999999943
100
AcDbArc
 50
90.0
 51
180.0
  0
ARC
  5
1BC
100
AcDbEntity
  8
0
 62
256
370
-1
 48
1.0
  6
BYLAYER
100
AcDbCircle
 10
423.4999995207730308
 20
-237.319348683093466
 30
0.0
 40
1.5999999999999943
100
AcDbArc
 50
90.0
 51
180.0
  0
ARC
  5
1BD
100
AcDbEntity
  8
0
 62
256
370
-1
 48
1.0
  6
BYLAYER
100
AcDbCircle
 10
173.5000000000000284
 20
-250.7875000000000227
 30
0.0
 40
1.5999999999999943
100
AcDbArc
 50
180.0
 51
270.0
  0
ARC
  5
1BE
100
AcDbEntity
  8
0
 62
256
370
-1
 48
1.0
  6
BYLAYER
100
AcDbCircle
 10
423.4999995207730876
 20
-253.1693486830934887
 30
0.0
 40
1.5999999999999943
100
AcDbArc
 50
180.0
 51
270.0
  0
ARC
  5
1BF
100
AcDbEntity
  8
0
 62
256
370
-1
 48
1.0
  6
BYLAYER
100
AcDbCircle
 10
422.4440564360008352
 20
-387.8467423192018373
 30
0.0
 40
1.5999999999999943
100
AcDbArc
 50
180.0
 51
270.0
  0
ARC
  5
1C0
100
AcDbEntity
  8
0
 62
256
370
-1
 48
1.0
  6
BYLAYER
100
AcDbCircle
 10
168.5971446638835118
 20
-377.6121243996654471
 30
0.0
 40
1.5999999999999943
100
AcDbArc
 50
180.0
 51
270.0
  0
ARC
  5
1C1
100
AcDbEntity
  8
0
 62
256
370
-1
 48
1.0
  6
BYLAYER
100
AcDbCircle
 10
169.9230798813320575
 20
-513.669260840918696
 30
0.0
 40
1.5999999999999943
100
AcDbArc
 50
180.0
 51
270.0
  0
ARC
  5
1C2
100
AcDbEntity
  8
0
 62
256
370
-1
 48
1.0
  6
BYLAYER
100
AcDbCircle
 10
419.8999995207730649
 20
-513.6693486830932898
 30
0.0
 40
1.5999999999999943
100
AcDbArc
 50
180.0
 51
270.0
  0
ARC
  5
1C3
100
AcDbEntity
  8
0
 62
256
370
-1
 48
1.0
  6
BYLAYER
100
AcDbCircle
 10
246.5000000000000284
 20
-250.7875000000000227
 30
0.0
 40
1.6000000000000512
100
AcDbArc
 50
270.0
 51
0.0
  0
ARC
  5
1C4
100
AcDbEntity
  8
0
 62
256
370
-1
 48
1.0
  6
BYLAYER
100
AcDbCircle
 10
496.4999995207730876
 20
-253.1693486830934887
 30
0.0
 40
1.6000000000000512
100
AcDbArc
 50
270.0
 51
0.0
  0
ARC
  5
1C5
100
AcDbEntity
  8
0
 62
256
370
-1
 48
1.0
  6
BYLAYER
100
AcDbCircle
 10
499.4440564360008921
 20
-387.8467423192017804
 30
0.0
 40
1.6000000000000512
100
AcDbArc
 50
270.0
 51
0.0
  0
ARC
  5
1C6
100
AcDbEntity
  8
0
 62
256
370
-1
 48
1.0
  6
BYLAYER
100
AcDbCircle
 10
245.5971446638835687
 20
-377.6121243996653902
 30
0.0
 40
1.6000000000000512
100
AcDbArc
 50
270.0
 51
0.0
  0
ARC
  5
1C7
100
AcDbEntity
  8
0
 62
256
370
-1
 48
1.0
  6
BYLAYER
100
AcDbCircle
 10
246.9230798813321144
 20
-513.669260840918696
 30
0.0
 40
1.6000000000000512
100
AcDbArc
 50
270.0
 51
0.0
  0
ARC
  5
1C8
100
AcDbEntity
  8
0
 62
256
370
-1
 48
1.0
  6
BYLAYER
100
AcDbCircle
 10
496.8999995207731217
 20
-513.6693486830932898
 30
0.0
 40
1.6000000000000512
100
AcDbArc
 50
270.0
 51
0.0
  0
ARC
  5
1C9
100
AcDbEntity
  8
0
 62
256
370
-1
 48
1.0
  6
BYLAYER
100
AcDbCircle
 10
246.5000000000000284
 20
-234.9375000000000568
 30
0.0
 40
1.6000000000000512
100
AcDbArc
 50
0.0
 51
90.0
  0
ARC
  5
1CA
100
AcDbEntity
  8
0
 62
256
370
-1
 48
1.0
  6
BYLAYER
100
AcDbCircle
 10
496.4999995207730876
 20
-237.3193486830935228
 30
0.0
 40
1.6000000000000512
100
AcDbArc
 50
0.0
 51
90.0
  0
ARC
  5
1CB
100
AcDbEntity
  8
0
 62
256
370
-1
 48
1.0
  6
BYLAYER
100
AcDbCircle
 10
419.2440564360007897
 20
-384.284242319201951
 30
0.0
 40
1.6000000000000512
100
AcDbArc
 50
0.0
 51
90.0
  0
ARC
  5
1CC
100
AcDbEntity
  8
0
 62
256
370
-1
 48
1.0
  6
BYLAYER
100
AcDbCircle
 10
165.3971446638834664
 20
-374.0496243996655608
 30
0.0
 40
1.6000000000000512
100
AcDbArc
 50
0.0
 51
90.0
  0
ARC
  5
1CD
100
AcDbEntity
  8
0
 62
256
370
-1
 48
1.0
  6
BYLAYER
100
AcDbCircle
 10
166.7230798813320121
 20
-510.1067608409188665
 30
0.0
 40
1.6000000000000512
100
AcDbArc
 50
0.0
 51
90.0
  0
ARC
  5
1CE
100
AcDbEntity
  8
0
 62
256
370
-1
 48
1.0
  6
BYLAYER
100
AcDbCircle
 10
416.6999995207730194
 20
-510.1068486830935171
 30
0.0
 40
1.6000000000000512
100
AcDbArc
 50
0.0
 51
90.0
  0
ARC
  5
1CF
100
AcDbEntity
  8
0
 62
256
370
-1
 48
1.0
  6
BYLAYER
100
AcDbCircle
 10
251.2624999999999886
 20
-230.1750000000000114
 30
0.0
 40
1.5999999999999943
100
AcDbArc
 50
0.0
 51
89.9999999999989768
  0
ARC
  5
1D0
100
AcDbEntity
  8
0
 62
256
370
-1
 48
1.0
  6
BYLAYER
100
AcDbCircle
 10
501.2624995207730763
 20
-232.5568486830934773
 30
0.0
 40
1.5999999999999943
100
AcDbArc
 50
0.0
 51
89.9999999999989768
  0
ARC
  5
1D1
100
AcDbEntity
  8
0
 62
256
370
-1
 48
1.0
  6
BYLAYER
100
AcDbCircle
 10
254.4625000000000625
 20
-246.0250000000000341
 30
0.0
 40
1.5999999999999943
100
AcDbArc
 50
180.0
 51
270.0
  0
ARC
  5
1D2
100
AcDbEntity
  8
0
 62
256
370
-1
 48
1.0
  6
BYLAYER
100
AcDbCircle
 10
504.4624995207731217
 20
-248.4068486830935001
 30
0.0
 40
1.5999999999999943
100
AcDbArc
 50
180.0
 51
270.0
  0
LINE
  5
1D3
100
AcDbEntity
  8
0
 62
256
370
-1
 48
1.0
  6
BYLAYER
100
AcDbLine
 10
93.4488067621128806
 20
-257.6101084374720926
 30
0.0
 11
98.2249999999999801
 21
-257.611305803659036
 31
0.0
  0
LINE
  5
1D4
100
AcDbEntity
  8
0
 62
256
370
-1
 48
1.0
  6
BYLAYER
100
AcDbLine
 10
344.4483082484710508
 20
-258.9922688032784208
 30
0.0
 11
348.2250587192999092
 21
-258.9932156144908504
 31
0.0
  0
LINE
  5
1D5
100
AcDbEntity
  8
0
 62
256
370
-1
 48
1.0
  6
BYLAYER
100
AcDbLine
 10
92.1134849012194223
 20
-384.9349085214869319
 30
0.0
 11
96.8896781391065218
 21
-384.9361058876738753
 31
0.0
  0
LINE
  5
1D6
100
AcDbEntity
  8
0
 62
256
370
-1
 48
1.0
  6
BYLAYER
100
AcDbLine
 10
344.9603966733367315
 20
-395.1695264410233221
 30
0.0
 11
350.7365899112238594
 21
-395.1707238072102655
 31
0.0
  0
LINE
  5
1D7
100
AcDbEntity
  8
0
 62
256
370
-1
 48
1.0
  6
BYLAYER
100
AcDbLine
 10
93.439420118667968
 20
-520.9920449627402377
 30
0.0
 11
98.2156133565550675
 21
-520.993242328927181
 31
0.0
  0
LINE
  5
1D8
100
AcDbEntity
  8
0
 62
256
370
-1
 48
1.0
  6
BYLAYER
100
AcDbLine
 10
343.4488062828859256
 20
-519.9919571205655302
 30
0.0
 11
348.2249995207730535
 21
-519.9931544867524735
 31
0.0
  0
LINE
  5
1D9
100
AcDbEntity
  8
0
 62
256
370
-1
 48
1.0
  6
BYLAYER
100
AcDbLine
 10
94.468033047658821
 20
-648.9923013660400102
 30
0.0
 11
98.2447835184876794
 21
-648.9932481772524397
 31
0.0
  0
LINE
  5
1DA
100
AcDbEntity
  8
0
 62
256
370
-1
 48
1.0
  6
BYLAYER
100
AcDbLine
 10
452.9999995207734287
 20
-140.9943486830934205
 30
0.0
 11
344.4230508808512923
 21
-140.9932618757327418
 31
0.0
  0
LINE
  5
1DB
100
AcDbEntity
  8
0
 62
256
370
-1
 48
1.0
  6
BYLAYER
100
AcDbLine
 10
245.0652112344752709
 20
-530.994802102632093
 30
0.0
 11
136.4882625945531345
 21
-530.9937152952713859
 31
0.0
  0
LINE
  5
1DC
100
AcDbEntity
  8
0
 62
256
370
-1
 48
1.0
  6
BYLAYER
100
AcDbLine
 10
311.5966729598833354
 20
-530.9954680532157454
 30
0.0
 11
203.0197243199611989
 21
-530.9943812458550383
 31
0.0
  0
LINE
  5
1DD
100
AcDbEntity
  8
0
 62
256
370
-1
 48
1.0
  6
BYLAYER
100
AcDbLine
 10
325.5574249993393323
 20
-530.9956077941852755
 30
0.0
 11
311.5966729598833354
 21
-530.9954680532157454
 31
0.0
  0
LINE
  5
1DE
100
AcDbEntity
  8
0
 62
256
370
-1
 48
1.0
  6
BYLAYER
100
AcDbLine
 10
451.0848374869738677
 20
-528.2867601554796693
 30
0.0
 11
343.5001691558487096
 21
-528.2856832804071701
 31
0.0
  0
LINE
  5
1DF
100
AcDbEntity
  8
0
 62
256
370
-1
 48
1.0
  6
BYLAYER
100
AcDbLine
 10
559.6617861268957768
 20
-528.2878469628403764
 30
0.0
 11
451.0848374869738677
 21
-528.2867601554796693
 31
0.0
  0
LINE
  5
1E0
100
AcDbEntity
  8
0
 62
256
370
-1
 48
1.0
  6
BYLAYER
100
AcDbLine
 10
572.6224766064376581
 20
-528.2742321976865014
 30
0.0
 11
559.6617861268957768
 21
-528.2878469628403764
 31
0.0
  0
LINE
  5
1E1
100
AcDbEntity
  8
0
 62
256
370
-1
 48
1.0
  6
BYLAYER
100
AcDbLine
 10
329.2346446638835005
 20
-380.9496243996654812
 30
0.0
 11
329.2346446638835005
 21
-379.9496243996654812
 31
0.0
  0
LINE
  5
1E2
100
AcDbEntity
  8
0
 62
256
370
-1
 48
1.0
  6
BYLAYER
100
AcDbLine
 10
329.2346446638835005
 20
-381.9496243996654812
 30
0.0
 11
329.2346446638835005
 21
-380.9496243996654812
 31
0.0
  0
LINE
  5
1E3
100
AcDbEntity
  8
0
 62
256
370
-1
 48
1.0
  6
BYLAYER
100
AcDbLine
 10
88.1271790975604148
 20
-381.948602717827896
 30
0.0
 11
88.1271790975604148
 21
-380.948602717827896
 31
0.0
  0
LINE
  5
1E4
100
AcDbEntity
  8
0
 62
256
370
-1
 48
1.0
  6
BYLAYER
100
AcDbLine
 10
88.1134849012194366
 20
-266.9361027178278505
 30
0.0
 11
88.1134849012194366
 21
-265.9361027178278505
 31
0.0
  0
LINE
  5
1E5
100
AcDbEntity
  8
0
 62
256
370
-1
 48
1.0
  6
BYLAYER
100
AcDbLine
 10
584.0815564360008239
 20
-391.1842423192018714
 30
0.0
 11
584.0815564360008239
 21
-390.1842423192018714
 31
0.0
  0
LINE
  5
1E6
100
AcDbEntity
  8
0
 62
256
370
-1
 48
1.0
  6
BYLAYER
100
AcDbLine
 10
584.0815564360008239
 20
-392.1842423192018714
 30
0.0
 11
584.0815564360008239
 21
-391.1842423192018714
 31
0.0
  0
LINE
  5
1E7
100
AcDbEntity
  8
0
 62
256
370
-1
 48
1.0
  6
BYLAYER
100
AcDbLine
 10
340.9740908696777524
 20
-392.1832206373642862
 30
0.0
 11
340.9740908696777524
 21
-391.1832206373642862
 31
0.0
  0
LINE
  5
1E8
100
AcDbEntity
  8
0
 62
256
370
-1
 48
1.0
  6
BYLAYER
100
AcDbLine
 10
340.9603966733367315
 20
-276.1707206373642407
 30
0.0
 11
340.9603966733367315
 21
-275.1707206373642407
 31
0.0
  0
LINE
  5
1E9
100
AcDbEntity
  8
0
 62
256
370
-1
 48
1.0
  6
BYLAYER
100
AcDbLine
 10
330.5605798813320462
 20
-517.0067608409187869
 30
0.0
 11
330.5605798813320462
 21
-516.0067608409187869
 31
0.0
  0
LINE
  5
1EA
100
AcDbEntity
  8
0
 62
256
370
-1
 48
1.0
  6
BYLAYER
100
AcDbLine
 10
330.5605798813320462
 20
-518.0067608409187869
 30
0.0
 11
330.5605798813320462
 21
-517.0067608409187869
 31
0.0
  0
LINE
  5
1EB
100
AcDbEntity
  8
0
 62
256
370
-1
 48
1.0
  6
BYLAYER
100
AcDbLine
 10
89.4531143150089605
 20
-518.0057391590812585
 30
0.0
 11
89.4531143150089605
 21
-517.0057391590812585
 31
0.0
  0
LINE
  5
1EC
100
AcDbEntity
  8
0
 62
256
370
-1
 48
1.0
  6
BYLAYER
100
AcDbLine
 10
89.4394201186679823
 20
-402.9932391590811562
 30
0.0
 11
89.4394201186679823
 21
-401.9932391590811562
 31
0.0
  0
LINE
  5
1ED
100
AcDbEntity
  8
0
 62
256
370
-1
 48
1.0
  6
BYLAYER
100
AcDbLine
 10
325.2346446638835005
 20
-384.9496243996654812
 30
0.0
 11
326.2346446638835005
 21
-384.9496243996654812
 31
0.0
  0
LINE
  5
1EE
100
AcDbEntity
  8
0
 62
256
370
-1
 48
1.0
  6
BYLAYER
100
AcDbLine
 10
91.1134849012194223
 20
-384.9349085214869319
 30
0.0
 11
92.1134849012194223
 21
-384.9349085214869319
 31
0.0
  0
LINE
  5
1EF
100
AcDbEntity
  8
0
 62
256
370
-1
 48
1.0
  6
BYLAYER
100
AcDbLine
 10
91.1134849012194366
 20
-262.9361027178278505
 30
0.0
 11
92.1134849012194366
 21
-262.9361027178278505
 31
0.0
  0
LINE
  5
1F0
100
AcDbEntity
  8
0
 62
256
370
-1
 48
1.0
  6
BYLAYER
100
AcDbLine
 10
580.0815564360008239
 20
-395.1842423192018714
 30
0.0
 11
581.0815564360008239
 21
-395.1842423192018714
 31
0.0
  0
LINE
  5
1F1
100
AcDbEntity
  8
0
 62
256
370
-1
 48
1.0
  6
BYLAYER
100
AcDbLine
 10
343.9603966733367315
 20
-395.1695264410233221
 30
0.0
 11
344.9603966733367315
 21
-395.1695264410233221
 31
0.0
  0
LINE
  5
1F2
100
AcDbEntity
  8
0
 62
256
370
-1
 48
1.0
  6
BYLAYER
100
AcDbLine
 10
326.5605798813320462
 20
-521.0067608409187869
 30
0.0
 11
327.5605798813320462
 21
-521.0067608409187869
 31
0.0
  0
LINE
  5
1F3
100
AcDbEntity
  8
0
 62
256
370
-1
 48
1.0
  6
BYLAYER
100
AcDbLine
 10
92.439420118667968
 20
-520.9920449627402377
 30
0.0
 11
93.439420118667968
 21
-520.9920449627402377
 31
0.0
  0
LINE
  5
1F4
100
AcDbEntity
  8
0
 62
256
370
-1
 48
1.0
  6
BYLAYER
100
AcDbLine
 10
92.4394201186679823
 20
-398.9932391590811562
 30
0.0
 11
93.4394201186679823
 21
-398.9932391590811562
 31
0.0
  0
LINE
  5
1F5
100
AcDbEntity
  8
0
 62
256
370
-1
 48
1.0
  6
BYLAYER
100
AcDbLine
 10
319.7346446638835005
 20
-326.4246243996654471
 30
0.0
 11
319.7346446638835005
 21
-317.8884316183292071
 31
0.0
  0
LINE
  5
1F6
100
AcDbEntity
  8
0
 62
256
370
-1
 48
1.0
  6
BYLAYER
100
AcDbLine
 10
573.5815564360008239
 20
-336.6592423192018373
 30
0.0
 11
573.5815564360008239
 21
-303.32174231920186
 31
0.0
  0
LINE
  5
1F7
100
AcDbEntity
  8
0
 62
256
370
-1
 48
1.0
  6
BYLAYER
100
AcDbLine
 10
321.0605798813320462
 20
-462.4817608409187528
 30
0.0
 11
321.0605798813320462
 21
-429.1442608409187756
 31
0.0
  0
LINE
  5
1F8
100
AcDbEntity
  8
0
 62
256
370
-1
 48
1.0
  6
BYLAYER
100
AcDbLine
 10
571.0374995207730535
 20
-462.4818486830934035
 30
0.0
 11
571.0374995207730535
 21
-429.1443486830934262
 31
0.0
  0
LINE
  5
1F9
100
AcDbEntity
  8
0
 62
256
370
-1
 48
1.0
  6
BYLAYER
100
AcDbLine
 10
97.5596446638835317
 20
-324.9246243996654471
 30
0.0
 11
97.5596446638835317
 21
-316.3884316183290935
 31
0.0
  0
LINE
  5
1FA
100
AcDbEntity
  8
0
 62
256
370
-1
 48
1.0
  6
BYLAYER
100
AcDbLine
 10
351.4065564360008693
 20
-335.1592423192018373
 30
0.0
 11
351.4065564360008693
 21
-301.8217423192018032
 31
0.0
  0
LINE
  5
1FB
100
AcDbEntity
  8
0
 62
256
370
-1
 48
1.0
  6
BYLAYER
100
AcDbLine
 10
98.8855798813320774
 20
-460.9817608409187528
 30
0.0
 11
98.8855798813320774
 21
-427.6442608409187187
 31
0.0
  0
LINE
  5
1FC
100
AcDbEntity
  8
0
 62
256
370
-1
 48
1.0
  6
BYLAYER
100
AcDbLine
 10
348.862499520773099
 20
-460.9818486830934035
 30
0.0
 11
348.862499520773099
 21
-427.6443486830934262
 31
0.0
  0
LINE
  5
1FD
100
AcDbEntity
  8
0
 62
256
370
-1
 48
1.0
  6
BYLAYER
100
AcDbLine
 10
420.8440564360008693
 20
-387.8467423192018373
 30
0.0
 11
420.8440564360008125
 21
-384.284242319201951
 31
0.0
  0
LINE
  5
1FE
100
AcDbEntity
  8
0
 62
256
370
-1
 48
1.0
  6
BYLAYER
100
AcDbLine
 10
166.9971446638835459
 20
-377.6121243996654471
 30
0.0
 11
166.9971446638834891
 21
-374.0496243996655608
 31
0.0
  0
LINE
  5
1FF
100
AcDbEntity
  8
0
 62
256
370
-1
 48
1.0
  6
BYLAYER
100
AcDbLine
 10
168.3230798813320916
 20
-513.669260840918696
 30
0.0
 11
168.3230798813320348
 21
-510.1067608409188665
 31
0.0
  0
LINE
  5
200
100
AcDbEntity
  8
0
 62
256
370
-1
 48
1.0
  6
BYLAYER
100
AcDbLine
 10
418.299999520773099
 20
-513.6693486830932898
 30
0.0
 11
418.2999995207730421
 21
-510.1068486830935171
 31
0.0
  0
LINE
  5
201
100
AcDbEntity
  8
0
 62
256
370
-1
 48
1.0
  6
BYLAYER
100
AcDbLine
 10
351.4065564360008693
 20
-381.0842423192018487
 30
0.0
 11
351.4065564360008693
 21
-379.5842423192018487
 31
0.0
  0
LINE
  5
202
100
AcDbEntity
  8
0
 62
256
370
-1
 48
1.0
  6
BYLAYER
100
AcDbLine
 10
98.8855798813320774
 20
-506.9067608409187642
 30
0.0
 11
98.8855798813320774
 21
-505.4067608409187642
 31
0.0
  0
LINE
  5
203
100
AcDbEntity
  8
0
 62
256
370
-1
 48
1.0
  6
BYLAYER
100
AcDbLine
 10
348.862499520773099
 20
-506.9068486830934717
 30
0.0
 11
348.862499520773099
 21
-505.4068486830934717
 31
0.0
  0
ARC
  5
204
100
AcDbEntity
  8
0
 62
256
370
-1
 48
1.0
  6
BYLAYER
100
AcDbCircle
 10
132.5
 20
-407.4942608409186846
 30
0.0
 40
1.0000000000000311
100
AcDbArc
 50
145.0000000000001705
 51
270.0000000000013074
  0
ARC
  5
205
100
AcDbEntity
  8
0
 62
256
370
-1
 48
1.0
  6
BYLAYER
100
AcDbCircle
 10
382.4769196394409505
 20
-407.4943486830933352
 30
0.0
 40
1.0000000000000311
100
AcDbArc
 50
145.0000000000001705
 51
270.0000000000013074
  0
ARC
  5
206
100
AcDbEntity
  8
0
 62
256
370
-1
 48
1.0
  6
BYLAYER
100
AcDbCircle
 10
115.6180357460576715
 20
-407.5000000000000568
 30
0.0
 40
0.9999999999999789
100
AcDbArc
 50
269.9999999999992042
 51
35.0000000000018971
  0
ARC
  5
207
100
AcDbEntity
  8
0
 62
256
370
-1
 48
1.0
  6
BYLAYER
100
AcDbCircle
 10
365.5949553854987357
 20
-407.5000878421748212
 30
0.0
 40
0.9999999999999789
100
AcDbArc
 50
269.9999999999992042
 51
35.0000000000018971
  0
ARC
  5
208
100
AcDbEntity
  8
0
 62
256
370
-1
 48
1.0
  6
BYLAYER
100
AcDbCircle
 10
109.6662716712752399
 20
-399.9999999999998295
 30
0.0
 40
0.9999999999998295
100
AcDbArc
 50
34.9999999999971507
 51
90.0000000000081286
  0
ARC
  5
209
100
AcDbEntity
  8
0
 62
256
370
-1
 48
1.0
  6
BYLAYER
100
AcDbCircle
 10
360.912961155962023
 20
-400.9943486830932784
 30
0.0
 40
0.9999999999998295
100
AcDbArc
 50
34.9999999999971507
 51
90.0000000000081286
  0
ARC
  5
20A
100
AcDbEntity
  8
0
 62
256
370
-1
 48
1.0
  6
BYLAYER
100
AcDbCircle
 10
138.4517640747824032
 20
-400.0
 30
0.0
 40
0.9999999999997726
100
AcDbArc
 50
89.9999999999918572
 51
145.0000000000057128
  0
ARC
  5
20B
100
AcDbEntity
  8
0
 62
256
370
-1
 48
1.0
  6
BYLAYER
100
AcDbCircle
 10
387.1585687826112121
 20
-400.9943486830931079
 30
0.0
 40
0.9999999999997726
100
AcDbArc
 50
89.9999999999918572
 51
145.0000000000057128
  0
LINE
  5
20C
100
AcDbEntity
  8
0
 62
256
370
-1
 48
1.0
  6
BYLAYER
100
AcDbLine
 10
110.4854237155641385
 20
-399.4264235636489389
 30
0.0
 11
116.437187790346627
 21
-406.9264235636489957
 31
0.0
  0
LINE
  5
20D
100
AcDbEntity
  8
0
 62
256
370
-1
 48
1.0
  6
BYLAYER
100
AcDbLine
 10
361.7321132002509216
 20
-400.4207722467423878
 30
0.0
 11
366.4141074297876344
 21
-406.9265114058237032
 31
0.0
  0
LINE
  5
20E
100
AcDbEntity
  8
0
 62
256
370
-1
 48
1.0
  6
BYLAYER
100
AcDbLine
 10
131.6808479557109877
 20
-406.9206844045676235
 30
0.0
 11
137.632612030493533
 21
-399.4264235636491662
 31
0.0
  0
LINE
  5
20F
100
AcDbEntity
  8
0
 62
256
370
-1
 48
1.0
  6
BYLAYER
100
AcDbLine
 10
381.6577675951519382
 20
-406.9207722467423309
 30
0.0
 11
386.3394167383223703
 21
-400.4207722467422741
 31
0.0
  0
LINE
  5
210
100
AcDbEntity
  8
0
 62
256
370
-1
 48
1.0
  6
BYLAYER
100
AcDbLine
 10
91.1838500371462857
 20
-368.4493171810019589
 30
0.0
 11
91.1838500371462999
 21
-348.4493171810019589
 31
0.0
  0
LINE
  5
211
100
AcDbEntity
  8
0
 62
256
370
-1
 48
1.0
  6
BYLAYER
100
AcDbLine
 10
91.1838500371462715
 20
-293.9874316183289125
 30
0.0
 11
91.1838500371462999
 21
-313.9874316183289125
 31
0.0
  0
LINE
  5
212
100
AcDbEntity
  8
0
 62
256
370
-1
 48
1.0
  6
BYLAYER
100
AcDbLine
 10
326.1104392906207181
 20
-368.4493171810019589
 30
0.0
 11
326.1104392906207181
 21
-348.4493171810019589
 31
0.0
  0
LINE
  5
213
100
AcDbEntity
  8
0
 62
256
370
-1
 48
1.0
  6
BYLAYER
100
AcDbLine
 10
326.110439290620775
 20
-295.4874316183289693
 30
0.0
 11
326.1104392906207181
 21
-315.4874316183289693
 31
0.0
  0
LINE
  5
214
100
AcDbEntity
  8
0
 62
256
370
-1
 48
1.0
  6
BYLAYER
100
AcDbLine
 10
497.4440564360008352
 20
-387.4467423192018032
 30
0.0
 11
497.4440564360008352
 21
-389.4467423192018032
 31
0.0
  0
LINE
  5
215
100
AcDbEntity
  8
0
 62
256
370
-1
 48
1.0
  6
BYLAYER
100
AcDbLine
 10
497.4440564360008921
 20
-389.4467423192018032
 30
0.0
 11
499.4440564360008921
 21
-389.4467423192018032
 31
0.0
  0
LINE
  5
216
100
AcDbEntity
  8
0
 62
256
370
-1
 48
1.0
  6
BYLAYER
100
AcDbLine
 10
422.4440564360008352
 20
-389.44674231920186
 30
0.0
 11
424.4440564360008352
 21
-389.44674231920186
 31
0.0
  0
LINE
  5
217
100
AcDbEntity
  8
0
 62
256
370
-1
 48
1.0
  6
BYLAYER
100
AcDbLine
 10
243.5971446638835687
 20
-379.212124399665413
 30
0.0
 11
245.5971446638835687
 21
-379.212124399665413
 31
0.0
  0
LINE
  5
218
100
AcDbEntity
  8
0
 62
256
370
-1
 48
1.0
  6
BYLAYER
100
AcDbLine
 10
168.5971446638835118
 20
-379.2121243996654698
 30
0.0
 11
170.5971446638835118
 21
-379.2121243996654698
 31
0.0
  0
LINE
  5
219
100
AcDbEntity
  8
0
 62
256
370
-1
 48
1.0
  6
BYLAYER
100
AcDbLine
 10
244.9230798813321144
 20
-515.2692608409187187
 30
0.0
 11
246.9230798813321144
 21
-515.2692608409187187
 31
0.0
  0
LINE
  5
21A
100
AcDbEntity
  8
0
 62
256
370
-1
 48
1.0
  6
BYLAYER
100
AcDbLine
 10
169.9230798813320575
 20
-515.2692608409188324
 30
0.0
 11
171.9230798813320575
 21
-515.2692608409188324
 31
0.0
  0
LINE
  5
21B
100
AcDbEntity
  8
0
 62
256
370
-1
 48
1.0
  6
BYLAYER
100
AcDbLine
 10
494.8999995207731217
 20
-515.2693486830934262
 30
0.0
 11
496.8999995207731217
 21
-515.2693486830934262
 31
0.0
  0
LINE
  5
21C
100
AcDbEntity
  8
0
 62
256
370
-1
 48
1.0
  6
BYLAYER
100
AcDbLine
 10
419.8999995207730649
 20
-515.2693486830934262
 30
0.0
 11
421.8999995207730649
 21
-515.2693486830934262
 31
0.0
  0
LINE
  5
21D
100
AcDbEntity
  8
0
 62
256
370
-1
 48
1.0
  6
BYLAYER
100
AcDbLine
 10
168.5971446638835118
 20
-379.2121243996654698
 30
0.0
 11
243.5971446638835687
 21
-379.212124399665413
 31
0.0
  0
LINE
  5
21E
100
AcDbEntity
  8
0
 62
256
370
-1
 48
1.0
  6
BYLAYER
100
AcDbLine
 10
169.9230798813320575
 20
-515.2692608409188324
 30
0.0
 11
244.9230798813321144
 21
-515.2692608409187187
 31
0.0
  0
LINE
  5
21F
100
AcDbEntity
  8
0
 62
256
370
-1
 48
1.0
  6
BYLAYER
100
AcDbLine
 10
419.8999995207730649
 20
-515.2693486830934262
 30
0.0
 11
494.8999995207731217
 21
-515.2693486830934262
 31
0.0
  0
ARC
  5
220
100
AcDbEntity
  8
0
 62
256
370
-1
 48
1.0
  6
BYLAYER
100
AcDbCircle
 10
112.1639700527300931
 20
-531.9934718198328483
 30
0.0
 40
1.000000000000014
100
AcDbArc
 50
35.0000000000024301
 51
90.0
  0
ARC
  5
221
100
AcDbEntity
  8
0
 62
256
370
-1
 48
1.0
  6
BYLAYER
100
AcDbCircle
 10
118.3377161843263536
 20
-538.0670482561837389
 30
0.0
 40
0.9999999999999102
100
AcDbArc
 50
214.9999999999977263
 51
270.0000000000006821
  0
ARC
  5
222
100
AcDbEntity
  8
0
 62
256
370
-1
 48
1.0
  6
BYLAYER
100
AcDbCircle
 10
118.3377161843264105
 20
-538.0670482561837389
 30
0.0
 40
0.9999999999999102
100
AcDbArc
 50
214.9999999999977263
 51
270.0000000000006821
  0
ARC
  5
223
100
AcDbEntity
  8
0
 62
256
370
-1
 48
1.0
  6
BYLAYER
100
AcDbCircle
 10
130.3365820832227371
 20
-538.0670482561836252
 30
0.0
 40
1.000000000000028
100
AcDbArc
 50
270.0000000000014779
 51
324.9999999999976126
  0
ARC
  5
224
100
AcDbEntity
  8
0
 62
256
370
-1
 48
1.0
  6
BYLAYER
100
AcDbCircle
 10
130.3365820832228508
 20
-538.0670482561835115
 30
0.0
 40
1.000000000000028
100
AcDbArc
 50
270.0000000000014779
 51
324.9999999999976126
  0
ARC
  5
225
100
AcDbEntity
  8
0
 62
256
370
-1
 48
1.0
  6
BYLAYER
100
AcDbCircle
 10
136.510328214819765
 20
-531.9934718198327346
 30
0.0
 40
0.9999999999999865
100
AcDbArc
 50
89.9999999999995737
 51
144.9999999999988916
  0
LINE
  5
226
100
AcDbEntity
  8
0
 62
256
370
-1
 48
1.0
  6
BYLAYER
100
AcDbLine
 10
118.3377161843263536
 20
-539.0670482561836252
 30
0.0
 11
130.3365820832227371
 21
-539.0670482561836252
 31
0.0
  0
LINE
  5
227
100
AcDbEntity
  8
0
 62
256
370
-1
 48
1.0
  6
BYLAYER
100
AcDbLine
 10
118.3377161843264105
 20
-539.0670482561836252
 30
0.0
 11
130.3365820832228508
 21
-539.0670482561836252
 31
0.0
  0
LINE
  5
228
100
AcDbEntity
  8
0
 62
256
370
-1
 48
1.0
  6
BYLAYER
100
AcDbLine
 10
131.1557341275117494
 20
-538.6406246925347432
 30
0.0
 11
135.6911761705308095
 21
-531.4198953834817303
 31
0.0
  0
LINE
  5
229
100
AcDbEntity
  8
0
 62
256
370
-1
 48
1.0
  6
BYLAYER
100
AcDbLine
 10
112.983122097019077
 20
-531.4198953834817303
 30
0.0
 11
117.518564140037455
 21
-538.6406246925347432
 31
0.0
  0
LINE
  5
22A
100
AcDbEntity
  8
0
 62
256
370
-1
 48
1.0
  6
BYLAYER
100
AcDbLine
 10
166.8968176156674303
 20
-621.5264514245197915
 30
0.0
 11
207.2381867991176705
 21
-623.6406529966617427
 31
0.0
  0
LINE
  5
22B
100
AcDbEntity
  8
0
 62
256
370
-1
 48
1.0
  6
BYLAYER
100
AcDbLine
 10
249.0892989692003994
 20
-598.5692513961338364
 30
0.0
 11
262.6935888166979112
 21
-570.3751888951736646
 31
0.0
  0
LINE
  5
22C
100
AcDbEntity
  8
0
 62
256
370
-1
 48
1.0
  6
BYLAYER
100
AcDbLine
 10
286.0720383822022654
 20
-615.3182106309991468
 30
0.0
 11
308.9272453259979443
 21
-567.9521856293863493
 31
0.0
  0
LINE
  5
22D
100
AcDbEntity
  8
0
 62
256
370
-1
 48
1.0
  6
BYLAYER
100
AcDbLine
 10
115.0526972868352829
 20
-595.7252990288858427
 30
0.0
 11
131.5295434376053549
 21
-569.1077220639061807
 31
0.0
  0
LINE
  5
22E
100
AcDbEntity
  8
0
 62
256
370
-1
 48
1.0
  6
BYLAYER
100
AcDbLine
 10
162.5280839366420196
 20
-616.900521093110342
 30
0.0
 11
190.2091854699357327
 21
-572.1829917919444597
 31
0.0
  0
LINE
  5
22F
100
AcDbEntity
  8
0
 62
256
370
-1
 48
1.0
  6
BYLAYER
100
AcDbLine
 10
239.8383818729021755
 20
-617.7412138967864621
 30
0.0
 11
262.6935888166979112
 21
-570.3751888951736646
 31
0.0
  0
LINE
  5
230
100
AcDbEntity
  8
0
 62
256
370
-1
 48
1.0
  6
BYLAYER
100
AcDbLine
 10
120.0458449606081359
 20
-595.9869788101005952
 30
0.0
 11
136.522691111378208
 21
-569.3694018451209331
 31
0.0
  0
LINE
  5
231
100
AcDbEntity
  8
0
 62
256
370
-1
 48
1.0
  6
BYLAYER
100
AcDbLine
 10
304.7295491155716718
 20
-591.2562947461967724
 30
0.0
 11
291.12525926807416
 21
-619.4503572471568305
 31
0.0
  0
LINE
  5
232
100
AcDbEntity
  8
0
 62
256
370
-1
 48
1.0
  6
BYLAYER
100
AcDbLine
 10
237.6616954973025031
 20
-622.2522638969401214
 30
0.0
 11
249.0892989692003994
 21
-598.5692513961338364
 31
0.0
  0
LINE
  5
233
100
AcDbEntity
  8
0
 62
256
370
-1
 48
1.0
  6
BYLAYER
100
AcDbLine
 10
283.8953520066027068
 20
-619.8292606311528061
 30
0.0
 11
295.3229554785005462
 21
-596.1462481303465211
 31
0.0
  0
LINE
  5
234
100
AcDbEntity
  8
0
 62
256
370
-1
 48
1.0
  6
BYLAYER
100
AcDbLine
 10
103.8548983191992221
 20
-613.8148213277567038
 30
0.0
 11
117.6954490858460787
 21
-591.4560566771738195
 31
0.0
  0
LINE
  5
235
100
AcDbEntity
  8
0
 62
256
370
-1
 48
1.0
  6
BYLAYER
100
AcDbLine
 10
159.8917885525189035
 20
-621.1593334075070061
 30
0.0
 11
173.7323393191657033
 21
-598.8005687569241218
 31
0.0
  0
LINE
  5
236
100
AcDbEntity
  8
0
 62
256
370
-1
 48
1.0
  6
BYLAYER
100
AcDbLine
 10
237.6616954973025031
 20
-622.2522638969402351
 30
0.0
 11
249.0892989692003994
 21
-598.5692513961338364
 31
0.0
  0
LINE
  5
237
100
AcDbEntity
  8
0
 62
256
370
-1
 48
1.0
  6
BYLAYER
100
AcDbLine
 10
106.2052941939612793
 20
-618.3457434606834795
 30
0.0
 11
120.0458449606081359
 21
-595.9869788101005952
 31
0.0
  0
LINE
  5
238
100
AcDbEntity
  8
0
 62
256
370
-1
 48
1.0
  6
BYLAYER
100
AcDbLine
 10
316.1571525874694544
 20
-567.5732822453903736
 30
0.0
 11
304.7295491155716718
 21
-591.2562947461967724
 31
0.0
  0
LINE
  5
239
100
AcDbEntity
  8
0
 62
256
370
-1
 48
1.0
  6
BYLAYER
100
AcDbLine
 10
262.6935888166978543
 20
-570.3751888951736646
 30
0.0
 11
308.9272453259978874
 21
-567.9521856293863493
 31
0.0
  0
LINE
  5
23A
100
AcDbEntity
  8
0
 62
256
370
-1
 48
1.0
  6
BYLAYER
100
AcDbLine
 10
237.6616954973025031
 20
-622.2522638969401214
 30
0.0
 11
283.8953520066027636
 21
-619.8292606311528061
 31
0.0
  0
LINE
  5
23B
100
AcDbEntity
  8
0
 62
256
370
-1
 48
1.0
  6
BYLAYER
100
AcDbLine
 10
136.522691111378208
 20
-569.3694018451209331
 30
0.0
 11
190.2091854699357327
 21
-572.1829917919444597
 31
0.0
  0
LINE
  5
23C
100
AcDbEntity
  8
0
 62
256
370
-1
 48
1.0
  6
BYLAYER
100
AcDbLine
 10
106.2052941939612793
 20
-618.3457434606834795
 30
0.0
 11
159.8917885525189035
 21
-621.1593334075070061
 31
0.0
  0
LINE
  5
23D
100
AcDbEntity
  8
0
 62
256
370
-1
 48
1.0
  6
BYLAYER
100
AcDbLine
 10
131.5295434376053549
 20
-569.1077220639061807
 30
0.0
 11
103.8548983191992221
 21
-567.6573553708042255
 31
0.0
  0
LINE
  5
23E
100
AcDbEntity
  8
0
 62
256
370
-1
 48
1.0
  6
BYLAYER
100
AcDbLine
 10
131.5295434376053549
 20
-569.1077220639061807
 30
0.0
 11
103.8548983191992221
 21
-567.6573553708042255
 31
0.0
  0
LINE
  5
23F
100
AcDbEntity
  8
0
 62
256
370
-1
 48
1.0
  6
BYLAYER
100
AcDbLine
 10
291.12525926807416
 20
-619.4503572471568305
 30
0.0
 11
316.1571525874696249
 21
-618.1384913070373841
 31
0.0
  0
LINE
  5
240
100
AcDbEntity
  8
0
 62
256
370
-1
 48
1.0
  6
BYLAYER
100
AcDbLine
 10
325.2152658979358648
 20
-435.455063423194531
 30
0.0
 11
327.2152658979358648
 21
-434.3003628848152857
 31
0.0
  0
LINE
  5
241
100
AcDbEntity
  8
0
 62
256
370
-1
 48
1.0
  6
BYLAYER
100
AcDbLine
 10
325.215265897935808
 20
-505.2147604121599898
 30
0.0
 11
327.215265897935808
 21
-504.0600598737807445
 31
0.0
  0
LINE
  5
242
100
AcDbEntity
  8
0
 62
256
370
-1
 48
1.0
  6
BYLAYER
100
AcDbLine
 10
94.7308938647282872
 20
-505.2147604121599898
 30
0.0
 11
96.7308938647282872
 21
-504.0600598737807445
 31
0.0
  0
LINE
  5
243
100
AcDbEntity
  8
0
 62
256
370
-1
 48
1.0
  6
BYLAYER
100
AcDbLine
 10
94.7308938647282304
 20
-433.9550634231944741
 30
0.0
 11
96.7308938647282304
 21
-432.8003628848152289
 31
0.0
  0
LINE
  5
244
100
AcDbEntity
  8
0
 62
256
370
-1
 48
1.0
  6
BYLAYER
100
AcDbLine
 10
327.2152658979358648
 20
-434.3003628848152857
 30
0.0
 11
327.2152658979358648
 21
-431.9909618080567952
 31
0.0
  0
LINE
  5
245
100
AcDbEntity
  8
0
 62
256
370
-1
 48
1.0
  6
BYLAYER
100
AcDbLine
 10
327.215265897935808
 20
-504.0600598737807445
 30
0.0
 11
327.215265897935808
 21
-501.750658797022254
 31
0.0
  0
LINE
  5
246
100
AcDbEntity
  8
0
 62
256
370
-1
 48
1.0
  6
BYLAYER
100
AcDbLine
 10
96.7308938647282872
 20
-504.0600598737807445
 30
0.0
 11
96.7308938647282872
 21
-501.750658797022254
 31
0.0
  0
LINE
  5
247
100
AcDbEntity
  8
0
 62
256
370
-1
 48
1.0
  6
BYLAYER
100
AcDbLine
 10
96.7074324988927998
 20
-432.8139083106958083
 30
0.0
 11
96.7074324988927998
 21
-430.5045072339373178
 31
0.0
  0
LINE
  5
248
100
AcDbEntity
  8
0
 62
256
370
-1
 48
1.0
  6
BYLAYER
100
AcDbLine
 10
327.2152658979358648
 20
-431.9909618080567952
 30
0.0
 11
325.2152658979358648
 21
-430.83626126967755
 31
0.0
  0
LINE
  5
249
100
AcDbEntity
  8
0
 62
256
370
-1
 48
1.0
  6
BYLAYER
100
AcDbLine
 10
327.215265897935808
 20
-501.750658797022254
 30
0.0
 11
325.215265897935808
 21
-500.5959582586430088
 31
0.0
  0
LINE
  5
24A
100
AcDbEntity
  8
0
 62
256
370
-1
 48
1.0
  6
BYLAYER
100
AcDbLine
 10
96.7308938647282872
 20
-501.750658797022254
 30
0.0
 11
94.7308938647282872
 21
-500.5959582586430088
 31
0.0
  0
LINE
  5
24B
100
AcDbEntity
  8
0
 62
256
370
-1
 48
1.0
  6
BYLAYER
100
AcDbLine
 10
96.7308938647282304
 20
-430.4909618080567384
 30
0.0
 11
94.7308938647282304
 21
-429.3362612696774931
 31
0.0
  0
LINE
  5
24C
100
AcDbEntity
  8
0
 62
256
370
-1
 48
1.0
  6
BYLAYER
100
AcDbLine
 10
325.2152658979358648
 20
-430.83626126967755
 30
0.0
 11
323.2152658979358648
 21
-431.9909618080567952
 31
0.0
  0
LINE
  5
24D
100
AcDbEntity
  8
0
 62
256
370
-1
 48
1.0
  6
BYLAYER
100
AcDbLine
 10
325.215265897935808
 20
-500.5959582586430088
 30
0.0
 11
323.215265897935808
 21
-501.750658797022254
 31
0.0
  0
LINE
  5
24E
100
AcDbEntity
  8
0
 62
256
370
-1
 48
1.0
  6
BYLAYER
100
AcDbLine
 10
94.7308938647282872
 20
-500.5959582586430088
 30
0.0
 11
92.7308938647282872
 21
-501.750658797022254
 31
0.0
  0
LINE
  5
24F
100
AcDbEntity
  8
0
 62
256
370
-1
 48
1.0
  6
BYLAYER
100
AcDbLine
 10
94.7308938647282304
 20
-429.3362612696774931
 30
0.0
 11
92.7308938647282304
 21
-430.4909618080567384
 31
0.0
  0
LINE
  5
250
100
AcDbEntity
  8
0
 62
256
370
-1
 48
1.0
  6
BYLAYER
100
AcDbLine
 10
323.2152658979358648
 20
-431.9909618080567952
 30
0.0
 11
323.2152658979358648
 21
-434.3003628848152857
 31
0.0
  0
LINE
  5
251
100
AcDbEntity
  8
0
 62
256
370
-1
 48
1.0
  6
BYLAYER
100
AcDbLine
 10
323.215265897935808
 20
-501.750658797022254
 30
0.0
 11
323.215265897935808
 21
-504.0600598737807445
 31
0.0
  0
LINE
  5
252
100
AcDbEntity
  8
0
 62
256
370
-1
 48
1.0
  6
BYLAYER
100
AcDbLine
 10
92.7308938647282872
 20
-501.750658797022254
 30
0.0
 11
92.7308938647282872
 21
-504.0600598737807445
 31
0.0
  0
LINE
  5
253
100
AcDbEntity
  8
0
 62
256
370
-1
 48
1.0
  6
BYLAYER
100
AcDbLine
 10
92.7308938647282304
 20
-430.4909618080567384
 30
0.0
 11
92.7308938647282304
 21
-432.8003628848152289
 31
0.0
  0
LINE
  5
254
100
AcDbEntity
  8
0
 62
256
370
-1
 48
1.0
  6
BYLAYER
100
AcDbLine
 10
323.2152658979358648
 20
-434.3003628848152857
 30
0.0
 11
325.2152658979358648
 21
-435.455063423194531
 31
0.0
  0
LINE
  5
255
100
AcDbEntity
  8
0
 62
256
370
-1
 48
1.0
  6
BYLAYER
100
AcDbLine
 10
323.215265897935808
 20
-504.0600598737807445
 30
0.0
 11
325.215265897935808
 21
-505.2147604121599898
 31
0.0
  0
LINE
  5
256
100
AcDbEntity
  8
0
 62
256
370
-1
 48
1.0
  6
BYLAYER
100
AcDbLine
 10
92.7308938647282872
 20
-504.0600598737807445
 30
0.0
 11
94.7308938647282872
 21
-505.2147604121599898
 31
0.0
  0
LINE
  5
257
100
AcDbEntity
  8
0
 62
256
370
-1
 48
1.0
  6
BYLAYER
100
AcDbLine
 10
92.7308938647282304
 20
-432.8003628848152289
 30
0.0
 11
94.7308938647282304
 21
-433.9550634231944741
 31
0.0
  0
LINE
  5
258
100
AcDbEntity
  8
0
 62
256
370
-1
 48
1.0
  6
BYLAYER
100
AcDbLine
 10
91.4427756800390625
 20
-533.9932944384943312
 30
0.0
 11
91.4824758949003183
 21
-646.0059957500637893
 31
0.0
  0
LINE
  5
259
100
AcDbEntity
  8
0
 62
256
370
-1
 48
1.0
  6
BYLAYER
100
AcDbLine
 10
340.5078888470516745
 20
-531.2856733481189622
 30
0.0
 11
340.516545706119075
 21
-554.7954087635840779
 31
0.0
  0
LINE
  5
25A
100
AcDbEntity
  8
0
 62
256
370
-1
 48
1.0
  6
BYLAYER
100
AcDbLine
 10
340.516545706119075
 20
-554.7954087635840779
 30
0.0
 11
439.3794991815764774
 21
-560.0290043878785582
 31
0.0
  0
LINE
  5
25B
100
AcDbEntity
  8
0
 62
256
370
-1
 48
1.0
  6
BYLAYER
100
AcDbLine
 10
575.6224092397606
 20
-554.7820154923900873
 30
0.0
 11
476.7594872955408505
 21
-560.0293656225074983
 31
0.0
  0
LINE
  5
25C
100
AcDbEntity
  8
0
 62
256
370
-1
 48
1.0
  6
BYLAYER
100
AcDbLine
 10
439.3794991815764774
 20
-560.0290043878785582
 30
0.0
 11
458.0729396222248511
 21
-561.0086860885327269
 31
0.0
  0
LINE
  5
25D
100
AcDbEntity
  8
0
 62
256
370
-1
 48
1.0
  6
BYLAYER
100
AcDbLine
 10
476.7594872955408505
 20
-560.0293656225074983
 30
0.0
 11
458.0729396222239416
 21
-561.0086860885327269
 31
0.0
  0
LINE
  5
25E
100
AcDbEntity
  8
0
 62
256
370
-1
 48
1.0
  6
BYLAYER
100
AcDbLine
 10
316.1571525874695112
 20
-567.5732822453903736
 30
0.0
 11
316.1571525874695681
 21
-618.1384913070373841
 31
0.0
  0
LINE
  5
25F
100
AcDbEntity
  8
0
 62
256
370
-1
 48
1.0
  6
BYLAYER
100
AcDbLine
 10
103.8548983191992789
 20
-567.6573553708042255
 30
0.0
 11
103.8548983191992221
 21
-613.8148213277567038
 31
0.0
  0
LINE
  5
260
100
AcDbEntity
  8
0
 62
256
370
-1
 48
1.0
  6
BYLAYER
100
AcDbLine
 10
114.7730798813320945
 20
-408.4942608409187415
 30
0.0
 11
115.6180357460576573
 21
-408.5000000000000568
 31
0.0
  0
LINE
  5
261
100
AcDbEntity
  8
0
 62
256
370
-1
 48
1.0
  6
BYLAYER
100
AcDbLine
 10
364.7499995207730876
 20
-408.4943486830934489
 30
0.0
 11
365.5949553854987357
 21
-408.5000878421748212
 31
0.0
  0
LINE
  5
262
100
AcDbEntity
  8
0
 62
256
370
-1
 48
1.0
  6
BYLAYER
100
AcDbLine
 10
112.1639700527300931
 20
-530.9934718198328483
 30
0.0
 11
94.4427756800390625
 21
-530.9932944384943312
 31
0.0
  0
LINE
  5
263
100
AcDbEntity
  8
0
 62
256
370
-1
 48
1.0
  6
BYLAYER
100
AcDbLine
 10
341.4627510957125196
 20
-256.0059631873021999
 30
0.0
 11
341.4230508808512923
 21
-143.9932618757327418
 31
0.0
  0
ENDSEC
  0
SECTION
  2
OBJECTS
  0
DICTIONARY
  5
C
100
AcDbDictionary
280
0
281
1
  3
ACAD_GROUP
350
D
  3
ACAD_LAYOUT
350
1A
  3
ACAD_MLINESTYLE
350
17
  3
ACAD_PLOTSETTINGS
350
19
  3
ACAD_PLOTSTYLENAME
350
E
  3
AcDbVariableDictionary
350
264
  3
QCAD_OBJECTS
350
265
  0
DICTIONARY
  5
D
100
AcDbDictionary
280
0
281
1
  0
ACDBDICTIONARYWDFLT
  5
E
100
AcDbDictionary
281
1
  3
Normal
350
F
100
AcDbDictionaryWithDefault
340
F
  0
ACDBPLACEHOLDER
  5
F
  0
DICTIONARY
  5
17
100
AcDbDictionary
280
0
281
1
  3
Standard
350
18
  0
MLINESTYLE
  5
18
100
AcDbMlineStyle
  2
STANDARD
 70
0
  3

 62
256
 51
90.0
 52
90.0
 71
2
 49
0.5
 62
256
  6
BYLAYER
 49
-0.5
 62
256
  6
BYLAYER
  0
DICTIONARY
  5
19
100
AcDbDictionary
280
0
281
1
  0
DICTIONARY
  5
1A
100
AcDbDictionary
281
1
  3
Layout1
350
1E
  3
Layout2
350
26
  3
Model
350
22
  0
LAYOUT
  5
1E
100
AcDbPlotSettings
  1

  2
none_device
  4

  6

 40
0.0
 41
0.0
 42
0.0
 43
0.0
 44
0.0
 45
0.0
 46
0.0
 47
0.0
 48
0.0
 49
0.0
140
0.0
141
0.0
142
1.0
143
1.0
 70
688
 72
0
 73
0
 74
5
  7

 75
16
147
1.0
148
0.0
149
0.0
100
AcDbLayout
  1
Layout1
 70
1
 71
1
 10
0.0
 20
0.0
 11
420.0
 21
297.0
 12
0.0
 22
0.0
 32
0.0
 14
100000000000000000000.0
 24
100000000000000000000.0
 34
100000000000000000000.0
 15
-100000000000000000000.0
 25
-100000000000000000000.0
 35
-100000000000000000000.0
146
0.0
 13
0.0
 23
0.0
 33
0.0
 16
1.0
 26
0.0
 36
0.0
 17
0.0
 27
1.0
 37
0.0
 76
0
330
1B
  0
LAYOUT
  5
22
100
AcDbPlotSettings
  1

  2
none_device
  4

  6

 40
0.0
 41
0.0
 42
0.0
 43
0.0
 44
0.0
 45
0.0
 46
0.0
 47
0.0
 48
0.0
 49
0.0
140
0.0
141
0.0
142
1.0
143
1.0
 70
1712
 72
0
 73
0
 74
0
  7

 75
0
147
1.0
148
0.0
149
0.0
100
AcDbLayout
  1
Model
 70
1
 71
0
 10
0.0
 20
0.0
 11
12.0
 21
9.0
 12
0.0
 22
0.0
 32
0.0
 14
0.0
 24
0.0
 34
0.0
 15
0.0
 25
0.0
 35
0.0
146
0.0
 13
0.0
 23
0.0
 33
0.0
 16
1.0
 26
0.0
 36
0.0
 17
0.0
 27
1.0
 37
0.0
 76
0
330
1F
  0
LAYOUT
  5
26
100
AcDbPlotSettings
  1

  2
none_device
  4

  6

 40
0.0
 41
0.0
 42
0.0
 43
0.0
 44
0.0
 45
0.0
 46
0.0
 47
0.0
 48
0.0
 49
0.0
140
0.0
141
0.0
142
1.0
143
1.0
 70
688
 72
0
 73
0
 74
5
  7

 75
16
147
1.0
148
0.0
149
0.0
100
AcDbLayout
  1
Layout2
 70
1
 71
2
 10
0.0
 20
0.0
 11
12.0
 21
9.0
 12
0.0
 22
0.0
 32
0.0
 14
0.0
 24
0.0
 34
0.0
 15
0.0
 25
0.0
 35
0.0
146
0.0
 13
0.0
 23
0.0
 33
0.0
 16
1.0
 26
0.0
 36
0.0
 17
0.0
 27
1.0
 37
0.0
 76
0
330
23
  0
DICTIONARY
  5
264
100
AcDbDictionary
281
1
  3
DIMASSOC
350
267
  3
HIDETEXT
350
266
  0
DICTIONARYVAR
  5
266
100
DictionaryVariables
280
0
  1
2
  0
DICTIONARYVAR
  5
267
100
DictionaryVariables
280
0
  1
1
  0
DICTIONARY
  5
265
100
AcDbDictionary
281
1
  3
ColorSettings/BackgroundColor
350
268
  3
ColorSettings/ColorMode
350
269
  3
Grid/DisplayGrid00
350
26A
  3
Grid/DisplayGrid01
350
26B
  3
Grid/DisplayGrid02
350
26C
  3
Grid/DisplayGrid03
350
26D
  3
Grid/GridSpacingX00
350
26E
  3
Grid/GridSpacingX01
350
26F
  3
Grid/GridSpacingX02
350
270
  3
Grid/GridSpacingX03
350
271
  3
Grid/GridSpacingY00
350
272
  3
Grid/GridSpacingY01
350
273
  3
Grid/GridSpacingY02
350
274
  3
Grid/GridSpacingY03
350
275
  3
Grid/IsometricGrid00
350
276
  3
Grid/IsometricGrid01
350
277
  3
Grid/IsometricGrid02
350
278
  3
Grid/IsometricGrid03
350
279
  3
Grid/IsometricProjection00
350
27A
  3
Grid/IsometricProjection01
350
27B
  3
Grid/IsometricProjection02
350
27C
  3
Grid/IsometricProjection03
350
27D
  3
Grid/MetaGridSpacingX00
350
27E
  3
Grid/MetaGridSpacingX01
350
27F
  3
Grid/MetaGridSpacingX02
350
280
  3
Grid/MetaGridSpacingX03
350
281
  3
Grid/MetaGridSpacingY00
350
282
  3
Grid/MetaGridSpacingY01
350
283
  3
Grid/MetaGridSpacingY02
350
284
  3
Grid/MetaGridSpacingY03
350
285
  3
MultiPageSettings/Columns
350
286
  3
MultiPageSettings/GlueMarginsBottom
350
287
  3
MultiPageSettings/GlueMarginsLeft
350
288
  3
MultiPageSettings/GlueMarginsRight
350
289
  3
MultiPageSettings/GlueMarginsTop
350
28A
  3
MultiPageSettings/PrintCropMarks
350
28B
  3
MultiPageSettings/Rows
350
28C
  3
PageSettings/OffsetX
350
28D
  3
PageSettings/OffsetY
350
28E
  3
PageSettings/PageOrientation
350
28F
  3
PageSettings/PaperHeight
350
290
  3
PageSettings/PaperWidth
350
291
  3
PageSettings/Scale
350
292
  3
PageSettings/ShowPaperBorders
350
293
  3
PageTagSettings/EnablePageTags
350
294
  3
PageTagSettings/TagAlignment
350
295
  3
PageTagSettings/TagFont
350
296
  3
PageTagSettings/TagPosition
350
297
  3
QCADVersion
350
298
  3
UnitSettings/PaperUnit
350
299
  3
ViewportCenter
350
29A
  3
ViewportHeight
350
29B
  3
ViewportWidth
350
29C
  0
XRECORD
  5
268
330
265
100
AcDbXrecord
280
1
1000
White
  0
XRECORD
  5
269
330
265
100
AcDbXrecord
280
1
1000
FullColor
  0
XRECORD
  5
26A
330
265
100
AcDbXrecord
280
1
290
1
  0
XRECORD
  5
26B
330
265
100
AcDbXrecord
280
1
290
1
  0
XRECORD
  5
26C
330
265
100
AcDbXrecord
280
1
290
1
  0
XRECORD
  5
26D
330
265
100
AcDbXrecord
280
1
290
1
  0
XRECORD
  5
26E
330
265
100
AcDbXrecord
280
1
1000
auto
  0
XRECORD
  5
26F
330
265
100
AcDbXrecord
280
1
1000
auto
  0
XRECORD
  5
270
330
265
100
AcDbXrecord
280
1
1000
auto
  0
XRECORD
  5
271
330
265
100
AcDbXrecord
280
1
1000
auto
  0
XRECORD
  5
272
330
265
100
AcDbXrecord
280
1
1000
auto
  0
XRECORD
  5
273
330
265
100
AcDbXrecord
280
1
1000
auto
  0
XRECORD
  5
274
330
265
100
AcDbXrecord
280
1
1000
auto
  0
XRECORD
  5
275
330
265
100
AcDbXrecord
280
1
1000
auto
  0
XRECORD
  5
276
330
265
100
AcDbXrecord
280
1
290
0
  0
XRECORD
  5
277
330
265
100
AcDbXrecord
280
1
290
0
  0
XRECORD
  5
278
330
265
100
AcDbXrecord
280
1
290
0
  0
XRECORD
  5
279
330
265
100
AcDbXrecord
280
1
290
0
  0
XRECORD
  5
27A
330
265
100
AcDbXrecord
280
1
 90
65537
  0
XRECORD
  5
27B
330
265
100
AcDbXrecord
280
1
 90
65537
  0
XRECORD
  5
27C
330
265
100
AcDbXrecord
280
1
 90
65537
  0
XRECORD
  5
27D
330
265
100
AcDbXrecord
280
1
 90
65537
  0
XRECORD
  5
27E
330
265
100
AcDbXrecord
280
1
1000
auto
  0
XRECORD
  5
27F
330
265
100
AcDbXrecord
280
1
1000
auto
  0
XRECORD
  5
280
330
265
100
AcDbXrecord
280
1
1000
auto
  0
XRECORD
  5
281
330
265
100
AcDbXrecord
280
1
1000
auto
  0
XRECORD
  5
282
330
265
100
AcDbXrecord
280
1
1000
auto
  0
XRECORD
  5
283
330
265
100
AcDbXrecord
280
1
1000
auto
  0
XRECORD
  5
284
330
265
100
AcDbXrecord
280
1
1000
auto
  0
XRECORD
  5
285
330
265
100
AcDbXrecord
280
1
1000
auto
  0
XRECORD
  5
286
330
265
100
AcDbXrecord
280
1
 90
1
  0
XRECORD
  5
287
330
265
100
AcDbXrecord
280
1
 40
10.0
  0
XRECORD
  5
288
330
265
100
AcDbXrecord
280
1
 40
10.0
  0
XRECORD
  5
289
330
265
100
AcDbXrecord
280
1
 40
10.0
  0
XRECORD
  5
28A
330
265
100
AcDbXrecord
280
1
 40
10.0
  0
XRECORD
  5
28B
330
265
100
AcDbXrecord
280
1
290
0
  0
XRECORD
  5
28C
330
265
100
AcDbXrecord
280
1
 90
1
  0
XRECORD
  5
28D
330
265
100
AcDbXrecord
280
1
 40
0.0
  0
XRECORD
  5
28E
330
265
100
AcDbXrecord
280
1
 40
0.0
  0
XRECORD
  5
28F
330
265
100
AcDbXrecord
280
1
1000
Portrait
  0
XRECORD
  5
290
330
265
100
AcDbXrecord
280
1
 40
297.0
  0
XRECORD
  5
291
330
265
100
AcDbXrecord
280
1
 40
210.0
  0
XRECORD
  5
292
330
265
100
AcDbXrecord
280
1
1000
1:1
  0
XRECORD
  5
293
330
265
100
AcDbXrecord
280
1
290
1
  0
XRECORD
  5
294
330
265
100
AcDbXrecord
280
1
290
0
  0
XRECORD
  5
295
330
265
100
AcDbXrecord
280
1
1000
Inside
  0
XRECORD
  5
296
330
265
100
AcDbXrecord
280
1
1000
Arial,10,-1,5,50,0,0,0,0,0
  0
XRECORD
  5
297
330
265
100
AcDbXrecord
280
1
1000
TopLeft
  0
XRECORD
  5
298
330
265
100
AcDbXrecord
280
1
1000
3.29.6
  0
XRECORD
  5
299
330
265
100
AcDbXrecord
280
1
 90
4
  0
XRECORD
  5
29B
330
265
100
AcDbXrecord
280
1
 40
135.7395531587053483
  0
XRECORD
  5
29C
330
265
100
AcDbXrecord
280
1
 40
286.4318181818173912
  0
ENDSEC
  0
EOF
