999
dxflib 3.26.4.0
  0
SECTION
  2
HEADER
  9
$ACADVER
  1
AC1015
  9
$HANDSEED
  5
FFFF
  9
$DIMADEC
 70
0
  9
$DIMASZ
 40
0.18
  9
$DIMATFIT
 70
0
  9
$DIMAUNIT
 70
0
  9
$DIMAZIN
 70
0
  9
$DIMBLK
  1
0
  9
$DIMBLK1
  1
0
  9
$DIMBLK2
  1
0
  9
$DIMDEC
 70
4
  9
$DIMDLI
 40
0.36
  9
$DIMDSEP
 70
0
  9
$DIMEXE
 40
0.18
  9
$DIMEXO
 40
0.0625
  9
$DIMGAP
 40
0.09
  9
$DIMLFAC
 40
0.0
  9
$DIMLUNIT
 70
2
  9
$DIMSCALE
 40
0.0
  9
$DIMTAD
 70
0
  9
$DIMTIH
 70
0
  9
$DIMTSZ
 40
0.0
  9
$DIMTXT
 40
0.18
  9
$DIMZIN
 70
0
  9
$DWGCODEPAGE
  3
ANSI_1252
  9
$INSUNITS
 70
4
  9
$LTSCALE
 40
1.0
  9
$MAXACTVP
 70
64
  9
$MEASUREMENT
 70
1
  9
$MIRRTEXT
 70
0
  9
$PDMODE
 70
0
  9
$PDSIZE
 40
0.0
  0
ENDSEC
  0
SECTION
  2
TABLES
  0
TABLE
  2
VPORT
  5
8
100
AcDbSymbolTable
 70
1
  0
VPORT
  5
30
100
AcDbSymbolTableRecord
100
AcDbViewportTableRecord
  2
*Active
 70
0
 10
0.0
 20
0.0
 11
1.0
 21
1.0
 12
286.3055555555554861
 22
148.5
 13
0.0
 23
0.0
 14
10.0
 24
10.0
 15
10.0
 25
10.0
 16
0.0
 26
0.0
 36
1.0
 17
0.0
 27
0.0
 37
0.0
 40
297.0
 41
1.92798353909465
 42
50.0
 43
0.0
 44
0.0
 50
0.0
 51
0.0
 71
0
 72
100
 73
1
 74
3
 75
1
 76
1
 77
0
 78
0
281
0
 65
1
110
0.0
120
0.0
130
0.0
111
1.0
121
0.0
131
0.0
112
0.0
122
1.0
132
0.0
 79
0
146
0.0
  0
ENDTAB
  0
TABLE
  2
LTYPE
  5
5
100
AcDbSymbolTable
 70
41
  0
LTYPE
  5
16
100
AcDbSymbolTableRecord
100
AcDbLinetypeTableRecord
  2
CONTINUOUS
 70
0
  3
Solid line
 72
65
 73
0
 40
0.0
  0
LTYPE
  5
31
100
AcDbSymbolTableRecord
100
AcDbLinetypeTableRecord
  2
ACAD_ISO05W100
 70
0
  3
ISO long-dash double-dot ____ .. ____ .. ____ . 
 72
65
 73
6
 40
33.0
 49
24.0
 74
0
 49
-3.0
 74
0
 49
0.0
 74
0
 49
-3.0
 74
0
 49
0.0
 74
0
 49
-3.0
 74
0
  0
LTYPE
  5
32
100
AcDbSymbolTableRecord
100
AcDbLinetypeTableRecord
  2
HIDDENX2
 70
0
  3
Hidden (2x) ____ ____ ____ ____ ____ ____ ____ 
 72
65
 73
2
 40
19.0499999999999972
 49
12.6999999999999993
 74
0
 49
-6.3499999999999996
 74
0
  0
LTYPE
  5
33
100
AcDbSymbolTableRecord
100
AcDbLinetypeTableRecord
  2
ACAD_ISO14W100
 70
0
  3
ISO dash triple-dot __ . . . __ . . . __ . . . _
 72
65
 73
8
 40
24.0
 49
12.0
 74
0
 49
-3.0
 74
0
 49
0.0
 74
0
 49
-3.0
 74
0
 49
0.0
 74
0
 49
-3.0
 74
0
 49
0.0
 74
0
 49
-3.0
 74
0
  0
LTYPE
  5
34
100
AcDbSymbolTableRecord
100
AcDbLinetypeTableRecord
  2
DOT
 70
0
  3
Dot . . . . . . . . . . . . . . . . . . . . . . . .
 72
65
 73
2
 40
6.3499999999999996
 49
0.0
 74
0
 49
-6.3499999999999996
 74
0
  0
LTYPE
  5
35
100
AcDbSymbolTableRecord
100
AcDbLinetypeTableRecord
  2
ACAD_ISO02W100
 70
0
  3
ISO dash __ __ __ __ __ __ __ __ __ __ __ __ __
 72
65
 73
2
 40
15.0
 49
12.0
 74
0
 49
-3.0
 74
0
  0
LTYPE
  5
36
100
AcDbSymbolTableRecord
100
AcDbLinetypeTableRecord
  2
ACAD_ISO07W100
 70
0
  3
ISO dot . . . . . . . . . . . . . . . . . . . . 
 72
65
 73
2
 40
3.0
 49
0.0
 74
0
 49
-3.0
 74
0
  0
LTYPE
  5
37
100
AcDbSymbolTableRecord
100
AcDbLinetypeTableRecord
  2
DIVIDE
 70
0
  3
Divide ____ . . ____ . . ____ . . ____ . . ____
 72
65
 73
6
 40
31.75
 49
12.6999999999999993
 74
0
 49
-6.3499999999999996
 74
0
 49
0.0
 74
0
 49
-6.3499999999999996
 74
0
 49
0.0
 74
0
 49
-6.3499999999999996
 74
0
  0
LTYPE
  5
38
100
AcDbSymbolTableRecord
100
AcDbLinetypeTableRecord
  2
DASHDOTX2
 70
0
  3
Dash dot (2x) ____  .  ____  .  ____  .  ___
 72
65
 73
4
 40
50.7999999999999972
 49
25.3999999999999986
 74
0
 49
-12.6999999999999993
 74
0
 49
0.0
 74
0
 49
-12.6999999999999993
 74
0
  0
LTYPE
  5
39
100
AcDbSymbolTableRecord
100
AcDbLinetypeTableRecord
  2
DOTX2
 70
0
  3
Dot (2x) .  .  .  .  .  .  .  .  .  .  .  .  .  .
 72
65
 73
2
 40
12.6999999999999993
 49
0.0
 74
0
 49
-12.6999999999999993
 74
0
  0
LTYPE
  5
3A
100
AcDbSymbolTableRecord
100
AcDbLinetypeTableRecord
  2
ACAD_ISO11W100
 70
0
  3
ISO double-dash dot __ __ . __ __ . __ __ . __ _
 72
65
 73
6
 40
33.0
 49
12.0
 74
0
 49
-3.0
 74
0
 49
12.0
 74
0
 49
-3.0
 74
0
 49
0.0
 74
0
 49
-3.0
 74
0
  0
LTYPE
  5
3B
100
AcDbSymbolTableRecord
100
AcDbLinetypeTableRecord
  2
ACAD_ISO15W100
 70
0
  3
ISO double-dash triple-dot __ __ . . . __ __ . .
 72
65
 73
10
 40
39.0
 49
12.0
 74
0
 49
-3.0
 74
0
 49
12.0
 74
0
 49
-3.0
 74
0
 49
0.0
 74
0
 49
-3.0
 74
0
 49
0.0
 74
0
 49
-3.0
 74
0
 49
0.0
 74
0
 49
-3.0
 74
0
  0
LTYPE
  5
3C
100
AcDbSymbolTableRecord
100
AcDbLinetypeTableRecord
  2
CENTER2
 70
0
  3
Center (.5x) ___ _ ___ _ ___ _ ___ _ ___ _ ___
 72
65
 73
4
 40
28.5750000000000028
 49
19.0500000000000007
 74
0
 49
-3.1749999999999998
 74
0
 49
3.1749999999999998
 74
0
 49
-3.1749999999999998
 74
0
  0
LTYPE
  5
3D
100
AcDbSymbolTableRecord
100
AcDbLinetypeTableRecord
  2
DASHEDX2
 70
0
  3
Dashed (2x) ____  ____  ____  ____  ____  ___
 72
65
 73
2
 40
38.0999999999999943
 49
25.3999999999999986
 74
0
 49
-12.6999999999999993
 74
0
  0
LTYPE
  5
3E
100
AcDbSymbolTableRecord
100
AcDbLinetypeTableRecord
  2
ACAD_ISO12W100
 70
0
  3
ISO dash double-dot __ . . __ . . __ . . __ . . 
 72
65
 73
6
 40
21.0
 49
12.0
 74
0
 49
-3.0
 74
0
 49
0.0
 74
0
 49
-3.0
 74
0
 49
0.0
 74
0
 49
-3.0
 74
0
  0
LTYPE
  5
3F
100
AcDbSymbolTableRecord
100
AcDbLinetypeTableRecord
  2
ACAD_ISO13W100
 70
0
  3
ISO double-dash double-dot __ __ . . __ __ . . _
 72
65
 73
8
 40
36.0
 49
12.0
 74
0
 49
-3.0
 74
0
 49
12.0
 74
0
 49
-3.0
 74
0
 49
0.0
 74
0
 49
-3.0
 74
0
 49
0.0
 74
0
 49
-3.0
 74
0
  0
LTYPE
  5
40
100
AcDbSymbolTableRecord
100
AcDbLinetypeTableRecord
  2
DASHDOT2
 70
0
  3
Dash dot (.5x) _._._._._._._._._._._._._._._.
 72
65
 73
4
 40
12.6999999999999993
 49
6.3499999999999996
 74
0
 49
-3.1749999999999998
 74
0
 49
0.0
 74
0
 49
-3.1749999999999998
 74
0
  0
LTYPE
  5
41
100
AcDbSymbolTableRecord
100
AcDbLinetypeTableRecord
  2
BORDER2
 70
0
  3
Border (.5x) __.__.__.__.__.__.__.__.__.__.__.
 72
65
 73
6
 40
22.2249999999999979
 49
6.3499999999999996
 74
0
 49
-3.1749999999999998
 74
0
 49
6.3499999999999996
 74
0
 49
-3.1749999999999998
 74
0
 49
0.0
 74
0
 49
-3.1749999999999998
 74
0
  0
LTYPE
  5
42
100
AcDbSymbolTableRecord
100
AcDbLinetypeTableRecord
  2
DASHDOT
 70
0
  3
Dash dot __ . __ . __ . __ . __ . __ . __ . __
 72
65
 73
4
 40
25.3999999999999986
 49
12.6999999999999993
 74
0
 49
-6.3499999999999996
 74
0
 49
0.0
 74
0
 49
-6.3499999999999996
 74
0
  0
LTYPE
  5
43
100
AcDbSymbolTableRecord
100
AcDbLinetypeTableRecord
  2
PHANTOM
 70
0
  3
Phantom ______  __  __  ______  __  __  ______ 
 72
65
 73
6
 40
63.5000000000000071
 49
31.75
 74
0
 49
-6.3499999999999996
 74
0
 49
6.3499999999999996
 74
0
 49
-6.3499999999999996
 74
0
 49
6.3499999999999996
 74
0
 49
-6.3499999999999996
 74
0
  0
LTYPE
  5
44
100
AcDbSymbolTableRecord
100
AcDbLinetypeTableRecord
  2
ACAD_ISO06W100
 70
0
  3
ISO long-dash triple-dot ____ ... ____ ... ____
 72
65
 73
8
 40
36.0
 49
24.0
 74
0
 49
-3.0
 74
0
 49
0.0
 74
0
 49
-3.0
 74
0
 49
0.0
 74
0
 49
-3.0
 74
0
 49
0.0
 74
0
 49
-3.0
 74
0
  0
LTYPE
  5
45
100
AcDbSymbolTableRecord
100
AcDbLinetypeTableRecord
  2
ACAD_ISO10W100
 70
0
  3
ISO dash dot __ . __ . __ . __ . __ . __ . __ . 
 72
65
 73
4
 40
18.0
 49
12.0
 74
0
 49
-3.0
 74
0
 49
0.0
 74
0
 49
-3.0
 74
0
  0
LTYPE
  5
46
100
AcDbSymbolTableRecord
100
AcDbLinetypeTableRecord
  2
CENTER
 70
0
  3
Center ____ _ ____ _ ____ _ ____ _ ____ _ ____
 72
65
 73
4
 40
50.8000000000000043
 49
31.75
 74
0
 49
-6.3499999999999996
 74
0
 49
6.3499999999999996
 74
0
 49
-6.3499999999999996
 74
0
  0
LTYPE
  5
47
100
AcDbSymbolTableRecord
100
AcDbLinetypeTableRecord
  2
DIVIDE2
 70
0
  3
Divide (.5x) __..__..__..__..__..__..__..__.._
 72
65
 73
6
 40
15.875
 49
6.3499999999999996
 74
0
 49
-3.1749999999999998
 74
0
 49
0.0
 74
0
 49
-3.1749999999999998
 74
0
 49
0.0
 74
0
 49
-3.1749999999999998
 74
0
  0
LTYPE
  5
48
100
AcDbSymbolTableRecord
100
AcDbLinetypeTableRecord
  2
PHANTOMX2
 70
0
  3
Phantom (2x) ____________    ____    ____   _
 72
65
 73
6
 40
127.0000000000000142
 49
63.5
 74
0
 49
-12.6999999999999993
 74
0
 49
12.6999999999999993
 74
0
 49
-12.6999999999999993
 74
0
 49
12.6999999999999993
 74
0
 49
-12.6999999999999993
 74
0
  0
LTYPE
  5
49
100
AcDbSymbolTableRecord
100
AcDbLinetypeTableRecord
  2
HIDDEN2
 70
0
  3
Hidden (.5x) _ _ _ _ _ _ _ _ _ _ _ _ _ _ _ _ _ 
 72
65
 73
2
 40
4.7624999999999993
 49
3.1749999999999998
 74
0
 49
-1.5874999999999999
 74
0
  0
LTYPE
  5
14
100
AcDbSymbolTableRecord
100
AcDbLinetypeTableRecord
  2
BYBLOCK
 70
0
  3

 72
65
 73
0
 40
0.0
  0
LTYPE
  5
4A
100
AcDbSymbolTableRecord
100
AcDbLinetypeTableRecord
  2
ACAD_ISO09W100
 70
0
  3
ISO long-dash double-short-dash ____ __ __ ____
 72
65
 73
6
 40
45.0
 49
24.0
 74
0
 49
-3.0
 74
0
 49
6.0
 74
0
 49
-3.0
 74
0
 49
6.0
 74
0
 49
-3.0
 74
0
  0
LTYPE
  5
4B
100
AcDbSymbolTableRecord
100
AcDbLinetypeTableRecord
  2
DOT2
 70
0
  3
Dot (.5x) ........................................
 72
65
 73
2
 40
3.1749999999999998
 49
0.0
 74
0
 49
-3.1749999999999998
 74
0
  0
LTYPE
  5
4C
100
AcDbSymbolTableRecord
100
AcDbLinetypeTableRecord
  2
HIDDEN
 70
0
  3
Hidden __ __ __ __ __ __ __ __ __ __ __ __ __ __
 72
65
 73
2
 40
9.5249999999999986
 49
6.3499999999999996
 74
0
 49
-3.1749999999999998
 74
0
  0
LTYPE
  5
4D
100
AcDbSymbolTableRecord
100
AcDbLinetypeTableRecord
  2
PHANTOM2
 70
0
  3
Phantom (.5x) ___ _ _ ___ _ _ ___ _ _ ___ _ _
 72
65
 73
6
 40
31.7500000000000036
 49
15.875
 74
0
 49
-3.1749999999999998
 74
0
 49
3.1749999999999998
 74
0
 49
-3.1749999999999998
 74
0
 49
3.1749999999999998
 74
0
 49
-3.1749999999999998
 74
0
  0
LTYPE
  5
4E
100
AcDbSymbolTableRecord
100
AcDbLinetypeTableRecord
  2
BORDERX2
 70
0
  3
Border (2x) ____  ____  .  ____  ____  .  ___
 72
65
 73
6
 40
88.8999999999999915
 49
25.3999999999999986
 74
0
 49
-12.6999999999999993
 74
0
 49
25.3999999999999986
 74
0
 49
-12.6999999999999993
 74
0
 49
0.0
 74
0
 49
-12.6999999999999993
 74
0
  0
LTYPE
  5
4F
100
AcDbSymbolTableRecord
100
AcDbLinetypeTableRecord
  2
BORDER
 70
0
  3
Border __ __ . __ __ . __ __ . __ __ . __ __ .
 72
65
 73
6
 40
44.4499999999999957
 49
12.6999999999999993
 74
0
 49
-6.3499999999999996
 74
0
 49
12.6999999999999993
 74
0
 49
-6.3499999999999996
 74
0
 49
0.0
 74
0
 49
-6.3499999999999996
 74
0
  0
LTYPE
  5
15
100
AcDbSymbolTableRecord
100
AcDbLinetypeTableRecord
  2
BYLAYER
 70
0
  3

 72
65
 73
0
 40
0.0
  0
LTYPE
  5
50
100
AcDbSymbolTableRecord
100
AcDbLinetypeTableRecord
  2
ACAD_ISO03W100
 70
0
  3
ISO dash space __    __    __    __    __    __
 72
65
 73
2
 40
30.0
 49
12.0
 74
0
 49
-18.0
 74
0
  0
LTYPE
  5
51
100
AcDbSymbolTableRecord
100
AcDbLinetypeTableRecord
  2
ACAD_ISO08W100
 70
0
  3
ISO long-dash short-dash ____ __ ____ __ ____ _
 72
65
 73
4
 40
36.0
 49
24.0
 74
0
 49
-3.0
 74
0
 49
6.0
 74
0
 49
-3.0
 74
0
  0
LTYPE
  5
52
100
AcDbSymbolTableRecord
100
AcDbLinetypeTableRecord
  2
DIVIDEX2
 70
0
  3
Divide (2x) ________  .  .  ________  .  .  _
 72
65
 73
6
 40
63.5
 49
25.3999999999999986
 74
0
 49
-12.6999999999999993
 74
0
 49
0.0
 74
0
 49
-12.6999999999999993
 74
0
 49
0.0
 74
0
 49
-12.6999999999999993
 74
0
  0
LTYPE
  5
53
100
AcDbSymbolTableRecord
100
AcDbLinetypeTableRecord
  2
CENTERX2
 70
0
  3
Center (2x) ________  __  ________  __  _____
 72
65
 73
4
 40
101.6000000000000085
 49
63.5
 74
0
 49
-12.6999999999999993
 74
0
 49
12.6999999999999993
 74
0
 49
-12.6999999999999993
 74
0
  0
LTYPE
  5
54
100
AcDbSymbolTableRecord
100
AcDbLinetypeTableRecord
  2
DASHED2
 70
0
  3
Dashed (.5x) _ _ _ _ _ _ _ _ _ _ _ _ _ _ _ _ _ 
 72
65
 73
2
 40
9.5249999999999986
 49
6.3499999999999996
 74
0
 49
-3.1749999999999998
 74
0
  0
LTYPE
  5
55
100
AcDbSymbolTableRecord
100
AcDbLinetypeTableRecord
  2
ACAD_ISO04W100
 70
0
  3
ISO long-dash dot ____ . ____ . ____ . ____ . _
 72
65
 73
4
 40
30.0
 49
24.0
 74
0
 49
-3.0
 74
0
 49
0.0
 74
0
 49
-3.0
 74
0
  0
LTYPE
  5
56
100
AcDbSymbolTableRecord
100
AcDbLinetypeTableRecord
  2
DASHED
 70
0
  3
Dashed __ __ __ __ __ __ __ __ __ __ __ __ __ _
 72
65
 73
2
 40
19.0499999999999972
 49
12.6999999999999993
 74
0
 49
-6.3499999999999996
 74
0
  0
ENDTAB
  0
TABLE
  2
LAYER
  5
2
100
AcDbSymbolTable
 70
1
  0
LAYER
  5
10
100
AcDbSymbolTableRecord
100
AcDbLayerTableRecord
  2
0
 70
0
 62
7
420
16777215
  6
CONTINUOUS
370
25
390
F
  0
ENDTAB
  0
TABLE
  2
STYLE
  5
3
100
AcDbSymbolTable
 70
1
  0
STYLE
  5
57
100
AcDbSymbolTableRecord
100
AcDbTextStyleTableRecord
  2
Standard
 70
0
 40
0.0
 41
1.0
 50
0.0
 71
0
 42
2.5
  3

  4

1001
ACAD
1000
txt
1071
0
  0
ENDTAB
  0
TABLE
  2
VIEW
  5
6
100
AcDbSymbolTable
 70
0
  0
ENDTAB
  0
TABLE
  2
UCS
  5
7
100
AcDbSymbolTable
 70
0
  0
ENDTAB
  0
TABLE
  2
APPID
  5
9
100
AcDbSymbolTable
 70
1
  0
APPID
  5
12
100
AcDbSymbolTableRecord
100
AcDbRegAppTableRecord
  2
ACAD
 70
0
  0
APPID
  5
58
100
AcDbSymbolTableRecord
100
AcDbRegAppTableRecord
  2
QCAD
 70
0
  0
ENDTAB
  0
TABLE
  2
DIMSTYLE
  5
A
100
AcDbSymbolTable
 70
1
100
AcDbDimStyleTable
 71
0
  0
DIMSTYLE
105
27
100
AcDbSymbolTableRecord
100
AcDbDimStyleTableRecord
  2
Standard
 41
0.18
 42
0.0625
 43
3.75
 44
0.18
 70
0
 73
0
 74
0
 77
0
 78
8
140
0.18
141
2.5
143
0.03937007874016
147
0.09
171
3
172
1
271
2
272
2
274
3
278
44
283
0
284
8
340
57
  0
ENDTAB
  0
TABLE
  2
BLOCK_RECORD
  5
1
100
AcDbSymbolTable
 70
1
  0
BLOCK_RECORD
  5
1F
100
AcDbSymbolTableRecord
100
AcDbBlockTableRecord
  2
*Model_Space
340
22
  0
BLOCK_RECORD
  5
1B
100
AcDbSymbolTableRecord
100
AcDbBlockTableRecord
  2
*Paper_Space
340
1E
  0
BLOCK_RECORD
  5
23
100
AcDbSymbolTableRecord
100
AcDbBlockTableRecord
  2
*Paper_Space0
340
26
  0
ENDTAB
  0
ENDSEC
  0
SECTION
  2
BLOCKS
  0
BLOCK
  5
20
100
AcDbEntity
  8
0
100
AcDbBlockBegin
  2
*Model_Space
 70
0
 10
0.0
 20
0.0
 30
0.0
  3
*Model_Space
  1

  0
ENDBLK
  5
21
100
AcDbEntity
  8
0
100
AcDbBlockEnd
  0
BLOCK
  5
1C
100
AcDbEntity
 67
1
  8
0
100
AcDbBlockBegin
  2
*Paper_Space
 70
0
 10
0.0
 20
0.0
 30
0.0
  3
*Paper_Space
  1

  0
ENDBLK
  5
1D
100
AcDbEntity
 67
1
  8
0
100
AcDbBlockEnd
  0
BLOCK
  5
24
100
AcDbEntity
  8
0
100
AcDbBlockBegin
  2
*Paper_Space0
 70
0
 10
0.0
 20
0.0
 30
0.0
  3
*Paper_Space0
  1

  0
ENDBLK
  5
25
100
AcDbEntity
  8
0
100
AcDbBlockEnd
  0
ENDSEC
  0
SECTION
  2
ENTITIES
  0
ARC
  5
59
100
AcDbEntity
  8
0
 62
256
370
-1
 48
1.0
  6
BYLAYER
100
AcDbCircle
 10
-12.2250000000000192
 20
-163.6374999999999886
 30
0.0
 40
0.5
100
AcDbArc
 50
180.0
 51
270.0
  0
LWPOLYLINE
  5
5A
100
AcDbEntity
  8
0
 62
7
420
0
370
-1
 48
1.0
  6
BYLAYER
100
AcDbPolyline
 90
2
 70
128
 10
79.9999999999999716
 20
-149.2125000000000057
 10
79.9999999999999716
 20
-165.1624999999999091
  0
SPLINE
  5
5B
100
AcDbEntity
  8
0
 62
0
370
-1
 48
1.0
  6
CONTINUOUS
100
AcDbSpline
 70
8
 71
3
 72
8
 73
4
 74
0
 40
0.0
 40
0.0
 40
0.0
 40
0.0
 40
1.0
 40
1.0
 40
1.0
 40
1.0
 10
-35.2921860166038073
 20
-241.5735984944826669
 30
0.0
 10
-36.6921860166037277
 20
-241.5735984944825532
 30
0.0
 10
-36.6921860166037845
 20
-239.4735984944824736
 30
0.0
 10
-35.2921860166037504
 20
-239.4735984944826441
 30
0.0
  0
SPLINE
  5
5C
100
AcDbEntity
  8
0
 62
0
370
-1
 48
1.0
  6
CONTINUOUS
100
AcDbSpline
 70
8
 71
3
 72
8
 73
4
 74
0
 40
0.0
 40
0.0
 40
0.0
 40
0.0
 40
1.0
 40
1.0
 40
1.0
 40
1.0
 10
-35.2921860166038073
 20
-168.2139015055171285
 30
0.0
 10
-36.6921860166037277
 20
-168.2139015055172422
 30
0.0
 10
-36.6921860166037845
 20
-170.3139015055173218
 30
0.0
 10
-35.2921860166037504
 20
-170.3139015055171512
 30
0.0
  0
SPLINE
  5
5D
100
AcDbEntity
  8
0
 62
0
370
-1
 48
1.0
  6
CONTINUOUS
100
AcDbSpline
 70
8
 71
3
 72
8
 73
4
 74
0
 40
0.0
 40
0.0
 40
0.0
 40
0.0
 40
1.0
 40
1.0
 40
1.0
 40
1.0
 10
195.1921860166038414
 20
-241.5735984944826669
 30
0.0
 10
196.5921860166037618
 20
-241.5735984944825532
 30
0.0
 10
196.5921860166038755
 20
-239.4735984944824736
 30
0.0
 10
195.1921860166037845
 20
-239.4735984944826441
 30
0.0
  0
SPLINE
  5
5E
100
AcDbEntity
  8
0
 62
0
370
-1
 48
1.0
  6
CONTINUOUS
100
AcDbSpline
 70
8
 71
3
 72
8
 73
4
 74
0
 40
0.0
 40
0.0
 40
0.0
 40
0.0
 40
1.0
 40
1.0
 40
1.0
 40
1.0
 10
195.1921860166038414
 20
-169.7139015055171853
 30
0.0
 10
196.5921860166037618
 20
-169.713901505517299
 30
0.0
 10
196.5921860166038755
 20
-171.8139015055173786
 30
0.0
 10
195.1921860166037845
 20
-171.8139015055172081
 30
0.0
  0
ARC
  5
5F
100
AcDbEntity
  8
0
 62
256
370
-1
 48
1.0
  6
BYLAYER
100
AcDbCircle
 10
0.7749999999999844
 20
-163.6374999999999886
 30
0.0
 40
0.5
100
AcDbArc
 50
270.0
 51
0.0
  0
LWPOLYLINE
  5
60
100
AcDbEntity
  8
0
 62
7
420
0
370
-1
 48
1.0
  6
BYLAYER
100
AcDbPolyline
 90
2
 70
128
 10
-13.6499999999999915
 20
-147.6124999999999545
 10
78.3999999999999773
 20
-147.6124999999999545
  0
ARC
  5
61
100
AcDbEntity
  8
0
 62
256
370
-1
 48
1.0
  6
BYLAYER
100
AcDbCircle
 10
0.7749999999999844
 20
-150.6374999999999886
 30
0.0
 40
0.5
100
AcDbArc
 50
0.0
 51
90.0
  0
LWPOLYLINE
  5
62
100
AcDbEntity
  8
0
 62
7
420
0
370
-1
 48
1.0
  6
BYLAYER
100
AcDbPolyline
 90
2
 70
128
 10
-15.2500000000000142
 20
-165.0624999999999716
 10
-15.2499999999999858
 20
-149.2124999999999488
  0
LWPOLYLINE
  5
63
100
AcDbEntity
  8
0
 62
7
420
0
370
-1
 48
1.0
  6
BYLAYER
100
AcDbPolyline
 90
2
 70
128
 10
-15.2500000000000142
 20
-165.2628072186632551
 10
-15.2499999999999858
 20
-149.2124999999999488
  0
ARC
  5
64
100
AcDbEntity
  8
0
 62
256
370
-1
 48
1.0
  6
BYLAYER
100
AcDbCircle
 10
-12.2250000000000192
 20
-150.6374999999999886
 30
0.0
 40
0.5
100
AcDbArc
 50
90.0
 51
180.0
  0
LINE
  5
65
100
AcDbEntity
  8
0
 62
256
370
-1
 48
1.0
  6
BYLAYER
100
AcDbLine
 10
-12.2250000000000192
 20
-164.1374999999999886
 30
0.0
 11
0.7749999999999844
 21
-164.1374999999999886
 31
0.0
  0
LWPOLYLINE
  5
66
100
AcDbEntity
  8
0
 62
7
420
0
370
-1
 48
1.0
  6
BYLAYER
100
AcDbPolyline
 90
2
 70
128
 10
-24.7750000000000199
 20
-198.3999999999999773
 10
-24.7750000000000199
 20
-190.0638072186635839
  0
SPLINE
  5
67
100
AcDbEntity
  8
0
 62
0
370
-1
 48
1.0
  6
CONTINUOUS
100
AcDbSpline
 70
8
 71
3
 72
8
 73
4
 74
0
 40
0.0
 40
0.0
 40
0.0
 40
0.0
 40
1.0
 40
1.0
 40
1.0
 40
1.0
 10
-35.2921860166037504
 20
-239.4735984944826441
 30
0.0
 10
-33.89218601660383
 20
-239.4735984944825304
 30
0.0
 10
-33.8921860166035458
 20
-241.5735984944825532
 30
0.0
 10
-35.2921860166038073
 20
-241.5735984944826669
 30
0.0
  0
SPLINE
  5
68
100
AcDbEntity
  8
0
 62
0
370
-1
 48
1.0
  6
CONTINUOUS
100
AcDbSpline
 70
8
 71
3
 72
8
 73
4
 74
0
 40
0.0
 40
0.0
 40
0.0
 40
0.0
 40
1.0
 40
1.0
 40
1.0
 40
1.0
 10
-35.2921860166037504
 20
-170.3139015055171512
 30
0.0
 10
-33.89218601660383
 20
-170.3139015055172649
 30
0.0
 10
-33.8921860166035458
 20
-168.2139015055172422
 30
0.0
 10
-35.2921860166038073
 20
-168.2139015055171285
 30
0.0
  0
SPLINE
  5
69
100
AcDbEntity
  8
0
 62
0
370
-1
 48
1.0
  6
CONTINUOUS
100
AcDbSpline
 70
8
 71
3
 72
8
 73
4
 74
0
 40
0.0
 40
0.0
 40
0.0
 40
0.0
 40
1.0
 40
1.0
 40
1.0
 40
1.0
 10
195.1921860166037845
 20
-239.4735984944826441
 30
0.0
 10
193.7921860166038641
 20
-239.4735984944825304
 30
0.0
 10
193.7921860166036367
 20
-241.5735984944825532
 30
0.0
 10
195.1921860166038414
 20
-241.5735984944826669
 30
0.0
  0
SPLINE
  5
6A
100
AcDbEntity
  8
0
 62
0
370
-1
 48
1.0
  6
CONTINUOUS
100
AcDbSpline
 70
8
 71
3
 72
8
 73
4
 74
0
 40
0.0
 40
0.0
 40
0.0
 40
0.0
 40
1.0
 40
1.0
 40
1.0
 40
1.0
 10
195.1921860166037845
 20
-171.8139015055172081
 30
0.0
 10
193.7921860166038641
 20
-171.8139015055173218
 30
0.0
 10
193.7921860166036367
 20
-169.713901505517299
 30
0.0
 10
195.1921860166038414
 20
-169.7139015055171853
 30
0.0
  0
LINE
  5
6B
100
AcDbEntity
  8
0
 62
256
370
-1
 48
1.0
  6
BYLAYER
100
AcDbLine
 10
0.7749999999999844
 20
-150.1374999999999886
 30
0.0
 11
-12.2250000000000192
 21
-150.1374999999999886
 31
0.0
  0
LWPOLYLINE
  5
6C
100
AcDbEntity
  8
0
 62
7
420
0
370
-1
 48
1.0
  6
BYLAYER
100
AcDbPolyline
 90
2
 70
128
 10
-27.9375
 20
-199.9999999999999432
 10
-26.3750000000000142
 20
-199.9999999999999432
  0
LINE
  5
6D
100
AcDbEntity
  8
0
 62
256
370
-1
 48
1.0
  6
BYLAYER
100
AcDbLine
 10
1.2749999999999844
 20
-163.6374999999999886
 30
0.0
 11
1.2749999999999844
 21
-150.6374999999999886
 31
0.0
  0
LWPOLYLINE
  5
6E
100
AcDbEntity
  8
0
 62
7
420
0
370
-1
 48
1.0
  6
BYLAYER
100
AcDbPolyline
 90
2
 70
128
 10
-29.5374999999999943
 20
-219.7236927813362115
 10
-29.5374999999999943
 20
-201.5999999999999375
  0
LINE
  5
6F
100
AcDbEntity
  8
0
 62
256
370
-1
 48
1.0
  6
BYLAYER
100
AcDbLine
 10
-12.7250000000000192
 20
-150.6374999999999886
 30
0.0
 11
-12.7250000000000192
 21
-163.6374999999999886
 31
0.0
  0
LWPOLYLINE
  5
70
100
AcDbEntity
  8
0
 62
7
420
0
370
-1
 48
1.0
  6
BYLAYER
100
AcDbPolyline
 90
2
 70
128
 10
-27.9375000000000142
 20
-247.6249999999999432
 10
40.2999999999999261
 20
-247.6249999999999432
  0
ARC
  5
71
100
AcDbEntity
  8
0
 62
256
370
-1
 48
1.0
  6
BYLAYER
100
AcDbCircle
 10
6.8249999999999815
 20
-163.6374999999999886
 30
0.0
 40
0.5
100
AcDbArc
 50
180.0
 51
270.0
  0
LWPOLYLINE
  5
72
100
AcDbEntity
  8
0
 62
7
420
0
370
-1
 48
1.0
  6
BYLAYER
100
AcDbPolyline
 90
2
 70
128
 10
116.5
 20
-252.3874999999999318
 10
43.5
 20
-252.3874999999999602
  0
LINE
  5
73
100
AcDbEntity
  8
0
 62
0
370
-1
 48
1.0
  6
CONTINUOUS
100
AcDbLine
 10
-35.2921860166038073
 20
-241.5735984944826669
 30
0.0
 11
-35.2921860166038073
 21
-241.5735984944826669
 31
0.0
  0
LINE
  5
74
100
AcDbEntity
  8
0
 62
0
370
-1
 48
1.0
  6
CONTINUOUS
100
AcDbLine
 10
-35.2921860166038073
 20
-168.2139015055171285
 30
0.0
 11
-35.2921860166038073
 21
-168.2139015055171285
 31
0.0
  0
LINE
  5
75
100
AcDbEntity
  8
0
 62
0
370
-1
 48
1.0
  6
CONTINUOUS
100
AcDbLine
 10
195.1921860166038414
 20
-241.5735984944826669
 30
0.0
 11
195.1921860166038414
 21
-241.5735984944826669
 31
0.0
  0
LINE
  5
76
100
AcDbEntity
  8
0
 62
0
370
-1
 48
1.0
  6
CONTINUOUS
100
AcDbLine
 10
195.1921860166038414
 20
-169.7139015055171853
 30
0.0
 11
195.1921860166038414
 21
-169.7139015055171853
 31
0.0
  0
ARC
  5
77
100
AcDbEntity
  8
0
 62
256
370
-1
 48
1.0
  6
BYLAYER
100
AcDbCircle
 10
19.8249999999999815
 20
-163.6374999999999886
 30
0.0
 40
0.5
100
AcDbArc
 50
270.0
 51
0.0
  0
ARC
  5
78
100
AcDbEntity
  8
0
 62
256
370
-1
 48
1.0
  6
BYLAYER
100
AcDbCircle
 10
19.8249999999999815
 20
-150.6374999999999886
 30
0.0
 40
0.5
100
AcDbArc
 50
0.0
 51
90.0
  0
ARC
  5
79
100
AcDbEntity
  8
0
 62
256
370
-1
 48
1.0
  6
BYLAYER
100
AcDbCircle
 10
6.8249999999999815
 20
-150.6374999999999886
 30
0.0
 40
0.5
100
AcDbArc
 50
90.0
 51
180.0
  0
LINE
  5
7A
100
AcDbEntity
  8
0
 62
256
370
-1
 48
1.0
  6
BYLAYER
100
AcDbLine
 10
6.8249999999999815
 20
-164.1374999999999886
 30
0.0
 11
19.8249999999999815
 21
-164.1374999999999886
 31
0.0
  0
LINE
  5
7B
100
AcDbEntity
  8
0
 62
256
370
-1
 48
1.0
  6
BYLAYER
100
AcDbLine
 10
19.8249999999999815
 20
-150.1374999999999886
 30
0.0
 11
6.8249999999999815
 21
-150.1374999999999886
 31
0.0
  0
LINE
  5
7C
100
AcDbEntity
  8
0
 62
256
370
-1
 48
1.0
  6
BYLAYER
100
AcDbLine
 10
20.3249999999999815
 20
-163.6374999999999886
 30
0.0
 11
20.3249999999999815
 21
-150.6374999999999886
 31
0.0
  0
LINE
  5
7D
100
AcDbEntity
  8
0
 62
256
370
-1
 48
1.0
  6
BYLAYER
100
AcDbLine
 10
6.3249999999999815
 20
-150.6374999999999886
 30
0.0
 11
6.3249999999999815
 21
-163.6374999999999886
 31
0.0
  0
LWPOLYLINE
  5
7E
100
AcDbEntity
  8
0
 62
7
420
0
370
-1
 48
1.0
  6
BYLAYER
100
AcDbPolyline
 90
2
 70
128
 10
187.9374999999999716
 20
-247.6249999999999432
 10
119.7000000000000455
 20
-247.6249999999999432
  0
ARC
  5
7F
100
AcDbEntity
  8
0
 62
256
370
-1
 48
1.0
  6
BYLAYER
100
AcDbCircle
 10
25.8749999999999787
 20
-163.6374999999999886
 30
0.0
 40
0.5
100
AcDbArc
 50
180.0
 51
270.0
  0
LWPOLYLINE
  5
80
100
AcDbEntity
  8
0
 62
7
420
0
370
-1
 48
1.0
  6
BYLAYER
100
AcDbPolyline
 90
2
 70
128
 10
189.5374999999999943
 20
-201.5999999999999375
 10
189.5375000000000227
 20
-219.7236927813362684
  0
ARC
  5
81
100
AcDbEntity
  8
0
 62
256
370
-1
 48
1.0
  6
BYLAYER
100
AcDbCircle
 10
38.8749999999999787
 20
-163.6374999999999886
 30
0.0
 40
0.5
100
AcDbArc
 50
270.0
 51
0.0
  0
LWPOLYLINE
  5
82
100
AcDbEntity
  8
0
 62
7
420
0
370
-1
 48
1.0
  6
BYLAYER
100
AcDbPolyline
 90
2
 70
128
 10
186.3749999999999716
 20
-199.9999999999999432
 10
187.9374999999999716
 20
-199.9999999999999432
  0
ARC
  5
83
100
AcDbEntity
  8
0
 62
256
370
-1
 48
1.0
  6
BYLAYER
100
AcDbCircle
 10
38.8749999999999787
 20
-150.6374999999999886
 30
0.0
 40
0.5
100
AcDbArc
 50
0.0
 51
90.0
  0
LWPOLYLINE
  5
84
100
AcDbEntity
  8
0
 62
7
420
0
370
-1
 48
1.0
  6
BYLAYER
100
AcDbPolyline
 90
2
 70
128
 10
184.7749999999999773
 20
-191.5638072186636407
 10
184.7749999999999488
 20
-198.3999999999999773
  0
ARC
  5
85
100
AcDbEntity
  8
0
 62
256
370
-1
 48
1.0
  6
BYLAYER
100
AcDbCircle
 10
25.8749999999999787
 20
-150.6374999999999886
 30
0.0
 40
0.5
100
AcDbArc
 50
90.0
 51
180.0
  0
LINE
  5
86
100
AcDbEntity
  8
0
 62
256
370
-1
 48
1.0
  6
BYLAYER
100
AcDbLine
 10
25.8749999999999787
 20
-164.1374999999999886
 30
0.0
 11
38.8749999999999787
 21
-164.1374999999999886
 31
0.0
  0
LINE
  5
87
100
AcDbEntity
  8
0
 62
256
370
-1
 48
1.0
  6
BYLAYER
100
AcDbLine
 10
38.8749999999999787
 20
-150.1374999999999886
 30
0.0
 11
25.8749999999999787
 21
-150.1374999999999886
 31
0.0
  0
LINE
  5
88
100
AcDbEntity
  8
0
 62
256
370
-1
 48
1.0
  6
BYLAYER
100
AcDbLine
 10
39.3749999999999787
 20
-163.6374999999999886
 30
0.0
 11
39.3749999999999787
 21
-150.6374999999999886
 31
0.0
  0
LINE
  5
89
100
AcDbEntity
  8
0
 62
256
370
-1
 48
1.0
  6
BYLAYER
100
AcDbLine
 10
25.3749999999999787
 20
-150.6374999999999886
 30
0.0
 11
25.3749999999999787
 21
-163.6374999999999886
 31
0.0
  0
ARC
  5
8A
100
AcDbEntity
  8
0
 62
256
370
-1
 48
1.0
  6
BYLAYER
100
AcDbCircle
 10
44.9249999999999758
 20
-163.6374999999999886
 30
0.0
 40
0.5
100
AcDbArc
 50
180.0
 51
270.0
  0
ARC
  5
8B
100
AcDbEntity
  8
0
 62
256
370
-1
 48
1.0
  6
BYLAYER
100
AcDbCircle
 10
57.9249999999999758
 20
-163.6374999999999886
 30
0.0
 40
0.5
100
AcDbArc
 50
270.0
 51
0.0
  0
ARC
  5
8C
100
AcDbEntity
  8
0
 62
256
370
-1
 48
1.0
  6
BYLAYER
100
AcDbCircle
 10
57.9249999999999758
 20
-150.6374999999999886
 30
0.0
 40
0.5
100
AcDbArc
 50
0.0
 51
90.0
  0
ARC
  5
8D
100
AcDbEntity
  8
0
 62
256
370
-1
 48
1.0
  6
BYLAYER
100
AcDbCircle
 10
44.9249999999999758
 20
-150.6374999999999886
 30
0.0
 40
0.5
100
AcDbArc
 50
90.0
 51
180.0
  0
LINE
  5
8E
100
AcDbEntity
  8
0
 62
256
370
-1
 48
1.0
  6
BYLAYER
100
AcDbLine
 10
44.9249999999999758
 20
-164.1374999999999886
 30
0.0
 11
57.9249999999999758
 21
-164.1374999999999886
 31
0.0
  0
LINE
  5
8F
100
AcDbEntity
  8
0
 62
256
370
-1
 48
1.0
  6
BYLAYER
100
AcDbLine
 10
57.9249999999999758
 20
-150.1374999999999886
 30
0.0
 11
44.9249999999999758
 21
-150.1374999999999886
 31
0.0
  0
LINE
  5
90
100
AcDbEntity
  8
0
 62
256
370
-1
 48
1.0
  6
BYLAYER
100
AcDbLine
 10
58.4249999999999758
 20
-163.6374999999999886
 30
0.0
 11
58.4249999999999758
 21
-150.6374999999999886
 31
0.0
  0
LINE
  5
91
100
AcDbEntity
  8
0
 62
256
370
-1
 48
1.0
  6
BYLAYER
100
AcDbLine
 10
44.4249999999999758
 20
-150.6374999999999886
 30
0.0
 11
44.4249999999999758
 21
-163.6374999999999886
 31
0.0
  0
ARC
  5
92
100
AcDbEntity
  8
0
 62
256
370
-1
 48
1.0
  6
BYLAYER
100
AcDbCircle
 10
63.9749999999999872
 20
-163.6374999999999886
 30
0.0
 40
0.5
100
AcDbArc
 50
180.0
 51
270.0
  0
ARC
  5
93
100
AcDbEntity
  8
0
 62
256
370
-1
 48
1.0
  6
BYLAYER
100
AcDbCircle
 10
76.9749999999999943
 20
-163.6374999999999886
 30
0.0
 40
0.5
100
AcDbArc
 50
270.0
 51
0.0
  0
ARC
  5
94
100
AcDbEntity
  8
0
 62
256
370
-1
 48
1.0
  6
BYLAYER
100
AcDbCircle
 10
76.9749999999999943
 20
-150.6374999999999886
 30
0.0
 40
0.5
100
AcDbArc
 50
0.0
 51
90.0
  0
ARC
  5
95
100
AcDbEntity
  8
0
 62
256
370
-1
 48
1.0
  6
BYLAYER
100
AcDbCircle
 10
63.9749999999999872
 20
-150.6374999999999886
 30
0.0
 40
0.5
100
AcDbArc
 50
90.0
 51
180.0
  0
LINE
  5
96
100
AcDbEntity
  8
0
 62
256
370
-1
 48
1.0
  6
BYLAYER
100
AcDbLine
 10
63.9749999999999872
 20
-164.1374999999999886
 30
0.0
 11
76.9749999999999943
 21
-164.1374999999999886
 31
0.0
  0
LINE
  5
97
100
AcDbEntity
  8
0
 62
256
370
-1
 48
1.0
  6
BYLAYER
100
AcDbLine
 10
76.9749999999999943
 20
-150.1374999999999886
 30
0.0
 11
63.9749999999999872
 21
-150.1374999999999886
 31
0.0
  0
LINE
  5
98
100
AcDbEntity
  8
0
 62
256
370
-1
 48
1.0
  6
BYLAYER
100
AcDbLine
 10
77.4749999999999943
 20
-163.6374999999999886
 30
0.0
 11
77.4749999999999943
 21
-150.6374999999999886
 31
0.0
  0
LINE
  5
99
100
AcDbEntity
  8
0
 62
256
370
-1
 48
1.0
  6
BYLAYER
100
AcDbLine
 10
63.4749999999999872
 20
-150.6374999999999886
 30
0.0
 11
63.4749999999999872
 21
-163.6374999999999886
 31
0.0
  0
ARC
  5
9A
100
AcDbEntity
  8
0
 62
256
370
-1
 48
1.0
  6
BYLAYER
100
AcDbCircle
 10
-21.7500000000000178
 20
-189.8312499999999829
 30
0.0
 40
0.5
100
AcDbArc
 50
180.0
 51
270.0
  0
ARC
  5
9B
100
AcDbEntity
  8
0
 62
256
370
-1
 48
1.0
  6
BYLAYER
100
AcDbCircle
 10
-8.7500000000000178
 20
-189.8312499999999829
 30
0.0
 40
0.5
100
AcDbArc
 50
270.0
 51
0.0
  0
ARC
  5
9C
100
AcDbEntity
  8
0
 62
256
370
-1
 48
1.0
  6
BYLAYER
100
AcDbCircle
 10
-8.7500000000000178
 20
-176.8312499999999829
 30
0.0
 40
0.5
100
AcDbArc
 50
0.0
 51
90.0
  0
ARC
  5
9D
100
AcDbEntity
  8
0
 62
256
370
-1
 48
1.0
  6
BYLAYER
100
AcDbCircle
 10
-21.7500000000000178
 20
-176.8312499999999829
 30
0.0
 40
0.5
100
AcDbArc
 50
90.0
 51
180.0
  0
LINE
  5
9E
100
AcDbEntity
  8
0
 62
256
370
-1
 48
1.0
  6
BYLAYER
100
AcDbLine
 10
-21.7500000000000178
 20
-190.3312499999999829
 30
0.0
 11
-8.7500000000000178
 21
-190.3312499999999829
 31
0.0
  0
LINE
  5
9F
100
AcDbEntity
  8
0
 62
256
370
-1
 48
1.0
  6
BYLAYER
100
AcDbLine
 10
-8.7500000000000178
 20
-176.3312499999999829
 30
0.0
 11
-21.7500000000000178
 21
-176.3312499999999829
 31
0.0
  0
LINE
  5
A0
100
AcDbEntity
  8
0
 62
256
370
-1
 48
1.0
  6
BYLAYER
100
AcDbLine
 10
-8.2500000000000178
 20
-189.8312499999999829
 30
0.0
 11
-8.2500000000000178
 21
-176.8312499999999829
 31
0.0
  0
LINE
  5
A1
100
AcDbEntity
  8
0
 62
256
370
-1
 48
1.0
  6
BYLAYER
100
AcDbLine
 10
-22.2500000000000178
 20
-176.8312499999999829
 30
0.0
 11
-22.2500000000000178
 21
-189.8312499999999829
 31
0.0
  0
ARC
  5
A2
100
AcDbEntity
  8
0
 62
256
370
-1
 48
1.0
  6
BYLAYER
100
AcDbCircle
 10
-2.7000000000000171
 20
-187.4499999999999886
 30
0.0
 40
0.5
100
AcDbArc
 50
180.0
 51
270.0
  0
ARC
  5
A3
100
AcDbEntity
  8
0
 62
256
370
-1
 48
1.0
  6
BYLAYER
100
AcDbCircle
 10
10.2999999999999829
 20
-187.4499999999999886
 30
0.0
 40
0.5
100
AcDbArc
 50
270.0
 51
0.0
  0
ARC
  5
A4
100
AcDbEntity
  8
0
 62
256
370
-1
 48
1.0
  6
BYLAYER
100
AcDbCircle
 10
10.2999999999999829
 20
-174.4499999999999886
 30
0.0
 40
0.5
100
AcDbArc
 50
0.0
 51
90.0
  0
ARC
  5
A5
100
AcDbEntity
  8
0
 62
256
370
-1
 48
1.0
  6
BYLAYER
100
AcDbCircle
 10
-2.7000000000000171
 20
-174.4499999999999886
 30
0.0
 40
0.5
100
AcDbArc
 50
90.0
 51
180.0
  0
LINE
  5
A6
100
AcDbEntity
  8
0
 62
256
370
-1
 48
1.0
  6
BYLAYER
100
AcDbLine
 10
-2.7000000000000171
 20
-187.9499999999999886
 30
0.0
 11
10.2999999999999829
 21
-187.9499999999999886
 31
0.0
  0
LINE
  5
A7
100
AcDbEntity
  8
0
 62
256
370
-1
 48
1.0
  6
BYLAYER
100
AcDbLine
 10
10.2999999999999829
 20
-173.9499999999999886
 30
0.0
 11
-2.7000000000000171
 21
-173.9499999999999886
 31
0.0
  0
LINE
  5
A8
100
AcDbEntity
  8
0
 62
256
370
-1
 48
1.0
  6
BYLAYER
100
AcDbLine
 10
10.7999999999999829
 20
-187.4499999999999886
 30
0.0
 11
10.7999999999999829
 21
-174.4499999999999886
 31
0.0
  0
LINE
  5
A9
100
AcDbEntity
  8
0
 62
256
370
-1
 48
1.0
  6
BYLAYER
100
AcDbLine
 10
-3.2000000000000171
 20
-174.4499999999999886
 30
0.0
 11
-3.2000000000000171
 21
-187.4499999999999886
 31
0.0
  0
ARC
  5
AA
100
AcDbEntity
  8
0
 62
256
370
-1
 48
1.0
  6
BYLAYER
100
AcDbCircle
 10
16.3499999999999801
 20
-182.6874999999999716
 30
0.0
 40
0.5
100
AcDbArc
 50
180.0
 51
270.0
  0
ARC
  5
AB
100
AcDbEntity
  8
0
 62
256
370
-1
 48
1.0
  6
BYLAYER
100
AcDbCircle
 10
29.3499999999999801
 20
-182.6874999999999716
 30
0.0
 40
0.5
100
AcDbArc
 50
270.0
 51
0.0
  0
ARC
  5
AC
100
AcDbEntity
  8
0
 62
256
370
-1
 48
1.0
  6
BYLAYER
100
AcDbCircle
 10
29.3499999999999801
 20
-169.6874999999999716
 30
0.0
 40
0.5
100
AcDbArc
 50
0.0
 51
90.0
  0
ARC
  5
AD
100
AcDbEntity
  8
0
 62
256
370
-1
 48
1.0
  6
BYLAYER
100
AcDbCircle
 10
16.3499999999999801
 20
-169.6874999999999716
 30
0.0
 40
0.5
100
AcDbArc
 50
90.0
 51
180.0
  0
LINE
  5
AE
100
AcDbEntity
  8
0
 62
256
370
-1
 48
1.0
  6
BYLAYER
100
AcDbLine
 10
16.3499999999999801
 20
-183.1874999999999716
 30
0.0
 11
29.3499999999999801
 21
-183.1874999999999716
 31
0.0
  0
LINE
  5
AF
100
AcDbEntity
  8
0
 62
256
370
-1
 48
1.0
  6
BYLAYER
100
AcDbLine
 10
29.3499999999999801
 20
-169.1874999999999716
 30
0.0
 11
16.3499999999999801
 21
-169.1874999999999716
 31
0.0
  0
LINE
  5
B0
100
AcDbEntity
  8
0
 62
256
370
-1
 48
1.0
  6
BYLAYER
100
AcDbLine
 10
29.8499999999999872
 20
-182.6874999999999716
 30
0.0
 11
29.8499999999999872
 21
-169.6874999999999716
 31
0.0
  0
LINE
  5
B1
100
AcDbEntity
  8
0
 62
256
370
-1
 48
1.0
  6
BYLAYER
100
AcDbLine
 10
15.8499999999999801
 20
-169.6874999999999716
 30
0.0
 11
15.8499999999999801
 21
-182.6874999999999716
 31
0.0
  0
ARC
  5
B2
100
AcDbEntity
  8
0
 62
256
370
-1
 48
1.0
  6
BYLAYER
100
AcDbCircle
 10
35.3999999999999844
 20
-185.0687499999999659
 30
0.0
 40
0.5
100
AcDbArc
 50
180.0
 51
270.0
  0
ARC
  5
B3
100
AcDbEntity
  8
0
 62
256
370
-1
 48
1.0
  6
BYLAYER
100
AcDbCircle
 10
48.3999999999999844
 20
-185.0687499999999659
 30
0.0
 40
0.5
100
AcDbArc
 50
270.0
 51
0.0
  0
ARC
  5
B4
100
AcDbEntity
  8
0
 62
256
370
-1
 48
1.0
  6
BYLAYER
100
AcDbCircle
 10
48.3999999999999844
 20
-172.0687499999999659
 30
0.0
 40
0.5
100
AcDbArc
 50
0.0
 51
90.0
  0
ARC
  5
B5
100
AcDbEntity
  8
0
 62
256
370
-1
 48
1.0
  6
BYLAYER
100
AcDbCircle
 10
35.3999999999999844
 20
-172.0687499999999659
 30
0.0
 40
0.5
100
AcDbArc
 50
90.0
 51
180.0
  0
LINE
  5
B6
100
AcDbEntity
  8
0
 62
256
370
-1
 48
1.0
  6
BYLAYER
100
AcDbLine
 10
35.3999999999999844
 20
-185.5687499999999659
 30
0.0
 11
48.3999999999999844
 21
-185.5687499999999659
 31
0.0
  0
LINE
  5
B7
100
AcDbEntity
  8
0
 62
256
370
-1
 48
1.0
  6
BYLAYER
100
AcDbLine
 10
48.3999999999999844
 20
-171.5687499999999659
 30
0.0
 11
35.3999999999999844
 21
-171.5687499999999659
 31
0.0
  0
LINE
  5
B8
100
AcDbEntity
  8
0
 62
256
370
-1
 48
1.0
  6
BYLAYER
100
AcDbLine
 10
48.8999999999999844
 20
-185.0687499999999659
 30
0.0
 11
48.8999999999999844
 21
-172.0687499999999659
 31
0.0
  0
LINE
  5
B9
100
AcDbEntity
  8
0
 62
256
370
-1
 48
1.0
  6
BYLAYER
100
AcDbLine
 10
34.8999999999999844
 20
-172.0687499999999659
 30
0.0
 11
34.8999999999999844
 21
-185.0687499999999659
 31
0.0
  0
ARC
  5
BA
100
AcDbEntity
  8
0
 62
256
370
-1
 48
1.0
  6
BYLAYER
100
AcDbCircle
 10
54.4499999999999815
 20
-185.0687499999999659
 30
0.0
 40
0.5
100
AcDbArc
 50
180.0
 51
270.0
  0
ARC
  5
BB
100
AcDbEntity
  8
0
 62
256
370
-1
 48
1.0
  6
BYLAYER
100
AcDbCircle
 10
67.4499999999999886
 20
-185.0687499999999659
 30
0.0
 40
0.5
100
AcDbArc
 50
270.0
 51
0.0
  0
ARC
  5
BC
100
AcDbEntity
  8
0
 62
256
370
-1
 48
1.0
  6
BYLAYER
100
AcDbCircle
 10
67.4499999999999886
 20
-172.0687499999999659
 30
0.0
 40
0.5
100
AcDbArc
 50
0.0
 51
90.0
  0
ARC
  5
BD
100
AcDbEntity
  8
0
 62
256
370
-1
 48
1.0
  6
BYLAYER
100
AcDbCircle
 10
54.4499999999999815
 20
-172.0687499999999659
 30
0.0
 40
0.5
100
AcDbArc
 50
90.0
 51
180.0
  0
LINE
  5
BE
100
AcDbEntity
  8
0
 62
256
370
-1
 48
1.0
  6
BYLAYER
100
AcDbLine
 10
54.4499999999999815
 20
-185.5687499999999659
 30
0.0
 11
67.4499999999999886
 21
-185.5687499999999659
 31
0.0
  0
LINE
  5
BF
100
AcDbEntity
  8
0
 62
256
370
-1
 48
1.0
  6
BYLAYER
100
AcDbLine
 10
67.4499999999999886
 20
-171.5687499999999659
 30
0.0
 11
54.4499999999999815
 21
-171.5687499999999659
 31
0.0
  0
LINE
  5
C0
100
AcDbEntity
  8
0
 62
256
370
-1
 48
1.0
  6
BYLAYER
100
AcDbLine
 10
67.9499999999999886
 20
-185.0687499999999659
 30
0.0
 11
67.9499999999999886
 21
-172.0687499999999659
 31
0.0
  0
LINE
  5
C1
100
AcDbEntity
  8
0
 62
256
370
-1
 48
1.0
  6
BYLAYER
100
AcDbLine
 10
53.9499999999999815
 20
-172.0687499999999659
 30
0.0
 11
53.9499999999999815
 21
-185.0687499999999659
 31
0.0
  0
ARC
  5
C2
100
AcDbEntity
  8
0
 62
256
370
-1
 48
1.0
  6
BYLAYER
100
AcDbCircle
 10
73.4999999999999716
 20
-182.6874999999999716
 30
0.0
 40
0.5
100
AcDbArc
 50
180.0
 51
270.0
  0
ARC
  5
C3
100
AcDbEntity
  8
0
 62
256
370
-1
 48
1.0
  6
BYLAYER
100
AcDbCircle
 10
86.4999999999999716
 20
-182.6874999999999716
 30
0.0
 40
0.5
100
AcDbArc
 50
270.0
 51
0.0
  0
ARC
  5
C4
100
AcDbEntity
  8
0
 62
256
370
-1
 48
1.0
  6
BYLAYER
100
AcDbCircle
 10
86.4999999999999716
 20
-169.6874999999999716
 30
0.0
 40
0.5
100
AcDbArc
 50
0.0
 51
90.0
  0
ARC
  5
C5
100
AcDbEntity
  8
0
 62
256
370
-1
 48
1.0
  6
BYLAYER
100
AcDbCircle
 10
73.4999999999999716
 20
-169.6874999999999716
 30
0.0
 40
0.5
100
AcDbArc
 50
90.0
 51
180.0
  0
LINE
  5
C6
100
AcDbEntity
  8
0
 62
256
370
-1
 48
1.0
  6
BYLAYER
100
AcDbLine
 10
73.4999999999999716
 20
-183.1874999999999716
 30
0.0
 11
86.4999999999999716
 21
-183.1874999999999716
 31
0.0
  0
LINE
  5
C7
100
AcDbEntity
  8
0
 62
256
370
-1
 48
1.0
  6
BYLAYER
100
AcDbLine
 10
86.4999999999999716
 20
-169.1874999999999716
 30
0.0
 11
73.4999999999999716
 21
-169.1874999999999716
 31
0.0
  0
LINE
  5
C8
100
AcDbEntity
  8
0
 62
256
370
-1
 48
1.0
  6
BYLAYER
100
AcDbLine
 10
86.9999999999999716
 20
-182.6874999999999716
 30
0.0
 11
86.9999999999999716
 21
-169.6874999999999716
 31
0.0
  0
LINE
  5
C9
100
AcDbEntity
  8
0
 62
256
370
-1
 48
1.0
  6
BYLAYER
100
AcDbLine
 10
72.9999999999999716
 20
-169.6874999999999716
 30
0.0
 11
72.9999999999999716
 21
-182.6874999999999716
 31
0.0
  0
ARC
  5
CA
100
AcDbEntity
  8
0
 62
256
370
-1
 48
1.0
  6
BYLAYER
100
AcDbCircle
 10
92.5499999999999829
 20
-185.0687499999999659
 30
0.0
 40
0.5
100
AcDbArc
 50
180.0
 51
270.0
  0
ARC
  5
CB
100
AcDbEntity
  8
0
 62
256
370
-1
 48
1.0
  6
BYLAYER
100
AcDbCircle
 10
105.5499999999999829
 20
-185.0687499999999659
 30
0.0
 40
0.5
100
AcDbArc
 50
270.0
 51
0.0
  0
ARC
  5
CC
100
AcDbEntity
  8
0
 62
256
370
-1
 48
1.0
  6
BYLAYER
100
AcDbCircle
 10
105.5499999999999829
 20
-172.0687499999999659
 30
0.0
 40
0.5
100
AcDbArc
 50
0.0
 51
90.0
  0
ARC
  5
CD
100
AcDbEntity
  8
0
 62
256
370
-1
 48
1.0
  6
BYLAYER
100
AcDbCircle
 10
92.5499999999999829
 20
-172.0687499999999659
 30
0.0
 40
0.5
100
AcDbArc
 50
90.0
 51
180.0
  0
LINE
  5
CE
100
AcDbEntity
  8
0
 62
256
370
-1
 48
1.0
  6
BYLAYER
100
AcDbLine
 10
92.5499999999999829
 20
-185.5687499999999659
 30
0.0
 11
105.5499999999999829
 21
-185.5687499999999659
 31
0.0
  0
LINE
  5
CF
100
AcDbEntity
  8
0
 62
256
370
-1
 48
1.0
  6
BYLAYER
100
AcDbLine
 10
105.5499999999999829
 20
-171.5687499999999659
 30
0.0
 11
92.5499999999999829
 21
-171.5687499999999659
 31
0.0
  0
LINE
  5
D0
100
AcDbEntity
  8
0
 62
256
370
-1
 48
1.0
  6
BYLAYER
100
AcDbLine
 10
106.0499999999999829
 20
-185.0687499999999659
 30
0.0
 11
106.0499999999999829
 21
-172.0687499999999659
 31
0.0
  0
LINE
  5
D1
100
AcDbEntity
  8
0
 62
256
370
-1
 48
1.0
  6
BYLAYER
100
AcDbLine
 10
92.0499999999999829
 20
-172.0687499999999659
 30
0.0
 11
92.0499999999999829
 21
-185.0687499999999659
 31
0.0
  0
ARC
  5
D2
100
AcDbEntity
  8
0
 62
256
370
-1
 48
1.0
  6
BYLAYER
100
AcDbCircle
 10
111.5999999999999943
 20
-185.0687499999999659
 30
0.0
 40
0.5
100
AcDbArc
 50
180.0
 51
270.0
  0
ARC
  5
D3
100
AcDbEntity
  8
0
 62
256
370
-1
 48
1.0
  6
BYLAYER
100
AcDbCircle
 10
124.5999999999999943
 20
-185.0687499999999659
 30
0.0
 40
0.5
100
AcDbArc
 50
270.0
 51
0.0
  0
ARC
  5
D4
100
AcDbEntity
  8
0
 62
256
370
-1
 48
1.0
  6
BYLAYER
100
AcDbCircle
 10
124.5999999999999943
 20
-172.0687499999999659
 30
0.0
 40
0.5
100
AcDbArc
 50
0.0
 51
90.0
  0
ARC
  5
D5
100
AcDbEntity
  8
0
 62
256
370
-1
 48
1.0
  6
BYLAYER
100
AcDbCircle
 10
111.5999999999999943
 20
-172.0687499999999659
 30
0.0
 40
0.5
100
AcDbArc
 50
90.0
 51
180.0
  0
LINE
  5
D6
100
AcDbEntity
  8
0
 62
256
370
-1
 48
1.0
  6
BYLAYER
100
AcDbLine
 10
111.5999999999999943
 20
-185.5687499999999659
 30
0.0
 11
124.5999999999999943
 21
-185.5687499999999659
 31
0.0
  0
LINE
  5
D7
100
AcDbEntity
  8
0
 62
256
370
-1
 48
1.0
  6
BYLAYER
100
AcDbLine
 10
124.5999999999999943
 20
-171.5687499999999659
 30
0.0
 11
111.5999999999999943
 21
-171.5687499999999659
 31
0.0
  0
LINE
  5
D8
100
AcDbEntity
  8
0
 62
256
370
-1
 48
1.0
  6
BYLAYER
100
AcDbLine
 10
125.0999999999999943
 20
-185.0687499999999659
 30
0.0
 11
125.0999999999999943
 21
-172.0687499999999659
 31
0.0
  0
LINE
  5
D9
100
AcDbEntity
  8
0
 62
256
370
-1
 48
1.0
  6
BYLAYER
100
AcDbLine
 10
111.0999999999999943
 20
-172.0687499999999659
 30
0.0
 11
111.0999999999999943
 21
-185.0687499999999659
 31
0.0
  0
ARC
  5
DA
100
AcDbEntity
  8
0
 62
256
370
-1
 48
1.0
  6
BYLAYER
100
AcDbCircle
 10
130.6499999999999773
 20
-182.6874999999999716
 30
0.0
 40
0.5
100
AcDbArc
 50
180.0
 51
270.0
  0
ARC
  5
DB
100
AcDbEntity
  8
0
 62
256
370
-1
 48
1.0
  6
BYLAYER
100
AcDbCircle
 10
143.6499999999999773
 20
-182.6874999999999716
 30
0.0
 40
0.5
100
AcDbArc
 50
270.0
 51
0.0
  0
ARC
  5
DC
100
AcDbEntity
  8
0
 62
256
370
-1
 48
1.0
  6
BYLAYER
100
AcDbCircle
 10
143.6499999999999773
 20
-169.6874999999999716
 30
0.0
 40
0.5
100
AcDbArc
 50
0.0
 51
90.0
  0
ARC
  5
DD
100
AcDbEntity
  8
0
 62
256
370
-1
 48
1.0
  6
BYLAYER
100
AcDbCircle
 10
130.6499999999999773
 20
-169.6874999999999716
 30
0.0
 40
0.5
100
AcDbArc
 50
90.0
 51
180.0
  0
LINE
  5
DE
100
AcDbEntity
  8
0
 62
256
370
-1
 48
1.0
  6
BYLAYER
100
AcDbLine
 10
130.6499999999999773
 20
-183.1874999999999716
 30
0.0
 11
143.6499999999999773
 21
-183.1874999999999716
 31
0.0
  0
LINE
  5
DF
100
AcDbEntity
  8
0
 62
256
370
-1
 48
1.0
  6
BYLAYER
100
AcDbLine
 10
143.6499999999999773
 20
-169.1874999999999716
 30
0.0
 11
130.6499999999999773
 21
-169.1874999999999716
 31
0.0
  0
LINE
  5
E0
100
AcDbEntity
  8
0
 62
256
370
-1
 48
1.0
  6
BYLAYER
100
AcDbLine
 10
144.1499999999999773
 20
-182.6874999999999716
 30
0.0
 11
144.1499999999999773
 21
-169.6874999999999716
 31
0.0
  0
LINE
  5
E1
100
AcDbEntity
  8
0
 62
256
370
-1
 48
1.0
  6
BYLAYER
100
AcDbLine
 10
130.1499999999999773
 20
-169.6874999999999716
 30
0.0
 11
130.1499999999999773
 21
-182.6874999999999716
 31
0.0
  0
ARC
  5
E2
100
AcDbEntity
  8
0
 62
256
370
-1
 48
1.0
  6
BYLAYER
100
AcDbCircle
 10
168.75
 20
-189.8312499999999829
 30
0.0
 40
0.5
100
AcDbArc
 50
180.0
 51
270.0
  0
ARC
  5
E3
100
AcDbEntity
  8
0
 62
256
370
-1
 48
1.0
  6
BYLAYER
100
AcDbCircle
 10
181.75
 20
-189.8312499999999829
 30
0.0
 40
0.5
100
AcDbArc
 50
270.0
 51
0.0
  0
ARC
  5
E4
100
AcDbEntity
  8
0
 62
256
370
-1
 48
1.0
  6
BYLAYER
100
AcDbCircle
 10
181.75
 20
-176.8312499999999829
 30
0.0
 40
0.5
100
AcDbArc
 50
0.0
 51
90.0
  0
ARC
  5
E5
100
AcDbEntity
  8
0
 62
256
370
-1
 48
1.0
  6
BYLAYER
100
AcDbCircle
 10
168.75
 20
-176.8312499999999829
 30
0.0
 40
0.5
100
AcDbArc
 50
90.0
 51
180.0
  0
LINE
  5
E6
100
AcDbEntity
  8
0
 62
256
370
-1
 48
1.0
  6
BYLAYER
100
AcDbLine
 10
168.75
 20
-190.3312499999999829
 30
0.0
 11
181.75
 21
-190.3312499999999829
 31
0.0
  0
LINE
  5
E7
100
AcDbEntity
  8
0
 62
256
370
-1
 48
1.0
  6
BYLAYER
100
AcDbLine
 10
181.75
 20
-176.3312499999999829
 30
0.0
 11
168.75
 21
-176.3312499999999829
 31
0.0
  0
LINE
  5
E8
100
AcDbEntity
  8
0
 62
256
370
-1
 48
1.0
  6
BYLAYER
100
AcDbLine
 10
182.25
 20
-189.8312499999999829
 30
0.0
 11
182.25
 21
-176.8312499999999829
 31
0.0
  0
LINE
  5
E9
100
AcDbEntity
  8
0
 62
256
370
-1
 48
1.0
  6
BYLAYER
100
AcDbLine
 10
168.25
 20
-176.8312499999999829
 30
0.0
 11
168.25
 21
-189.8312499999999829
 31
0.0
  0
ARC
  5
EA
100
AcDbEntity
  8
0
 62
256
370
-1
 48
1.0
  6
BYLAYER
100
AcDbCircle
 10
16.3499999999999801
 20
-201.7374999999999829
 30
0.0
 40
0.5
100
AcDbArc
 50
180.0
 51
270.0
  0
ARC
  5
EB
100
AcDbEntity
  8
0
 62
256
370
-1
 48
1.0
  6
BYLAYER
100
AcDbCircle
 10
29.3499999999999801
 20
-201.7374999999999829
 30
0.0
 40
0.5
100
AcDbArc
 50
270.0
 51
0.0
  0
ARC
  5
EC
100
AcDbEntity
  8
0
 62
256
370
-1
 48
1.0
  6
BYLAYER
100
AcDbCircle
 10
29.3499999999999801
 20
-188.7374999999999829
 30
0.0
 40
0.5
100
AcDbArc
 50
0.0
 51
90.0
  0
ARC
  5
ED
100
AcDbEntity
  8
0
 62
256
370
-1
 48
1.0
  6
BYLAYER
100
AcDbCircle
 10
16.3499999999999801
 20
-188.7374999999999829
 30
0.0
 40
0.5
100
AcDbArc
 50
90.0
 51
180.0
  0
LINE
  5
EE
100
AcDbEntity
  8
0
 62
256
370
-1
 48
1.0
  6
BYLAYER
100
AcDbLine
 10
16.3499999999999801
 20
-202.2374999999999829
 30
0.0
 11
29.3499999999999801
 21
-202.2374999999999829
 31
0.0
  0
LINE
  5
EF
100
AcDbEntity
  8
0
 62
256
370
-1
 48
1.0
  6
BYLAYER
100
AcDbLine
 10
29.3499999999999801
 20
-188.2374999999999829
 30
0.0
 11
16.3499999999999801
 21
-188.2374999999999829
 31
0.0
  0
LINE
  5
F0
100
AcDbEntity
  8
0
 62
256
370
-1
 48
1.0
  6
BYLAYER
100
AcDbLine
 10
29.8499999999999872
 20
-201.7374999999999829
 30
0.0
 11
29.8499999999999872
 21
-188.7374999999999829
 31
0.0
  0
LINE
  5
F1
100
AcDbEntity
  8
0
 62
256
370
-1
 48
1.0
  6
BYLAYER
100
AcDbLine
 10
15.8499999999999801
 20
-188.7374999999999829
 30
0.0
 11
15.8499999999999801
 21
-201.7374999999999829
 31
0.0
  0
ARC
  5
F2
100
AcDbEntity
  8
0
 62
256
370
-1
 48
1.0
  6
BYLAYER
100
AcDbCircle
 10
73.4999999999999716
 20
-201.7374999999999829
 30
0.0
 40
0.5
100
AcDbArc
 50
180.0
 51
270.0
  0
ARC
  5
F3
100
AcDbEntity
  8
0
 62
256
370
-1
 48
1.0
  6
BYLAYER
100
AcDbCircle
 10
86.4999999999999716
 20
-201.7374999999999829
 30
0.0
 40
0.5
100
AcDbArc
 50
270.0
 51
0.0
  0
ARC
  5
F4
100
AcDbEntity
  8
0
 62
256
370
-1
 48
1.0
  6
BYLAYER
100
AcDbCircle
 10
86.4999999999999716
 20
-188.7374999999999829
 30
0.0
 40
0.5
100
AcDbArc
 50
0.0
 51
90.0
  0
ARC
  5
F5
100
AcDbEntity
  8
0
 62
256
370
-1
 48
1.0
  6
BYLAYER
100
AcDbCircle
 10
73.4999999999999716
 20
-188.7374999999999829
 30
0.0
 40
0.5
100
AcDbArc
 50
90.0
 51
180.0
  0
LINE
  5
F6
100
AcDbEntity
  8
0
 62
256
370
-1
 48
1.0
  6
BYLAYER
100
AcDbLine
 10
73.4999999999999716
 20
-202.2374999999999829
 30
0.0
 11
86.4999999999999716
 21
-202.2374999999999829
 31
0.0
  0
LINE
  5
F7
100
AcDbEntity
  8
0
 62
256
370
-1
 48
1.0
  6
BYLAYER
100
AcDbLine
 10
86.4999999999999716
 20
-188.2374999999999829
 30
0.0
 11
73.4999999999999716
 21
-188.2374999999999829
 31
0.0
  0
LINE
  5
F8
100
AcDbEntity
  8
0
 62
256
370
-1
 48
1.0
  6
BYLAYER
100
AcDbLine
 10
86.9999999999999716
 20
-201.7374999999999829
 30
0.0
 11
86.9999999999999716
 21
-188.7374999999999829
 31
0.0
  0
LINE
  5
F9
100
AcDbEntity
  8
0
 62
256
370
-1
 48
1.0
  6
BYLAYER
100
AcDbLine
 10
72.9999999999999716
 20
-188.7374999999999829
 30
0.0
 11
72.9999999999999716
 21
-201.7374999999999829
 31
0.0
  0
ARC
  5
FA
100
AcDbEntity
  8
0
 62
256
370
-1
 48
1.0
  6
BYLAYER
100
AcDbCircle
 10
130.6499999999999773
 20
-201.7374999999999829
 30
0.0
 40
0.5
100
AcDbArc
 50
180.0
 51
270.0
  0
ARC
  5
FB
100
AcDbEntity
  8
0
 62
256
370
-1
 48
1.0
  6
BYLAYER
100
AcDbCircle
 10
143.6499999999999773
 20
-201.7374999999999829
 30
0.0
 40
0.5
100
AcDbArc
 50
270.0
 51
0.0
  0
ARC
  5
FC
100
AcDbEntity
  8
0
 62
256
370
-1
 48
1.0
  6
BYLAYER
100
AcDbCircle
 10
143.6499999999999773
 20
-188.7374999999999829
 30
0.0
 40
0.5
100
AcDbArc
 50
0.0
 51
90.0
  0
ARC
  5
FD
100
AcDbEntity
  8
0
 62
256
370
-1
 48
1.0
  6
BYLAYER
100
AcDbCircle
 10
130.6499999999999773
 20
-188.7374999999999829
 30
0.0
 40
0.5
100
AcDbArc
 50
90.0
 51
180.0
  0
LINE
  5
FE
100
AcDbEntity
  8
0
 62
256
370
-1
 48
1.0
  6
BYLAYER
100
AcDbLine
 10
130.6499999999999773
 20
-202.2374999999999829
 30
0.0
 11
143.6499999999999773
 21
-202.2374999999999829
 31
0.0
  0
LINE
  5
FF
100
AcDbEntity
  8
0
 62
256
370
-1
 48
1.0
  6
BYLAYER
100
AcDbLine
 10
143.6499999999999773
 20
-188.2374999999999829
 30
0.0
 11
130.6499999999999773
 21
-188.2374999999999829
 31
0.0
  0
LINE
  5
100
100
AcDbEntity
  8
0
 62
256
370
-1
 48
1.0
  6
BYLAYER
100
AcDbLine
 10
144.1499999999999773
 20
-201.7374999999999829
 30
0.0
 11
144.1499999999999773
 21
-188.7374999999999829
 31
0.0
  0
LINE
  5
101
100
AcDbEntity
  8
0
 62
256
370
-1
 48
1.0
  6
BYLAYER
100
AcDbLine
 10
130.1499999999999773
 20
-188.7374999999999829
 30
0.0
 11
130.1499999999999773
 21
-201.7374999999999829
 31
0.0
  0
ARC
  5
102
100
AcDbEntity
  8
0
 62
256
370
-1
 48
1.0
  6
BYLAYER
100
AcDbCircle
 10
35.3999999999999844
 20
-206.4999999999999716
 30
0.0
 40
0.5
100
AcDbArc
 50
180.0
 51
270.0
  0
ARC
  5
103
100
AcDbEntity
  8
0
 62
256
370
-1
 48
1.0
  6
BYLAYER
100
AcDbCircle
 10
48.3999999999999844
 20
-206.4999999999999716
 30
0.0
 40
0.5
100
AcDbArc
 50
270.0
 51
0.0
  0
ARC
  5
104
100
AcDbEntity
  8
0
 62
256
370
-1
 48
1.0
  6
BYLAYER
100
AcDbCircle
 10
48.3999999999999844
 20
-193.4999999999999716
 30
0.0
 40
0.5
100
AcDbArc
 50
0.0
 51
90.0
  0
ARC
  5
105
100
AcDbEntity
  8
0
 62
256
370
-1
 48
1.0
  6
BYLAYER
100
AcDbCircle
 10
35.3999999999999844
 20
-193.4999999999999716
 30
0.0
 40
0.5
100
AcDbArc
 50
90.0
 51
180.0
  0
LINE
  5
106
100
AcDbEntity
  8
0
 62
256
370
-1
 48
1.0
  6
BYLAYER
100
AcDbLine
 10
35.3999999999999844
 20
-206.9999999999999716
 30
0.0
 11
48.3999999999999844
 21
-206.9999999999999716
 31
0.0
  0
LINE
  5
107
100
AcDbEntity
  8
0
 62
256
370
-1
 48
1.0
  6
BYLAYER
100
AcDbLine
 10
48.3999999999999844
 20
-192.9999999999999716
 30
0.0
 11
35.3999999999999844
 21
-192.9999999999999716
 31
0.0
  0
LINE
  5
108
100
AcDbEntity
  8
0
 62
256
370
-1
 48
1.0
  6
BYLAYER
100
AcDbLine
 10
48.8999999999999844
 20
-206.4999999999999716
 30
0.0
 11
48.8999999999999844
 21
-193.4999999999999716
 31
0.0
  0
LINE
  5
109
100
AcDbEntity
  8
0
 62
256
370
-1
 48
1.0
  6
BYLAYER
100
AcDbLine
 10
34.8999999999999844
 20
-193.4999999999999716
 30
0.0
 11
34.8999999999999844
 21
-206.4999999999999716
 31
0.0
  0
ARC
  5
10A
100
AcDbEntity
  8
0
 62
256
370
-1
 48
1.0
  6
BYLAYER
100
AcDbCircle
 10
54.4499999999999815
 20
-206.4999999999999716
 30
0.0
 40
0.5
100
AcDbArc
 50
180.0
 51
270.0
  0
ARC
  5
10B
100
AcDbEntity
  8
0
 62
256
370
-1
 48
1.0
  6
BYLAYER
100
AcDbCircle
 10
67.4499999999999886
 20
-206.4999999999999716
 30
0.0
 40
0.5
100
AcDbArc
 50
270.0
 51
0.0
  0
ARC
  5
10C
100
AcDbEntity
  8
0
 62
256
370
-1
 48
1.0
  6
BYLAYER
100
AcDbCircle
 10
67.4499999999999886
 20
-193.4999999999999716
 30
0.0
 40
0.5
100
AcDbArc
 50
0.0
 51
90.0
  0
ARC
  5
10D
100
AcDbEntity
  8
0
 62
256
370
-1
 48
1.0
  6
BYLAYER
100
AcDbCircle
 10
54.4499999999999815
 20
-193.4999999999999716
 30
0.0
 40
0.5
100
AcDbArc
 50
90.0
 51
180.0
  0
LINE
  5
10E
100
AcDbEntity
  8
0
 62
256
370
-1
 48
1.0
  6
BYLAYER
100
AcDbLine
 10
54.4499999999999815
 20
-206.9999999999999716
 30
0.0
 11
67.4499999999999886
 21
-206.9999999999999716
 31
0.0
  0
LINE
  5
10F
100
AcDbEntity
  8
0
 62
256
370
-1
 48
1.0
  6
BYLAYER
100
AcDbLine
 10
67.4499999999999886
 20
-192.9999999999999716
 30
0.0
 11
54.4499999999999815
 21
-192.9999999999999716
 31
0.0
  0
LINE
  5
110
100
AcDbEntity
  8
0
 62
256
370
-1
 48
1.0
  6
BYLAYER
100
AcDbLine
 10
67.9499999999999886
 20
-206.4999999999999716
 30
0.0
 11
67.9499999999999886
 21
-193.4999999999999716
 31
0.0
  0
LINE
  5
111
100
AcDbEntity
  8
0
 62
256
370
-1
 48
1.0
  6
BYLAYER
100
AcDbLine
 10
53.9499999999999815
 20
-193.4999999999999716
 30
0.0
 11
53.9499999999999815
 21
-206.4999999999999716
 31
0.0
  0
ARC
  5
112
100
AcDbEntity
  8
0
 62
256
370
-1
 48
1.0
  6
BYLAYER
100
AcDbCircle
 10
92.5499999999999829
 20
-206.4999999999999716
 30
0.0
 40
0.5
100
AcDbArc
 50
180.0
 51
270.0
  0
ARC
  5
113
100
AcDbEntity
  8
0
 62
256
370
-1
 48
1.0
  6
BYLAYER
100
AcDbCircle
 10
105.5499999999999829
 20
-206.4999999999999716
 30
0.0
 40
0.5
100
AcDbArc
 50
270.0
 51
0.0
  0
ARC
  5
114
100
AcDbEntity
  8
0
 62
256
370
-1
 48
1.0
  6
BYLAYER
100
AcDbCircle
 10
105.5499999999999829
 20
-193.4999999999999716
 30
0.0
 40
0.5
100
AcDbArc
 50
0.0
 51
90.0
  0
ARC
  5
115
100
AcDbEntity
  8
0
 62
256
370
-1
 48
1.0
  6
BYLAYER
100
AcDbCircle
 10
92.5499999999999829
 20
-193.4999999999999716
 30
0.0
 40
0.5
100
AcDbArc
 50
90.0
 51
180.0
  0
LINE
  5
116
100
AcDbEntity
  8
0
 62
256
370
-1
 48
1.0
  6
BYLAYER
100
AcDbLine
 10
92.5499999999999829
 20
-206.9999999999999716
 30
0.0
 11
105.5499999999999829
 21
-206.9999999999999716
 31
0.0
  0
LINE
  5
117
100
AcDbEntity
  8
0
 62
256
370
-1
 48
1.0
  6
BYLAYER
100
AcDbLine
 10
105.5499999999999829
 20
-192.9999999999999716
 30
0.0
 11
92.5499999999999829
 21
-192.9999999999999716
 31
0.0
  0
LINE
  5
118
100
AcDbEntity
  8
0
 62
256
370
-1
 48
1.0
  6
BYLAYER
100
AcDbLine
 10
106.0499999999999829
 20
-206.4999999999999716
 30
0.0
 11
106.0499999999999829
 21
-193.4999999999999716
 31
0.0
  0
LINE
  5
119
100
AcDbEntity
  8
0
 62
256
370
-1
 48
1.0
  6
BYLAYER
100
AcDbLine
 10
92.0499999999999829
 20
-193.4999999999999716
 30
0.0
 11
92.0499999999999829
 21
-206.4999999999999716
 31
0.0
  0
ARC
  5
11A
100
AcDbEntity
  8
0
 62
256
370
-1
 48
1.0
  6
BYLAYER
100
AcDbCircle
 10
111.5999999999999943
 20
-206.4999999999999716
 30
0.0
 40
0.5
100
AcDbArc
 50
180.0
 51
270.0
  0
ARC
  5
11B
100
AcDbEntity
  8
0
 62
256
370
-1
 48
1.0
  6
BYLAYER
100
AcDbCircle
 10
124.5999999999999943
 20
-206.4999999999999716
 30
0.0
 40
0.5
100
AcDbArc
 50
270.0
 51
0.0
  0
ARC
  5
11C
100
AcDbEntity
  8
0
 62
256
370
-1
 48
1.0
  6
BYLAYER
100
AcDbCircle
 10
124.5999999999999943
 20
-193.4999999999999716
 30
0.0
 40
0.5
100
AcDbArc
 50
0.0
 51
90.0
  0
ARC
  5
11D
100
AcDbEntity
  8
0
 62
256
370
-1
 48
1.0
  6
BYLAYER
100
AcDbCircle
 10
111.5999999999999943
 20
-193.4999999999999716
 30
0.0
 40
0.5
100
AcDbArc
 50
90.0
 51
180.0
  0
LINE
  5
11E
100
AcDbEntity
  8
0
 62
256
370
-1
 48
1.0
  6
BYLAYER
100
AcDbLine
 10
111.5999999999999943
 20
-206.9999999999999716
 30
0.0
 11
124.5999999999999943
 21
-206.9999999999999716
 31
0.0
  0
LINE
  5
11F
100
AcDbEntity
  8
0
 62
256
370
-1
 48
1.0
  6
BYLAYER
100
AcDbLine
 10
124.5999999999999943
 20
-192.9999999999999716
 30
0.0
 11
111.5999999999999943
 21
-192.9999999999999716
 31
0.0
  0
LINE
  5
120
100
AcDbEntity
  8
0
 62
256
370
-1
 48
1.0
  6
BYLAYER
100
AcDbLine
 10
125.0999999999999943
 20
-206.4999999999999716
 30
0.0
 11
125.0999999999999943
 21
-193.4999999999999716
 31
0.0
  0
LINE
  5
121
100
AcDbEntity
  8
0
 62
256
370
-1
 48
1.0
  6
BYLAYER
100
AcDbLine
 10
111.0999999999999943
 20
-193.4999999999999716
 30
0.0
 11
111.0999999999999943
 21
-206.4999999999999716
 31
0.0
  0
ARC
  5
122
100
AcDbEntity
  8
0
 62
256
370
-1
 48
1.0
  6
BYLAYER
100
AcDbCircle
 10
-2.7000000000000171
 20
-211.2624999999999886
 30
0.0
 40
0.5
100
AcDbArc
 50
180.0
 51
270.0
  0
ARC
  5
123
100
AcDbEntity
  8
0
 62
256
370
-1
 48
1.0
  6
BYLAYER
100
AcDbCircle
 10
10.2999999999999829
 20
-211.2624999999999886
 30
0.0
 40
0.5
100
AcDbArc
 50
270.0
 51
0.0
  0
ARC
  5
124
100
AcDbEntity
  8
0
 62
256
370
-1
 48
1.0
  6
BYLAYER
100
AcDbCircle
 10
10.2999999999999829
 20
-198.2624999999999886
 30
0.0
 40
0.5
100
AcDbArc
 50
0.0
 51
90.0
  0
ARC
  5
125
100
AcDbEntity
  8
0
 62
256
370
-1
 48
1.0
  6
BYLAYER
100
AcDbCircle
 10
-2.7000000000000171
 20
-198.2624999999999886
 30
0.0
 40
0.5
100
AcDbArc
 50
90.0
 51
180.0
  0
LINE
  5
126
100
AcDbEntity
  8
0
 62
256
370
-1
 48
1.0
  6
BYLAYER
100
AcDbLine
 10
-2.7000000000000171
 20
-211.7624999999999886
 30
0.0
 11
10.2999999999999829
 21
-211.7624999999999886
 31
0.0
  0
LINE
  5
127
100
AcDbEntity
  8
0
 62
256
370
-1
 48
1.0
  6
BYLAYER
100
AcDbLine
 10
10.2999999999999829
 20
-197.7624999999999886
 30
0.0
 11
-2.7000000000000171
 21
-197.7624999999999886
 31
0.0
  0
LINE
  5
128
100
AcDbEntity
  8
0
 62
256
370
-1
 48
1.0
  6
BYLAYER
100
AcDbLine
 10
10.7999999999999829
 20
-211.2624999999999886
 30
0.0
 11
10.7999999999999829
 21
-198.2624999999999886
 31
0.0
  0
LINE
  5
129
100
AcDbEntity
  8
0
 62
256
370
-1
 48
1.0
  6
BYLAYER
100
AcDbLine
 10
-3.2000000000000171
 20
-198.2624999999999886
 30
0.0
 11
-3.2000000000000171
 21
-211.2624999999999886
 31
0.0
  0
ARC
  5
12A
100
AcDbEntity
  8
0
 62
256
370
-1
 48
1.0
  6
BYLAYER
100
AcDbCircle
 10
-26.5125000000000171
 20
-216.0249999999999773
 30
0.0
 40
0.5
100
AcDbArc
 50
180.0
 51
270.0
  0
ARC
  5
12B
100
AcDbEntity
  8
0
 62
256
370
-1
 48
1.0
  6
BYLAYER
100
AcDbCircle
 10
-13.5125000000000171
 20
-216.0249999999999773
 30
0.0
 40
0.5
100
AcDbArc
 50
270.0
 51
0.0
  0
ARC
  5
12C
100
AcDbEntity
  8
0
 62
256
370
-1
 48
1.0
  6
BYLAYER
100
AcDbCircle
 10
-13.5125000000000171
 20
-203.0249999999999773
 30
0.0
 40
0.5
100
AcDbArc
 50
0.0
 51
90.0
  0
ARC
  5
12D
100
AcDbEntity
  8
0
 62
256
370
-1
 48
1.0
  6
BYLAYER
100
AcDbCircle
 10
-26.5125000000000171
 20
-203.0249999999999773
 30
0.0
 40
0.5
100
AcDbArc
 50
90.0
 51
180.0
  0
LINE
  5
12E
100
AcDbEntity
  8
0
 62
256
370
-1
 48
1.0
  6
BYLAYER
100
AcDbLine
 10
-26.5125000000000171
 20
-216.5249999999999773
 30
0.0
 11
-13.5125000000000171
 21
-216.5249999999999773
 31
0.0
  0
LINE
  5
12F
100
AcDbEntity
  8
0
 62
256
370
-1
 48
1.0
  6
BYLAYER
100
AcDbLine
 10
-13.5125000000000171
 20
-202.5249999999999773
 30
0.0
 11
-26.5125000000000171
 21
-202.5249999999999773
 31
0.0
  0
LINE
  5
130
100
AcDbEntity
  8
0
 62
256
370
-1
 48
1.0
  6
BYLAYER
100
AcDbLine
 10
-13.0125000000000171
 20
-216.0249999999999773
 30
0.0
 11
-13.0125000000000171
 21
-203.0249999999999773
 31
0.0
  0
LINE
  5
131
100
AcDbEntity
  8
0
 62
256
370
-1
 48
1.0
  6
BYLAYER
100
AcDbLine
 10
-27.0125000000000171
 20
-203.0249999999999773
 30
0.0
 11
-27.0125000000000171
 21
-216.0249999999999773
 31
0.0
  0
ARC
  5
132
100
AcDbEntity
  8
0
 62
256
370
-1
 48
1.0
  6
BYLAYER
100
AcDbCircle
 10
173.5124999999999886
 20
-216.0249999999999773
 30
0.0
 40
0.5
100
AcDbArc
 50
180.0
 51
270.0
  0
ARC
  5
133
100
AcDbEntity
  8
0
 62
256
370
-1
 48
1.0
  6
BYLAYER
100
AcDbCircle
 10
186.5124999999999886
 20
-216.0249999999999773
 30
0.0
 40
0.5
100
AcDbArc
 50
270.0
 51
0.0
  0
ARC
  5
134
100
AcDbEntity
  8
0
 62
256
370
-1
 48
1.0
  6
BYLAYER
100
AcDbCircle
 10
186.5124999999999886
 20
-203.0249999999999773
 30
0.0
 40
0.5
100
AcDbArc
 50
0.0
 51
90.0
  0
ARC
  5
135
100
AcDbEntity
  8
0
 62
256
370
-1
 48
1.0
  6
BYLAYER
100
AcDbCircle
 10
173.5124999999999886
 20
-203.0249999999999773
 30
0.0
 40
0.5
100
AcDbArc
 50
90.0
 51
180.0
  0
LINE
  5
136
100
AcDbEntity
  8
0
 62
256
370
-1
 48
1.0
  6
BYLAYER
100
AcDbLine
 10
173.5124999999999886
 20
-216.5249999999999773
 30
0.0
 11
186.5124999999999886
 21
-216.5249999999999773
 31
0.0
  0
LINE
  5
137
100
AcDbEntity
  8
0
 62
256
370
-1
 48
1.0
  6
BYLAYER
100
AcDbLine
 10
186.5124999999999886
 20
-202.5249999999999773
 30
0.0
 11
173.5124999999999886
 21
-202.5249999999999773
 31
0.0
  0
LINE
  5
138
100
AcDbEntity
  8
0
 62
256
370
-1
 48
1.0
  6
BYLAYER
100
AcDbLine
 10
187.0124999999999886
 20
-216.0249999999999773
 30
0.0
 11
187.0124999999999886
 21
-203.0249999999999773
 31
0.0
  0
LINE
  5
139
100
AcDbEntity
  8
0
 62
256
370
-1
 48
1.0
  6
BYLAYER
100
AcDbLine
 10
173.0124999999999886
 20
-203.0249999999999773
 30
0.0
 11
173.0124999999999886
 21
-216.0249999999999773
 31
0.0
  0
ARC
  5
13A
100
AcDbEntity
  8
0
 62
256
370
-1
 48
1.0
  6
BYLAYER
100
AcDbCircle
 10
16.3499999999999801
 20
-223.1687499999999886
 30
0.0
 40
0.5
100
AcDbArc
 50
180.0
 51
270.0
  0
ARC
  5
13B
100
AcDbEntity
  8
0
 62
256
370
-1
 48
1.0
  6
BYLAYER
100
AcDbCircle
 10
29.3499999999999801
 20
-223.1687499999999886
 30
0.0
 40
0.5
100
AcDbArc
 50
270.0
 51
0.0
  0
ARC
  5
13C
100
AcDbEntity
  8
0
 62
256
370
-1
 48
1.0
  6
BYLAYER
100
AcDbCircle
 10
29.3499999999999801
 20
-210.1687499999999886
 30
0.0
 40
0.5
100
AcDbArc
 50
0.0
 51
90.0
  0
ARC
  5
13D
100
AcDbEntity
  8
0
 62
256
370
-1
 48
1.0
  6
BYLAYER
100
AcDbCircle
 10
16.3499999999999801
 20
-210.1687499999999886
 30
0.0
 40
0.5
100
AcDbArc
 50
90.0
 51
180.0
  0
LINE
  5
13E
100
AcDbEntity
  8
0
 62
256
370
-1
 48
1.0
  6
BYLAYER
100
AcDbLine
 10
16.3499999999999801
 20
-223.6687499999999886
 30
0.0
 11
29.3499999999999801
 21
-223.6687499999999886
 31
0.0
  0
LINE
  5
13F
100
AcDbEntity
  8
0
 62
256
370
-1
 48
1.0
  6
BYLAYER
100
AcDbLine
 10
29.3499999999999801
 20
-209.6687499999999886
 30
0.0
 11
16.3499999999999801
 21
-209.6687499999999886
 31
0.0
  0
LINE
  5
140
100
AcDbEntity
  8
0
 62
256
370
-1
 48
1.0
  6
BYLAYER
100
AcDbLine
 10
29.8499999999999872
 20
-223.1687499999999886
 30
0.0
 11
29.8499999999999872
 21
-210.1687499999999886
 31
0.0
  0
LINE
  5
141
100
AcDbEntity
  8
0
 62
256
370
-1
 48
1.0
  6
BYLAYER
100
AcDbLine
 10
15.8499999999999801
 20
-210.1687499999999886
 30
0.0
 11
15.8499999999999801
 21
-223.1687499999999886
 31
0.0
  0
ARC
  5
142
100
AcDbEntity
  8
0
 62
256
370
-1
 48
1.0
  6
BYLAYER
100
AcDbCircle
 10
73.4999999999999716
 20
-223.1687499999999886
 30
0.0
 40
0.5
100
AcDbArc
 50
180.0
 51
270.0
  0
ARC
  5
143
100
AcDbEntity
  8
0
 62
256
370
-1
 48
1.0
  6
BYLAYER
100
AcDbCircle
 10
86.4999999999999716
 20
-223.1687499999999886
 30
0.0
 40
0.5
100
AcDbArc
 50
270.0
 51
0.0
  0
ARC
  5
144
100
AcDbEntity
  8
0
 62
256
370
-1
 48
1.0
  6
BYLAYER
100
AcDbCircle
 10
86.4999999999999716
 20
-210.1687499999999886
 30
0.0
 40
0.5
100
AcDbArc
 50
0.0
 51
90.0
  0
ARC
  5
145
100
AcDbEntity
  8
0
 62
256
370
-1
 48
1.0
  6
BYLAYER
100
AcDbCircle
 10
73.4999999999999716
 20
-210.1687499999999886
 30
0.0
 40
0.5
100
AcDbArc
 50
90.0
 51
180.0
  0
LINE
  5
146
100
AcDbEntity
  8
0
 62
256
370
-1
 48
1.0
  6
BYLAYER
100
AcDbLine
 10
73.4999999999999716
 20
-223.6687499999999886
 30
0.0
 11
86.4999999999999716
 21
-223.6687499999999886
 31
0.0
  0
LINE
  5
147
100
AcDbEntity
  8
0
 62
256
370
-1
 48
1.0
  6
BYLAYER
100
AcDbLine
 10
86.4999999999999716
 20
-209.6687499999999886
 30
0.0
 11
73.4999999999999716
 21
-209.6687499999999886
 31
0.0
  0
LINE
  5
148
100
AcDbEntity
  8
0
 62
256
370
-1
 48
1.0
  6
BYLAYER
100
AcDbLine
 10
86.9999999999999716
 20
-223.1687499999999886
 30
0.0
 11
86.9999999999999716
 21
-210.1687499999999886
 31
0.0
  0
LINE
  5
149
100
AcDbEntity
  8
0
 62
256
370
-1
 48
1.0
  6
BYLAYER
100
AcDbLine
 10
72.9999999999999716
 20
-210.1687499999999886
 30
0.0
 11
72.9999999999999716
 21
-223.1687499999999886
 31
0.0
  0
ARC
  5
14A
100
AcDbEntity
  8
0
 62
256
370
-1
 48
1.0
  6
BYLAYER
100
AcDbCircle
 10
130.6499999999999773
 20
-223.1687499999999886
 30
0.0
 40
0.5
100
AcDbArc
 50
180.0
 51
270.0
  0
ARC
  5
14B
100
AcDbEntity
  8
0
 62
256
370
-1
 48
1.0
  6
BYLAYER
100
AcDbCircle
 10
143.6499999999999773
 20
-223.1687499999999886
 30
0.0
 40
0.5
100
AcDbArc
 50
270.0
 51
0.0
  0
ARC
  5
14C
100
AcDbEntity
  8
0
 62
256
370
-1
 48
1.0
  6
BYLAYER
100
AcDbCircle
 10
143.6499999999999773
 20
-210.1687499999999886
 30
0.0
 40
0.5
100
AcDbArc
 50
0.0
 51
90.0
  0
ARC
  5
14D
100
AcDbEntity
  8
0
 62
256
370
-1
 48
1.0
  6
BYLAYER
100
AcDbCircle
 10
130.6499999999999773
 20
-210.1687499999999886
 30
0.0
 40
0.5
100
AcDbArc
 50
90.0
 51
180.0
  0
LINE
  5
14E
100
AcDbEntity
  8
0
 62
256
370
-1
 48
1.0
  6
BYLAYER
100
AcDbLine
 10
130.6499999999999773
 20
-223.6687499999999886
 30
0.0
 11
143.6499999999999773
 21
-223.6687499999999886
 31
0.0
  0
LINE
  5
14F
100
AcDbEntity
  8
0
 62
256
370
-1
 48
1.0
  6
BYLAYER
100
AcDbLine
 10
143.6499999999999773
 20
-209.6687499999999886
 30
0.0
 11
130.6499999999999773
 21
-209.6687499999999886
 31
0.0
  0
LINE
  5
150
100
AcDbEntity
  8
0
 62
256
370
-1
 48
1.0
  6
BYLAYER
100
AcDbLine
 10
144.1499999999999773
 20
-223.1687499999999886
 30
0.0
 11
144.1499999999999773
 21
-210.1687499999999886
 31
0.0
  0
LINE
  5
151
100
AcDbEntity
  8
0
 62
256
370
-1
 48
1.0
  6
BYLAYER
100
AcDbLine
 10
130.1499999999999773
 20
-210.1687499999999886
 30
0.0
 11
130.1499999999999773
 21
-223.1687499999999886
 31
0.0
  0
ARC
  5
152
100
AcDbEntity
  8
0
 62
256
370
-1
 48
1.0
  6
BYLAYER
100
AcDbCircle
 10
35.3999999999999844
 20
-225.5499999999999829
 30
0.0
 40
0.5
100
AcDbArc
 50
180.0
 51
270.0
  0
ARC
  5
153
100
AcDbEntity
  8
0
 62
256
370
-1
 48
1.0
  6
BYLAYER
100
AcDbCircle
 10
48.3999999999999844
 20
-225.5499999999999829
 30
0.0
 40
0.5
100
AcDbArc
 50
270.0
 51
0.0
  0
ARC
  5
154
100
AcDbEntity
  8
0
 62
256
370
-1
 48
1.0
  6
BYLAYER
100
AcDbCircle
 10
48.3999999999999844
 20
-212.5499999999999829
 30
0.0
 40
0.5
100
AcDbArc
 50
0.0
 51
90.0
  0
ARC
  5
155
100
AcDbEntity
  8
0
 62
256
370
-1
 48
1.0
  6
BYLAYER
100
AcDbCircle
 10
35.3999999999999844
 20
-212.5499999999999829
 30
0.0
 40
0.5
100
AcDbArc
 50
90.0
 51
180.0
  0
LINE
  5
156
100
AcDbEntity
  8
0
 62
256
370
-1
 48
1.0
  6
BYLAYER
100
AcDbLine
 10
35.3999999999999844
 20
-226.0499999999999829
 30
0.0
 11
48.3999999999999844
 21
-226.0499999999999829
 31
0.0
  0
LINE
  5
157
100
AcDbEntity
  8
0
 62
256
370
-1
 48
1.0
  6
BYLAYER
100
AcDbLine
 10
48.3999999999999844
 20
-212.0499999999999829
 30
0.0
 11
35.3999999999999844
 21
-212.0499999999999829
 31
0.0
  0
LINE
  5
158
100
AcDbEntity
  8
0
 62
256
370
-1
 48
1.0
  6
BYLAYER
100
AcDbLine
 10
48.8999999999999844
 20
-225.5499999999999829
 30
0.0
 11
48.8999999999999844
 21
-212.5499999999999829
 31
0.0
  0
LINE
  5
159
100
AcDbEntity
  8
0
 62
256
370
-1
 48
1.0
  6
BYLAYER
100
AcDbLine
 10
34.8999999999999844
 20
-212.5499999999999829
 30
0.0
 11
34.8999999999999844
 21
-225.5499999999999829
 31
0.0
  0
ARC
  5
15A
100
AcDbEntity
  8
0
 62
256
370
-1
 48
1.0
  6
BYLAYER
100
AcDbCircle
 10
54.4499999999999815
 20
-225.5499999999999829
 30
0.0
 40
0.5
100
AcDbArc
 50
180.0
 51
270.0
  0
ARC
  5
15B
100
AcDbEntity
  8
0
 62
256
370
-1
 48
1.0
  6
BYLAYER
100
AcDbCircle
 10
67.4499999999999886
 20
-225.5499999999999829
 30
0.0
 40
0.5
100
AcDbArc
 50
270.0
 51
0.0
  0
ARC
  5
15C
100
AcDbEntity
  8
0
 62
256
370
-1
 48
1.0
  6
BYLAYER
100
AcDbCircle
 10
67.4499999999999886
 20
-212.5499999999999829
 30
0.0
 40
0.5
100
AcDbArc
 50
0.0
 51
90.0
  0
ARC
  5
15D
100
AcDbEntity
  8
0
 62
256
370
-1
 48
1.0
  6
BYLAYER
100
AcDbCircle
 10
54.4499999999999815
 20
-212.5499999999999829
 30
0.0
 40
0.5
100
AcDbArc
 50
90.0
 51
180.0
  0
LINE
  5
15E
100
AcDbEntity
  8
0
 62
256
370
-1
 48
1.0
  6
BYLAYER
100
AcDbLine
 10
54.4499999999999815
 20
-226.0499999999999829
 30
0.0
 11
67.4499999999999886
 21
-226.0499999999999829
 31
0.0
  0
LINE
  5
15F
100
AcDbEntity
  8
0
 62
256
370
-1
 48
1.0
  6
BYLAYER
100
AcDbLine
 10
67.4499999999999886
 20
-212.0499999999999829
 30
0.0
 11
54.4499999999999815
 21
-212.0499999999999829
 31
0.0
  0
LINE
  5
160
100
AcDbEntity
  8
0
 62
256
370
-1
 48
1.0
  6
BYLAYER
100
AcDbLine
 10
67.9499999999999886
 20
-225.5499999999999829
 30
0.0
 11
67.9499999999999886
 21
-212.5499999999999829
 31
0.0
  0
LINE
  5
161
100
AcDbEntity
  8
0
 62
256
370
-1
 48
1.0
  6
BYLAYER
100
AcDbLine
 10
53.9499999999999815
 20
-212.5499999999999829
 30
0.0
 11
53.9499999999999815
 21
-225.5499999999999829
 31
0.0
  0
ARC
  5
162
100
AcDbEntity
  8
0
 62
256
370
-1
 48
1.0
  6
BYLAYER
100
AcDbCircle
 10
92.5499999999999829
 20
-225.5499999999999829
 30
0.0
 40
0.5
100
AcDbArc
 50
180.0
 51
270.0
  0
ARC
  5
163
100
AcDbEntity
  8
0
 62
256
370
-1
 48
1.0
  6
BYLAYER
100
AcDbCircle
 10
105.5499999999999829
 20
-225.5499999999999829
 30
0.0
 40
0.5
100
AcDbArc
 50
270.0
 51
0.0
  0
ARC
  5
164
100
AcDbEntity
  8
0
 62
256
370
-1
 48
1.0
  6
BYLAYER
100
AcDbCircle
 10
105.5499999999999829
 20
-212.5499999999999829
 30
0.0
 40
0.5
100
AcDbArc
 50
0.0
 51
90.0
  0
ARC
  5
165
100
AcDbEntity
  8
0
 62
256
370
-1
 48
1.0
  6
BYLAYER
100
AcDbCircle
 10
92.5499999999999829
 20
-212.5499999999999829
 30
0.0
 40
0.5
100
AcDbArc
 50
90.0
 51
180.0
  0
LINE
  5
166
100
AcDbEntity
  8
0
 62
256
370
-1
 48
1.0
  6
BYLAYER
100
AcDbLine
 10
92.5499999999999829
 20
-226.0499999999999829
 30
0.0
 11
105.5499999999999829
 21
-226.0499999999999829
 31
0.0
  0
LINE
  5
167
100
AcDbEntity
  8
0
 62
256
370
-1
 48
1.0
  6
BYLAYER
100
AcDbLine
 10
105.5499999999999829
 20
-212.0499999999999829
 30
0.0
 11
92.5499999999999829
 21
-212.0499999999999829
 31
0.0
  0
LINE
  5
168
100
AcDbEntity
  8
0
 62
256
370
-1
 48
1.0
  6
BYLAYER
100
AcDbLine
 10
106.0499999999999829
 20
-225.5499999999999829
 30
0.0
 11
106.0499999999999829
 21
-212.5499999999999829
 31
0.0
  0
LINE
  5
169
100
AcDbEntity
  8
0
 62
256
370
-1
 48
1.0
  6
BYLAYER
100
AcDbLine
 10
92.0499999999999829
 20
-212.5499999999999829
 30
0.0
 11
92.0499999999999829
 21
-225.5499999999999829
 31
0.0
  0
ARC
  5
16A
100
AcDbEntity
  8
0
 62
256
370
-1
 48
1.0
  6
BYLAYER
100
AcDbCircle
 10
111.5999999999999943
 20
-225.5499999999999829
 30
0.0
 40
0.5
100
AcDbArc
 50
180.0
 51
270.0
  0
ARC
  5
16B
100
AcDbEntity
  8
0
 62
256
370
-1
 48
1.0
  6
BYLAYER
100
AcDbCircle
 10
124.5999999999999943
 20
-225.5499999999999829
 30
0.0
 40
0.5
100
AcDbArc
 50
270.0
 51
0.0
  0
ARC
  5
16C
100
AcDbEntity
  8
0
 62
256
370
-1
 48
1.0
  6
BYLAYER
100
AcDbCircle
 10
124.5999999999999943
 20
-212.5499999999999829
 30
0.0
 40
0.5
100
AcDbArc
 50
0.0
 51
90.0
  0
ARC
  5
16D
100
AcDbEntity
  8
0
 62
256
370
-1
 48
1.0
  6
BYLAYER
100
AcDbCircle
 10
111.5999999999999943
 20
-212.5499999999999829
 30
0.0
 40
0.5
100
AcDbArc
 50
90.0
 51
180.0
  0
LINE
  5
16E
100
AcDbEntity
  8
0
 62
256
370
-1
 48
1.0
  6
BYLAYER
100
AcDbLine
 10
111.5999999999999943
 20
-226.0499999999999829
 30
0.0
 11
124.5999999999999943
 21
-226.0499999999999829
 31
0.0
  0
LINE
  5
16F
100
AcDbEntity
  8
0
 62
256
370
-1
 48
1.0
  6
BYLAYER
100
AcDbLine
 10
124.5999999999999943
 20
-212.0499999999999829
 30
0.0
 11
111.5999999999999943
 21
-212.0499999999999829
 31
0.0
  0
LINE
  5
170
100
AcDbEntity
  8
0
 62
256
370
-1
 48
1.0
  6
BYLAYER
100
AcDbLine
 10
125.0999999999999943
 20
-225.5499999999999829
 30
0.0
 11
125.0999999999999943
 21
-212.5499999999999829
 31
0.0
  0
LINE
  5
171
100
AcDbEntity
  8
0
 62
256
370
-1
 48
1.0
  6
BYLAYER
100
AcDbLine
 10
111.0999999999999943
 20
-212.5499999999999829
 30
0.0
 11
111.0999999999999943
 21
-225.5499999999999829
 31
0.0
  0
ARC
  5
172
100
AcDbEntity
  8
0
 62
256
370
-1
 48
1.0
  6
BYLAYER
100
AcDbCircle
 10
-7.4625000000000199
 20
-237.4562499999999829
 30
0.0
 40
0.5
100
AcDbArc
 50
180.0
 51
270.0
  0
ARC
  5
173
100
AcDbEntity
  8
0
 62
256
370
-1
 48
1.0
  6
BYLAYER
100
AcDbCircle
 10
5.5374999999999801
 20
-237.4562499999999829
 30
0.0
 40
0.5
100
AcDbArc
 50
270.0
 51
0.0
  0
ARC
  5
174
100
AcDbEntity
  8
0
 62
256
370
-1
 48
1.0
  6
BYLAYER
100
AcDbCircle
 10
5.5374999999999801
 20
-224.4562499999999829
 30
0.0
 40
0.5
100
AcDbArc
 50
0.0
 51
90.0
  0
ARC
  5
175
100
AcDbEntity
  8
0
 62
256
370
-1
 48
1.0
  6
BYLAYER
100
AcDbCircle
 10
-7.4625000000000199
 20
-224.4562499999999829
 30
0.0
 40
0.5
100
AcDbArc
 50
90.0
 51
180.0
  0
LINE
  5
176
100
AcDbEntity
  8
0
 62
256
370
-1
 48
1.0
  6
BYLAYER
100
AcDbLine
 10
-7.4625000000000199
 20
-237.9562499999999829
 30
0.0
 11
5.5374999999999801
 21
-237.9562499999999829
 31
0.0
  0
LINE
  5
177
100
AcDbEntity
  8
0
 62
256
370
-1
 48
1.0
  6
BYLAYER
100
AcDbLine
 10
5.5374999999999801
 20
-223.9562499999999829
 30
0.0
 11
-7.4625000000000199
 21
-223.9562499999999829
 31
0.0
  0
LINE
  5
178
100
AcDbEntity
  8
0
 62
256
370
-1
 48
1.0
  6
BYLAYER
100
AcDbLine
 10
6.0374999999999801
 20
-237.4562499999999829
 30
0.0
 11
6.0374999999999801
 21
-224.4562499999999829
 31
0.0
  0
LINE
  5
179
100
AcDbEntity
  8
0
 62
256
370
-1
 48
1.0
  6
BYLAYER
100
AcDbLine
 10
-7.9625000000000199
 20
-224.4562499999999829
 30
0.0
 11
-7.9625000000000199
 21
-237.4562499999999829
 31
0.0
  0
ARC
  5
17A
100
AcDbEntity
  8
0
 62
256
370
-1
 48
1.0
  6
BYLAYER
100
AcDbCircle
 10
154.4624999999999773
 20
-237.4562499999999829
 30
0.0
 40
0.5
100
AcDbArc
 50
180.0
 51
270.0
  0
ARC
  5
17B
100
AcDbEntity
  8
0
 62
256
370
-1
 48
1.0
  6
BYLAYER
100
AcDbCircle
 10
167.4624999999999773
 20
-237.4562499999999829
 30
0.0
 40
0.5
100
AcDbArc
 50
270.0
 51
0.0
  0
ARC
  5
17C
100
AcDbEntity
  8
0
 62
256
370
-1
 48
1.0
  6
BYLAYER
100
AcDbCircle
 10
167.4624999999999773
 20
-224.4562499999999829
 30
0.0
 40
0.5
100
AcDbArc
 50
0.0
 51
90.0
  0
ARC
  5
17D
100
AcDbEntity
  8
0
 62
256
370
-1
 48
1.0
  6
BYLAYER
100
AcDbCircle
 10
154.4624999999999773
 20
-224.4562499999999829
 30
0.0
 40
0.5
100
AcDbArc
 50
90.0
 51
180.0
  0
LINE
  5
17E
100
AcDbEntity
  8
0
 62
256
370
-1
 48
1.0
  6
BYLAYER
100
AcDbLine
 10
154.4624999999999773
 20
-237.9562499999999829
 30
0.0
 11
167.4624999999999773
 21
-237.9562499999999829
 31
0.0
  0
LINE
  5
17F
100
AcDbEntity
  8
0
 62
256
370
-1
 48
1.0
  6
BYLAYER
100
AcDbLine
 10
167.4624999999999773
 20
-223.9562499999999829
 30
0.0
 11
154.4624999999999773
 21
-223.9562499999999829
 31
0.0
  0
LINE
  5
180
100
AcDbEntity
  8
0
 62
256
370
-1
 48
1.0
  6
BYLAYER
100
AcDbLine
 10
167.9624999999999773
 20
-237.4562499999999829
 30
0.0
 11
167.9624999999999773
 21
-224.4562499999999829
 31
0.0
  0
LINE
  5
181
100
AcDbEntity
  8
0
 62
256
370
-1
 48
1.0
  6
BYLAYER
100
AcDbLine
 10
153.9624999999999773
 20
-224.4562499999999829
 30
0.0
 11
153.9624999999999773
 21
-237.4562499999999829
 31
0.0
  0
ARC
  5
182
100
AcDbEntity
  8
0
 62
256
370
-1
 48
1.0
  6
BYLAYER
100
AcDbCircle
 10
-26.5125000000000171
 20
-239.8374999999999773
 30
0.0
 40
0.5
100
AcDbArc
 50
180.0
 51
270.0
  0
ARC
  5
183
100
AcDbEntity
  8
0
 62
256
370
-1
 48
1.0
  6
BYLAYER
100
AcDbCircle
 10
-13.5125000000000171
 20
-239.8374999999999773
 30
0.0
 40
0.5
100
AcDbArc
 50
270.0
 51
0.0
  0
ARC
  5
184
100
AcDbEntity
  8
0
 62
256
370
-1
 48
1.0
  6
BYLAYER
100
AcDbCircle
 10
-13.5125000000000171
 20
-226.8374999999999773
 30
0.0
 40
0.5
100
AcDbArc
 50
0.0
 51
90.0
  0
ARC
  5
185
100
AcDbEntity
  8
0
 62
256
370
-1
 48
1.0
  6
BYLAYER
100
AcDbCircle
 10
-26.5125000000000171
 20
-226.8374999999999773
 30
0.0
 40
0.5
100
AcDbArc
 50
90.0
 51
180.0
  0
LINE
  5
186
100
AcDbEntity
  8
0
 62
256
370
-1
 48
1.0
  6
BYLAYER
100
AcDbLine
 10
-26.5125000000000171
 20
-240.3374999999999773
 30
0.0
 11
-13.5125000000000171
 21
-240.3374999999999773
 31
0.0
  0
LINE
  5
187
100
AcDbEntity
  8
0
 62
256
370
-1
 48
1.0
  6
BYLAYER
100
AcDbLine
 10
-13.5125000000000171
 20
-226.3374999999999773
 30
0.0
 11
-26.5125000000000171
 21
-226.3374999999999773
 31
0.0
  0
LINE
  5
188
100
AcDbEntity
  8
0
 62
256
370
-1
 48
1.0
  6
BYLAYER
100
AcDbLine
 10
-13.0125000000000171
 20
-239.8374999999999773
 30
0.0
 11
-13.0125000000000171
 21
-226.8374999999999773
 31
0.0
  0
LINE
  5
189
100
AcDbEntity
  8
0
 62
256
370
-1
 48
1.0
  6
BYLAYER
100
AcDbLine
 10
-27.0125000000000171
 20
-226.8374999999999773
 30
0.0
 11
-27.0125000000000171
 21
-239.8374999999999773
 31
0.0
  0
ARC
  5
18A
100
AcDbEntity
  8
0
 62
256
370
-1
 48
1.0
  6
BYLAYER
100
AcDbCircle
 10
173.5124999999999886
 20
-239.8374999999999773
 30
0.0
 40
0.5
100
AcDbArc
 50
180.0
 51
270.0
  0
ARC
  5
18B
100
AcDbEntity
  8
0
 62
256
370
-1
 48
1.0
  6
BYLAYER
100
AcDbCircle
 10
186.5124999999999886
 20
-239.8374999999999773
 30
0.0
 40
0.5
100
AcDbArc
 50
270.0
 51
0.0
  0
ARC
  5
18C
100
AcDbEntity
  8
0
 62
256
370
-1
 48
1.0
  6
BYLAYER
100
AcDbCircle
 10
186.5124999999999886
 20
-226.8374999999999773
 30
0.0
 40
0.5
100
AcDbArc
 50
0.0
 51
90.0
  0
ARC
  5
18D
100
AcDbEntity
  8
0
 62
256
370
-1
 48
1.0
  6
BYLAYER
100
AcDbCircle
 10
173.5124999999999886
 20
-226.8374999999999773
 30
0.0
 40
0.5
100
AcDbArc
 50
90.0
 51
180.0
  0
LINE
  5
18E
100
AcDbEntity
  8
0
 62
256
370
-1
 48
1.0
  6
BYLAYER
100
AcDbLine
 10
173.5124999999999886
 20
-240.3374999999999773
 30
0.0
 11
186.5124999999999886
 21
-240.3374999999999773
 31
0.0
  0
LINE
  5
18F
100
AcDbEntity
  8
0
 62
256
370
-1
 48
1.0
  6
BYLAYER
100
AcDbLine
 10
186.5124999999999886
 20
-226.3374999999999773
 30
0.0
 11
173.5124999999999886
 21
-226.3374999999999773
 31
0.0
  0
LINE
  5
190
100
AcDbEntity
  8
0
 62
256
370
-1
 48
1.0
  6
BYLAYER
100
AcDbLine
 10
187.0124999999999886
 20
-239.8374999999999773
 30
0.0
 11
187.0124999999999886
 21
-226.8374999999999773
 31
0.0
  0
LINE
  5
191
100
AcDbEntity
  8
0
 62
256
370
-1
 48
1.0
  6
BYLAYER
100
AcDbLine
 10
173.0124999999999886
 20
-226.8374999999999773
 30
0.0
 11
173.0124999999999886
 21
-239.8374999999999773
 31
0.0
  0
ARC
  5
192
100
AcDbEntity
  8
0
 62
256
370
-1
 48
1.0
  6
BYLAYER
100
AcDbCircle
 10
16.3499999999999801
 20
-244.5999999999999659
 30
0.0
 40
0.5
100
AcDbArc
 50
180.0
 51
270.0
  0
ARC
  5
193
100
AcDbEntity
  8
0
 62
256
370
-1
 48
1.0
  6
BYLAYER
100
AcDbCircle
 10
29.3499999999999801
 20
-244.5999999999999659
 30
0.0
 40
0.5
100
AcDbArc
 50
270.0
 51
0.0
  0
ARC
  5
194
100
AcDbEntity
  8
0
 62
256
370
-1
 48
1.0
  6
BYLAYER
100
AcDbCircle
 10
29.3499999999999801
 20
-231.5999999999999659
 30
0.0
 40
0.5
100
AcDbArc
 50
0.0
 51
90.0
  0
ARC
  5
195
100
AcDbEntity
  8
0
 62
256
370
-1
 48
1.0
  6
BYLAYER
100
AcDbCircle
 10
16.3499999999999801
 20
-231.5999999999999659
 30
0.0
 40
0.5
100
AcDbArc
 50
90.0
 51
180.0
  0
LINE
  5
196
100
AcDbEntity
  8
0
 62
256
370
-1
 48
1.0
  6
BYLAYER
100
AcDbLine
 10
16.3499999999999801
 20
-245.0999999999999659
 30
0.0
 11
29.3499999999999801
 21
-245.0999999999999659
 31
0.0
  0
LINE
  5
197
100
AcDbEntity
  8
0
 62
256
370
-1
 48
1.0
  6
BYLAYER
100
AcDbLine
 10
29.3499999999999801
 20
-231.0999999999999659
 30
0.0
 11
16.3499999999999801
 21
-231.0999999999999659
 31
0.0
  0
LINE
  5
198
100
AcDbEntity
  8
0
 62
256
370
-1
 48
1.0
  6
BYLAYER
100
AcDbLine
 10
29.8499999999999872
 20
-244.5999999999999659
 30
0.0
 11
29.8499999999999872
 21
-231.5999999999999659
 31
0.0
  0
LINE
  5
199
100
AcDbEntity
  8
0
 62
256
370
-1
 48
1.0
  6
BYLAYER
100
AcDbLine
 10
15.8499999999999801
 20
-231.5999999999999659
 30
0.0
 11
15.8499999999999801
 21
-244.5999999999999659
 31
0.0
  0
ARC
  5
19A
100
AcDbEntity
  8
0
 62
256
370
-1
 48
1.0
  6
BYLAYER
100
AcDbCircle
 10
10.7499999999999787
 20
-244.5999999999999659
 30
0.0
 40
0.5
100
AcDbArc
 50
180.0
 51
270.0
  0
ARC
  5
19B
100
AcDbEntity
  8
0
 62
256
370
-1
 48
1.0
  6
BYLAYER
100
AcDbCircle
 10
11.7499999999999787
 20
-244.5999999999999659
 30
0.0
 40
0.5
100
AcDbArc
 50
270.0
 51
0.0
  0
ARC
  5
19C
100
AcDbEntity
  8
0
 62
256
370
-1
 48
1.0
  6
BYLAYER
100
AcDbCircle
 10
11.7499999999999787
 20
-231.5999999999999659
 30
0.0
 40
0.5
100
AcDbArc
 50
0.0
 51
90.0
  0
ARC
  5
19D
100
AcDbEntity
  8
0
 62
256
370
-1
 48
1.0
  6
BYLAYER
100
AcDbCircle
 10
10.7499999999999787
 20
-231.5999999999999659
 30
0.0
 40
0.5
100
AcDbArc
 50
90.0
 51
180.0
  0
LINE
  5
19E
100
AcDbEntity
  8
0
 62
256
370
-1
 48
1.0
  6
BYLAYER
100
AcDbLine
 10
10.7499999999999787
 20
-245.0999999999999659
 30
0.0
 11
11.7499999999999787
 21
-245.0999999999999659
 31
0.0
  0
LINE
  5
19F
100
AcDbEntity
  8
0
 62
256
370
-1
 48
1.0
  6
BYLAYER
100
AcDbLine
 10
11.7499999999999787
 20
-231.0999999999999659
 30
0.0
 11
10.7499999999999787
 21
-231.0999999999999659
 31
0.0
  0
LINE
  5
1A0
100
AcDbEntity
  8
0
 62
256
370
-1
 48
1.0
  6
BYLAYER
100
AcDbLine
 10
12.2499999999999787
 20
-244.5999999999999659
 30
0.0
 11
12.2499999999999787
 21
-231.5999999999999659
 31
0.0
  0
LINE
  5
1A1
100
AcDbEntity
  8
0
 62
256
370
-1
 48
1.0
  6
BYLAYER
100
AcDbLine
 10
10.2499999999999787
 20
-231.5999999999999659
 30
0.0
 11
10.2499999999999787
 21
-244.5999999999999659
 31
0.0
  0
ARC
  5
1A2
100
AcDbEntity
  8
0
 62
256
370
-1
 48
1.0
  6
BYLAYER
100
AcDbCircle
 10
33.9499999999999815
 20
-244.5999999999999659
 30
0.0
 40
0.5
100
AcDbArc
 50
180.0
 51
270.0
  0
ARC
  5
1A3
100
AcDbEntity
  8
0
 62
256
370
-1
 48
1.0
  6
BYLAYER
100
AcDbCircle
 10
34.9499999999999815
 20
-244.5999999999999659
 30
0.0
 40
0.5
100
AcDbArc
 50
270.0
 51
0.0
  0
ARC
  5
1A4
100
AcDbEntity
  8
0
 62
256
370
-1
 48
1.0
  6
BYLAYER
100
AcDbCircle
 10
34.9499999999999815
 20
-231.5999999999999659
 30
0.0
 40
0.5
100
AcDbArc
 50
0.0
 51
90.0
  0
ARC
  5
1A5
100
AcDbEntity
  8
0
 62
256
370
-1
 48
1.0
  6
BYLAYER
100
AcDbCircle
 10
33.9499999999999815
 20
-231.5999999999999659
 30
0.0
 40
0.5
100
AcDbArc
 50
90.0
 51
180.0
  0
LINE
  5
1A6
100
AcDbEntity
  8
0
 62
256
370
-1
 48
1.0
  6
BYLAYER
100
AcDbLine
 10
33.9499999999999815
 20
-245.0999999999999659
 30
0.0
 11
34.9499999999999815
 21
-245.0999999999999659
 31
0.0
  0
LINE
  5
1A7
100
AcDbEntity
  8
0
 62
256
370
-1
 48
1.0
  6
BYLAYER
100
AcDbLine
 10
34.9499999999999815
 20
-231.0999999999999659
 30
0.0
 11
33.9499999999999815
 21
-231.0999999999999659
 31
0.0
  0
LINE
  5
1A8
100
AcDbEntity
  8
0
 62
256
370
-1
 48
1.0
  6
BYLAYER
100
AcDbLine
 10
35.4499999999999815
 20
-244.5999999999999659
 30
0.0
 11
35.4499999999999815
 21
-231.5999999999999659
 31
0.0
  0
LINE
  5
1A9
100
AcDbEntity
  8
0
 62
256
370
-1
 48
1.0
  6
BYLAYER
100
AcDbLine
 10
33.4499999999999815
 20
-231.5999999999999659
 30
0.0
 11
33.4499999999999815
 21
-244.5999999999999659
 31
0.0
  0
ARC
  5
1AA
100
AcDbEntity
  8
0
 62
256
370
-1
 48
1.0
  6
BYLAYER
100
AcDbCircle
 10
130.6499999999999773
 20
-244.5999999999999659
 30
0.0
 40
0.5
100
AcDbArc
 50
180.0
 51
270.0
  0
ARC
  5
1AB
100
AcDbEntity
  8
0
 62
256
370
-1
 48
1.0
  6
BYLAYER
100
AcDbCircle
 10
143.6499999999999773
 20
-244.5999999999999659
 30
0.0
 40
0.5
100
AcDbArc
 50
270.0
 51
0.0
  0
ARC
  5
1AC
100
AcDbEntity
  8
0
 62
256
370
-1
 48
1.0
  6
BYLAYER
100
AcDbCircle
 10
143.6499999999999773
 20
-231.5999999999999659
 30
0.0
 40
0.5
100
AcDbArc
 50
0.0
 51
90.0
  0
ARC
  5
1AD
100
AcDbEntity
  8
0
 62
256
370
-1
 48
1.0
  6
BYLAYER
100
AcDbCircle
 10
130.6499999999999773
 20
-231.5999999999999659
 30
0.0
 40
0.5
100
AcDbArc
 50
90.0
 51
180.0
  0
LINE
  5
1AE
100
AcDbEntity
  8
0
 62
256
370
-1
 48
1.0
  6
BYLAYER
100
AcDbLine
 10
130.6499999999999773
 20
-245.0999999999999659
 30
0.0
 11
143.6499999999999773
 21
-245.0999999999999659
 31
0.0
  0
LINE
  5
1AF
100
AcDbEntity
  8
0
 62
256
370
-1
 48
1.0
  6
BYLAYER
100
AcDbLine
 10
143.6499999999999773
 20
-231.0999999999999659
 30
0.0
 11
130.6499999999999773
 21
-231.0999999999999659
 31
0.0
  0
LINE
  5
1B0
100
AcDbEntity
  8
0
 62
256
370
-1
 48
1.0
  6
BYLAYER
100
AcDbLine
 10
144.1499999999999773
 20
-244.5999999999999659
 30
0.0
 11
144.1499999999999773
 21
-231.5999999999999659
 31
0.0
  0
LINE
  5
1B1
100
AcDbEntity
  8
0
 62
256
370
-1
 48
1.0
  6
BYLAYER
100
AcDbLine
 10
130.1499999999999773
 20
-231.5999999999999659
 30
0.0
 11
130.1499999999999773
 21
-244.5999999999999659
 31
0.0
  0
ARC
  5
1B2
100
AcDbEntity
  8
0
 62
256
370
-1
 48
1.0
  6
BYLAYER
100
AcDbCircle
 10
125.0499999999999829
 20
-244.5999999999999659
 30
0.0
 40
0.5
100
AcDbArc
 50
180.0
 51
270.0
  0
ARC
  5
1B3
100
AcDbEntity
  8
0
 62
256
370
-1
 48
1.0
  6
BYLAYER
100
AcDbCircle
 10
126.0499999999999829
 20
-244.5999999999999659
 30
0.0
 40
0.5
100
AcDbArc
 50
270.0
 51
0.0
  0
ARC
  5
1B4
100
AcDbEntity
  8
0
 62
256
370
-1
 48
1.0
  6
BYLAYER
100
AcDbCircle
 10
126.0499999999999829
 20
-231.5999999999999659
 30
0.0
 40
0.5
100
AcDbArc
 50
0.0
 51
90.0
  0
ARC
  5
1B5
100
AcDbEntity
  8
0
 62
256
370
-1
 48
1.0
  6
BYLAYER
100
AcDbCircle
 10
125.0499999999999829
 20
-231.5999999999999659
 30
0.0
 40
0.5
100
AcDbArc
 50
90.0
 51
180.0
  0
LINE
  5
1B6
100
AcDbEntity
  8
0
 62
256
370
-1
 48
1.0
  6
BYLAYER
100
AcDbLine
 10
125.0499999999999829
 20
-245.0999999999999659
 30
0.0
 11
126.0499999999999829
 21
-245.0999999999999659
 31
0.0
  0
LINE
  5
1B7
100
AcDbEntity
  8
0
 62
256
370
-1
 48
1.0
  6
BYLAYER
100
AcDbLine
 10
126.0499999999999829
 20
-231.0999999999999659
 30
0.0
 11
125.0499999999999829
 21
-231.0999999999999659
 31
0.0
  0
LINE
  5
1B8
100
AcDbEntity
  8
0
 62
256
370
-1
 48
1.0
  6
BYLAYER
100
AcDbLine
 10
126.5499999999999829
 20
-244.5999999999999659
 30
0.0
 11
126.5499999999999829
 21
-231.5999999999999659
 31
0.0
  0
LINE
  5
1B9
100
AcDbEntity
  8
0
 62
256
370
-1
 48
1.0
  6
BYLAYER
100
AcDbLine
 10
124.5499999999999829
 20
-231.5999999999999659
 30
0.0
 11
124.5499999999999829
 21
-244.5999999999999659
 31
0.0
  0
ARC
  5
1BA
100
AcDbEntity
  8
0
 62
256
370
-1
 48
1.0
  6
BYLAYER
100
AcDbCircle
 10
148.25
 20
-244.5999999999999659
 30
0.0
 40
0.5
100
AcDbArc
 50
180.0
 51
270.0
  0
ARC
  5
1BB
100
AcDbEntity
  8
0
 62
256
370
-1
 48
1.0
  6
BYLAYER
100
AcDbCircle
 10
149.25
 20
-244.5999999999999659
 30
0.0
 40
0.5
100
AcDbArc
 50
270.0
 51
0.0
  0
ARC
  5
1BC
100
AcDbEntity
  8
0
 62
256
370
-1
 48
1.0
  6
BYLAYER
100
AcDbCircle
 10
149.25
 20
-231.5999999999999659
 30
0.0
 40
0.5
100
AcDbArc
 50
0.0
 51
90.0
  0
ARC
  5
1BD
100
AcDbEntity
  8
0
 62
256
370
-1
 48
1.0
  6
BYLAYER
100
AcDbCircle
 10
148.25
 20
-231.5999999999999659
 30
0.0
 40
0.5
100
AcDbArc
 50
90.0
 51
180.0
  0
LINE
  5
1BE
100
AcDbEntity
  8
0
 62
256
370
-1
 48
1.0
  6
BYLAYER
100
AcDbLine
 10
148.25
 20
-245.0999999999999659
 30
0.0
 11
149.25
 21
-245.0999999999999659
 31
0.0
  0
LINE
  5
1BF
100
AcDbEntity
  8
0
 62
256
370
-1
 48
1.0
  6
BYLAYER
100
AcDbLine
 10
149.25
 20
-231.0999999999999659
 30
0.0
 11
148.25
 21
-231.0999999999999659
 31
0.0
  0
LINE
  5
1C0
100
AcDbEntity
  8
0
 62
256
370
-1
 48
1.0
  6
BYLAYER
100
AcDbLine
 10
149.75
 20
-244.5999999999999659
 30
0.0
 11
149.75
 21
-231.5999999999999659
 31
0.0
  0
LINE
  5
1C1
100
AcDbEntity
  8
0
 62
256
370
-1
 48
1.0
  6
BYLAYER
100
AcDbLine
 10
147.75
 20
-231.5999999999999659
 30
0.0
 11
147.75
 21
-244.5999999999999659
 31
0.0
  0
ARC
  5
1C2
100
AcDbEntity
  8
0
 62
256
370
-1
 48
1.0
  6
BYLAYER
100
AcDbCircle
 10
44.9249999999999758
 20
-249.3624999999999829
 30
0.0
 40
0.5
100
AcDbArc
 50
180.0
 51
270.0
  0
ARC
  5
1C3
100
AcDbEntity
  8
0
 62
256
370
-1
 48
1.0
  6
BYLAYER
100
AcDbCircle
 10
44.9249999999999758
 20
-236.3624999999999829
 30
0.0
 40
0.5
100
AcDbArc
 50
90.0
 51
180.0
  0
LINE
  5
1C4
100
AcDbEntity
  8
0
 62
256
370
-1
 48
1.0
  6
BYLAYER
100
AcDbLine
 10
44.9249999999999758
 20
-249.8624999999999829
 30
0.0
 11
45.5119999999999791
 21
-249.8624999999999829
 31
0.0
  0
LINE
  5
1C5
100
AcDbEntity
  8
0
 62
256
370
-1
 48
1.0
  6
BYLAYER
100
AcDbLine
 10
54.4499999999999815
 20
-249.8624999999999829
 30
0.0
 11
57.9249999999999758
 21
-249.8624999999999829
 31
0.0
  0
LINE
  5
1C6
100
AcDbEntity
  8
0
 62
256
370
-1
 48
1.0
  6
BYLAYER
100
AcDbLine
 10
52.5119999999999791
 20
-249.8624999999999829
 30
0.0
 11
54.4499999999999815
 21
-249.8624999999999829
 31
0.0
  0
LINE
  5
1C7
100
AcDbEntity
  8
0
 62
256
370
-1
 48
1.0
  6
BYLAYER
100
AcDbLine
 10
57.9249999999999758
 20
-235.8624999999999829
 30
0.0
 11
54.4499999999999815
 21
-235.8624999999999829
 31
0.0
  0
LINE
  5
1C8
100
AcDbEntity
  8
0
 62
256
370
-1
 48
1.0
  6
BYLAYER
100
AcDbLine
 10
54.4499999999999815
 20
-235.8624999999999829
 30
0.0
 11
52.0119999999999791
 21
-235.8624999999999829
 31
0.0
  0
LINE
  5
1C9
100
AcDbEntity
  8
0
 62
256
370
-1
 48
1.0
  6
BYLAYER
100
AcDbLine
 10
52.0119999999999791
 20
-235.8624999999999829
 30
0.0
 11
46.0119999999999791
 21
-235.8624999999999829
 31
0.0
  0
LINE
  5
1CA
100
AcDbEntity
  8
0
 62
256
370
-1
 48
1.0
  6
BYLAYER
100
AcDbLine
 10
46.0119999999999791
 20
-235.8624999999999829
 30
0.0
 11
44.9249999999999758
 21
-235.8624999999999829
 31
0.0
  0
LINE
  5
1CB
100
AcDbEntity
  8
0
 62
256
370
-1
 48
1.0
  6
BYLAYER
100
AcDbLine
 10
44.4249999999999758
 20
-236.3624999999999829
 30
0.0
 11
44.4249999999999758
 21
-249.3624999999999829
 31
0.0
  0
LINE
  5
1CC
100
AcDbEntity
  8
0
 62
256
370
-1
 48
1.0
  6
BYLAYER
100
AcDbLine
 10
57.9249999999999758
 20
-249.8624999999999829
 30
0.0
 11
61.2499999999999787
 21
-249.8624999999999829
 31
0.0
  0
LINE
  5
1CD
100
AcDbEntity
  8
0
 62
256
370
-1
 48
1.0
  6
BYLAYER
100
AcDbLine
 10
61.2499999999999787
 20
-249.8624999999999829
 30
0.0
 11
62.2499999999999787
 21
-249.8624999999999829
 31
0.0
  0
LINE
  5
1CE
100
AcDbEntity
  8
0
 62
256
370
-1
 48
1.0
  6
BYLAYER
100
AcDbLine
 10
62.2499999999999787
 20
-249.8624999999999829
 30
0.0
 11
64.5619999999999834
 21
-249.8624999999999829
 31
0.0
  0
LINE
  5
1CF
100
AcDbEntity
  8
0
 62
256
370
-1
 48
1.0
  6
BYLAYER
100
AcDbLine
 10
67.4499999999999886
 20
-235.8624999999999829
 30
0.0
 11
65.0619999999999834
 21
-235.8624999999999829
 31
0.0
  0
LINE
  5
1D0
100
AcDbEntity
  8
0
 62
256
370
-1
 48
1.0
  6
BYLAYER
100
AcDbLine
 10
65.0619999999999834
 20
-235.8624999999999829
 30
0.0
 11
62.2499999999999787
 21
-235.8624999999999829
 31
0.0
  0
LINE
  5
1D1
100
AcDbEntity
  8
0
 62
256
370
-1
 48
1.0
  6
BYLAYER
100
AcDbLine
 10
62.2499999999999787
 20
-235.8624999999999829
 30
0.0
 11
61.2499999999999787
 21
-235.8624999999999829
 31
0.0
  0
LINE
  5
1D2
100
AcDbEntity
  8
0
 62
256
370
-1
 48
1.0
  6
BYLAYER
100
AcDbLine
 10
61.2499999999999787
 20
-235.8624999999999829
 30
0.0
 11
57.9249999999999758
 21
-235.8624999999999829
 31
0.0
  0
ARC
  5
1D3
100
AcDbEntity
  8
0
 62
256
370
-1
 48
1.0
  6
BYLAYER
100
AcDbCircle
 10
46.0119999999999791
 20
-250.3624999999999829
 30
0.0
 40
0.5
100
AcDbArc
 50
180.0
 51
270.0
  0
ARC
  5
1D4
100
AcDbEntity
  8
0
 62
256
370
-1
 48
1.0
  6
BYLAYER
100
AcDbCircle
 10
52.0119999999999791
 20
-250.3624999999999829
 30
0.0
 40
0.5
100
AcDbArc
 50
270.0
 51
0.0
  0
LINE
  5
1D5
100
AcDbEntity
  8
0
 62
256
370
-1
 48
1.0
  6
BYLAYER
100
AcDbLine
 10
46.0119999999999791
 20
-250.8624999999999829
 30
0.0
 11
52.0119999999999791
 21
-250.8624999999999829
 31
0.0
  0
LINE
  5
1D6
100
AcDbEntity
  8
0
 62
256
370
-1
 48
1.0
  6
BYLAYER
100
AcDbLine
 10
52.5119999999999791
 20
-250.3624999999999829
 30
0.0
 11
52.5119999999999791
 21
-249.8624999999999829
 31
0.0
  0
LINE
  5
1D7
100
AcDbEntity
  8
0
 62
256
370
-1
 48
1.0
  6
BYLAYER
100
AcDbLine
 10
45.5119999999999791
 20
-249.8624999999999829
 30
0.0
 11
45.5119999999999791
 21
-250.3624999999999829
 31
0.0
  0
ARC
  5
1D8
100
AcDbEntity
  8
0
 62
256
370
-1
 48
1.0
  6
BYLAYER
100
AcDbCircle
 10
75.8879999999999768
 20
-250.3624999999999829
 30
0.0
 40
0.5
100
AcDbArc
 50
270.0
 51
0.0
  0
LINE
  5
1D9
100
AcDbEntity
  8
0
 62
256
370
-1
 48
1.0
  6
BYLAYER
100
AcDbLine
 10
69.8879999999999768
 20
-250.8624999999999829
 30
0.0
 11
71.0619999999999834
 21
-250.8624999999999829
 31
0.0
  0
LINE
  5
1DA
100
AcDbEntity
  8
0
 62
256
370
-1
 48
1.0
  6
BYLAYER
100
AcDbLine
 10
71.0619999999999834
 20
-250.8624999999999829
 30
0.0
 11
75.8879999999999768
 21
-250.8624999999999829
 31
0.0
  0
LINE
  5
1DB
100
AcDbEntity
  8
0
 62
256
370
-1
 48
1.0
  6
BYLAYER
100
AcDbLine
 10
75.8879999999999768
 20
-235.8624999999999829
 30
0.0
 11
73.4999999999999716
 21
-235.8624999999999829
 31
0.0
  0
LINE
  5
1DC
100
AcDbEntity
  8
0
 62
256
370
-1
 48
1.0
  6
BYLAYER
100
AcDbLine
 10
73.4999999999999716
 20
-235.8624999999999829
 30
0.0
 11
71.0619999999999834
 21
-235.8624999999999829
 31
0.0
  0
LINE
  5
1DD
100
AcDbEntity
  8
0
 62
256
370
-1
 48
1.0
  6
BYLAYER
100
AcDbLine
 10
71.0619999999999834
 20
-235.8624999999999829
 30
0.0
 11
69.8879999999999768
 21
-235.8624999999999829
 31
0.0
  0
LINE
  5
1DE
100
AcDbEntity
  8
0
 62
256
370
-1
 48
1.0
  6
BYLAYER
100
AcDbLine
 10
76.3879999999999768
 20
-250.3624999999999829
 30
0.0
 11
76.3879999999999768
 21
-249.8624999999999829
 31
0.0
  0
LINE
  5
1DF
100
AcDbEntity
  8
0
 62
256
370
-1
 48
1.0
  6
BYLAYER
100
AcDbLine
 10
78.6999999999999886
 20
-249.8624999999999829
 30
0.0
 11
79.6999999999999886
 21
-249.8624999999999829
 31
0.0
  0
LINE
  5
1E0
100
AcDbEntity
  8
0
 62
256
370
-1
 48
1.0
  6
BYLAYER
100
AcDbLine
 10
79.6999999999999886
 20
-235.8624999999999829
 30
0.0
 11
78.6999999999999886
 21
-235.8624999999999829
 31
0.0
  0
LINE
  5
1E1
100
AcDbEntity
  8
0
 62
256
370
-1
 48
1.0
  6
BYLAYER
100
AcDbLine
 10
76.3879999999999768
 20
-249.8624999999999829
 30
0.0
 11
78.6999999999999886
 21
-249.8624999999999829
 31
0.0
  0
LINE
  5
1E2
100
AcDbEntity
  8
0
 62
256
370
-1
 48
1.0
  6
BYLAYER
100
AcDbLine
 10
79.6999999999999886
 20
-249.8624999999999829
 30
0.0
 11
80.2999999999999829
 21
-249.8624999999999829
 31
0.0
  0
LINE
  5
1E3
100
AcDbEntity
  8
0
 62
256
370
-1
 48
1.0
  6
BYLAYER
100
AcDbLine
 10
80.2999999999999829
 20
-249.8624999999999829
 30
0.0
 11
81.2999999999999829
 21
-249.8624999999999829
 31
0.0
  0
LINE
  5
1E4
100
AcDbEntity
  8
0
 62
256
370
-1
 48
1.0
  6
BYLAYER
100
AcDbLine
 10
81.2999999999999829
 20
-249.8624999999999829
 30
0.0
 11
83.6119999999999948
 21
-249.8624999999999829
 31
0.0
  0
LINE
  5
1E5
100
AcDbEntity
  8
0
 62
256
370
-1
 48
1.0
  6
BYLAYER
100
AcDbLine
 10
86.4999999999999716
 20
-235.8624999999999829
 30
0.0
 11
84.1119999999999948
 21
-235.8624999999999829
 31
0.0
  0
LINE
  5
1E6
100
AcDbEntity
  8
0
 62
256
370
-1
 48
1.0
  6
BYLAYER
100
AcDbLine
 10
84.1119999999999948
 20
-235.8624999999999829
 30
0.0
 11
81.2999999999999829
 21
-235.8624999999999829
 31
0.0
  0
LINE
  5
1E7
100
AcDbEntity
  8
0
 62
256
370
-1
 48
1.0
  6
BYLAYER
100
AcDbLine
 10
81.2999999999999829
 20
-235.8624999999999829
 30
0.0
 11
80.2999999999999829
 21
-235.8624999999999829
 31
0.0
  0
LINE
  5
1E8
100
AcDbEntity
  8
0
 62
256
370
-1
 48
1.0
  6
BYLAYER
100
AcDbLine
 10
80.2999999999999829
 20
-235.8624999999999829
 30
0.0
 11
79.6999999999999886
 21
-235.8624999999999829
 31
0.0
  0
LINE
  5
1E9
100
AcDbEntity
  8
0
 62
256
370
-1
 48
1.0
  6
BYLAYER
100
AcDbLine
 10
78.6999999999999886
 20
-235.8624999999999829
 30
0.0
 11
75.8879999999999768
 21
-235.8624999999999829
 31
0.0
  0
ARC
  5
1EA
100
AcDbEntity
  8
0
 62
256
370
-1
 48
1.0
  6
BYLAYER
100
AcDbCircle
 10
65.0619999999999834
 20
-250.3624999999999829
 30
0.0
 40
0.5
100
AcDbArc
 50
180.0
 51
270.0
  0
LINE
  5
1EB
100
AcDbEntity
  8
0
 62
256
370
-1
 48
1.0
  6
BYLAYER
100
AcDbLine
 10
65.0619999999999834
 20
-250.8624999999999829
 30
0.0
 11
69.8879999999999768
 21
-250.8624999999999829
 31
0.0
  0
LINE
  5
1EC
100
AcDbEntity
  8
0
 62
256
370
-1
 48
1.0
  6
BYLAYER
100
AcDbLine
 10
69.8879999999999768
 20
-235.8624999999999829
 30
0.0
 11
67.4499999999999886
 21
-235.8624999999999829
 31
0.0
  0
LINE
  5
1ED
100
AcDbEntity
  8
0
 62
256
370
-1
 48
1.0
  6
BYLAYER
100
AcDbLine
 10
64.5619999999999834
 20
-249.8624999999999829
 30
0.0
 11
64.5619999999999834
 21
-250.3624999999999829
 31
0.0
  0
ARC
  5
1EE
100
AcDbEntity
  8
0
 62
256
370
-1
 48
1.0
  6
BYLAYER
100
AcDbCircle
 10
94.9379999999999882
 20
-250.3624999999999829
 30
0.0
 40
0.5
100
AcDbArc
 50
270.0
 51
0.0
  0
LINE
  5
1EF
100
AcDbEntity
  8
0
 62
256
370
-1
 48
1.0
  6
BYLAYER
100
AcDbLine
 10
88.9379999999999882
 20
-250.8624999999999829
 30
0.0
 11
90.1119999999999948
 21
-250.8624999999999829
 31
0.0
  0
LINE
  5
1F0
100
AcDbEntity
  8
0
 62
256
370
-1
 48
1.0
  6
BYLAYER
100
AcDbLine
 10
90.1119999999999948
 20
-250.8624999999999829
 30
0.0
 11
94.9379999999999882
 21
-250.8624999999999829
 31
0.0
  0
LINE
  5
1F1
100
AcDbEntity
  8
0
 62
256
370
-1
 48
1.0
  6
BYLAYER
100
AcDbLine
 10
94.9379999999999882
 20
-235.8624999999999829
 30
0.0
 11
92.5499999999999829
 21
-235.8624999999999829
 31
0.0
  0
LINE
  5
1F2
100
AcDbEntity
  8
0
 62
256
370
-1
 48
1.0
  6
BYLAYER
100
AcDbLine
 10
92.5499999999999829
 20
-235.8624999999999829
 30
0.0
 11
90.1119999999999948
 21
-235.8624999999999829
 31
0.0
  0
LINE
  5
1F3
100
AcDbEntity
  8
0
 62
256
370
-1
 48
1.0
  6
BYLAYER
100
AcDbLine
 10
90.1119999999999948
 20
-235.8624999999999829
 30
0.0
 11
88.9379999999999882
 21
-235.8624999999999829
 31
0.0
  0
LINE
  5
1F4
100
AcDbEntity
  8
0
 62
256
370
-1
 48
1.0
  6
BYLAYER
100
AcDbLine
 10
95.4379999999999882
 20
-250.3624999999999829
 30
0.0
 11
95.4379999999999882
 21
-249.8624999999999829
 31
0.0
  0
LINE
  5
1F5
100
AcDbEntity
  8
0
 62
256
370
-1
 48
1.0
  6
BYLAYER
100
AcDbLine
 10
97.75
 20
-249.8624999999999829
 30
0.0
 11
98.75
 21
-249.8624999999999829
 31
0.0
  0
LINE
  5
1F6
100
AcDbEntity
  8
0
 62
256
370
-1
 48
1.0
  6
BYLAYER
100
AcDbLine
 10
98.75
 20
-235.8624999999999829
 30
0.0
 11
97.75
 21
-235.8624999999999829
 31
0.0
  0
LINE
  5
1F7
100
AcDbEntity
  8
0
 62
256
370
-1
 48
1.0
  6
BYLAYER
100
AcDbLine
 10
95.4379999999999882
 20
-249.8624999999999829
 30
0.0
 11
97.75
 21
-249.8624999999999829
 31
0.0
  0
LINE
  5
1F8
100
AcDbEntity
  8
0
 62
256
370
-1
 48
1.0
  6
BYLAYER
100
AcDbLine
 10
98.75
 20
-249.8624999999999829
 30
0.0
 11
102.0749999999999886
 21
-249.8624999999999829
 31
0.0
  0
LINE
  5
1F9
100
AcDbEntity
  8
0
 62
256
370
-1
 48
1.0
  6
BYLAYER
100
AcDbLine
 10
102.0749999999999886
 20
-249.8624999999999829
 30
0.0
 11
105.5499999999999829
 21
-249.8624999999999829
 31
0.0
  0
LINE
  5
1FA
100
AcDbEntity
  8
0
 62
256
370
-1
 48
1.0
  6
BYLAYER
100
AcDbLine
 10
105.5499999999999829
 20
-235.8624999999999829
 30
0.0
 11
102.0749999999999886
 21
-235.8624999999999829
 31
0.0
  0
LINE
  5
1FB
100
AcDbEntity
  8
0
 62
256
370
-1
 48
1.0
  6
BYLAYER
100
AcDbLine
 10
102.0749999999999886
 20
-235.8624999999999829
 30
0.0
 11
98.75
 21
-235.8624999999999829
 31
0.0
  0
LINE
  5
1FC
100
AcDbEntity
  8
0
 62
256
370
-1
 48
1.0
  6
BYLAYER
100
AcDbLine
 10
97.75
 20
-235.8624999999999829
 30
0.0
 11
94.9379999999999882
 21
-235.8624999999999829
 31
0.0
  0
ARC
  5
1FD
100
AcDbEntity
  8
0
 62
256
370
-1
 48
1.0
  6
BYLAYER
100
AcDbCircle
 10
84.1119999999999948
 20
-250.3624999999999829
 30
0.0
 40
0.5
100
AcDbArc
 50
180.0
 51
270.0
  0
LINE
  5
1FE
100
AcDbEntity
  8
0
 62
256
370
-1
 48
1.0
  6
BYLAYER
100
AcDbLine
 10
84.1119999999999948
 20
-250.8624999999999829
 30
0.0
 11
88.9379999999999882
 21
-250.8624999999999829
 31
0.0
  0
LINE
  5
1FF
100
AcDbEntity
  8
0
 62
256
370
-1
 48
1.0
  6
BYLAYER
100
AcDbLine
 10
88.9379999999999882
 20
-235.8624999999999829
 30
0.0
 11
86.4999999999999716
 21
-235.8624999999999829
 31
0.0
  0
LINE
  5
200
100
AcDbEntity
  8
0
 62
256
370
-1
 48
1.0
  6
BYLAYER
100
AcDbLine
 10
83.6119999999999948
 20
-249.8624999999999829
 30
0.0
 11
83.6119999999999948
 21
-250.3624999999999829
 31
0.0
  0
ARC
  5
201
100
AcDbEntity
  8
0
 62
256
370
-1
 48
1.0
  6
BYLAYER
100
AcDbCircle
 10
107.9879999999999995
 20
-250.3624999999999829
 30
0.0
 40
0.5
100
AcDbArc
 50
180.0
 51
270.0
  0
ARC
  5
202
100
AcDbEntity
  8
0
 62
256
370
-1
 48
1.0
  6
BYLAYER
100
AcDbCircle
 10
113.9879999999999995
 20
-250.3624999999999829
 30
0.0
 40
0.5
100
AcDbArc
 50
270.0
 51
0.0
  0
LINE
  5
203
100
AcDbEntity
  8
0
 62
256
370
-1
 48
1.0
  6
BYLAYER
100
AcDbLine
 10
107.9879999999999995
 20
-250.8624999999999829
 30
0.0
 11
113.9879999999999995
 21
-250.8624999999999829
 31
0.0
  0
LINE
  5
204
100
AcDbEntity
  8
0
 62
256
370
-1
 48
1.0
  6
BYLAYER
100
AcDbLine
 10
113.9879999999999995
 20
-235.8624999999999829
 30
0.0
 11
107.9879999999999995
 21
-235.8624999999999829
 31
0.0
  0
LINE
  5
205
100
AcDbEntity
  8
0
 62
256
370
-1
 48
1.0
  6
BYLAYER
100
AcDbLine
 10
114.4879999999999995
 20
-250.3624999999999829
 30
0.0
 11
114.4879999999999995
 21
-249.8624999999999829
 31
0.0
  0
LINE
  5
206
100
AcDbEntity
  8
0
 62
256
370
-1
 48
1.0
  6
BYLAYER
100
AcDbLine
 10
107.4879999999999995
 20
-249.8624999999999829
 30
0.0
 11
107.4879999999999995
 21
-250.3624999999999829
 31
0.0
  0
ARC
  5
207
100
AcDbEntity
  8
0
 62
256
370
-1
 48
1.0
  6
BYLAYER
100
AcDbCircle
 10
115.0749999999999886
 20
-249.3624999999999829
 30
0.0
 40
0.5
100
AcDbArc
 50
270.0
 51
0.0
  0
ARC
  5
208
100
AcDbEntity
  8
0
 62
256
370
-1
 48
1.0
  6
BYLAYER
100
AcDbCircle
 10
115.0749999999999886
 20
-236.3624999999999829
 30
0.0
 40
0.5
100
AcDbArc
 50
0.0
 51
90.0
  0
LINE
  5
209
100
AcDbEntity
  8
0
 62
256
370
-1
 48
1.0
  6
BYLAYER
100
AcDbLine
 10
105.5499999999999829
 20
-249.8624999999999829
 30
0.0
 11
107.4879999999999995
 21
-249.8624999999999829
 31
0.0
  0
LINE
  5
20A
100
AcDbEntity
  8
0
 62
256
370
-1
 48
1.0
  6
BYLAYER
100
AcDbLine
 10
114.4879999999999995
 20
-249.8624999999999829
 30
0.0
 11
115.0749999999999886
 21
-249.8624999999999829
 31
0.0
  0
LINE
  5
20B
100
AcDbEntity
  8
0
 62
256
370
-1
 48
1.0
  6
BYLAYER
100
AcDbLine
 10
115.0749999999999886
 20
-235.8624999999999829
 30
0.0
 11
113.9879999999999995
 21
-235.8624999999999829
 31
0.0
  0
LINE
  5
20C
100
AcDbEntity
  8
0
 62
256
370
-1
 48
1.0
  6
BYLAYER
100
AcDbLine
 10
107.9879999999999995
 20
-235.8624999999999829
 30
0.0
 11
105.5499999999999829
 21
-235.8624999999999829
 31
0.0
  0
LINE
  5
20D
100
AcDbEntity
  8
0
 62
256
370
-1
 48
1.0
  6
BYLAYER
100
AcDbLine
 10
115.5749999999999886
 20
-249.3624999999999829
 30
0.0
 11
115.5749999999999886
 21
-236.3624999999999829
 31
0.0
  0
ARC
  5
20E
100
AcDbEntity
  8
0
 62
256
370
-1
 48
1.0
  6
BYLAYER
100
AcDbCircle
 10
149.6999999999999886
 20
-187.4499999999999886
 30
0.0
 40
0.5
100
AcDbArc
 50
180.0
 51
270.0
  0
ARC
  5
20F
100
AcDbEntity
  8
0
 62
256
370
-1
 48
1.0
  6
BYLAYER
100
AcDbCircle
 10
162.6999999999999886
 20
-187.4499999999999886
 30
0.0
 40
0.5
100
AcDbArc
 50
270.0
 51
0.0
  0
ARC
  5
210
100
AcDbEntity
  8
0
 62
256
370
-1
 48
1.0
  6
BYLAYER
100
AcDbCircle
 10
162.6999999999999886
 20
-174.4499999999999886
 30
0.0
 40
0.5
100
AcDbArc
 50
0.0
 51
90.0
  0
ARC
  5
211
100
AcDbEntity
  8
0
 62
256
370
-1
 48
1.0
  6
BYLAYER
100
AcDbCircle
 10
149.6999999999999886
 20
-174.4499999999999886
 30
0.0
 40
0.5
100
AcDbArc
 50
90.0
 51
180.0
  0
LINE
  5
212
100
AcDbEntity
  8
0
 62
256
370
-1
 48
1.0
  6
BYLAYER
100
AcDbLine
 10
149.6999999999999886
 20
-187.9499999999999886
 30
0.0
 11
162.6999999999999886
 21
-187.9499999999999886
 31
0.0
  0
LINE
  5
213
100
AcDbEntity
  8
0
 62
256
370
-1
 48
1.0
  6
BYLAYER
100
AcDbLine
 10
162.6999999999999886
 20
-173.9499999999999886
 30
0.0
 11
149.6999999999999886
 21
-173.9499999999999886
 31
0.0
  0
LINE
  5
214
100
AcDbEntity
  8
0
 62
256
370
-1
 48
1.0
  6
BYLAYER
100
AcDbLine
 10
163.1999999999999886
 20
-187.4499999999999886
 30
0.0
 11
163.1999999999999886
 21
-174.4499999999999886
 31
0.0
  0
LINE
  5
215
100
AcDbEntity
  8
0
 62
256
370
-1
 48
1.0
  6
BYLAYER
100
AcDbLine
 10
149.1999999999999886
 20
-174.4499999999999886
 30
0.0
 11
149.1999999999999886
 21
-187.4499999999999886
 31
0.0
  0
LWPOLYLINE
  5
216
100
AcDbEntity
  8
0
 62
256
370
-1
 48
1.0
  6
BYLAYER
100
AcDbPolyline
 90
6
 70
1
 10
-34.4583813384807911
 20
-146.6992203056609583
 10
-36.0460945787523599
 20
-143.9492203056609583
 10
-34.4583813384809048
 20
-141.1992203056610151
 10
-31.2829548579378809
 20
-141.1992203056609583
 10
-29.6952416176664258
 20
-143.949220305661072
 10
-31.2829548579378809
 20
-146.6992203056609583
  0
LWPOLYLINE
  5
217
100
AcDbEntity
  8
0
 62
256
370
-1
 48
1.0
  6
BYLAYER
100
AcDbPolyline
 90
6
 70
1
 10
-34.4583813384807627
 20
-146.6992203056609583
 10
-36.0460945787523315
 20
-143.9492203056609583
 10
-34.4583813384808764
 20
-141.1992203056609583
 10
-31.2829548579378525
 20
-141.1992203056609583
 10
-29.6952416176663974
 20
-143.949220305661072
 10
-31.2829548579378525
 20
-146.6992203056609583
  0
ARC
  5
218
100
AcDbEntity
  8
0
 62
256
370
-1
 48
1.0
  6
BYLAYER
100
AcDbCircle
 10
149.6999999999999886
 20
-211.2624999999999886
 30
0.0
 40
0.5
100
AcDbArc
 50
180.0
 51
270.0
  0
ARC
  5
219
100
AcDbEntity
  8
0
 62
256
370
-1
 48
1.0
  6
BYLAYER
100
AcDbCircle
 10
162.6999999999999886
 20
-211.2624999999999886
 30
0.0
 40
0.5
100
AcDbArc
 50
270.0
 51
0.0
  0
ARC
  5
21A
100
AcDbEntity
  8
0
 62
256
370
-1
 48
1.0
  6
BYLAYER
100
AcDbCircle
 10
162.6999999999999886
 20
-198.2624999999999886
 30
0.0
 40
0.5
100
AcDbArc
 50
0.0
 51
90.0
  0
ARC
  5
21B
100
AcDbEntity
  8
0
 62
256
370
-1
 48
1.0
  6
BYLAYER
100
AcDbCircle
 10
149.6999999999999886
 20
-198.2624999999999886
 30
0.0
 40
0.5
100
AcDbArc
 50
90.0
 51
180.0
  0
LINE
  5
21C
100
AcDbEntity
  8
0
 62
256
370
-1
 48
1.0
  6
BYLAYER
100
AcDbLine
 10
149.6999999999999886
 20
-211.7624999999999886
 30
0.0
 11
162.6999999999999886
 21
-211.7624999999999886
 31
0.0
  0
LINE
  5
21D
100
AcDbEntity
  8
0
 62
256
370
-1
 48
1.0
  6
BYLAYER
100
AcDbLine
 10
162.6999999999999886
 20
-197.7624999999999886
 30
0.0
 11
149.6999999999999886
 21
-197.7624999999999886
 31
0.0
  0
LINE
  5
21E
100
AcDbEntity
  8
0
 62
256
370
-1
 48
1.0
  6
BYLAYER
100
AcDbLine
 10
163.1999999999999886
 20
-211.2624999999999886
 30
0.0
 11
163.1999999999999886
 21
-198.2624999999999886
 31
0.0
  0
LINE
  5
21F
100
AcDbEntity
  8
0
 62
256
370
-1
 48
1.0
  6
BYLAYER
100
AcDbLine
 10
149.1999999999999886
 20
-198.2624999999999886
 30
0.0
 11
149.1999999999999886
 21
-211.2624999999999886
 31
0.0
  0
LINE
  5
220
100
AcDbEntity
  8
0
 62
0
370
-1
 48
1.0
  6
CONTINUOUS
100
AcDbLine
 10
-29.5374999999999943
 20
-219.7236927813362399
 30
0.0
 11
-35.1122946267373663
 21
-219.7236927813365241
 31
0.0
  0
LINE
  5
221
100
AcDbEntity
  8
0
 62
0
370
-1
 48
1.0
  6
CONTINUOUS
100
AcDbLine
 10
-24.7750000000000199
 20
-190.0638072186635554
 30
0.0
 11
-35.1122946267373663
 21
-190.0638072186632712
 31
0.0
  0
LINE
  5
222
100
AcDbEntity
  8
0
 62
0
370
-1
 48
1.0
  6
CONTINUOUS
100
AcDbLine
 10
189.5374999999999943
 20
-219.7236927813362399
 30
0.0
 11
195.0122946267374004
 21
-219.7236927813365241
 31
0.0
  0
LINE
  5
223
100
AcDbEntity
  8
0
 62
0
370
-1
 48
1.0
  6
CONTINUOUS
100
AcDbLine
 10
184.7749999999999488
 20
-191.5638072186636123
 30
0.0
 11
195.0122946267374004
 21
-191.5638072186633281
 31
0.0
  0
LINE
  5
224
100
AcDbEntity
  8
0
 62
256
370
-1
 48
1.0
  6
BYLAYER
100
AcDbLine
 10
-35.1132946267372859
 20
-244.5246927813366824
 30
0.0
 11
-29.5374999999999943
 21
-244.5249999999999204
 31
0.0
  0
LINE
  5
225
100
AcDbEntity
  8
0
 62
256
370
-1
 48
1.0
  6
BYLAYER
100
AcDbLine
 10
195.01329462673732
 20
-244.5246927813366824
 30
0.0
 11
189.5374999999999943
 21
-244.5249999999999204
 31
0.0
  0
LINE
  5
226
100
AcDbEntity
  8
0
 62
256
370
-1
 48
1.0
  6
BYLAYER
100
AcDbLine
 10
195.0132946267373768
 20
-166.7628072186631698
 30
0.0
 11
191.0375000000000227
 21
-166.7624999999999318
 31
0.0
  0
ARC
  5
227
100
AcDbEntity
  8
0
 62
256
370
-1
 48
1.0
  6
BYLAYER
100
AcDbCircle
 10
-35.1132946267371153
 20
-242.1246927813364209
 30
0.0
 40
2.4000000000001194
100
AcDbArc
 50
180.0
 51
270.0
  0
ARC
  5
228
100
AcDbEntity
  8
0
 62
256
370
-1
 48
1.0
  6
BYLAYER
100
AcDbCircle
 10
-35.1132946267371153
 20
-167.6628072186633744
 30
0.0
 40
2.4000000000001194
100
AcDbArc
 50
90.0000000000000142
 51
180.0
  0
ARC
  5
229
100
AcDbEntity
  8
0
 62
256
370
-1
 48
1.0
  6
BYLAYER
100
AcDbCircle
 10
195.0132946267371494
 20
-242.1246927813364209
 30
0.0
 40
2.4000000000001194
100
AcDbArc
 50
270.0
 51
0.0
  0
ARC
  5
22A
100
AcDbEntity
  8
0
 62
256
370
-1
 48
1.0
  6
BYLAYER
100
AcDbCircle
 10
195.0132946267371494
 20
-169.1628072186634313
 30
0.0
 40
2.4000000000001194
100
AcDbArc
 50
0.0
 51
90.0000000000000142
  0
ARC
  5
22B
100
AcDbEntity
  8
0
 62
256
370
-1
 48
1.0
  6
BYLAYER
100
AcDbCircle
 10
-35.1122946267373095
 20
-222.1246927813364209
 30
0.0
 40
2.4009999999998968
100
AcDbArc
 50
90.0000000000000142
 51
180.0
  0
ARC
  5
22C
100
AcDbEntity
  8
0
 62
256
370
-1
 48
1.0
  6
BYLAYER
100
AcDbCircle
 10
-35.1122946267373095
 20
-187.6628072186633744
 30
0.0
 40
2.4009999999998968
100
AcDbArc
 50
180.0
 51
270.0
  0
ARC
  5
22D
100
AcDbEntity
  8
0
 62
256
370
-1
 48
1.0
  6
BYLAYER
100
AcDbCircle
 10
195.0122946267373436
 20
-222.1246927813364209
 30
0.0
 40
2.4009999999998968
100
AcDbArc
 50
0.0
 51
90.0000000000000142
  0
ARC
  5
22E
100
AcDbEntity
  8
0
 62
256
370
-1
 48
1.0
  6
BYLAYER
100
AcDbCircle
 10
195.0122946267373436
 20
-189.1628072186634313
 30
0.0
 40
2.4009999999998968
100
AcDbArc
 50
270.0
 51
0.0
  0
ARC
  5
22F
100
AcDbEntity
  8
0
 62
256
370
-1
 48
1.0
  6
BYLAYER
100
AcDbCircle
 10
187.9374999999999716
 20
-246.0249999999999773
 30
0.0
 40
1.5999999999999943
100
AcDbArc
 50
270.0
 51
0.0
  0
ARC
  5
230
100
AcDbEntity
  8
0
 62
256
370
-1
 48
1.0
  6
BYLAYER
100
AcDbCircle
 10
187.9374999999999716
 20
-201.5999999999999375
 30
0.0
 40
1.5999999999999943
100
AcDbArc
 50
0.0
 51
90.0
  0
ARC
  5
231
100
AcDbEntity
  8
0
 62
256
370
-1
 48
1.0
  6
BYLAYER
100
AcDbCircle
 10
186.3749999999999716
 20
-198.3999999999999773
 30
0.0
 40
1.5999999999999943
100
AcDbArc
 50
180.0
 51
270.0
  0
ARC
  5
232
100
AcDbEntity
  8
0
 62
256
370
-1
 48
1.0
  6
BYLAYER
100
AcDbCircle
 10
81.5999999999999943
 20
-165.1624999999999091
 30
0.0
 40
1.6000000000000227
100
AcDbArc
 50
180.0
 51
270.0
  0
ARC
  5
233
100
AcDbEntity
  8
0
 62
256
370
-1
 48
1.0
  6
BYLAYER
100
AcDbCircle
 10
78.3999999999999773
 20
-149.2125000000000057
 30
0.0
 40
1.6000000000000512
100
AcDbArc
 50
0.0
 51
90.0
  0
ARC
  5
234
100
AcDbEntity
  8
0
 62
256
370
-1
 48
1.0
  6
BYLAYER
100
AcDbCircle
 10
-13.6499999999999915
 20
-149.2124999999999488
 30
0.0
 40
1.5999999999999943
100
AcDbArc
 50
90.0
 51
180.0
  0
ARC
  5
235
100
AcDbEntity
  8
0
 62
256
370
-1
 48
1.0
  6
BYLAYER
100
AcDbCircle
 10
-27.9375
 20
-201.5999999999999375
 30
0.0
 40
1.5999999999999943
100
AcDbArc
 50
90.0
 51
180.0
  0
ARC
  5
236
100
AcDbEntity
  8
0
 62
256
370
-1
 48
1.0
  6
BYLAYER
100
AcDbCircle
 10
-26.3750000000000284
 20
-198.3999999999999773
 30
0.0
 40
1.5999999999999659
100
AcDbArc
 50
270.0000000000005116
 51
0.0
  0
ARC
  5
237
100
AcDbEntity
  8
0
 62
256
370
-1
 48
1.0
  6
BYLAYER
100
AcDbCircle
 10
-27.9375000000000142
 20
-246.0249999999999204
 30
0.0
 40
1.5999999999999943
100
AcDbArc
 50
180.0
 51
270.0
  0
ARC
  5
238
100
AcDbEntity
  8
0
 62
256
370
-1
 48
1.0
  6
BYLAYER
100
AcDbCircle
 10
119.7000000000000455
 20
-249.2249999999999375
 30
0.0
 40
1.5999999999999943
100
AcDbArc
 50
90.0
 51
180.0
  0
ARC
  5
239
100
AcDbEntity
  8
0
 62
256
370
-1
 48
1.0
  6
BYLAYER
100
AcDbCircle
 10
43.5
 20
-250.7874999999999659
 30
0.0
 40
1.5999999999999943
100
AcDbArc
 50
180.0
 51
270.0
  0
ARC
  5
23A
100
AcDbEntity
  8
0
 62
256
370
-1
 48
1.0
  6
BYLAYER
100
AcDbCircle
 10
116.5
 20
-250.7874999999999659
 30
0.0
 40
1.6000000000000512
100
AcDbArc
 50
270.0
 51
0.0
  0
ARC
  5
23B
100
AcDbEntity
  8
0
 62
256
370
-1
 48
1.0
  6
BYLAYER
100
AcDbCircle
 10
40.2999999999999261
 20
-249.2249999999999943
 30
0.0
 40
1.6000000000000512
100
AcDbArc
 50
0.0
 51
90.0
  0
LINE
  5
23C
100
AcDbEntity
  8
0
 62
256
370
-1
 48
1.0
  6
BYLAYER
100
AcDbLine
 10
41.9000000000000057
 20
-250.7874999999999659
 30
0.0
 11
41.8999999999999773
 21
-249.2249999999999943
 31
0.0
  0
LINE
  5
23D
100
AcDbEntity
  8
0
 62
256
370
-1
 48
1.0
  6
BYLAYER
100
AcDbLine
 10
118.1000000000000512
 20
-250.7874999999999659
 30
0.0
 11
118.1000000000000512
 21
-249.2249999999999375
 31
0.0
  0
LINE
  5
23E
100
AcDbEntity
  8
0
 62
256
370
-1
 48
1.0
  6
BYLAYER
100
AcDbLine
 10
-37.5132946267372063
 20
-242.1246927813364209
 30
0.0
 11
-37.5132946267372063
 21
-222.1246927813364209
 31
0.0
  0
LINE
  5
23F
100
AcDbEntity
  8
0
 62
256
370
-1
 48
1.0
  6
BYLAYER
100
AcDbLine
 10
-37.5132946267372063
 20
-167.6628072186633744
 30
0.0
 11
-37.5132946267372063
 21
-187.6628072186633744
 31
0.0
  0
LINE
  5
240
100
AcDbEntity
  8
0
 62
256
370
-1
 48
1.0
  6
BYLAYER
100
AcDbLine
 10
197.4132946267372404
 20
-242.1246927813364209
 30
0.0
 11
197.4132946267372404
 21
-222.1246927813364209
 31
0.0
  0
LINE
  5
241
100
AcDbEntity
  8
0
 62
256
370
-1
 48
1.0
  6
BYLAYER
100
AcDbLine
 10
191.0375000000000227
 20
-166.7624999999999318
 30
0.0
 11
161.0375000000000227
 21
-166.7624999999999318
 31
0.0
  0
LINE
  5
242
100
AcDbEntity
  8
0
 62
256
370
-1
 48
1.0
  6
BYLAYER
100
AcDbLine
 10
161.0375000000000227
 20
-166.7624999999999318
 30
0.0
 11
131.0375000000000227
 21
-166.7624999999999318
 31
0.0
  0
LINE
  5
243
100
AcDbEntity
  8
0
 62
256
370
-1
 48
1.0
  6
BYLAYER
100
AcDbLine
 10
131.0375000000000227
 20
-166.7624999999999318
 30
0.0
 11
101.0375000000000227
 21
-166.7624999999999318
 31
0.0
  0
LINE
  5
244
100
AcDbEntity
  8
0
 62
256
370
-1
 48
1.0
  6
BYLAYER
100
AcDbLine
 10
101.0375000000000227
 20
-166.7624999999999318
 30
0.0
 11
81.5999999999999943
 21
-166.7624999999999318
 31
0.0
  0
LINE
  5
245
100
AcDbEntity
  8
0
 62
256
370
-1
 48
1.0
  6
BYLAYER
100
AcDbLine
 10
197.4132946267372404
 20
-189.1628072186634313
 30
0.0
 11
197.4132946267372688
 21
-169.1628072186634313
 31
0.0
  0
LINE
  5
246
100
AcDbEntity
  8
0
 62
256
370
-1
 48
1.0
  6
BYLAYER
100
AcDbLine
 10
189.5374999999999659
 20
-246.0249999999999773
 30
0.0
 11
189.5374999999999943
 21
-244.5249999999999204
 31
0.0
  0
LINE
  5
247
100
AcDbEntity
  8
0
 62
256
370
-1
 48
1.0
  6
BYLAYER
100
AcDbLine
 10
-35.1132946267371153
 20
-165.2628072186632551
 30
0.0
 11
-15.2500000000000142
 21
-165.2628072186632551
 31
0.0
  0
LINE
  5
248
100
AcDbEntity
  8
0
 62
256
370
-1
 48
1.0
  6
BYLAYER
100
AcDbLine
 10
-29.5375000000000085
 20
-246.0249999999999204
 30
0.0
 11
-29.5374999999999943
 21
-244.5249999999999204
 31
0.0
  0
ENDSEC
  0
SECTION
  2
OBJECTS
  0
DICTIONARY
  5
C
100
AcDbDictionary
280
0
281
1
  3
ACAD_GROUP
350
D
  3
ACAD_LAYOUT
350
1A
  3
ACAD_MLINESTYLE
350
17
  3
ACAD_PLOTSETTINGS
350
19
  3
ACAD_PLOTSTYLENAME
350
E
  3
AcDbVariableDictionary
350
249
  3
QCAD_OBJECTS
350
24A
  0
DICTIONARY
  5
D
100
AcDbDictionary
280
0
281
1
  0
ACDBDICTIONARYWDFLT
  5
E
100
AcDbDictionary
281
1
  3
Normal
350
F
100
AcDbDictionaryWithDefault
340
F
  0
ACDBPLACEHOLDER
  5
F
  0
DICTIONARY
  5
17
100
AcDbDictionary
280
0
281
1
  3
Standard
350
18
  0
MLINESTYLE
  5
18
100
AcDbMlineStyle
  2
STANDARD
 70
0
  3

 62
256
 51
90.0
 52
90.0
 71
2
 49
0.5
 62
256
  6
BYLAYER
 49
-0.5
 62
256
  6
BYLAYER
  0
DICTIONARY
  5
19
100
AcDbDictionary
280
0
281
1
  0
DICTIONARY
  5
1A
100
AcDbDictionary
281
1
  3
Layout1
350
1E
  3
Layout2
350
26
  3
Model
350
22
  0
LAYOUT
  5
1E
100
AcDbPlotSettings
  1

  2
none_device
  4

  6

 40
0.0
 41
0.0
 42
0.0
 43
0.0
 44
0.0
 45
0.0
 46
0.0
 47
0.0
 48
0.0
 49
0.0
140
0.0
141
0.0
142
1.0
143
1.0
 70
688
 72
0
 73
0
 74
5
  7

 75
16
147
1.0
148
0.0
149
0.0
100
AcDbLayout
  1
Layout1
 70
1
 71
1
 10
0.0
 20
0.0
 11
420.0
 21
297.0
 12
0.0
 22
0.0
 32
0.0
 14
100000000000000000000.0
 24
100000000000000000000.0
 34
100000000000000000000.0
 15
-100000000000000000000.0
 25
-100000000000000000000.0
 35
-100000000000000000000.0
146
0.0
 13
0.0
 23
0.0
 33
0.0
 16
1.0
 26
0.0
 36
0.0
 17
0.0
 27
1.0
 37
0.0
 76
0
330
1B
  0
LAYOUT
  5
22
100
AcDbPlotSettings
  1

  2
none_device
  4

  6

 40
0.0
 41
0.0
 42
0.0
 43
0.0
 44
0.0
 45
0.0
 46
0.0
 47
0.0
 48
0.0
 49
0.0
140
0.0
141
0.0
142
1.0
143
1.0
 70
1712
 72
0
 73
0
 74
0
  7

 75
0
147
1.0
148
0.0
149
0.0
100
AcDbLayout
  1
Model
 70
1
 71
0
 10
0.0
 20
0.0
 11
12.0
 21
9.0
 12
0.0
 22
0.0
 32
0.0
 14
0.0
 24
0.0
 34
0.0
 15
0.0
 25
0.0
 35
0.0
146
0.0
 13
0.0
 23
0.0
 33
0.0
 16
1.0
 26
0.0
 36
0.0
 17
0.0
 27
1.0
 37
0.0
 76
0
330
1F
  0
LAYOUT
  5
26
100
AcDbPlotSettings
  1

  2
none_device
  4

  6

 40
0.0
 41
0.0
 42
0.0
 43
0.0
 44
0.0
 45
0.0
 46
0.0
 47
0.0
 48
0.0
 49
0.0
140
0.0
141
0.0
142
1.0
143
1.0
 70
688
 72
0
 73
0
 74
5
  7

 75
16
147
1.0
148
0.0
149
0.0
100
AcDbLayout
  1
Layout2
 70
1
 71
2
 10
0.0
 20
0.0
 11
12.0
 21
9.0
 12
0.0
 22
0.0
 32
0.0
 14
0.0
 24
0.0
 34
0.0
 15
0.0
 25
0.0
 35
0.0
146
0.0
 13
0.0
 23
0.0
 33
0.0
 16
1.0
 26
0.0
 36
0.0
 17
0.0
 27
1.0
 37
0.0
 76
0
330
23
  0
DICTIONARY
  5
249
100
AcDbDictionary
281
1
  3
DIMASSOC
350
24C
  3
HIDETEXT
350
24B
  0
DICTIONARYVAR
  5
24B
100
DictionaryVariables
280
0
  1
2
  0
DICTIONARYVAR
  5
24C
100
DictionaryVariables
280
0
  1
1
  0
DICTIONARY
  5
24A
100
AcDbDictionary
281
1
  3
ColorSettings/BackgroundColor
350
24D
  3
ColorSettings/ColorMode
350
24E
  3
Grid/DisplayGrid00
350
24F
  3
Grid/DisplayGrid01
350
250
  3
Grid/DisplayGrid02
350
251
  3
Grid/DisplayGrid03
350
252
  3
Grid/GridSpacingX00
350
253
  3
Grid/GridSpacingX01
350
254
  3
Grid/GridSpacingX02
350
255
  3
Grid/GridSpacingX03
350
256
  3
Grid/GridSpacingY00
350
257
  3
Grid/GridSpacingY01
350
258
  3
Grid/GridSpacingY02
350
259
  3
Grid/GridSpacingY03
350
25A
  3
Grid/IsometricGrid00
350
25B
  3
Grid/IsometricGrid01
350
25C
  3
Grid/IsometricGrid02
350
25D
  3
Grid/IsometricGrid03
350
25E
  3
Grid/IsometricProjection00
350
25F
  3
Grid/IsometricProjection01
350
260
  3
Grid/IsometricProjection02
350
261
  3
Grid/IsometricProjection03
350
262
  3
Grid/MetaGridSpacingX00
350
263
  3
Grid/MetaGridSpacingX01
350
264
  3
Grid/MetaGridSpacingX02
350
265
  3
Grid/MetaGridSpacingX03
350
266
  3
Grid/MetaGridSpacingY00
350
267
  3
Grid/MetaGridSpacingY01
350
268
  3
Grid/MetaGridSpacingY02
350
269
  3
Grid/MetaGridSpacingY03
350
26A
  3
MultiPageSettings/Columns
350
26B
  3
MultiPageSettings/GlueMarginsBottom
350
26C
  3
MultiPageSettings/GlueMarginsLeft
350
26D
  3
MultiPageSettings/GlueMarginsRight
350
26E
  3
MultiPageSettings/GlueMarginsTop
350
26F
  3
MultiPageSettings/PrintCropMarks
350
270
  3
MultiPageSettings/Rows
350
271
  3
PageSettings/OffsetX
350
272
  3
PageSettings/OffsetY
350
273
  3
PageSettings/PageOrientation
350
274
  3
PageSettings/PaperHeight
350
275
  3
PageSettings/PaperWidth
350
276
  3
PageSettings/Scale
350
277
  3
PageSettings/ShowPaperBorders
350
278
  3
PageTagSettings/EnablePageTags
350
279
  3
PageTagSettings/TagAlignment
350
27A
  3
PageTagSettings/TagFont
350
27B
  3
PageTagSettings/TagPosition
350
27C
  3
QCADVersion
350
27D
  3
UnitSettings/PaperUnit
350
27E
  3
ViewportCenter
350
27F
  3
ViewportHeight
350
280
  3
ViewportWidth
350
281
  0
XRECORD
  5
24D
330
24A
100
AcDbXrecord
280
1
1000
White
  0
XRECORD
  5
24E
330
24A
100
AcDbXrecord
280
1
1000
FullColor
  0
XRECORD
  5
24F
330
24A
100
AcDbXrecord
280
1
290
1
  0
XRECORD
  5
250
330
24A
100
AcDbXrecord
280
1
290
1
  0
XRECORD
  5
251
330
24A
100
AcDbXrecord
280
1
290
1
  0
XRECORD
  5
252
330
24A
100
AcDbXrecord
280
1
290
1
  0
XRECORD
  5
253
330
24A
100
AcDbXrecord
280
1
1000
auto
  0
XRECORD
  5
254
330
24A
100
AcDbXrecord
280
1
1000
auto
  0
XRECORD
  5
255
330
24A
100
AcDbXrecord
280
1
1000
auto
  0
XRECORD
  5
256
330
24A
100
AcDbXrecord
280
1
1000
auto
  0
XRECORD
  5
257
330
24A
100
AcDbXrecord
280
1
1000
auto
  0
XRECORD
  5
258
330
24A
100
AcDbXrecord
280
1
1000
auto
  0
XRECORD
  5
259
330
24A
100
AcDbXrecord
280
1
1000
auto
  0
XRECORD
  5
25A
330
24A
100
AcDbXrecord
280
1
1000
auto
  0
XRECORD
  5
25B
330
24A
100
AcDbXrecord
280
1
290
0
  0
XRECORD
  5
25C
330
24A
100
AcDbXrecord
280
1
290
0
  0
XRECORD
  5
25D
330
24A
100
AcDbXrecord
280
1
290
0
  0
XRECORD
  5
25E
330
24A
100
AcDbXrecord
280
1
290
0
  0
XRECORD
  5
25F
330
24A
100
AcDbXrecord
280
1
 90
65537
  0
XRECORD
  5
260
330
24A
100
AcDbXrecord
280
1
 90
65537
  0
XRECORD
  5
261
330
24A
100
AcDbXrecord
280
1
 90
65537
  0
XRECORD
  5
262
330
24A
100
AcDbXrecord
280
1
 90
65537
  0
XRECORD
  5
263
330
24A
100
AcDbXrecord
280
1
1000
auto
  0
XRECORD
  5
264
330
24A
100
AcDbXrecord
280
1
1000
auto
  0
XRECORD
  5
265
330
24A
100
AcDbXrecord
280
1
1000
auto
  0
XRECORD
  5
266
330
24A
100
AcDbXrecord
280
1
1000
auto
  0
XRECORD
  5
267
330
24A
100
AcDbXrecord
280
1
1000
auto
  0
XRECORD
  5
268
330
24A
100
AcDbXrecord
280
1
1000
auto
  0
XRECORD
  5
269
330
24A
100
AcDbXrecord
280
1
1000
auto
  0
XRECORD
  5
26A
330
24A
100
AcDbXrecord
280
1
1000
auto
  0
XRECORD
  5
26B
330
24A
100
AcDbXrecord
280
1
 90
1
  0
XRECORD
  5
26C
330
24A
100
AcDbXrecord
280
1
 40
10.0
  0
XRECORD
  5
26D
330
24A
100
AcDbXrecord
280
1
 40
10.0
  0
XRECORD
  5
26E
330
24A
100
AcDbXrecord
280
1
 40
10.0
  0
XRECORD
  5
26F
330
24A
100
AcDbXrecord
280
1
 40
10.0
  0
XRECORD
  5
270
330
24A
100
AcDbXrecord
280
1
290
0
  0
XRECORD
  5
271
330
24A
100
AcDbXrecord
280
1
 90
1
  0
XRECORD
  5
272
330
24A
100
AcDbXrecord
280
1
 40
0.0
  0
XRECORD
  5
273
330
24A
100
AcDbXrecord
280
1
 40
0.0
  0
XRECORD
  5
274
330
24A
100
AcDbXrecord
280
1
1000
Portrait
  0
XRECORD
  5
275
330
24A
100
AcDbXrecord
280
1
 40
297.0
  0
XRECORD
  5
276
330
24A
100
AcDbXrecord
280
1
 40
210.0
  0
XRECORD
  5
277
330
24A
100
AcDbXrecord
280
1
1000
1:1
  0
XRECORD
  5
278
330
24A
100
AcDbXrecord
280
1
290
1
  0
XRECORD
  5
279
330
24A
100
AcDbXrecord
280
1
290
0
  0
XRECORD
  5
27A
330
24A
100
AcDbXrecord
280
1
1000
Inside
  0
XRECORD
  5
27B
330
24A
100
AcDbXrecord
280
1
1000
Arial,10,-1,5,50,0,0,0,0,0
  0
XRECORD
  5
27C
330
24A
100
AcDbXrecord
280
1
1000
TopLeft
  0
XRECORD
  5
27D
330
24A
100
AcDbXrecord
280
1
1000
3.29.6
  0
XRECORD
  5
27E
330
24A
100
AcDbXrecord
280
1
 90
4
  0
XRECORD
  5
280
330
24A
100
AcDbXrecord
280
1
 40
225.5128663174112376
  0
XRECORD
  5
281
330
24A
100
AcDbXrecord
280
1
 40
475.8676363636359952
  0
ENDSEC
  0
EOF
